<svg width="90" height="31" viewBox="0 0 90 31" fill="none" xmlns="http://www.w3.org/2000/svg">
<g filter="url(#filter0_bd_3_2498)">
<path d="M9.70947 0.8125C10.6047 0.8125 11.3737 0.914225 12.0166 1.11768C12.6676 1.32113 13.2129 1.58561 13.6523 1.91113C14.0999 2.23665 14.458 2.60693 14.7266 3.02197C14.9951 3.42887 15.1986 3.84391 15.3369 4.26709C15.4834 4.69027 15.577 5.09717 15.6177 5.48779C15.6665 5.87842 15.6909 6.21615 15.6909 6.50098C15.6909 6.62305 15.6787 6.7736 15.6543 6.95264C15.638 7.12354 15.5688 7.29036 15.4468 7.45312C15.3247 7.61589 15.1294 7.75423 14.8608 7.86816C14.6004 7.9821 14.2261 8.03906 13.7378 8.03906C13.575 8.03906 13.3716 8.03092 13.1274 8.01465C12.8833 7.99023 12.6473 7.93734 12.4194 7.85596C12.1916 7.76644 11.9963 7.64437 11.8335 7.48975C11.6707 7.32699 11.5894 7.10319 11.5894 6.81836C11.5894 6.37891 11.5609 5.98421 11.5039 5.63428C11.4551 5.28434 11.3615 4.9873 11.2231 4.74316C11.0848 4.49902 10.8936 4.31185 10.6494 4.18164C10.4053 4.05143 10.092 3.98633 9.70947 3.98633C9.31071 3.98633 9.00146 4.07178 8.78174 4.24268C8.57015 4.40544 8.41553 4.58447 8.31787 4.77979C8.20394 5.01579 8.13883 5.28027 8.12256 5.57324V13.3125C8.13883 13.6706 8.20394 13.9839 8.31787 14.2524C8.41553 14.4884 8.57015 14.7041 8.78174 14.8994C9.00146 15.0947 9.31071 15.1924 9.70947 15.1924C10.092 15.1924 10.4053 15.1151 10.6494 14.9604C10.8936 14.7977 11.0848 14.582 11.2231 14.3135C11.3615 14.0449 11.4551 13.7357 11.5039 13.3857C11.5609 13.0358 11.5894 12.6696 11.5894 12.2871C11.5894 12.165 11.6097 12.0389 11.6504 11.9087C11.6911 11.7785 11.7847 11.6605 11.9312 11.5547C12.0776 11.4408 12.2933 11.3472 12.5781 11.2739C12.863 11.2007 13.2495 11.1641 13.7378 11.1641C14.2261 11.1641 14.6004 11.221 14.8608 11.335C15.1294 11.4408 15.3247 11.5669 15.4468 11.7134C15.5688 11.8517 15.638 11.9901 15.6543 12.1284C15.6787 12.2586 15.6909 12.3441 15.6909 12.3848C15.6909 13.2799 15.5404 14.0815 15.2393 14.7896C14.9382 15.4894 14.5109 16.0835 13.9575 16.5718C13.4123 17.0601 12.7572 17.4344 11.9922 17.6948C11.2354 17.9471 10.4012 18.0732 9.48975 18.0732C9.34326 18.0732 9.10319 18.061 8.76953 18.0366C8.44401 18.0122 8.0778 17.9471 7.6709 17.8413C7.264 17.7355 6.84489 17.5768 6.41357 17.3652C5.98226 17.1536 5.58757 16.8607 5.22949 16.4863C4.87956 16.1038 4.59066 15.6318 4.36279 15.0703C4.13493 14.5007 4.021 13.8089 4.021 12.9951V6.18359C4.021 5.51628 4.10238 4.92627 4.26514 4.41357C4.4279 3.90088 4.63949 3.45736 4.8999 3.08301C5.16846 2.70052 5.47363 2.38314 5.81543 2.13086C6.15723 1.87044 6.50716 1.65479 6.86523 1.48389C7.69531 1.09326 8.64339 0.869466 9.70947 0.8125ZM19.9243 10.3828C19.9243 9.63411 20.026 8.99935 20.2295 8.47852C20.4329 7.95768 20.6934 7.5223 21.0107 7.17236C21.3363 6.82243 21.6943 6.5498 22.085 6.35449C22.4837 6.15918 22.8743 6.0127 23.2568 5.91504C23.6393 5.81738 23.9933 5.75635 24.3188 5.73193C24.6525 5.70752 24.9129 5.69531 25.1001 5.69531C25.2873 5.69531 25.5436 5.70752 25.8691 5.73193C26.1947 5.75635 26.5405 5.81738 26.9067 5.91504C27.2811 6.0127 27.6554 6.15918 28.0298 6.35449C28.4123 6.5498 28.7541 6.82243 29.0552 7.17236C29.3644 7.5223 29.6167 7.95768 29.812 8.47852C30.0073 8.99935 30.105 9.63411 30.105 10.3828V13.4102C30.105 14.1589 30.0073 14.7936 29.812 15.3145C29.6167 15.8353 29.3644 16.2707 29.0552 16.6206C28.7541 16.9705 28.4123 17.2432 28.0298 17.4385C27.6554 17.6338 27.2811 17.7803 26.9067 17.8779C26.5405 17.9756 26.1947 18.0366 25.8691 18.061C25.5436 18.0854 25.2873 18.0977 25.1001 18.0977C24.9129 18.0977 24.6525 18.0854 24.3188 18.061C23.9933 18.0366 23.6393 17.9756 23.2568 17.8779C22.8743 17.7803 22.4837 17.6338 22.085 17.4385C21.6943 17.2432 21.3363 16.9705 21.0107 16.6206C20.6934 16.2707 20.4329 15.8353 20.2295 15.3145C20.026 14.7936 19.9243 14.1589 19.9243 13.4102V10.3828ZM23.6841 14.2646C23.6922 14.5007 23.7492 14.7082 23.855 14.8872C23.9445 15.05 24.0828 15.1965 24.27 15.3267C24.4653 15.4487 24.742 15.5098 25.1001 15.5098C25.4419 15.5098 25.7023 15.4487 25.8813 15.3267C26.0685 15.1965 26.2069 15.05 26.2964 14.8872C26.394 14.7082 26.451 14.5007 26.4673 14.2646V9.8457C26.451 9.60156 26.394 9.37777 26.2964 9.17432C26.2069 9.01156 26.0685 8.861 25.8813 8.72266C25.7023 8.57617 25.4419 8.50293 25.1001 8.50293C24.742 8.50293 24.4653 8.57617 24.27 8.72266C24.0828 8.861 23.9445 9.01156 23.855 9.17432C23.7492 9.37777 23.6922 9.60156 23.6841 9.8457V14.2646ZM44.6655 15.2412C44.6655 15.583 44.6533 15.9207 44.6289 16.2544C44.6045 16.5799 44.5312 16.8729 44.4092 17.1333C44.2871 17.3937 44.104 17.6053 43.8599 17.7681C43.6157 17.9227 43.2739 18 42.8345 18C42.3869 18 42.0369 17.9268 41.7847 17.7803C41.5324 17.6257 41.3452 17.4425 41.2231 17.231C41.1011 17.0112 41.0238 16.7834 40.9912 16.5474C40.9668 16.3114 40.9546 16.112 40.9546 15.9492C40.8813 16.1852 40.7756 16.4253 40.6372 16.6694C40.507 16.9136 40.3361 17.1333 40.1245 17.3286C39.9129 17.5239 39.6566 17.6867 39.3555 17.8169C39.0625 17.939 38.7166 18 38.3179 18C37.8703 18 37.4227 17.9268 36.9751 17.7803C36.5275 17.6338 36.1247 17.3896 35.7666 17.0479C35.4085 16.7061 35.1156 16.2625 34.8877 15.7173C34.668 15.1639 34.5581 14.4844 34.5581 13.6787V10.1387C34.5581 9.32487 34.668 8.64535 34.8877 8.1001C35.1156 7.54671 35.4085 7.10319 35.7666 6.76953C36.1247 6.42773 36.5275 6.18359 36.9751 6.03711C37.4227 5.89062 37.8703 5.81738 38.3179 5.81738C38.7166 5.81738 39.0625 5.87842 39.3555 6.00049C39.6566 6.12256 39.9129 6.28125 40.1245 6.47656C40.3361 6.67188 40.507 6.8916 40.6372 7.13574C40.7756 7.37988 40.8813 7.62402 40.9546 7.86816V3.69336C40.9546 3.34342 40.9709 3.00163 41.0034 2.66797C41.0441 2.32617 41.1255 2.02913 41.2476 1.77686C41.3778 1.51644 41.5649 1.30892 41.8091 1.1543C42.0614 0.991536 42.4032 0.910156 42.8345 0.910156C43.2414 0.910156 43.5669 0.991536 43.811 1.1543C44.0552 1.30892 44.2383 1.51644 44.3604 1.77686C44.4906 2.02913 44.5719 2.32617 44.6045 2.66797C44.6452 3.00163 44.6655 3.34342 44.6655 3.69336V15.2412ZM38.3179 13.3613C38.3179 13.5811 38.326 13.7967 38.3423 14.0083C38.3586 14.2199 38.4033 14.4111 38.4766 14.582C38.5498 14.7529 38.6556 14.8913 38.7939 14.9971C38.9404 15.0947 39.1398 15.1436 39.3921 15.1436C39.7095 15.1436 39.9658 15.0744 40.1611 14.936C40.3646 14.7896 40.5233 14.5698 40.6372 14.2769C40.7511 13.9757 40.8285 13.6014 40.8691 13.1538C40.918 12.6981 40.9465 12.1569 40.9546 11.5303C40.9546 11.278 40.9302 10.9891 40.8813 10.6636C40.8407 10.3299 40.7633 10.0166 40.6494 9.72363C40.5355 9.43066 40.3768 9.18245 40.1733 8.979C39.9699 8.77555 39.7095 8.67383 39.3921 8.67383C39.1398 8.67383 38.9404 8.72673 38.7939 8.83252C38.6556 8.93018 38.5498 9.06038 38.4766 9.22314C38.4033 9.3859 38.3586 9.57308 38.3423 9.78467C38.326 9.98812 38.3179 10.1956 38.3179 10.4072V13.3613ZM50.3882 8.52734C50.3882 8.18555 50.4045 7.85189 50.437 7.52637C50.4777 7.20085 50.5632 6.91195 50.6934 6.65967C50.8236 6.39925 51.0107 6.19173 51.2549 6.03711C51.499 5.87435 51.8286 5.79297 52.2437 5.79297C52.6587 5.79297 52.9883 5.87435 53.2324 6.03711C53.4766 6.19173 53.6637 6.39925 53.7939 6.65967C53.9242 6.91195 54.0055 7.20085 54.0381 7.52637C54.0788 7.85189 54.0991 8.18555 54.0991 8.52734V15.2656C54.0991 15.6074 54.0788 15.9451 54.0381 16.2788C54.0055 16.6043 53.9242 16.8973 53.7939 17.1577C53.6637 17.41 53.4766 17.6134 53.2324 17.7681C52.9883 17.9227 52.6587 18 52.2437 18C51.8286 18 51.499 17.9227 51.2549 17.7681C51.0107 17.6134 50.8236 17.41 50.6934 17.1577C50.5632 16.8973 50.4777 16.6043 50.437 16.2788C50.4045 15.9451 50.3882 15.6074 50.3882 15.2656V8.52734ZM54.1235 2.76562C54.1235 3.39225 53.9608 3.86019 53.6353 4.16943C53.3097 4.47054 52.854 4.62109 52.2681 4.62109C51.6821 4.62109 51.2264 4.47054 50.9009 4.16943C50.5754 3.86019 50.4126 3.39225 50.4126 2.76562C50.4126 2.11458 50.5754 1.64258 50.9009 1.34961C51.2264 1.05664 51.6821 0.910156 52.2681 0.910156C52.8947 0.910156 53.3586 1.05664 53.6597 1.34961C53.9689 1.64258 54.1235 2.11458 54.1235 2.76562ZM70.4419 15.2168C70.4419 15.5667 70.4215 15.9085 70.3809 16.2422C70.3402 16.5758 70.2507 16.8729 70.1123 17.1333C69.9821 17.3937 69.7909 17.6053 69.5386 17.7681C69.2944 17.9227 68.9608 18 68.5376 18C68.1226 18 67.793 17.9227 67.5488 17.7681C67.3047 17.6053 67.1175 17.3937 66.9873 17.1333C66.8571 16.8729 66.7716 16.5758 66.731 16.2422C66.6984 15.9085 66.6821 15.5667 66.6821 15.2168V10.4561C66.6821 10.2282 66.6699 10.0044 66.6455 9.78467C66.6292 9.56494 66.5845 9.3737 66.5112 9.21094C66.438 9.04004 66.3281 8.90576 66.1816 8.80811C66.0433 8.70231 65.8521 8.64941 65.6079 8.64941C65.2743 8.64941 65.0057 8.75928 64.8022 8.979C64.5988 9.19873 64.436 9.49984 64.314 9.88232C64.2 10.2648 64.1227 10.7165 64.082 11.2373C64.0413 11.75 64.021 12.3034 64.021 12.8975V15.2168C64.021 15.5667 64.0007 15.9085 63.96 16.2422C63.9193 16.5758 63.8298 16.8729 63.6914 17.1333C63.5612 17.3937 63.37 17.6053 63.1177 17.7681C62.8735 17.9227 62.5399 18 62.1167 18C61.7017 18 61.3721 17.9227 61.1279 17.7681C60.8838 17.6053 60.6966 17.3937 60.5664 17.1333C60.4362 16.8729 60.3507 16.5758 60.3101 16.2422C60.2775 15.9085 60.2612 15.5667 60.2612 15.2168V8.55176C60.2612 8.20182 60.2734 7.8641 60.2979 7.53857C60.3223 7.20492 60.3955 6.91195 60.5176 6.65967C60.6396 6.39925 60.8228 6.19173 61.0669 6.03711C61.3192 5.87435 61.6691 5.79297 62.1167 5.79297C62.5643 5.79297 62.9142 5.87028 63.1665 6.0249C63.4188 6.17139 63.606 6.35042 63.728 6.56201C63.8582 6.7736 63.9396 6.9974 63.9722 7.2334C64.0047 7.4694 64.021 7.67285 64.021 7.84375C64.0861 7.60775 64.1878 7.36768 64.3262 7.12354C64.4645 6.87939 64.6395 6.65967 64.8511 6.46436C65.0708 6.26904 65.3312 6.11035 65.6323 5.98828C65.9334 5.85807 66.2834 5.79297 66.6821 5.79297C67.1297 5.79297 67.5773 5.86621 68.0249 6.0127C68.4725 6.15918 68.8753 6.40332 69.2334 6.74512C69.5915 7.08691 69.8804 7.53451 70.1001 8.08789C70.328 8.64128 70.4419 9.32487 70.4419 10.1387V15.2168ZM85.6128 18.3662C85.6128 19.0986 85.5111 19.7171 85.3076 20.2217C85.1123 20.7262 84.86 21.1453 84.5508 21.479C84.2415 21.8127 83.8957 22.0731 83.5132 22.2603C83.1388 22.4474 82.7686 22.5858 82.4023 22.6753C82.0443 22.7729 81.7147 22.8299 81.4136 22.8462C81.1125 22.8706 80.8846 22.8828 80.73 22.8828C80.1522 22.8828 79.5744 22.8421 78.9966 22.7607C78.4188 22.6794 77.8898 22.5288 77.4097 22.3091C76.9377 22.0894 76.543 21.7923 76.2256 21.418C75.9163 21.0436 75.7414 20.5635 75.7007 19.9775C75.7007 19.8799 75.717 19.77 75.7495 19.6479C75.7821 19.5259 75.8553 19.4079 75.9692 19.2939C76.0832 19.1882 76.2541 19.0946 76.4819 19.0132C76.7098 18.9399 77.019 18.9033 77.4097 18.9033C77.8817 18.9033 78.2438 18.9399 78.4961 19.0132C78.7484 19.0946 78.9355 19.1882 79.0576 19.2939C79.1797 19.4079 79.257 19.5259 79.2896 19.6479C79.3302 19.7782 79.3709 19.8962 79.4116 20.002C79.4767 20.1729 79.6029 20.2909 79.79 20.356C79.9854 20.4292 80.2498 20.4658 80.5835 20.4658C80.8846 20.4658 81.1206 20.3966 81.2915 20.2583C81.4705 20.12 81.6048 19.9531 81.6943 19.7578C81.7839 19.5706 81.8408 19.3753 81.8652 19.1719C81.8896 18.9766 81.9019 18.8138 81.9019 18.6836V15.9492C81.8286 16.1934 81.7228 16.4375 81.5845 16.6816C81.4543 16.9258 81.2834 17.1455 81.0718 17.3408C80.8602 17.5361 80.6038 17.6948 80.3027 17.8169C80.0098 17.939 79.6639 18 79.2651 18C78.8175 18 78.37 17.9268 77.9224 17.7803C77.4748 17.6338 77.0679 17.3937 76.7017 17.0601C76.3436 16.7183 76.0506 16.2707 75.8228 15.7173C75.5949 15.1639 75.481 14.4762 75.481 13.6543V10.1143C75.481 9.30859 75.5949 8.63314 75.8228 8.08789C76.0506 7.53451 76.3436 7.08691 76.7017 6.74512C77.0679 6.40332 77.4748 6.15918 77.9224 6.0127C78.37 5.86621 78.8175 5.79297 79.2651 5.79297C79.6639 5.79297 80.0098 5.85807 80.3027 5.98828C80.6038 6.11035 80.8602 6.26904 81.0718 6.46436C81.2834 6.65967 81.4543 6.87939 81.5845 7.12354C81.7228 7.36768 81.8286 7.60775 81.9019 7.84375C81.9019 7.68099 81.9141 7.48161 81.9385 7.24561C81.971 7.0096 82.0483 6.78581 82.1704 6.57422C82.2925 6.35449 82.4797 6.17139 82.7319 6.0249C82.9842 5.87028 83.3341 5.79297 83.7817 5.79297C84.2212 5.79297 84.563 5.87435 84.8071 6.03711C85.0513 6.19173 85.2344 6.39925 85.3564 6.65967C85.4785 6.92008 85.5518 7.21712 85.5762 7.55078C85.6006 7.8763 85.6128 8.20996 85.6128 8.55176V18.3662ZM79.2651 13.3857C79.2651 13.5973 79.2733 13.8089 79.2896 14.0205C79.3058 14.2321 79.3506 14.4233 79.4238 14.5942C79.4971 14.757 79.6029 14.8913 79.7412 14.9971C79.8877 15.0947 80.0871 15.1436 80.3394 15.1436C80.6567 15.1436 80.9172 15.0418 81.1206 14.8384C81.3241 14.6349 81.4827 14.3867 81.5967 14.0938C81.7106 13.7926 81.7879 13.4793 81.8286 13.1538C81.8774 12.8201 81.9019 12.5231 81.9019 12.2627C81.8937 11.6442 81.8652 11.1071 81.8164 10.6514C81.7757 10.1956 81.6984 9.82129 81.5845 9.52832C81.4705 9.22721 81.3118 9.00749 81.1084 8.86914C80.9131 8.72266 80.6567 8.64941 80.3394 8.64941C80.0871 8.64941 79.8877 8.70231 79.7412 8.80811C79.6029 8.90576 79.4971 9.04004 79.4238 9.21094C79.3506 9.38184 79.3058 9.57308 79.2896 9.78467C79.2733 9.99626 79.2651 10.2119 79.2651 10.4316V13.3857Z" fill="#9B3B3B"/>
<path d="M9.70947 0.8125V-0.1875H9.68277L9.65611 -0.186075L9.70947 0.8125ZM12.0166 1.11768L11.7149 2.07108L11.7183 2.07216L12.0166 1.11768ZM13.6523 1.91113L13.0571 2.71472L13.0642 2.71987L13.6523 1.91113ZM14.7266 3.02197L13.887 3.56525L13.892 3.57281L14.7266 3.02197ZM15.3369 4.26709L14.3864 4.57783L14.3891 4.58604L14.3919 4.5942L15.3369 4.26709ZM15.6177 5.48779L14.6231 5.5914L14.6241 5.60163L14.6254 5.61183L15.6177 5.48779ZM15.6543 6.95264L14.6635 6.81752L14.6607 6.83763L14.6588 6.85783L15.6543 6.95264ZM14.8608 7.86816L14.4703 6.94752L14.46 6.95201L14.8608 7.86816ZM13.1274 8.01465L13.0279 9.00969L13.0444 9.01133L13.0609 9.01243L13.1274 8.01465ZM12.4194 7.85596L12.0538 8.78671L12.0684 8.79243L12.0831 8.7977L12.4194 7.85596ZM11.8335 7.48975L11.1264 8.19685L11.1355 8.20592L11.1447 8.21475L11.8335 7.48975ZM11.5039 5.63428L10.5135 5.77247L10.5151 5.78373L10.5169 5.79495L11.5039 5.63428ZM8.78174 4.24268L9.39146 5.03531L9.39568 5.03203L8.78174 4.24268ZM8.31787 4.77979L7.42336 4.33253L7.41732 4.34504L8.31787 4.77979ZM8.12256 5.57324L7.1241 5.51777L7.12256 5.54549V5.57324H8.12256ZM8.12256 13.3125H7.12256V13.3352L7.12359 13.3579L8.12256 13.3125ZM8.31787 14.2524L9.24192 13.8701L9.23845 13.8619L8.31787 14.2524ZM8.78174 14.8994L8.10346 15.6342L8.11036 15.6406L8.11737 15.6468L8.78174 14.8994ZM10.6494 14.9604L11.1845 15.8053L11.1944 15.799L11.2041 15.7925L10.6494 14.9604ZM11.5039 13.3857L10.5169 13.2251L10.5151 13.2363L10.5135 13.2475L11.5039 13.3857ZM11.9312 11.5547L12.5166 12.3654L12.5311 12.355L12.5451 12.344L11.9312 11.5547ZM14.8608 11.335L14.46 12.2511L14.477 12.2586L14.4943 12.2654L14.8608 11.335ZM15.4468 11.7134L14.6786 12.3536L14.6876 12.3644L14.6969 12.375L15.4468 11.7134ZM15.6543 12.1284L14.6611 12.2453L14.6651 12.2792L14.6714 12.3127L15.6543 12.1284ZM15.2393 14.7896L16.1579 15.1848L16.1595 15.1809L15.2393 14.7896ZM13.9575 16.5718L13.2959 15.8219L13.2904 15.8268L13.9575 16.5718ZM11.9922 17.6948L12.3084 18.6435L12.3145 18.6415L11.9922 17.6948ZM8.76953 18.0366L8.69474 19.0338L8.69656 19.034L8.76953 18.0366ZM5.22949 16.4863L4.49169 17.1613L4.49918 17.1695L4.50685 17.1776L5.22949 16.4863ZM4.36279 15.0703L3.4343 15.4417L3.43618 15.4463L4.36279 15.0703ZM4.8999 3.08301L4.08148 2.50837L4.079 2.51194L4.8999 3.08301ZM5.81543 2.13086L6.40928 2.93543L6.41541 2.93091L6.42147 2.92629L5.81543 2.13086ZM6.86523 1.48389L6.43943 0.579055L6.4345 0.581406L6.86523 1.48389ZM9.70947 1.8125C10.5337 1.8125 11.1956 1.90673 11.7149 2.07108L12.3183 0.164276C11.5518 -0.0782808 10.6756 -0.1875 9.70947 -0.1875V1.8125ZM11.7183 2.07216C12.2879 2.25016 12.7266 2.46986 13.0571 2.71469L14.2476 1.10758C13.6992 0.701367 13.0473 0.392092 12.3149 0.163196L11.7183 2.07216ZM13.0642 2.71987C13.4242 2.9817 13.6927 3.26498 13.887 3.56522L15.5661 2.47872C15.2233 1.94889 14.7757 1.49161 14.2405 1.1024L13.0642 2.71987ZM13.892 3.57281C14.116 3.91222 14.2783 4.24713 14.3864 4.57783L16.2874 3.95635C16.1188 3.4407 15.8743 2.94553 15.5612 2.47113L13.892 3.57281ZM14.3919 4.5942C14.5168 4.95491 14.5913 5.28668 14.6231 5.5914L16.6123 5.38419C16.5627 4.90766 16.45 4.42562 16.2819 3.93998L14.3919 4.5942ZM14.6254 5.61183C14.6709 5.97561 14.6909 6.26988 14.6909 6.50098H16.6909C16.6909 6.16241 16.6621 5.78123 16.61 5.36376L14.6254 5.61183ZM14.6909 6.50098C14.6909 6.56199 14.6844 6.66418 14.6635 6.81752L16.6451 7.08775C16.673 6.88302 16.6909 6.6841 16.6909 6.50098H14.6909ZM14.6588 6.85783C14.6596 6.84907 14.6611 6.84125 14.6627 6.83476C14.6643 6.82833 14.6659 6.82431 14.6665 6.82292C14.6676 6.8201 14.6639 6.83033 14.6468 6.85313L16.2468 8.05312C16.4586 7.77068 16.6131 7.43299 16.6498 7.04745L14.6588 6.85783ZM14.6468 6.85313C14.6579 6.83824 14.6582 6.84348 14.6307 6.86293C14.6027 6.88278 14.5523 6.91279 14.4703 6.94758L15.2514 8.78875C15.6159 8.63409 15.9827 8.40523 16.2468 8.05312L14.6468 6.85313ZM14.46 6.95201C14.3858 6.9845 14.1732 7.03906 13.7378 7.03906V9.03906C14.279 9.03906 14.8151 8.97969 15.2617 8.78432L14.46 6.95201ZM13.7378 7.03906C13.6053 7.03906 13.4258 7.03232 13.194 7.01686L13.0609 9.01243C13.3174 9.02953 13.5448 9.03906 13.7378 9.03906V7.03906ZM13.2269 7.01961C13.0625 7.00316 12.9061 6.96789 12.7558 6.91422L12.0831 8.7977C12.3885 8.90678 12.7041 8.9773 13.0279 9.00969L13.2269 7.01961ZM12.7851 6.92521C12.6663 6.87852 12.5834 6.82287 12.5222 6.76475L11.1447 8.21475C11.4091 8.46586 11.7169 8.65435 12.0538 8.78671L12.7851 6.92521ZM12.5406 6.78264C12.5519 6.79398 12.5628 6.80747 12.5722 6.82224C12.5814 6.83691 12.5871 6.84956 12.5902 6.85809C12.5963 6.87484 12.5894 6.86647 12.5894 6.81836H10.5894C10.5894 7.30167 10.7337 7.80412 11.1264 8.19685L12.5406 6.78264ZM12.5894 6.81836C12.5894 6.33727 12.5583 5.88746 12.4909 5.4736L10.5169 5.79495C10.5635 6.08096 10.5894 6.42054 10.5894 6.81836H12.5894ZM12.4943 5.49608C12.4324 5.05243 12.3074 4.62827 12.0932 4.25015L10.3531 5.23618C10.4155 5.34634 10.4777 5.51625 10.5135 5.77247L12.4943 5.49608ZM12.0932 4.25015C11.8627 3.84345 11.534 3.52009 11.12 3.29929L10.1788 5.06399C10.2531 5.1036 10.3069 5.1546 10.3531 5.23618L12.0932 4.25015ZM11.12 3.29929C10.6863 3.06799 10.1966 2.98633 9.70947 2.98633V4.98633C9.98734 4.98633 10.1242 5.03488 10.1788 5.06399L11.12 3.29929ZM9.70947 2.98633C9.1818 2.98633 8.6248 3.09788 8.1678 3.45332L9.39568 5.03203C9.37813 5.04567 9.43962 4.98633 9.70947 4.98633V2.98633ZM8.17203 3.45005C7.86682 3.68483 7.60204 3.97537 7.42344 4.33257L9.2123 5.227C9.22901 5.19357 9.27348 5.12604 9.39145 5.0353L8.17203 3.45005ZM7.41732 4.34504C7.23959 4.71319 7.14681 5.1089 7.1241 5.51777L9.12102 5.62871C9.13086 5.45165 9.16829 5.31839 9.21842 5.21453L7.41732 4.34504ZM7.12256 5.57324V13.3125H9.12256V5.57324H7.12256ZM7.12359 13.3579C7.14407 13.8085 7.22765 14.2431 7.39729 14.643L9.23845 13.8619C9.18022 13.7246 9.1336 13.5326 9.12153 13.2671L7.12359 13.3579ZM7.39385 14.6348C7.55359 15.0208 7.799 15.3532 8.10346 15.6342L9.46002 14.1646C9.3413 14.055 9.27747 13.9561 9.24189 13.8701L7.39385 14.6348ZM8.11737 15.6468C8.57674 16.0551 9.15388 16.1924 9.70947 16.1924V14.1924C9.46754 14.1924 9.42619 14.1343 9.4461 14.152L8.11737 15.6468ZM9.70947 16.1924C10.2215 16.1924 10.7362 16.0891 11.1845 15.8053L10.1144 14.1156C10.0743 14.141 9.96243 14.1924 9.70947 14.1924V16.1924ZM11.2041 15.7925C11.594 15.5326 11.8983 15.1864 12.1121 14.7714L10.3342 13.8555C10.2713 13.9777 10.1932 14.0628 10.0947 14.1284L11.2041 15.7925ZM12.1121 14.7714C12.31 14.3874 12.4325 13.9669 12.4943 13.5239L10.5135 13.2475C10.4777 13.5045 10.413 13.7024 10.3342 13.8555L12.1121 14.7714ZM12.4909 13.5464C12.5572 13.1394 12.5894 12.7192 12.5894 12.2871H10.5894C10.5894 12.62 10.5646 12.9322 10.5169 13.2251L12.4909 13.5464ZM12.5894 12.2871C12.5894 12.2773 12.5909 12.2518 12.6049 12.207L10.6959 11.6104C10.6286 11.826 10.5894 12.0528 10.5894 12.2871H12.5894ZM12.6049 12.207C12.563 12.3408 12.4887 12.3855 12.5166 12.3654L11.3457 10.744C11.0806 10.9354 10.8191 11.2161 10.6959 11.6104L12.6049 12.207ZM12.5451 12.344C12.5372 12.3502 12.5506 12.3382 12.6009 12.3164C12.6502 12.295 12.7237 12.269 12.8272 12.2424L12.3291 10.3054C11.9805 10.3951 11.6165 10.5326 11.3172 10.7653L12.5451 12.344ZM12.8272 12.2424C12.9949 12.1993 13.2861 12.1641 13.7378 12.1641V10.1641C13.2129 10.1641 12.7311 10.2021 12.3291 10.3054L12.8272 12.2424ZM13.7378 12.1641C14.1732 12.1641 14.3858 12.2186 14.46 12.2511L15.2617 10.4188C14.8151 10.2234 14.279 10.1641 13.7378 10.1641V12.1641ZM14.4943 12.2654C14.5812 12.2996 14.6355 12.3291 14.6662 12.349C14.6969 12.3688 14.6946 12.3728 14.6786 12.3536L16.215 11.0732C15.9442 10.7482 15.5784 10.5428 15.2274 10.4046L14.4943 12.2654ZM14.6969 12.375C14.7275 12.4096 14.6753 12.3653 14.6611 12.2453L16.6474 12.0116C16.6008 11.6149 16.4102 11.2939 16.1966 11.0518L14.6969 12.375ZM14.6714 12.3127C14.6822 12.3702 14.6885 12.4086 14.6918 12.4316C14.6934 12.4429 14.6936 12.4458 14.6933 12.4422C14.6931 12.4401 14.6926 12.4346 14.6921 12.4261C14.6916 12.4181 14.6909 12.4037 14.6909 12.3848H16.6909C16.6909 12.2338 16.6576 12.0532 16.6372 11.9441L14.6714 12.3127ZM14.6909 12.3848C14.6909 13.1672 14.5596 13.8325 14.319 14.3982L16.1595 15.1809C16.5211 14.3306 16.6909 13.3927 16.6909 12.3848H14.6909ZM14.3207 14.3943C14.076 14.963 13.7348 15.4346 13.2959 15.8219L14.6191 17.3216C15.287 16.7324 15.8003 16.0159 16.1578 15.1848L14.3207 14.3943ZM13.2904 15.8268C12.8553 16.2164 12.3209 16.5266 11.6699 16.7482L12.3145 18.6415C13.1935 18.3422 13.9692 17.9037 14.6246 17.3167L13.2904 15.8268ZM11.676 16.7461C11.0345 16.96 10.3088 17.0732 9.48975 17.0732V19.0732C10.4936 19.0732 11.4362 18.9342 12.3084 18.6435L11.676 16.7461ZM9.48975 17.0732C9.38294 17.0732 9.1746 17.0636 8.84251 17.0393L8.69656 19.034C9.03178 19.0585 9.30358 19.0732 9.48975 19.0732V17.0732ZM8.84432 17.0394C8.59268 17.0205 8.28708 16.9683 7.92253 16.8735L7.41926 18.8091C7.86852 18.9259 8.29534 19.0039 8.69474 19.0338L8.84432 17.0394ZM7.92253 16.8735C7.58921 16.7868 7.23328 16.6535 6.854 16.4674L5.97315 18.263C6.4565 18.5001 6.93879 18.6842 7.41926 18.8091L7.92253 16.8735ZM6.854 16.4674C6.53614 16.3115 6.23538 16.0912 5.95213 15.7951L4.50685 17.1776C4.93975 17.6301 5.42838 17.9958 5.97315 18.263L6.854 16.4674ZM5.9673 15.8113C5.70986 15.5299 5.48 15.164 5.28941 14.6943L3.43618 15.4463C3.70131 16.0997 4.04926 16.6778 4.49169 17.1613L5.9673 15.8113ZM5.29127 14.6989C5.12332 14.279 5.021 13.7209 5.021 12.9951H3.021C3.021 13.8969 3.14654 14.7223 3.43432 15.4417L5.29127 14.6989ZM5.021 12.9951V6.18359H3.021V12.9951H5.021ZM5.021 6.18359C5.021 5.5953 5.09299 5.11075 5.21826 4.71615L3.31201 4.111C3.11176 4.74179 3.021 5.43725 3.021 6.18359H5.021ZM5.21826 4.71615C5.35596 4.28239 5.52689 3.93283 5.72081 3.65407L4.079 2.51194C3.75208 2.98188 3.49983 3.51936 3.31201 4.111L5.21826 4.71615ZM5.71832 3.65764C5.93107 3.35462 6.16248 3.11759 6.40928 2.93543L5.22158 1.32629C4.78478 1.64868 4.40584 2.04642 4.08149 2.50838L5.71832 3.65764ZM6.42147 2.92629C6.71314 2.70407 7.00473 2.52537 7.29596 2.38637L6.4345 0.581406C6.0096 0.784203 5.60132 1.03681 5.20939 1.33543L6.42147 2.92629ZM7.29103 2.38871C7.98668 2.06134 8.80494 1.86226 9.76283 1.81108L9.65611 -0.186075C8.48184 -0.123328 7.40395 0.12518 6.43944 0.579068L7.29103 2.38871ZM21.0107 7.17236L20.2785 6.49121L20.27 6.50055L21.0107 7.17236ZM22.085 6.35449L21.6451 5.4564L21.6377 5.46006L22.085 6.35449ZM24.3188 5.73193L24.2459 4.7346L24.2441 4.73473L24.3188 5.73193ZM26.9067 5.91504L26.6491 6.88129L26.6543 6.88266L26.9067 5.91504ZM28.0298 6.35449L27.5672 7.24111L27.575 7.2451L28.0298 6.35449ZM29.0552 7.17236L28.2971 7.82466L28.3058 7.83456L29.0552 7.17236ZM29.0552 16.6206L28.3058 15.9583L28.2972 15.9684L29.0552 16.6206ZM28.0298 17.4385L27.575 16.5478L27.5672 16.5519L28.0298 17.4385ZM26.9067 17.8779L26.6543 16.9103L26.6491 16.9117L26.9067 17.8779ZM24.3188 18.061L24.2441 19.0582L24.2459 19.0584L24.3188 18.061ZM22.085 17.4385L21.6377 18.3329L21.6451 18.3365L22.085 17.4385ZM21.0107 16.6206L20.27 17.2925L20.2786 17.3017L21.0107 16.6206ZM20.2295 15.3145L19.298 15.6783L20.2295 15.3145ZM23.6841 14.2646H22.6841V14.2819L22.6847 14.2991L23.6841 14.2646ZM23.855 14.8872L24.7312 14.4053L24.7238 14.3918L24.7159 14.3785L23.855 14.8872ZM24.27 15.3267L23.699 16.1476L23.7192 16.1616L23.74 16.1747L24.27 15.3267ZM25.8813 15.3267L26.4447 16.1529L26.4524 16.1476L25.8813 15.3267ZM26.2964 14.8872L27.1726 15.3691L27.1743 15.3661L26.2964 14.8872ZM26.4673 14.2646L27.4649 14.3335L27.4673 14.2991V14.2646H26.4673ZM26.4673 9.8457H27.4673V9.81241L27.4651 9.77918L26.4673 9.8457ZM26.2964 9.17432L27.1979 8.74159L27.1859 8.71664L27.1726 8.6924L26.2964 9.17432ZM25.8813 8.72266L25.2481 9.49661L25.2672 9.5122L25.287 9.52683L25.8813 8.72266ZM24.27 8.72266L24.8644 9.52685L24.87 9.52266L24.27 8.72266ZM23.855 9.17432L22.9788 8.6924L22.9731 8.70262L22.9678 8.71296L23.855 9.17432ZM23.6841 9.8457L22.6846 9.81239L22.6841 9.82904V9.8457H23.6841ZM20.9243 10.3828C20.9243 9.7189 21.0153 9.21525 21.1609 8.84237L19.298 8.11467C19.0368 8.78345 18.9243 9.54933 18.9243 10.3828H20.9243ZM21.1609 8.84237C21.3281 8.41457 21.5294 8.08903 21.7515 7.84418L20.27 6.50055C19.8573 6.95557 19.5378 7.5008 19.298 8.11467L21.1609 8.84237ZM21.7429 7.85347C21.9947 7.58285 22.2582 7.38591 22.5322 7.24892L21.6377 5.46006C21.1305 5.7137 20.6779 6.06201 20.2786 6.49126L21.7429 7.85347ZM22.5248 7.25255C22.8695 7.08372 23.1958 6.96271 23.5042 6.88396L23.0095 4.94612C22.5529 5.06269 22.0979 5.23464 21.6451 5.45643L22.5248 7.25255ZM23.5042 6.88396C23.8414 6.79787 24.1369 6.74839 24.3936 6.72913L24.2441 4.73473C23.8497 4.76431 23.4372 4.8369 23.0095 4.94612L23.5042 6.88396ZM24.3918 6.72927C24.7169 6.70548 24.9491 6.69531 25.1001 6.69531V4.69531C24.8767 4.69531 24.5881 4.70956 24.2459 4.7346L24.3918 6.72927ZM25.1001 6.69531C25.2506 6.69531 25.4784 6.70543 25.7944 6.72913L25.9439 4.73473C25.6089 4.7096 25.3239 4.69531 25.1001 4.69531V6.69531ZM25.7944 6.72913C26.0492 6.74824 26.3334 6.7971 26.6491 6.88127L27.1644 4.9488C26.7476 4.83767 26.3402 4.76445 25.9439 4.73473L25.7944 6.72913ZM26.6543 6.88266C26.9495 6.95966 27.2536 7.07746 27.5672 7.24108L28.4924 5.46791C28.0573 5.2409 27.6127 5.06573 27.1592 4.94742L26.6543 6.88266ZM27.575 7.2451C27.8335 7.37708 28.0743 7.56561 28.2972 7.82461L29.8132 6.52012C29.4338 6.07925 28.9911 5.72253 28.4846 5.46389L27.575 7.2451ZM28.3058 7.83456C28.5205 8.07744 28.7152 8.40171 28.8757 8.82964L30.7483 8.12739C30.5182 7.51365 30.2084 6.96716 29.8045 6.51017L28.3058 7.83456ZM28.8757 8.82964C29.0171 9.20678 29.105 9.71513 29.105 10.3828H31.105C31.105 9.5531 30.9975 8.79192 30.7483 8.12739L28.8757 8.82964ZM29.105 10.3828V13.4102H31.105V10.3828H29.105ZM29.105 13.4102C29.105 14.0778 29.0171 14.5862 28.8757 14.9633L30.7483 15.6656C30.9975 15.001 31.105 14.2399 31.105 13.4102H29.105ZM28.8757 14.9633C28.7152 15.3913 28.5205 15.7155 28.3058 15.9584L29.8045 17.2828C30.2084 16.8258 30.5182 16.2793 30.7483 15.6656L28.8757 14.9633ZM28.2972 15.9684C28.0743 16.2274 27.8335 16.4159 27.575 16.5479L28.4846 18.3291C28.9911 18.0704 29.4338 17.7137 29.8132 17.2728L28.2972 15.9684ZM27.5672 16.5519C27.2536 16.7155 26.9495 16.8333 26.6543 16.9103L27.1592 18.8455C27.6127 18.7272 28.0573 18.5521 28.4924 18.3251L27.5672 16.5519ZM26.6491 16.9117C26.3334 16.9959 26.0492 17.0447 25.7944 17.0638L25.9439 19.0582C26.3402 19.0285 26.7476 18.9553 27.1644 18.8442L26.6491 16.9117ZM25.7944 17.0638C25.4784 17.0875 25.2506 17.0977 25.1001 17.0977V19.0977C25.3239 19.0977 25.6089 19.0834 25.9439 19.0582L25.7944 17.0638ZM25.1001 17.0977C24.9491 17.0977 24.7169 17.0875 24.3918 17.0637L24.2459 19.0584C24.5881 19.0834 24.8767 19.0977 25.1001 19.0977V17.0977ZM24.3936 17.0638C24.1369 17.0446 23.8414 16.9951 23.5042 16.909L23.0095 18.8468C23.4372 18.9561 23.8497 19.0287 24.2441 19.0582L24.3936 17.0638ZM23.5042 16.909C23.1958 16.8303 22.8695 16.7092 22.5248 16.5404L21.6451 18.3365C22.0979 18.5583 22.5529 18.7303 23.0095 18.8468L23.5042 16.909ZM22.5322 16.544C22.2582 16.4071 21.9947 16.2101 21.7429 15.9395L20.2786 17.3017C20.6779 17.731 21.1305 18.0793 21.6377 18.3329L22.5322 16.544ZM21.7515 15.9488C21.5294 15.7039 21.3281 15.3784 21.1609 14.9506L19.298 15.6783C19.5378 16.2922 19.8573 16.8374 20.27 17.2924L21.7515 15.9488ZM21.1609 14.9506C21.0153 14.5777 20.9243 14.0741 20.9243 13.4102H18.9243C18.9243 14.2436 19.0368 15.0095 19.298 15.6783L21.1609 14.9506ZM20.9243 13.4102V10.3828H18.9243V13.4102H20.9243ZM22.6847 14.2991C22.6978 14.6793 22.7922 15.0543 22.9941 15.3959L24.7159 14.3785C24.7062 14.362 24.6867 14.322 24.6835 14.2302L22.6847 14.2991ZM22.9788 15.3691C23.1575 15.6941 23.4136 15.949 23.699 16.1476L24.8411 14.5058C24.7521 14.4439 24.7315 14.4058 24.7312 14.4053L22.9788 15.3691ZM23.74 16.1747C24.1594 16.4368 24.6502 16.5098 25.1001 16.5098V14.5098C24.9755 14.5098 24.8914 14.4989 24.8394 14.4875C24.7878 14.4761 24.7815 14.4671 24.8 14.4787L23.74 16.1747ZM25.1001 16.5098C25.5359 16.5098 26.029 16.4363 26.4447 16.1529L25.318 14.5004C25.3509 14.478 25.3611 14.4816 25.3236 14.4904C25.2855 14.4993 25.2143 14.5098 25.1001 14.5098V16.5098ZM26.4524 16.1476C26.7378 15.949 26.9939 15.6941 27.1726 15.3691L25.4202 14.4053C25.4199 14.4058 25.3992 14.4439 25.3103 14.5058L26.4524 16.1476ZM27.1743 15.3661C27.3511 15.0419 27.4403 14.6903 27.4649 14.3335L25.4697 14.1958C25.4617 14.311 25.437 14.3745 25.4185 14.4084L27.1743 15.3661ZM27.4673 14.2646V9.8457H25.4673V14.2646H27.4673ZM27.4651 9.77918C27.441 9.41873 27.3552 9.06921 27.1979 8.74159L25.3949 9.60705C25.4329 9.68633 25.461 9.7844 25.4695 9.91222L27.4651 9.77918ZM27.1726 8.6924C26.9982 8.37536 26.7505 8.12156 26.4757 7.91848L25.287 9.52683C25.3865 9.60044 25.4155 9.64775 25.4202 9.65624L27.1726 8.6924ZM26.5146 7.9487C26.0889 7.60042 25.5662 7.50293 25.1001 7.50293V9.50293C25.2023 9.50293 25.2585 9.51418 25.281 9.52051C25.3009 9.5261 25.2817 9.52406 25.2481 9.49661L26.5146 7.9487ZM25.1001 7.50293C24.6225 7.50293 24.1025 7.59829 23.67 7.92266L24.87 9.52266C24.8486 9.53869 24.8448 9.53385 24.8799 9.52457C24.917 9.51476 24.9868 9.50293 25.1001 9.50293V7.50293ZM23.6756 7.91848C23.4009 8.12156 23.1531 8.37536 22.9788 8.6924L24.7312 9.65624C24.7359 9.64775 24.7648 9.60044 24.8644 9.52683L23.6756 7.91848ZM22.9678 8.71296C22.7886 9.05748 22.6974 9.42893 22.6846 9.81239L24.6835 9.87902C24.687 9.7742 24.7098 9.69805 24.7422 9.63567L22.9678 8.71296ZM22.6841 9.8457V14.2646H24.6841V9.8457H22.6841ZM44.6289 16.2544L45.6261 16.3292L45.6262 16.3274L44.6289 16.2544ZM43.8599 17.7681L44.3949 18.6129L44.4048 18.6066L44.4146 18.6001L43.8599 17.7681ZM41.7847 17.7803L41.2621 18.6329L41.2722 18.6391L41.2825 18.6451L41.7847 17.7803ZM41.2231 17.231L40.349 17.7166L40.3529 17.7237L40.357 17.7307L41.2231 17.231ZM40.9912 16.5474L39.9965 16.6503L39.9983 16.6672L40.0006 16.684L40.9912 16.5474ZM40.9546 15.9492H41.9546L39.9995 15.6528L40.9546 15.9492ZM40.6372 16.6694L39.7672 16.1764L39.7609 16.1876L39.7549 16.1988L40.6372 16.6694ZM39.3555 17.8169L39.7401 18.7401L39.7524 18.7348L39.3555 17.8169ZM35.7666 17.0479L35.0761 17.7712L35.7666 17.0479ZM34.8877 15.7173L33.9583 16.0863L33.9616 16.0946L33.965 16.1029L34.8877 15.7173ZM34.8877 8.1001L33.963 7.71934L33.9602 7.72632L34.8877 8.1001ZM35.7666 6.76953L36.4484 7.50119L36.4571 7.49289L35.7666 6.76953ZM39.3555 6.00049L38.9708 6.92361L38.9798 6.92723L39.3555 6.00049ZM40.6372 7.13574L39.7549 7.60633L39.7609 7.61762L39.7672 7.62875L40.6372 7.13574ZM40.9546 7.86816L39.9968 8.15551L41.9546 7.86816H40.9546ZM41.0034 2.66797L40.0104 2.54976L40.0092 2.5603L40.0081 2.57087L41.0034 2.66797ZM41.2476 1.77686L40.3531 1.3296L40.3474 1.34129L41.2476 1.77686ZM41.8091 1.1543L42.3442 1.99915L42.3512 1.99459L41.8091 1.1543ZM43.811 1.1543L43.2563 1.98635L43.2661 1.99285L43.276 1.99912L43.811 1.1543ZM44.3604 1.77686L43.4549 2.20129L43.463 2.21855L43.4717 2.2355L44.3604 1.77686ZM44.6045 2.66797L43.609 2.76278L43.6102 2.77592L43.6118 2.78902L44.6045 2.66797ZM38.7939 14.9971L38.1865 15.7914L38.2123 15.8111L38.2392 15.8291L38.7939 14.9971ZM40.1611 14.936L40.7392 15.7521L40.7454 15.7476L40.1611 14.936ZM40.6372 14.2769L41.5693 14.6393L41.5725 14.6307L40.6372 14.2769ZM40.8691 13.1538L39.8748 13.0473L39.874 13.0553L39.8732 13.0633L40.8691 13.1538ZM40.9546 11.5303L41.9546 11.5433V11.5303H40.9546ZM40.8813 10.6636L39.8887 10.7846L39.8904 10.7983L39.8924 10.8119L40.8813 10.6636ZM38.7939 8.83252L39.3707 9.64954L39.3794 9.6432L38.7939 8.83252ZM38.3423 9.78467L39.3391 9.86441L39.3393 9.86136L38.3423 9.78467ZM43.6655 15.2412C43.6655 15.5592 43.6542 15.8726 43.6316 16.1814L45.6262 16.3274C45.6525 15.9689 45.6655 15.6068 45.6655 15.2412H43.6655ZM43.6317 16.1796C43.6152 16.4002 43.5678 16.5723 43.5037 16.7089L45.3146 17.5577C45.4947 17.1735 45.5938 16.7597 45.6261 16.3292L43.6317 16.1796ZM43.5037 16.7089C43.4608 16.8005 43.4006 16.8724 43.3052 16.936L44.4146 18.6001C44.8074 18.3382 45.1134 17.987 45.3146 17.5577L43.5037 16.7089ZM43.3248 16.9232C43.3036 16.9367 43.1761 17 42.8345 17V19C43.3718 19 43.9278 18.9087 44.3949 18.6129L43.3248 16.9232ZM42.8345 17C42.4767 17 42.326 16.9382 42.2868 16.9155L41.2825 18.6451C41.7479 18.9153 42.297 19 42.8345 19V17ZM42.3072 16.9277C42.1673 16.8419 42.1122 16.7708 42.0893 16.7312L40.357 17.7307C40.5782 18.1142 40.8975 18.4094 41.2621 18.6329L42.3072 16.9277ZM42.0973 16.7453C42.032 16.6277 41.9966 16.5175 41.9818 16.4107L40.0006 16.684C40.051 17.0492 40.1702 17.3948 40.349 17.7166L42.0973 16.7453ZM41.9859 16.4445C41.9636 16.2287 41.9546 16.066 41.9546 15.9492H39.9546C39.9546 16.158 39.97 16.394 39.9965 16.6503L41.9859 16.4445ZM39.9995 15.6528C39.9501 15.8119 39.8749 15.9864 39.7672 16.1764L41.5072 17.1624C41.6762 16.8642 41.8126 16.5585 41.9097 16.2456L39.9995 15.6528ZM39.7549 16.1988C39.6795 16.3401 39.5789 16.4714 39.4462 16.5938L40.8028 18.0634C41.0933 17.7952 41.3345 17.487 41.5196 17.14L39.7549 16.1988ZM39.4462 16.5938C39.3281 16.7029 39.1704 16.8074 38.9586 16.899L39.7524 18.7348C40.1427 18.566 40.4977 18.345 40.8028 18.0634L39.4462 16.5938ZM38.9709 16.8938C38.8267 16.9539 38.6173 17 38.3179 17V19C38.816 19 39.2983 18.924 39.7401 18.74L38.9709 16.8938ZM38.3179 17C37.9813 17 37.6386 16.9452 37.2861 16.8299L36.6641 18.7307C37.2068 18.9083 37.7592 19 38.3179 19V17ZM37.2861 16.8299C36.9876 16.7322 36.7129 16.5686 36.4571 16.3245L35.0761 17.7712C35.5365 18.2107 36.0674 18.5354 36.6641 18.7307L37.2861 16.8299ZM36.4571 16.3245C36.2163 16.0947 35.9951 15.7738 35.8104 15.3317L33.965 16.1029C34.236 16.7513 34.6007 17.3174 35.0761 17.7712L36.4571 16.3245ZM35.8171 15.3483C35.6573 14.9458 35.5581 14.3999 35.5581 13.6787H33.5581C33.5581 14.5689 33.6786 15.382 33.9583 16.0863L35.8171 15.3483ZM35.5581 13.6787V10.1387H33.5581V13.6787H35.5581ZM35.5581 10.1387C35.5581 9.4071 35.6579 8.86413 35.8152 8.47387L33.9602 7.72632C33.678 8.42656 33.5581 9.24264 33.5581 10.1387H35.5581ZM35.8124 8.48085C35.9974 8.03153 36.2163 7.71735 36.4483 7.50114L35.0849 6.03792C34.6008 6.48903 34.2337 7.06189 33.963 7.71935L35.8124 8.48085ZM36.4571 7.49289C36.7129 7.24874 36.9876 7.0852 37.2861 6.98751L36.6641 5.08671C36.0674 5.28199 35.5365 5.60673 35.0761 6.04618L36.4571 7.49289ZM37.2861 6.98751C37.6386 6.87216 37.9813 6.81738 38.3179 6.81738V4.81738C37.7592 4.81738 37.2068 4.90909 36.6641 5.08671L37.2861 6.98751ZM38.3179 6.81738C38.6173 6.81738 38.8267 6.86348 38.9709 6.92357L39.7401 5.07741C39.2983 4.89335 38.816 4.81738 38.3179 4.81738V6.81738ZM38.9798 6.92723C39.1835 7.00982 39.3337 7.10752 39.4462 7.21137L40.8028 5.74176C40.4921 5.45498 40.1297 5.2353 39.7312 5.07375L38.9798 6.92723ZM39.4462 7.21137C39.5789 7.33379 39.6795 7.46506 39.7549 7.60633L41.5196 6.66515C41.3345 6.31814 41.0933 6.00996 40.8028 5.74176L39.4462 7.21137ZM39.7672 7.62875C39.8723 7.8143 39.947 7.98977 39.9968 8.15551L41.9124 7.58082C41.8157 7.25827 41.6788 6.94547 41.5072 6.64273L39.7672 7.62875ZM41.9546 7.86816V3.69336H39.9546V7.86816H41.9546ZM41.9546 3.69336C41.9546 3.37444 41.9694 3.06509 41.9987 2.76507L40.0081 2.57087C39.9723 2.93817 39.9546 3.31241 39.9546 3.69336H41.9546ZM41.9964 2.78618C42.0269 2.53036 42.0836 2.34498 42.1477 2.21242L40.3474 1.34129C40.1674 1.71329 40.0614 2.12198 40.0104 2.54976L41.9964 2.78618ZM42.142 2.22407C42.1915 2.12513 42.2549 2.0556 42.3441 1.99912L41.274 0.309478C40.8749 0.562236 40.5641 0.907749 40.3531 1.32964L42.142 2.22407ZM42.3512 1.99459C42.3858 1.97225 42.5156 1.91016 42.8345 1.91016V-0.0898438C42.2907 -0.0898438 41.7369 0.0108188 41.267 0.314L42.3512 1.99459ZM42.8345 1.91016C43.1177 1.91016 43.2287 1.9679 43.2563 1.98635L44.3657 0.322247C43.9051 0.0151732 43.365 -0.0898438 42.8345 -0.0898438V1.91016ZM43.276 1.99912C43.3599 2.05229 43.4141 2.11431 43.4549 2.20129L45.2658 1.35242C45.0624 0.918567 44.7504 0.565551 44.3461 0.309478L43.276 1.99912ZM43.4717 2.2355C43.5326 2.35339 43.5861 2.52206 43.609 2.76278L45.6 2.57316C45.5578 2.13029 45.4485 1.70488 45.249 1.31821L43.4717 2.2355ZM43.6118 2.78902C43.6474 3.08091 43.6655 3.38224 43.6655 3.69336H45.6655C45.6655 3.30461 45.6429 2.92234 45.5971 2.54691L43.6118 2.78902ZM43.6655 3.69336V15.2412H45.6655V3.69336H43.6655ZM37.3179 13.3613C37.3179 13.6057 37.3269 13.847 37.3452 14.085L39.3393 13.9316C39.3251 13.7464 39.3179 13.5564 39.3179 13.3613H37.3179ZM37.3452 14.085C37.3687 14.3907 37.4354 14.6912 37.5574 14.976L39.3957 14.1881C39.3713 14.1311 39.3484 14.0491 39.3393 13.9316L37.3452 14.085ZM37.5574 14.976C37.6937 15.2939 37.9023 15.5741 38.1865 15.7914L39.4014 14.2027C39.4016 14.2029 39.4024 14.2035 39.4034 14.2045C39.4044 14.2055 39.405 14.2063 39.4052 14.2065C39.4058 14.2074 39.4019 14.2026 39.3957 14.1881L37.5574 14.976ZM38.2392 15.8291C38.6068 16.0742 39.024 16.1436 39.3921 16.1436V14.1436C39.3286 14.1436 39.2977 14.1372 39.2912 14.1356C39.286 14.1344 39.3106 14.1396 39.3486 14.165L38.2392 15.8291ZM39.3921 16.1436C39.8498 16.1436 40.3275 16.0436 40.7392 15.7521L39.5831 14.12C39.6041 14.1051 39.5691 14.1436 39.3921 14.1436V16.1436ZM40.7454 15.7476C41.1413 15.4626 41.403 15.0668 41.5692 14.6393L39.7052 13.9144C39.6436 14.0729 39.5879 14.1165 39.5768 14.1245L40.7454 15.7476ZM41.5725 14.6307C41.7283 14.219 41.8191 13.7494 41.865 13.2443L39.8732 13.0633C39.8378 13.4534 39.774 13.7325 39.7019 13.923L41.5725 14.6307ZM41.8634 13.2603C41.9166 12.7646 41.9461 12.1907 41.9545 11.5433L39.9547 11.5173C39.9468 12.1231 39.9194 12.6315 39.8748 13.0473L41.8634 13.2603ZM41.9546 11.5303C41.9546 11.216 41.9244 10.876 41.8703 10.5152L39.8924 10.8119C39.936 11.1022 39.9546 11.34 39.9546 11.5303H41.9546ZM41.874 10.5425C41.8239 10.1319 41.7276 9.73695 41.5814 9.36119L39.7174 10.0861C39.7991 10.2962 39.8574 10.5279 39.8887 10.7846L41.874 10.5425ZM41.5814 9.36119C41.4219 8.95105 41.1907 8.58216 40.8804 8.2719L39.4662 9.68611C39.5629 9.78275 39.649 9.91028 39.7174 10.0861L41.5814 9.36119ZM40.8804 8.2719C40.4693 7.8607 39.9447 7.67383 39.3921 7.67383V9.67383C39.418 9.67383 39.4355 9.6759 39.4461 9.67775C39.4564 9.67957 39.461 9.68135 39.4616 9.68158C39.462 9.68176 39.4613 9.68145 39.4605 9.68091C39.4597 9.68041 39.4616 9.68151 39.4662 9.68611L40.8804 8.2719ZM39.3921 7.67383C39.0106 7.67383 38.581 7.75279 38.2085 8.02184L39.3794 9.6432C39.3605 9.65686 39.3436 9.66608 39.3307 9.67199C39.3181 9.6778 39.3104 9.67989 39.3098 9.68006C39.3092 9.68021 39.3152 9.67859 39.3291 9.67696C39.3431 9.67533 39.3637 9.67383 39.3921 9.67383V7.67383ZM38.2173 8.01555C37.9248 8.22198 37.7071 8.49611 37.5646 8.81278L39.3885 9.63351C39.3918 9.62608 39.392 9.62775 39.387 9.63401C39.3846 9.63689 39.3818 9.63996 39.3786 9.64292C39.3754 9.64588 39.3726 9.64807 39.3706 9.64949L38.2173 8.01555ZM37.5646 8.81278C37.4359 9.09883 37.3687 9.40232 37.3452 9.70797L39.3393 9.86136C39.3484 9.74384 39.3707 9.67298 39.3885 9.63351L37.5646 8.81278ZM37.3455 9.70492C37.327 9.93585 37.3179 10.17 37.3179 10.4072H39.3179C39.3179 10.2213 39.325 10.0404 39.3391 9.86441L37.3455 9.70492ZM37.3179 10.4072V13.3613H39.3179V10.4072H37.3179ZM50.437 7.52637L49.4447 7.40233L49.4432 7.41458L49.442 7.42686L50.437 7.52637ZM50.6934 6.65967L51.5821 7.11835L51.5878 7.10688L50.6934 6.65967ZM51.2549 6.03711L51.7899 6.88193L51.7998 6.87566L51.8096 6.86916L51.2549 6.03711ZM53.2324 6.03711L52.6777 6.86916L52.6875 6.87566L52.6974 6.88193L53.2324 6.03711ZM53.7939 6.65967L52.8994 7.10692L52.9053 7.11831L53.7939 6.65967ZM54.0381 7.52637L53.043 7.62587L53.0443 7.63815L53.0458 7.6504L54.0381 7.52637ZM54.0381 16.2788L53.0454 16.1578L53.0441 16.1685L53.043 16.1793L54.0381 16.2788ZM53.7939 17.1577L54.6826 17.6164L54.6884 17.6049L53.7939 17.1577ZM50.6934 17.1577L49.7989 17.605L49.8047 17.6164L50.6934 17.1577ZM50.437 16.2788L49.4417 16.3759L49.4431 16.3894L49.4447 16.4028L50.437 16.2788ZM53.6353 4.16943L54.3144 4.9036L54.324 4.89443L53.6353 4.16943ZM50.9009 4.16943L50.2121 4.8945L50.2218 4.90353L50.9009 4.16943ZM53.6597 1.34961L52.9623 2.0664L52.9719 2.07556L53.6597 1.34961ZM51.3882 8.52734C51.3882 8.2173 51.4029 7.91689 51.432 7.62587L49.442 7.42686C49.406 7.78688 49.3882 8.15379 49.3882 8.52734H51.3882ZM51.4293 7.6504C51.4576 7.42378 51.5134 7.25113 51.582 7.11831L49.8047 6.20103C49.6129 6.57276 49.4978 6.97792 49.4447 7.40233L51.4293 7.6504ZM51.5878 7.10688C51.6373 7.00794 51.7007 6.93841 51.7899 6.88193L50.7198 5.19229C50.3207 5.44505 50.0099 5.79056 49.7989 6.21245L51.5878 7.10688ZM51.8096 6.86916C51.8345 6.85258 51.9475 6.79297 52.2437 6.79297V4.79297C51.7097 4.79297 51.1636 4.89612 50.7002 5.20506L51.8096 6.86916ZM52.2437 6.79297C52.5398 6.79297 52.6529 6.85258 52.6777 6.86916L53.7871 5.20506C53.3237 4.89612 52.7776 4.79297 52.2437 4.79297V6.79297ZM52.6974 6.88193C52.7866 6.93841 52.85 7.00794 52.8995 7.10688L54.6884 6.21245C54.4774 5.79056 54.1666 5.44505 53.7675 5.19229L52.6974 6.88193ZM52.9053 7.11831C52.9697 7.24295 53.0211 7.40683 53.043 7.62587L55.0331 7.42686C54.9899 6.99486 54.8787 6.58094 54.6826 6.20103L52.9053 7.11831ZM53.0458 7.6504C53.0811 7.9331 53.0991 8.22529 53.0991 8.52734H55.0991C55.0991 8.14581 55.0764 7.77067 55.0304 7.40233L53.0458 7.6504ZM53.0991 8.52734V15.2656H55.0991V8.52734H53.0991ZM53.0991 15.2656C53.0991 15.5676 53.0812 15.8649 53.0454 16.1578L55.0307 16.3999C55.0764 16.0254 55.0991 15.6472 55.0991 15.2656H53.0991ZM53.043 16.1793C53.0211 16.3986 52.969 16.5715 52.8995 16.7105L54.6884 17.6049C54.8793 17.2231 54.99 16.81 55.0331 16.3783L53.043 16.1793ZM52.9053 16.6991C52.8581 16.7906 52.7943 16.8619 52.6974 16.9232L53.7675 18.6129C54.1589 18.365 54.4694 18.0294 54.6826 17.6164L52.9053 16.6991ZM52.6974 16.9232C52.6687 16.9414 52.5477 17 52.2437 17V19C52.7697 19 53.3079 18.9039 53.7675 18.6129L52.6974 16.9232ZM52.2437 17C51.9396 17 51.8186 16.9414 51.7899 16.9232L50.7198 18.6129C51.1794 18.9039 51.7176 19 52.2437 19V17ZM51.7899 16.9232C51.693 16.8619 51.6292 16.7906 51.582 16.6991L49.8047 17.6164C50.0179 18.0294 50.3285 18.365 50.7198 18.6129L51.7899 16.9232ZM51.5878 16.7105C51.5143 16.5635 51.4577 16.3819 51.4293 16.1548L49.4447 16.4028C49.4977 16.8267 49.612 17.2311 49.7989 17.6049L51.5878 16.7105ZM51.4323 16.1817C51.4029 15.8809 51.3882 15.5756 51.3882 15.2656H49.3882C49.3882 15.6392 49.406 16.0094 49.4417 16.3759L51.4323 16.1817ZM51.3882 15.2656V8.52734H49.3882V15.2656H51.3882ZM53.1235 2.76562C53.1235 3.22922 53.005 3.38883 52.9465 3.44443L54.324 4.89443C54.9165 4.33155 55.1235 3.55528 55.1235 2.76562H53.1235ZM52.9562 3.43533C52.8685 3.5165 52.6851 3.62109 52.2681 3.62109V5.62109C53.0229 5.62109 53.751 5.42458 54.3143 4.90353L52.9562 3.43533ZM52.2681 3.62109C51.851 3.62109 51.6677 3.5165 51.5799 3.43533L50.2218 4.90353C50.7851 5.42458 51.5133 5.62109 52.2681 5.62109V3.62109ZM51.5896 3.44443C51.5311 3.38883 51.4126 3.22922 51.4126 2.76562H49.4126C49.4126 3.55528 49.6196 4.33155 50.2121 4.89443L51.5896 3.44443ZM51.4126 2.76562C51.4126 2.25897 51.54 2.11973 51.5698 2.0929L50.2319 0.606315C49.6107 1.16542 49.4126 1.9702 49.4126 2.76562H51.4126ZM51.5698 2.0929C51.6572 2.01429 51.8444 1.91016 52.2681 1.91016V-0.0898438C51.5199 -0.0898438 50.7956 0.0989958 50.2319 0.606315L51.5698 2.0929ZM52.2681 1.91016C52.7605 1.91016 52.9222 2.02729 52.9623 2.06634L54.357 0.632883C53.7949 0.0859955 53.0289 -0.0898438 52.2681 -0.0898438V1.91016ZM52.9719 2.07556C52.9973 2.09964 53.1235 2.24569 53.1235 2.76562H55.1235C55.1235 1.98347 54.9405 1.18552 54.3474 0.623657L52.9719 2.07556ZM70.1123 17.1333L69.2292 16.6641L69.2234 16.675L69.2179 16.6861L70.1123 17.1333ZM69.5386 17.7681L70.0736 18.6129L70.0807 18.6084L69.5386 17.7681ZM67.5488 17.7681L66.9941 18.6001L67.0039 18.6066L67.0138 18.6129L67.5488 17.7681ZM66.731 16.2422L65.7357 16.3393L65.7369 16.3513L65.7383 16.3632L66.731 16.2422ZM66.6455 9.78467L65.6482 9.85854L65.6496 9.87685L65.6516 9.8951L66.6455 9.78467ZM66.5112 9.21094L65.5921 9.60486L65.5956 9.61311L65.5993 9.6213L66.5112 9.21094ZM66.1816 8.80811L65.5742 9.60246L65.6 9.62216L65.6269 9.64016L66.1816 8.80811ZM64.8022 8.979L65.536 9.65841L64.8022 8.979ZM64.314 9.88232L63.3613 9.57828L63.3584 9.58754L63.3556 9.59685L64.314 9.88232ZM64.082 11.2373L65.0789 11.3164L65.079 11.3152L64.082 11.2373ZM63.6914 17.1333L62.8083 16.6641L62.8025 16.675L62.797 16.6861L63.6914 17.1333ZM63.1177 17.7681L63.6527 18.6129L63.6598 18.6084L63.1177 17.7681ZM61.1279 17.7681L60.5732 18.6001L60.583 18.6066L60.5929 18.6129L61.1279 17.7681ZM60.5664 17.1333L61.4608 16.6861L60.5664 17.1333ZM60.3101 16.2422L59.3148 16.3393L59.316 16.3513L59.3174 16.3632L60.3101 16.2422ZM60.2979 7.53857L61.2951 7.61336L61.2952 7.61155L60.2979 7.53857ZM60.5176 6.65967L61.4178 7.09526L61.423 7.0841L60.5176 6.65967ZM61.0669 6.03711L61.602 6.88196L61.609 6.87741L61.0669 6.03711ZM63.1665 6.0249L62.6439 6.8775L62.6541 6.88372L62.6644 6.88969L63.1665 6.0249ZM63.728 6.56201L62.8618 7.06173L62.8689 7.07402L62.8764 7.08611L63.728 6.56201ZM64.021 7.84375H63.021L64.985 8.10968L64.021 7.84375ZM64.8511 6.46436L64.1867 5.71695L64.1797 5.72318L64.1728 5.72955L64.8511 6.46436ZM65.6323 5.98828L66.008 6.91502L66.0187 6.9107L66.0292 6.90614L65.6323 5.98828ZM70.1001 8.08789L69.1706 8.45695L69.1754 8.46864L70.1001 8.08789ZM69.4419 15.2168C69.4419 15.5279 69.4238 15.8292 69.3882 16.1211L71.3735 16.3632C71.4193 15.9878 71.4419 15.6055 71.4419 15.2168H69.4419ZM69.3882 16.1211C69.3603 16.3499 69.3025 16.5261 69.2292 16.6641L70.9954 17.6025C71.1988 17.2197 71.32 16.8018 71.3735 16.3632L69.3882 16.1211ZM69.2179 16.6861C69.1704 16.7811 69.1031 16.8589 68.9964 16.9278L70.0807 18.6084C70.4786 18.3517 70.7938 18.0063 71.0067 17.5805L69.2179 16.6861ZM69.0035 16.9232C68.9774 16.9398 68.8542 17 68.5376 17V19C69.0673 19 69.6115 18.9056 70.0736 18.6129L69.0035 16.9232ZM68.5376 17C68.2336 17 68.1126 16.9414 68.0839 16.9232L67.0138 18.6129C67.4733 18.9039 68.0115 19 68.5376 19V17ZM68.1035 16.936C68.003 16.869 67.9335 16.7896 67.8817 16.6861L66.0929 17.5805C66.3015 17.9979 66.6064 18.3416 66.9941 18.6001L68.1035 16.936ZM67.8817 16.6861C67.8099 16.5424 67.7525 16.3585 67.7236 16.1211L65.7383 16.3632C65.7907 16.7932 65.9043 17.2033 66.0929 17.5805L67.8817 16.6861ZM67.7262 16.1451C67.697 15.8451 67.6821 15.5357 67.6821 15.2168H65.6821C65.6821 15.5977 65.6998 15.972 65.7357 16.3393L67.7262 16.1451ZM67.6821 15.2168V10.4561H65.6821V15.2168H67.6821ZM67.6821 10.4561C67.6821 10.1924 67.668 9.93174 67.6394 9.67424L65.6516 9.8951C65.6718 10.0771 65.6821 10.264 65.6821 10.4561H67.6821ZM67.6428 9.7108C67.6198 9.40106 67.554 9.0913 67.4232 8.80057L65.5993 9.6213C65.615 9.6561 65.6386 9.72882 65.6482 9.85854L67.6428 9.7108ZM67.4304 8.81702C67.2852 8.47833 67.0535 8.18749 66.7363 7.97606L65.6269 9.64016C65.6189 9.63478 65.6088 9.62607 65.5999 9.61529C65.5914 9.60485 65.5898 9.59943 65.5921 9.60486L67.4304 8.81702ZM66.7891 8.01375C66.4184 7.73027 65.9854 7.64941 65.6079 7.64941V9.64941C65.6597 9.64941 65.6763 9.65524 65.6679 9.6529C65.6571 9.64993 65.6199 9.63743 65.5742 9.60246L66.7891 8.01375ZM65.6079 7.64941C65.031 7.64941 64.4839 7.85095 64.0685 8.2996L65.536 9.65841C65.5403 9.65383 65.5415 9.65336 65.5396 9.6547C65.5375 9.65611 65.5355 9.6571 65.5349 9.65736C65.5323 9.6584 65.5516 9.64941 65.6079 9.64941V7.64941ZM64.0685 8.2996C63.7376 8.65699 63.5135 9.10135 63.3613 9.57828L65.2666 10.1864C65.3586 9.89832 65.46 9.74048 65.536 9.65841L64.0685 8.2996ZM63.3556 9.59685C63.2164 10.064 63.1297 10.5885 63.0851 11.1594L65.079 11.3152C65.1158 10.8445 65.1836 10.4656 65.2724 10.1678L63.3556 9.59685ZM63.0852 11.1582C63.0421 11.7009 63.021 12.2809 63.021 12.8975H65.021C65.021 12.3258 65.0406 11.7991 65.0789 11.3164L63.0852 11.1582ZM63.021 12.8975V15.2168H65.021V12.8975H63.021ZM63.021 15.2168C63.021 15.5279 63.0029 15.8292 62.9673 16.1211L64.9526 16.3632C64.9984 15.9878 65.021 15.6055 65.021 15.2168H63.021ZM62.9673 16.1211C62.9394 16.3499 62.8816 16.5261 62.8083 16.6641L64.5745 17.6025C64.7779 17.2197 64.8991 16.8018 64.9526 16.3632L62.9673 16.1211ZM62.797 16.6861C62.7495 16.7811 62.6822 16.8589 62.5755 16.9278L63.6598 18.6084C64.0577 18.3517 64.3729 18.0063 64.5858 17.5805L62.797 16.6861ZM62.5826 16.9232C62.5565 16.9398 62.4333 17 62.1167 17V19C62.6464 19 63.1906 18.9056 63.6527 18.6129L62.5826 16.9232ZM62.1167 17C61.8127 17 61.6917 16.9414 61.663 16.9232L60.5929 18.6129C61.0524 18.9039 61.5906 19 62.1167 19V17ZM61.6826 16.936C61.5821 16.869 61.5126 16.7896 61.4608 16.6861L59.672 17.5805C59.8806 17.9979 60.1855 18.3416 60.5732 18.6001L61.6826 16.936ZM61.4608 16.6861C61.389 16.5424 61.3317 16.3585 61.3027 16.1211L59.3174 16.3632C59.3698 16.7932 59.4834 17.2033 59.672 17.5805L61.4608 16.6861ZM61.3053 16.1451C61.2761 15.8451 61.2612 15.5357 61.2612 15.2168H59.2612C59.2612 15.5977 59.2789 15.972 59.3148 16.3393L61.3053 16.1451ZM61.2612 15.2168V8.55176H59.2612V15.2168H61.2612ZM61.2612 8.55176C61.2612 8.22501 61.2726 7.9123 61.2951 7.61336L59.3007 7.46378C59.2742 7.81589 59.2612 8.17863 59.2612 8.55176H61.2612ZM61.2952 7.61155C61.3121 7.37995 61.3602 7.21416 61.4177 7.09523L59.6174 6.22411C59.4308 6.60974 59.3324 7.02988 59.3005 7.4656L61.2952 7.61155ZM61.423 7.0841C61.4638 6.99712 61.518 6.9351 61.6019 6.88193L60.5318 5.19229C60.1275 5.44836 59.8155 5.80138 59.6121 6.23523L61.423 7.0841ZM61.609 6.87741C61.6387 6.85827 61.7729 6.79297 62.1167 6.79297V4.79297C61.5653 4.79297 60.9997 4.89043 60.5248 5.19681L61.609 6.87741ZM62.1167 6.79297C62.4676 6.79297 62.6099 6.85662 62.6439 6.8775L63.6891 5.1723C63.2186 4.88394 62.661 4.79297 62.1167 4.79297V6.79297ZM62.6644 6.88969C62.7949 6.96548 62.8427 7.02854 62.8618 7.06173L64.5942 6.06229C64.3692 5.67231 64.0427 5.37729 63.6686 5.16011L62.6644 6.88969ZM62.8764 7.08611C62.9371 7.18475 62.9688 7.27732 62.9815 7.37004L64.9628 7.09676C64.9105 6.71748 64.7794 6.36245 64.5797 6.03791L62.8764 7.08611ZM62.9815 7.37004C63.0101 7.57695 63.021 7.73241 63.021 7.84375H65.021C65.021 7.61329 64.9994 7.36185 64.9628 7.09676L62.9815 7.37004ZM64.985 8.10968C65.0253 7.9635 65.0926 7.79934 65.1962 7.61655L63.4561 6.63052C63.283 6.93601 63.1469 7.252 63.057 7.57782L64.985 8.10968ZM65.1962 7.61655C65.2822 7.46479 65.3918 7.32614 65.5294 7.19916L64.1728 5.72955C63.8872 5.9932 63.6468 6.294 63.4561 6.63052L65.1962 7.61655ZM65.5154 7.21176C65.6414 7.09981 65.8016 6.99871 66.008 6.91502L65.2566 5.06154C64.8608 5.22199 64.5002 5.43828 64.1867 5.71695L65.5154 7.21176ZM66.0292 6.90614C66.1811 6.84047 66.3911 6.79297 66.6821 6.79297V4.79297C66.1756 4.79297 65.6858 4.87568 65.2354 5.07042L66.0292 6.90614ZM66.6821 6.79297C67.0187 6.79297 67.3614 6.84774 67.7139 6.96309L68.3359 5.0623C67.7932 4.88468 67.2408 4.79297 66.6821 4.79297V6.79297ZM67.7139 6.96309C68.0124 7.06079 68.2871 7.22432 68.5429 7.46847L69.9239 6.02176C69.4635 5.58232 68.9326 5.25757 68.3359 5.0623L67.7139 6.96309ZM68.5429 7.46847C68.7778 7.69266 68.9935 8.01077 69.1707 8.45692L71.0295 7.71886C70.7672 7.05824 70.4052 6.48117 69.9239 6.02176L68.5429 7.46847ZM69.1754 8.46864C69.3391 8.86624 69.4419 9.41138 69.4419 10.1387H71.4419C71.4419 9.23835 71.3168 8.41631 71.0248 7.70714L69.1754 8.46864ZM69.4419 10.1387V15.2168H71.4419V10.1387H69.4419ZM85.3076 20.2217L84.3801 19.8477L84.375 19.8607L85.3076 20.2217ZM83.5132 22.2603L83.0736 21.362L83.066 21.3658L83.5132 22.2603ZM82.4023 22.6753L82.1649 21.7039L82.152 21.707L82.1392 21.7105L82.4023 22.6753ZM81.4136 22.8462L81.3596 21.8476L81.3462 21.8484L81.3328 21.8495L81.4136 22.8462ZM77.4097 22.3091L76.9876 23.2157L76.9935 23.2184L77.4097 22.3091ZM76.2256 21.418L75.4546 22.0549L75.4628 22.0647L76.2256 21.418ZM75.7007 19.9775H74.7007V20.0122L74.7031 20.0468L75.7007 19.9775ZM75.9692 19.2939L75.2888 18.5612L75.2752 18.5737L75.2621 18.5868L75.9692 19.2939ZM76.4819 19.0132L76.1759 18.0612L76.1607 18.0661L76.1456 18.0714L76.4819 19.0132ZM78.4961 19.0132L78.8031 18.0615L78.7891 18.0569L78.7749 18.0528L78.4961 19.0132ZM79.0576 19.2939L79.7399 18.5629L79.7265 18.5503L79.7125 18.5383L79.0576 19.2939ZM79.2896 19.6479L78.3233 19.9056L78.3288 19.926L78.3351 19.9462L79.2896 19.6479ZM79.4116 20.002L80.3461 19.646L80.345 19.643L79.4116 20.002ZM79.79 20.356L80.1412 19.4196L80.1299 19.4154L80.1186 19.4115L79.79 20.356ZM81.2915 20.2583L80.6801 19.467L80.6711 19.4739L80.6623 19.4811L81.2915 20.2583ZM81.6943 19.7578L80.7922 19.3264L80.7887 19.3337L80.7853 19.3412L81.6943 19.7578ZM81.8652 19.1719L80.8729 19.0478L80.8724 19.0527L81.8652 19.1719ZM81.9019 15.9492H82.9019L80.944 15.6619L81.9019 15.9492ZM81.5845 16.6816L80.7145 16.1886L80.7081 16.1998L80.7021 16.2111L81.5845 16.6816ZM80.3027 17.8169L79.927 16.8901L79.9181 16.8938L80.3027 17.8169ZM77.9224 17.7803L77.6113 18.7307L77.9224 17.7803ZM76.7017 17.0601L76.0112 17.7834L76.0196 17.7914L76.0282 17.7993L76.7017 17.0601ZM75.8228 8.08789L76.7454 8.47349L76.7474 8.46864L75.8228 8.08789ZM76.7017 6.74512L76.0193 6.01402L76.0112 6.02176L76.7017 6.74512ZM77.9224 6.0127L77.6113 5.0623L77.9224 6.0127ZM80.3027 5.98828L79.8966 6.90209L79.9117 6.90881L79.927 6.91502L80.3027 5.98828ZM81.5845 7.12354L80.7021 7.59412L80.7081 7.60541L80.7145 7.61655L81.5845 7.12354ZM81.9019 7.84375L80.9468 8.14015L82.9019 7.84375H81.9019ZM81.9385 7.24561L80.9479 7.10897L80.9455 7.1258L80.9438 7.14271L81.9385 7.24561ZM82.1704 6.57422L83.0366 7.07394L83.0406 7.06693L83.0446 7.05986L82.1704 6.57422ZM82.7319 6.0249L83.2341 6.88969L83.2444 6.88372L83.2545 6.8775L82.7319 6.0249ZM84.8071 6.03711L84.2524 6.86916L84.2622 6.87566L84.2721 6.88193L84.8071 6.03711ZM85.5762 7.55078L84.5788 7.62376L84.579 7.62557L85.5762 7.55078ZM79.4238 14.5942L78.5047 14.9882L78.5082 14.9964L78.5119 15.0046L79.4238 14.5942ZM79.7412 14.9971L79.1338 15.7914L79.1595 15.8111L79.1865 15.8291L79.7412 14.9971ZM81.1206 14.8384L81.8277 15.5455L81.1206 14.8384ZM81.5967 14.0938L82.5287 14.4562L82.532 14.4476L81.5967 14.0938ZM81.8286 13.1538L80.8392 13.009L80.8376 13.0194L80.8363 13.0298L81.8286 13.1538ZM81.9019 12.2627L82.9019 12.2627L82.9018 12.2495L81.9019 12.2627ZM81.8164 10.6514L80.8204 10.7403L80.8212 10.7491L80.8221 10.7579L81.8164 10.6514ZM81.5845 9.52832L80.6491 9.88223L80.6525 9.89077L81.5845 9.52832ZM81.1084 8.86914L80.5084 9.66914L80.5269 9.68304L80.5461 9.69607L81.1084 8.86914ZM79.7412 8.80811L80.3179 9.62512L80.3267 9.61878L79.7412 8.80811ZM84.6128 18.3662C84.6128 19.0122 84.5222 19.4954 84.3802 19.8477L86.2351 20.5956C86.4999 19.9388 86.6128 19.185 86.6128 18.3662H84.6128ZM84.375 19.8607C84.2169 20.2692 84.0261 20.5741 83.8174 20.7992L85.2842 22.1588C85.694 21.7166 86.0077 21.1833 86.2402 20.5827L84.375 19.8607ZM83.8174 20.7992C83.586 21.0488 83.3382 21.2326 83.0736 21.362L83.9527 23.1585C84.4532 22.9136 84.8971 22.5765 85.2842 22.1588L83.8174 20.7992ZM83.066 21.3658C82.7512 21.5232 82.4511 21.6339 82.1649 21.7039L82.6398 23.6467C83.086 23.5376 83.5265 23.3717 83.9604 23.1547L83.066 21.3658ZM82.1392 21.7105C81.8345 21.7936 81.576 21.836 81.3596 21.8476L81.4675 23.8447C81.8534 23.8239 82.2541 23.7523 82.6655 23.6401L82.1392 21.7105ZM81.3328 21.8495C81.0383 21.8733 80.843 21.8828 80.73 21.8828V23.8828C80.9262 23.8828 81.1866 23.8679 81.4944 23.8429L81.3328 21.8495ZM80.73 21.8828C80.1993 21.8828 79.6681 21.8455 79.1361 21.7705L78.8571 23.751C79.4807 23.8388 80.1051 23.8828 80.73 23.8828V21.8828ZM79.1361 21.7705C78.644 21.7012 78.2094 21.5753 77.8258 21.3998L76.9935 23.2184C77.5702 23.4823 78.1936 23.6575 78.8571 23.751L79.1361 21.7705ZM77.8317 21.4025C77.4826 21.24 77.2066 21.0288 76.9883 20.7713L75.4628 22.0647C75.8793 22.5559 76.3927 22.9387 76.9876 23.2157L77.8317 21.4025ZM76.9965 20.7811C76.8461 20.5989 76.7276 20.3305 76.6983 19.9083L74.7031 20.0468C74.7551 20.7964 74.9866 21.4883 75.4546 22.0549L76.9965 20.7811ZM76.7007 19.9775C76.7007 19.9839 76.7002 19.9813 76.7021 19.9684C76.704 19.9556 76.7079 19.9349 76.7157 19.9056L74.7833 19.3903C74.7345 19.5732 74.7007 19.7718 74.7007 19.9775H76.7007ZM76.7157 19.9056C76.6921 19.9943 76.6532 20.0242 76.6763 20.0011L75.2621 18.5868C75.0574 18.7915 74.872 19.0575 74.7833 19.3903L76.7157 19.9056ZM76.6497 20.0267C76.6332 20.0421 76.6328 20.0382 76.6632 20.0215C76.6929 20.0052 76.7426 19.9819 76.8183 19.9549L76.1456 18.0714C75.8535 18.1757 75.5418 18.3262 75.2888 18.5612L76.6497 20.0267ZM76.7879 19.9652C76.8744 19.9374 77.0661 19.9033 77.4097 19.9033V17.9033C76.972 17.9033 76.5452 17.9425 76.1759 18.0612L76.7879 19.9652ZM77.4097 19.9033C77.8496 19.9033 78.1005 19.9396 78.2173 19.9735L78.7749 18.0528C78.3871 17.9403 77.9137 17.9033 77.4097 17.9033V19.9033ZM78.1891 19.9649C78.2792 19.9939 78.3402 20.0197 78.3785 20.0388C78.418 20.0586 78.4202 20.0648 78.4027 20.0496L79.7125 18.5383C79.4442 18.3057 79.1116 18.161 78.8031 18.0615L78.1891 19.9649ZM78.3753 20.025C78.4033 20.0511 78.3523 20.0145 78.3233 19.9056L80.2558 19.3903C80.1617 19.0373 79.9561 18.7646 79.7399 18.5629L78.3753 20.025ZM78.3351 19.9462C78.3809 20.0929 78.4285 20.2316 78.4783 20.3609L80.345 19.643C80.3133 19.5607 80.2796 19.4634 80.244 19.3497L78.3351 19.9462ZM78.4771 20.3579C78.657 20.8301 79.0219 21.1475 79.4615 21.3005L80.1186 19.4115C80.1375 19.418 80.1854 19.4389 80.2382 19.4884C80.2928 19.5394 80.3277 19.5977 80.3461 19.646L78.4771 20.3579ZM79.4389 21.2923C79.7934 21.4252 80.1931 21.4658 80.5835 21.4658V19.4658C80.3066 19.4658 80.1773 19.4332 80.1412 19.4196L79.4389 21.2923ZM80.5835 21.4658C81.0296 21.4658 81.5159 21.3632 81.9207 21.0355L80.6623 19.4811C80.6911 19.4577 80.7112 19.4525 80.7051 19.4543C80.6962 19.4569 80.6593 19.4658 80.5835 19.4658V21.4658ZM81.903 21.0496C82.203 20.8177 82.4429 20.5248 82.6034 20.1745L80.7853 19.3412C80.7668 19.3815 80.738 19.4222 80.6801 19.467L81.903 21.0496ZM82.5965 20.1893C82.7325 19.9049 82.8205 19.6042 82.8581 19.291L80.8724 19.0527C80.8611 19.1464 80.8352 19.2364 80.7922 19.3264L82.5965 20.1893ZM82.8575 19.2959C82.8848 19.078 82.9019 18.8705 82.9019 18.6836H80.9019C80.9019 18.7571 80.8945 18.8751 80.873 19.0478L82.8575 19.2959ZM82.9019 18.6836V15.9492H80.9019V18.6836H82.9019ZM80.944 15.6619C80.8943 15.8276 80.8196 16.0031 80.7145 16.1886L82.4545 17.1747C82.626 16.8719 82.7629 16.5591 82.8597 16.2366L80.944 15.6619ZM80.7021 16.2111C80.6268 16.3523 80.5261 16.4836 80.3935 16.606L81.7501 18.0756C82.0406 17.8074 82.2818 17.4992 82.4668 17.1522L80.7021 16.2111ZM80.3935 16.606C80.281 16.7099 80.1308 16.8076 79.927 16.8902L80.6784 18.7436C81.0769 18.5821 81.4394 18.3624 81.7501 18.0756L80.3935 16.606ZM79.9181 16.8938C79.7739 16.9539 79.5645 17 79.2651 17V19C79.7633 19 80.2456 18.924 80.6873 18.74L79.9181 16.8938ZM79.2651 17C78.9286 17 78.5859 16.9452 78.2334 16.8299L77.6113 18.7307C78.1541 18.9083 78.7065 19 79.2651 19V17ZM78.2334 16.8299C77.9272 16.7296 77.6424 16.5643 77.3752 16.3209L76.0282 17.7993C76.4934 18.2231 77.0224 18.5379 77.6113 18.7307L78.2334 16.8299ZM77.3921 16.3367C77.1541 16.1095 76.933 15.7871 76.7474 15.3365L74.8981 16.098C75.1683 16.7543 75.5331 17.3271 76.0112 17.7834L77.3921 16.3367ZM76.7474 15.3365C76.5841 14.94 76.481 14.3912 76.481 13.6543H74.481C74.481 14.5612 74.6056 15.3878 74.8981 16.098L76.7474 15.3365ZM76.481 13.6543V10.1143H74.481V13.6543H76.481ZM76.481 10.1143C76.481 9.39585 76.5835 8.86089 76.7454 8.47348L74.9001 7.7023C74.6063 8.40539 74.481 9.22134 74.481 10.1143H76.481ZM76.7474 8.46864C76.933 8.0181 77.1541 7.69571 77.3921 7.46847L76.0112 6.02176C75.5331 6.47812 75.1683 7.05091 74.8981 7.70714L76.7474 8.46864ZM77.384 7.47617C77.6508 7.22718 77.9328 7.06149 78.2334 6.96309L77.6113 5.0623C77.0168 5.25687 76.485 5.57946 76.0193 6.01406L77.384 7.47617ZM78.2334 6.96309C78.5859 6.84774 78.9286 6.79297 79.2651 6.79297V4.79297C78.7065 4.79297 78.1541 4.88468 77.6113 5.0623L78.2334 6.96309ZM79.2651 6.79297C79.5571 6.79297 79.7586 6.84078 79.8966 6.90209L80.7089 5.07447C80.2609 4.87537 79.7707 4.79297 79.2651 4.79297V6.79297ZM79.927 6.91502C80.1308 6.99761 80.281 7.09531 80.3935 7.19916L81.7501 5.72955C81.4394 5.44278 81.0769 5.22309 80.6784 5.06154L79.927 6.91502ZM80.3935 7.19916C80.5261 7.32158 80.6268 7.45286 80.7021 7.59412L82.4668 6.65295C82.2818 6.30593 82.0406 5.99775 81.7501 5.72955L80.3935 7.19916ZM80.7145 7.61655C80.8222 7.80662 80.8974 7.98102 80.9468 8.14015L82.8569 7.54735C82.7598 7.23447 82.6235 6.92873 82.4545 6.63052L80.7145 7.61655ZM82.9019 7.84375C82.9019 7.72699 82.9108 7.56427 82.9332 7.3485L80.9438 7.14271C80.9173 7.39895 80.9019 7.63499 80.9019 7.84375H82.9019ZM82.9291 7.38224C82.9436 7.27744 82.9774 7.17657 83.0366 7.07394L81.3042 6.0745C81.1193 6.39504 80.9985 6.74176 80.9479 7.10897L82.9291 7.38224ZM83.0446 7.05986C83.0658 7.02157 83.1123 6.96039 83.2341 6.88969L82.2298 5.16011C81.847 5.38239 81.5191 5.68741 81.2963 6.08858L83.0446 7.05986ZM83.2545 6.8775C83.2886 6.85662 83.4309 6.79297 83.7817 6.79297V4.79297C83.2374 4.79297 82.6799 4.88394 82.2094 5.1723L83.2545 6.8775ZM83.7817 6.79297C84.116 6.79297 84.2354 6.85782 84.2524 6.86916L85.3618 5.20506C84.8906 4.89088 84.3264 4.79297 83.7817 4.79297V6.79297ZM84.2721 6.88193C84.356 6.9351 84.4102 6.99712 84.451 7.0841L86.2619 6.23523C86.0585 5.80138 85.7465 5.44836 85.3422 5.19229L84.2721 6.88193ZM84.451 7.0841C84.5135 7.21749 84.5619 7.39232 84.5788 7.62376L86.5735 7.47781C86.5416 7.04192 86.4435 6.62267 86.2619 6.23523L84.451 7.0841ZM84.579 7.62557C84.6014 7.92507 84.6128 8.23376 84.6128 8.55176H86.6128C86.6128 8.18617 86.5997 7.82753 86.5734 7.47599L84.579 7.62557ZM84.6128 8.55176V18.3662H86.6128V8.55176H84.6128ZM78.2651 13.3857C78.2651 13.623 78.2743 13.8602 78.2925 14.0972L80.2866 13.9438C80.2723 13.7577 80.2651 13.5717 80.2651 13.3857H78.2651ZM78.2925 14.0972C78.316 14.4029 78.3826 14.7034 78.5047 14.9882L80.343 14.2003C80.3185 14.1433 80.2956 14.0613 80.2866 13.9438L78.2925 14.0972ZM78.5119 15.0046C78.6515 15.3147 78.8603 15.5823 79.1338 15.7914L80.3487 14.2027C80.3464 14.201 80.3452 14.1998 80.3447 14.1994C80.3442 14.1989 80.3439 14.1985 80.3436 14.1981C80.3434 14.1979 80.3404 14.1941 80.3357 14.1839L78.5119 15.0046ZM79.1865 15.8291C79.5541 16.0742 79.9713 16.1436 80.3394 16.1436V14.1436C80.2759 14.1436 80.245 14.1372 80.2385 14.1356C80.2333 14.1344 80.2579 14.1396 80.2959 14.165L79.1865 15.8291ZM80.3394 16.1436C80.8919 16.1436 81.4165 15.9567 81.8277 15.5455L80.4135 14.1313C80.4089 14.1359 80.407 14.137 80.4077 14.1365C80.4085 14.1359 80.4093 14.1356 80.4089 14.1358C80.4083 14.136 80.4036 14.1378 80.3933 14.1396C80.3828 14.1415 80.3653 14.1436 80.3394 14.1436V16.1436ZM81.8277 15.5455C82.138 15.2352 82.3692 14.8663 82.5287 14.4562L80.6647 13.7313C80.5963 13.9071 80.5101 14.0346 80.4135 14.1313L81.8277 15.5455ZM82.532 14.4476C82.6745 14.071 82.7706 13.6805 82.8209 13.2778L80.8363 13.0298C80.8053 13.2782 80.7468 13.5142 80.6614 13.7399L82.532 14.4476ZM82.8181 13.2986C82.872 12.9302 82.9019 12.5833 82.9019 12.2627H80.9019C80.9019 12.463 80.8829 12.7101 80.8392 13.009L82.8181 13.2986ZM82.9018 12.2495C82.8934 11.6098 82.8638 11.0401 82.8107 10.5448L80.8221 10.7579C80.8667 11.1741 80.8941 11.6786 80.9019 12.2759L82.9018 12.2495ZM82.8124 10.5624C82.7668 10.0515 82.6762 9.57651 82.5165 9.16587L80.6525 9.89077C80.7206 10.0661 80.7846 10.3397 80.8204 10.7403L82.8124 10.5624ZM82.5198 9.17443C82.3553 8.7399 82.0897 8.3271 81.6707 8.04221L80.5461 9.69607C80.534 9.68787 80.5857 9.71453 80.6492 9.88221L82.5198 9.17443ZM81.7084 8.06914C81.2943 7.75859 80.8081 7.64941 80.3394 7.64941V9.64941C80.5054 9.64941 80.5318 9.68672 80.5084 9.66914L81.7084 8.06914ZM80.3394 7.64941C79.9579 7.64941 79.5283 7.72837 79.1557 7.99743L80.3267 9.61878C80.3078 9.63244 80.2909 9.64167 80.278 9.64757C80.2653 9.65339 80.2577 9.65547 80.257 9.65565C80.2565 9.65579 80.2625 9.65417 80.2764 9.65254C80.2903 9.65091 80.311 9.64941 80.3394 9.64941V7.64941ZM79.1645 7.99114C78.8605 8.20574 78.6434 8.49336 78.5047 8.81702L80.343 9.60486C80.3481 9.59293 80.3494 9.59353 80.3436 9.60093C80.3408 9.60443 80.3371 9.60869 80.3323 9.61321C80.3275 9.61774 80.3226 9.62174 80.3179 9.62507L79.1645 7.99114ZM78.5047 8.81702C78.3826 9.1018 78.316 9.4023 78.2925 9.70797L80.2866 9.86136C80.2956 9.74386 80.3185 9.66187 80.343 9.60486L78.5047 8.81702ZM78.2925 9.70797C78.2742 9.94596 78.2651 10.1872 78.2651 10.4316H80.2651C80.2651 10.2366 80.2724 10.0466 80.2866 9.86136L78.2925 9.70797ZM78.2651 10.4316V13.3857H80.2651V10.4316H78.2651Z" fill="#744949"/>
</g>
<defs>
<filter id="filter0_bd_3_2498" x="0.0209961" y="-3.1875" width="89.5918" height="34.0703" filterUnits="userSpaceOnUse" color-interpolation-filters="sRGB">
<feFlood flood-opacity="0" result="BackgroundImageFix"/>
<feGaussianBlur in="BackgroundImage" stdDeviation="2"/>
<feComposite in2="SourceAlpha" operator="in" result="effect1_backgroundBlur_3_2498"/>
<feColorMatrix in="SourceAlpha" type="matrix" values="0 0 0 0 0 0 0 0 0 0 0 0 0 0 0 0 0 0 127 0" result="hardAlpha"/>
<feOffset dy="4"/>
<feGaussianBlur stdDeviation="2"/>
<feComposite in2="hardAlpha" operator="out"/>
<feColorMatrix type="matrix" values="0 0 0 0 0 0 0 0 0 0 0 0 0 0 0 0 0 0 0.25 0"/>
<feBlend mode="normal" in2="effect1_backgroundBlur_3_2498" result="effect2_dropShadow_3_2498"/>
<feBlend mode="normal" in="SourceGraphic" in2="effect2_dropShadow_3_2498" result="shape"/>
</filter>
</defs>
</svg>
