<svg width="114" height="27" viewBox="0 0 114 27" fill="none" xmlns="http://www.w3.org/2000/svg">
<g filter="url(#filter0_bd_3_1678)">
<path d="M9.67676 0.910156C10.4173 0.910156 11.105 1.00374 11.7397 1.19092C12.3826 1.37809 12.9401 1.65885 13.4121 2.0332C13.8923 2.39941 14.2666 2.85921 14.5352 3.4126C14.8118 3.96598 14.9502 4.61296 14.9502 5.35352V12.9219C14.9502 13.5566 14.881 14.1182 14.7427 14.6064C14.6043 15.0866 14.4212 15.5057 14.1934 15.8638C13.9736 16.2137 13.7214 16.5148 13.4365 16.7671C13.1517 17.0112 12.8628 17.2106 12.5698 17.3652C11.87 17.7396 11.0765 17.9512 10.1895 18H6.13672C5.67285 18 5.31478 17.9227 5.0625 17.7681C4.81022 17.6053 4.62712 17.3937 4.51318 17.1333C4.39925 16.8647 4.33008 16.5636 4.30566 16.23C4.28939 15.8963 4.28125 15.5505 4.28125 15.1924V3.69336C4.28125 3.34342 4.28939 3.00163 4.30566 2.66797C4.33008 2.33431 4.39925 2.03727 4.51318 1.77686C4.62712 1.51644 4.81022 1.30892 5.0625 1.1543C5.31478 0.991536 5.67285 0.910156 6.13672 0.910156H9.67676ZM7.99219 3.7666V15.0947H9.5791C9.92904 15.0785 10.2424 14.9971 10.519 14.8506C10.633 14.7936 10.7469 14.7163 10.8608 14.6187C10.9748 14.521 11.0765 14.4071 11.166 14.2769C11.2555 14.1385 11.3247 13.9757 11.3735 13.7886C11.4305 13.6014 11.459 13.3857 11.459 13.1416V5.93945C11.459 5.6709 11.4305 5.4349 11.3735 5.23145C11.3247 5.01986 11.2555 4.83675 11.166 4.68213C11.0765 4.52751 10.9748 4.3973 10.8608 4.2915C10.7469 4.18571 10.633 4.10026 10.519 4.03516C10.2424 3.88053 9.92904 3.79102 9.5791 3.7666H7.99219ZM20.3799 8.52734C20.3799 8.18555 20.3962 7.85189 20.4287 7.52637C20.4694 7.20085 20.5549 6.91195 20.6851 6.65967C20.8153 6.39925 21.0024 6.19173 21.2466 6.03711C21.4907 5.87435 21.8203 5.79297 22.2354 5.79297C22.6504 5.79297 22.98 5.87435 23.2241 6.03711C23.4683 6.19173 23.6554 6.39925 23.7856 6.65967C23.9159 6.91195 23.9972 7.20085 24.0298 7.52637C24.0705 7.85189 24.0908 8.18555 24.0908 8.52734V15.2656C24.0908 15.6074 24.0705 15.9451 24.0298 16.2788C23.9972 16.6043 23.9159 16.8973 23.7856 17.1577C23.6554 17.41 23.4683 17.6134 23.2241 17.7681C22.98 17.9227 22.6504 18 22.2354 18C21.8203 18 21.4907 17.9227 21.2466 17.7681C21.0024 17.6134 20.8153 17.41 20.6851 17.1577C20.5549 16.8973 20.4694 16.6043 20.4287 16.2788C20.3962 15.9451 20.3799 15.6074 20.3799 15.2656V8.52734ZM24.1152 2.76562C24.1152 3.39225 23.9525 3.86019 23.627 4.16943C23.3014 4.47054 22.8457 4.62109 22.2598 4.62109C21.6738 4.62109 21.2181 4.47054 20.8926 4.16943C20.5671 3.86019 20.4043 3.39225 20.4043 2.76562C20.4043 2.11458 20.5671 1.64258 20.8926 1.34961C21.2181 1.05664 21.6738 0.910156 22.2598 0.910156C22.8864 0.910156 23.3503 1.05664 23.6514 1.34961C23.9606 1.64258 24.1152 2.11458 24.1152 2.76562ZM33.3535 8.99121C33.3535 9.15397 33.4064 9.30452 33.5122 9.44287C33.618 9.58122 33.7604 9.71549 33.9395 9.8457C34.1266 9.96777 34.3382 10.0898 34.5742 10.2119C34.8184 10.334 35.0706 10.4561 35.3311 10.5781C35.7298 10.7734 36.1367 10.985 36.5518 11.2129C36.9668 11.4326 37.3452 11.693 37.687 11.9941C38.0288 12.2952 38.3055 12.6452 38.5171 13.0439C38.7368 13.4346 38.8467 13.8984 38.8467 14.4355C38.8467 14.9238 38.7734 15.3551 38.627 15.7295C38.4886 16.1038 38.3014 16.4294 38.0654 16.7061C37.8294 16.9746 37.5527 17.1984 37.2354 17.3774C36.9261 17.5565 36.5965 17.6989 36.2466 17.8047C35.9048 17.9105 35.5549 17.9837 35.1968 18.0244C34.8387 18.0732 34.501 18.0977 34.1836 18.0977C33.557 18.0977 33.0117 18.0448 32.5479 17.939C32.084 17.8332 31.6852 17.6948 31.3516 17.5239C31.0179 17.3449 30.7412 17.1455 30.5215 16.9258C30.3099 16.6979 30.1431 16.4619 30.021 16.2178C29.8989 15.9736 29.8135 15.7336 29.7646 15.4976C29.7158 15.2534 29.6914 15.0296 29.6914 14.8262C29.6914 14.3379 29.8257 13.9798 30.0942 13.752C30.3709 13.5241 30.79 13.4102 31.3516 13.4102C31.7585 13.4102 32.0921 13.52 32.3525 13.7397C32.613 13.9595 32.7513 14.3135 32.7676 14.8018C32.7757 14.9645 32.8205 15.0947 32.9019 15.1924C32.9914 15.29 33.1012 15.3714 33.2314 15.4365C33.3698 15.4935 33.5203 15.5342 33.6831 15.5586C33.8459 15.5749 34.0046 15.583 34.1592 15.583C34.4766 15.583 34.7329 15.5016 34.9282 15.3389C35.1317 15.168 35.2334 14.9482 35.2334 14.6797C35.2334 14.4518 35.1642 14.2402 35.0259 14.0449C34.8957 13.8415 34.7207 13.6543 34.501 13.4834C34.2812 13.3125 34.029 13.1497 33.7441 12.9951C33.4674 12.8324 33.1826 12.6696 32.8896 12.5068C32.5234 12.3115 32.1532 12.104 31.7788 11.8843C31.4126 11.6646 31.0789 11.4204 30.7778 11.1519C30.4767 10.8833 30.2326 10.5822 30.0454 10.2485C29.8582 9.90674 29.7646 9.52018 29.7646 9.08887C29.7646 8.4541 29.8664 7.92513 30.0698 7.50195C30.2814 7.07064 30.5866 6.72477 30.9854 6.46436C31.3841 6.1958 31.8683 6.00456 32.438 5.89062C33.0158 5.77669 33.6709 5.71159 34.4033 5.69531H34.5986C35.2578 5.69531 35.8153 5.75228 36.271 5.86621C36.7349 5.98014 37.1174 6.1307 37.4185 6.31787C37.7277 6.49691 37.9678 6.70036 38.1387 6.92822C38.3177 7.15609 38.4479 7.38802 38.5293 7.62402C38.6188 7.85189 38.6717 8.07161 38.688 8.2832C38.7124 8.49479 38.7246 8.67383 38.7246 8.82031C38.7246 9.06445 38.6717 9.2679 38.5659 9.43066C38.4683 9.58529 38.334 9.71143 38.1631 9.80908C38.0003 9.8986 37.8132 9.9637 37.6016 10.0044C37.39 10.0369 37.1702 10.0573 36.9424 10.0654C36.7471 10.0654 36.568 10.0329 36.4053 9.96777C36.2507 9.90267 36.1164 9.82129 36.0024 9.72363C35.8885 9.62598 35.799 9.51611 35.7339 9.39404C35.6769 9.27197 35.6484 9.15397 35.6484 9.04004C35.6322 8.73079 35.506 8.49479 35.27 8.33203C35.0422 8.16927 34.7614 8.08789 34.4277 8.08789C34.2894 8.08789 34.1551 8.10417 34.0249 8.13672C33.9028 8.16113 33.7889 8.20996 33.6831 8.2832C33.5854 8.34831 33.5041 8.43783 33.439 8.55176C33.382 8.66569 33.3535 8.81217 33.3535 8.99121ZM46.9863 13.7764C46.9863 13.9066 46.9985 14.0734 47.0229 14.2769C47.0474 14.4722 47.1043 14.6675 47.1938 14.8628C47.2834 15.05 47.4136 15.2127 47.5845 15.3511C47.7635 15.4894 48.0036 15.5586 48.3047 15.5586C48.6628 15.5586 48.9435 15.5179 49.147 15.4365C49.3504 15.3551 49.501 15.2453 49.5986 15.1069C49.6963 14.9604 49.7573 14.7936 49.7817 14.6064C49.8062 14.4111 49.8184 14.2077 49.8184 13.9961C49.8184 13.8903 49.8346 13.7723 49.8672 13.6421C49.9079 13.5037 49.9974 13.3776 50.1357 13.2637C50.2741 13.1416 50.4775 13.0439 50.7461 12.9707C51.0228 12.8893 51.3971 12.8486 51.8691 12.8486C52.3005 12.8486 52.6341 12.8975 52.8701 12.9951C53.1061 13.0928 53.277 13.2108 53.3828 13.3491C53.4967 13.4793 53.5618 13.6177 53.5781 13.7642C53.5944 13.9025 53.6025 14.0124 53.6025 14.0938C53.6025 14.6146 53.5212 15.0744 53.3584 15.4731C53.2038 15.8638 52.9922 16.2056 52.7236 16.4985C52.4551 16.7834 52.1458 17.0234 51.7959 17.2188C51.446 17.4141 51.0716 17.5687 50.6729 17.6826C50.2822 17.7965 49.8835 17.8779 49.4766 17.9268C49.0697 17.9756 48.679 18 48.3047 18C47.6618 18 47.0392 17.9146 46.437 17.7437C45.8348 17.5728 45.2977 17.3042 44.8257 16.938C44.3618 16.5718 43.9875 16.1038 43.7026 15.5342C43.4178 14.9564 43.2754 14.2646 43.2754 13.459V10.6025C43.2754 9.82943 43.3649 9.17432 43.5439 8.63721C43.7311 8.1001 43.9712 7.65251 44.2642 7.29443C44.5571 6.93636 44.8867 6.65967 45.2529 6.46436C45.6191 6.2609 45.9894 6.11035 46.3638 6.0127C46.7381 5.91504 47.0921 5.854 47.4258 5.82959C47.7676 5.80518 48.0605 5.79297 48.3047 5.79297C49.029 5.79297 49.6597 5.854 50.1968 5.97607C50.742 6.09814 51.21 6.2609 51.6006 6.46436C51.9912 6.66781 52.3127 6.90381 52.5649 7.17236C52.8254 7.43278 53.0288 7.70947 53.1753 8.00244C53.3218 8.29541 53.4235 8.58838 53.4805 8.88135C53.5456 9.17432 53.5781 9.44694 53.5781 9.69922C53.5781 9.82943 53.57 9.98405 53.5537 10.1631C53.5374 10.334 53.4723 10.5008 53.3584 10.6636C53.2526 10.8182 53.0817 10.9525 52.8457 11.0664C52.6097 11.1803 52.276 11.2373 51.8447 11.2373C51.6901 11.2373 51.4948 11.2332 51.2588 11.2251C51.0309 11.2088 50.8071 11.1641 50.5874 11.0908C50.3677 11.0176 50.1805 10.9036 50.0259 10.749C49.8713 10.5944 49.7939 10.3747 49.7939 10.0898C49.7939 9.89453 49.7817 9.70736 49.7573 9.52832C49.741 9.34115 49.6841 9.17839 49.5864 9.04004C49.4888 8.90169 49.3382 8.79183 49.1348 8.71045C48.9395 8.62093 48.6628 8.57617 48.3047 8.57617C48.0036 8.57617 47.7635 8.625 47.5845 8.72266C47.4136 8.82031 47.2834 8.94238 47.1938 9.08887C47.1043 9.23535 47.0474 9.38997 47.0229 9.55273C46.9985 9.71549 46.9863 9.86198 46.9863 9.99219V13.7764ZM57.9092 10.3828C57.9092 9.63411 58.0109 8.99935 58.2144 8.47852C58.4178 7.95768 58.6782 7.5223 58.9956 7.17236C59.3211 6.82243 59.6792 6.5498 60.0698 6.35449C60.4686 6.15918 60.8592 6.0127 61.2417 5.91504C61.6242 5.81738 61.9782 5.75635 62.3037 5.73193C62.6374 5.70752 62.8978 5.69531 63.085 5.69531C63.2721 5.69531 63.5285 5.70752 63.854 5.73193C64.1795 5.75635 64.5254 5.81738 64.8916 5.91504C65.266 6.0127 65.6403 6.15918 66.0146 6.35449C66.3971 6.5498 66.7389 6.82243 67.04 7.17236C67.3493 7.5223 67.6016 7.95768 67.7969 8.47852C67.9922 8.99935 68.0898 9.63411 68.0898 10.3828V13.4102C68.0898 14.1589 67.9922 14.7936 67.7969 15.3145C67.6016 15.8353 67.3493 16.2707 67.04 16.6206C66.7389 16.9705 66.3971 17.2432 66.0146 17.4385C65.6403 17.6338 65.266 17.7803 64.8916 17.8779C64.5254 17.9756 64.1795 18.0366 63.854 18.061C63.5285 18.0854 63.2721 18.0977 63.085 18.0977C62.8978 18.0977 62.6374 18.0854 62.3037 18.061C61.9782 18.0366 61.6242 17.9756 61.2417 17.8779C60.8592 17.7803 60.4686 17.6338 60.0698 17.4385C59.6792 17.2432 59.3211 16.9705 58.9956 16.6206C58.6782 16.2707 58.4178 15.8353 58.2144 15.3145C58.0109 14.7936 57.9092 14.1589 57.9092 13.4102V10.3828ZM61.6689 14.2646C61.6771 14.5007 61.734 14.7082 61.8398 14.8872C61.9294 15.05 62.0677 15.1965 62.2549 15.3267C62.4502 15.4487 62.7269 15.5098 63.085 15.5098C63.4268 15.5098 63.6872 15.4487 63.8662 15.3267C64.0534 15.1965 64.1917 15.05 64.2812 14.8872C64.3789 14.7082 64.4359 14.5007 64.4521 14.2646V9.8457C64.4359 9.60156 64.3789 9.37777 64.2812 9.17432C64.1917 9.01156 64.0534 8.861 63.8662 8.72266C63.6872 8.57617 63.4268 8.50293 63.085 8.50293C62.7269 8.50293 62.4502 8.57617 62.2549 8.72266C62.0677 8.861 61.9294 9.01156 61.8398 9.17432C61.734 9.37777 61.6771 9.60156 61.6689 9.8457V14.2646ZM78.8418 16.0957C78.6628 16.5677 78.4959 16.9339 78.3413 17.1943C78.1867 17.4466 78.0361 17.6338 77.8896 17.7559C77.7432 17.8779 77.5967 17.9512 77.4502 17.9756C77.3037 17.9919 77.1491 18 76.9863 18C76.8073 18 76.6405 17.9919 76.4858 17.9756C76.3312 17.9512 76.1766 17.882 76.022 17.7681C75.8674 17.646 75.7087 17.4588 75.5459 17.2065C75.3831 16.9461 75.2122 16.5758 75.0332 16.0957L72.2744 8.86914C72.2012 8.67383 72.132 8.46631 72.0669 8.24658C72.0099 8.01872 71.9814 7.79492 71.9814 7.5752C71.9814 7.33919 72.0099 7.1154 72.0669 6.90381C72.132 6.68408 72.2337 6.49284 72.3721 6.33008C72.5104 6.16732 72.6895 6.03711 72.9092 5.93945C73.1289 5.8418 73.3975 5.79297 73.7148 5.79297C73.9427 5.79297 74.1502 5.8418 74.3374 5.93945C74.5327 6.03711 74.7036 6.16732 74.8501 6.33008C75.0047 6.49284 75.139 6.68001 75.2529 6.8916C75.3669 7.10319 75.4564 7.32292 75.5215 7.55078L76.8887 11.9941H77.084L78.3535 7.55078C78.4105 7.34733 78.4919 7.13981 78.5977 6.92822C78.7035 6.71663 78.8296 6.52946 78.9761 6.3667C79.1307 6.1958 79.3097 6.05745 79.5132 5.95166C79.7248 5.84587 79.9648 5.79297 80.2334 5.79297C80.5264 5.79297 80.7746 5.84587 80.978 5.95166C81.1815 6.04932 81.3483 6.18359 81.4785 6.35449C81.6087 6.51725 81.7023 6.7085 81.7593 6.92822C81.8162 7.14795 81.8447 7.37174 81.8447 7.59961C81.8447 7.8112 81.8162 8.02279 81.7593 8.23438C81.7104 8.44596 81.6413 8.65755 81.5518 8.86914L78.8418 16.0957ZM96.1611 11.042C96.1611 11.1722 96.153 11.3268 96.1367 11.5059C96.1204 11.6768 96.0553 11.8436 95.9414 12.0063C95.8356 12.161 95.6647 12.2952 95.4287 12.4092C95.1927 12.5231 94.859 12.5801 94.4277 12.5801H89.5693V13.752C89.5693 13.9473 89.5938 14.1507 89.6426 14.3623C89.6914 14.5739 89.7728 14.7692 89.8867 14.9482C90.0088 15.1273 90.1675 15.2738 90.3628 15.3877C90.5581 15.5016 90.7982 15.5586 91.083 15.5586C91.4085 15.5586 91.6567 15.522 91.8276 15.4487C92.0067 15.3674 92.145 15.2697 92.2427 15.1558C92.3485 15.0418 92.4421 14.9198 92.5234 14.7896C92.6048 14.6593 92.7106 14.5373 92.8408 14.4233C92.9792 14.3094 93.1663 14.2158 93.4023 14.1426C93.6465 14.0612 93.9801 14.0205 94.4033 14.0205C94.6068 14.0205 94.8021 14.0368 94.9893 14.0693C95.1846 14.1019 95.3555 14.1629 95.502 14.2524C95.6484 14.342 95.7664 14.4681 95.856 14.6309C95.9455 14.7855 95.9902 14.9889 95.9902 15.2412C95.9902 15.7702 95.8234 16.2137 95.4897 16.5718C95.1561 16.9217 94.737 17.2025 94.2324 17.4141C93.7279 17.6257 93.1785 17.7762 92.5845 17.8657C91.9985 17.9552 91.4492 18 90.9365 18C90.2611 17.9919 89.6182 17.9064 89.0078 17.7437C88.3975 17.5809 87.8563 17.3205 87.3843 16.9624C86.9204 16.6043 86.5501 16.1364 86.2734 15.5586C85.9967 14.9808 85.8584 14.2728 85.8584 13.4346V10.5781C85.8584 9.80501 85.9479 9.1499 86.127 8.61279C86.3141 8.07568 86.5542 7.62809 86.8472 7.27002C87.1401 6.91195 87.4697 6.63525 87.8359 6.43994C88.2021 6.23649 88.5724 6.08594 88.9468 5.98828C89.3211 5.89062 89.6751 5.82959 90.0088 5.80518C90.3506 5.78076 90.6436 5.76855 90.8877 5.76855C91.7096 5.76855 92.4095 5.8418 92.9873 5.98828C93.5732 6.13477 94.0615 6.32601 94.4521 6.56201C94.8428 6.79801 95.152 7.07064 95.3799 7.37988C95.6077 7.68913 95.7786 8.01058 95.8926 8.34424C96.0065 8.66976 96.0798 9.00342 96.1123 9.34521C96.1449 9.67887 96.1611 9.99219 96.1611 10.2852V11.042ZM89.5693 10.749H92.6211C92.6211 10.3665 92.6089 10.0288 92.5845 9.73584C92.5682 9.43473 92.5072 9.18245 92.4014 8.979C92.3037 8.77555 92.145 8.62093 91.9253 8.51514C91.7137 8.40934 91.4085 8.35645 91.0098 8.35645C90.6761 8.35645 90.4116 8.40934 90.2163 8.51514C90.0291 8.62093 89.8867 8.75521 89.7891 8.91797C89.6914 9.07259 89.6304 9.23942 89.606 9.41846C89.5815 9.59749 89.5693 9.75618 89.5693 9.89453V10.749ZM109.086 7.62402C109.086 8.25879 108.927 8.72266 108.61 9.01562C108.301 9.30859 107.857 9.45508 107.279 9.45508C107.198 9.45508 107.08 9.46322 106.925 9.47949C106.779 9.48763 106.62 9.52018 106.449 9.57715C106.278 9.62598 106.103 9.70329 105.924 9.80908C105.753 9.90674 105.595 10.0451 105.448 10.2241C105.302 10.395 105.184 10.6147 105.094 10.8833C105.005 11.1519 104.96 11.4733 104.96 11.8477V15.3389C104.96 15.6725 104.94 15.998 104.899 16.3154C104.866 16.6328 104.785 16.9176 104.655 17.1699C104.525 17.4141 104.337 17.6134 104.093 17.7681C103.849 17.9227 103.52 18 103.104 18C102.698 18 102.376 17.9227 102.14 17.7681C101.904 17.6134 101.721 17.4141 101.591 17.1699C101.469 16.9176 101.387 16.6328 101.347 16.3154C101.314 15.998 101.298 15.6725 101.298 15.3389V8.50293C101.298 8.16113 101.314 7.83154 101.347 7.51416C101.387 7.18864 101.469 6.89974 101.591 6.64746C101.721 6.39518 101.904 6.1958 102.14 6.04932C102.376 5.89469 102.698 5.81738 103.104 5.81738C103.52 5.81738 103.837 5.91097 104.057 6.09814C104.285 6.27718 104.451 6.51318 104.557 6.80615C104.663 7.09098 104.724 7.41243 104.74 7.77051C104.757 8.12044 104.765 8.46224 104.765 8.7959H104.96C105.074 8.34017 105.224 7.9292 105.412 7.56299C105.599 7.18864 105.806 6.87533 106.034 6.62305C106.262 6.36263 106.506 6.16325 106.767 6.0249C107.027 5.88656 107.287 5.81738 107.548 5.81738C107.865 5.81738 108.122 5.854 108.317 5.92725C108.52 5.99235 108.679 6.09814 108.793 6.24463C108.907 6.39111 108.984 6.57829 109.025 6.80615C109.066 7.03402 109.086 7.30664 109.086 7.62402Z" fill="#9B3B3B"/>
<path d="M11.7397 1.19092L11.4569 2.15009L11.4602 2.15105L11.7397 1.19092ZM13.4121 2.0332L12.7907 2.8167L12.7981 2.82258L12.8057 2.82833L13.4121 2.0332ZM14.5352 3.4126L13.6354 3.84923L13.6407 3.85981L14.5352 3.4126ZM14.7427 14.6064L15.7036 14.8833L15.7048 14.879L14.7427 14.6064ZM14.1934 15.8638L13.3497 15.3269L13.3465 15.332L14.1934 15.8638ZM13.4365 16.7671L14.0873 17.5263L14.0935 17.5211L14.0996 17.5157L13.4365 16.7671ZM12.5698 17.3652L12.1031 16.4808L12.0982 16.4834L12.5698 17.3652ZM10.1895 18V19H10.217L10.2444 18.9985L10.1895 18ZM5.0625 17.7681L4.52037 18.6084L4.53008 18.6146L4.53994 18.6207L5.0625 17.7681ZM4.51318 17.1333L3.59254 17.5239L3.59703 17.5341L4.51318 17.1333ZM4.30566 16.23L3.30685 16.2787L3.30744 16.2908L3.30833 16.303L4.30566 16.23ZM4.30566 2.66797L3.30833 2.59499L3.30744 2.60711L3.30685 2.61925L4.30566 2.66797ZM4.51318 1.77686L3.59703 1.37604L4.51318 1.77686ZM5.0625 1.1543L5.58506 2.0069L5.59492 2.00086L5.60463 1.99459L5.0625 1.1543ZM7.99219 3.7666V2.7666H6.99219V3.7666H7.99219ZM7.99219 15.0947H6.99219V16.0947H7.99219V15.0947ZM9.5791 15.0947V16.0947H9.60234L9.62556 16.0936L9.5791 15.0947ZM10.519 14.8506L10.0718 13.9562L10.0614 13.9614L10.0512 13.9668L10.519 14.8506ZM11.166 14.2769L11.9901 14.8434L11.998 14.8319L12.0056 14.8201L11.166 14.2769ZM11.3735 13.7886L10.4169 13.4974L10.411 13.5167L10.4059 13.5362L11.3735 13.7886ZM11.3735 5.23145L10.3991 5.4563L10.4043 5.47882L10.4106 5.50108L11.3735 5.23145ZM10.519 4.03516L11.0152 3.16687L11.0069 3.16221L10.519 4.03516ZM9.5791 3.7666L9.6487 2.76903L9.61394 2.7666H9.5791V3.7666ZM9.67676 1.91016C10.3328 1.91016 10.9242 1.993 11.4569 2.15009L12.0226 0.231749C11.2858 0.0144911 10.5018 -0.0898438 9.67676 -0.0898438V1.91016ZM11.4602 2.15105C11.9927 2.30607 12.4309 2.53132 12.7907 2.8167L14.0335 1.24971C13.4493 0.786392 12.7726 0.450114 12.0193 0.230782L11.4602 2.15105ZM12.8057 2.82833C13.159 3.0978 13.434 3.4339 13.6355 3.8492L15.4348 2.976C15.0992 2.28453 14.6255 1.70103 14.0186 1.23808L12.8057 2.82833ZM13.6407 3.85981C13.8356 4.24958 13.9502 4.73791 13.9502 5.35352H15.9502C15.9502 4.488 15.7881 3.68239 15.4296 2.96538L13.6407 3.85981ZM13.9502 5.35352V12.9219H15.9502V5.35352H13.9502ZM13.9502 12.9219C13.9502 13.4865 13.8884 13.9532 13.7805 14.3338L15.7048 14.879C15.8736 14.2832 15.9502 13.6268 15.9502 12.9219H13.9502ZM13.7818 14.3296C13.6653 14.7337 13.5181 15.0622 13.3497 15.3269L15.037 16.4006C15.3243 15.9492 15.5433 15.4395 15.7036 14.8833L13.7818 14.3296ZM13.3465 15.332C13.1731 15.6082 12.9812 15.8345 12.7735 16.0185L14.0996 17.5157C14.4615 17.1951 14.7742 16.8192 15.0402 16.3955L13.3465 15.332ZM12.7857 16.0078C12.5501 16.2098 12.3222 16.3652 12.1031 16.4808L13.0366 18.2496C13.4034 18.056 13.7533 17.8127 14.0873 17.5263L12.7857 16.0078ZM12.0982 16.4834C11.5416 16.7811 10.8933 16.9597 10.1345 17.0015L10.2444 18.9985C11.2597 18.9426 12.1983 18.698 13.0415 18.247L12.0982 16.4834ZM10.1895 17H6.13672V19H10.1895V17ZM6.13672 17C5.76155 17 5.61468 16.9336 5.58506 16.9155L4.53994 18.6207C5.01487 18.9118 5.58415 19 6.13672 19V17ZM5.60463 16.9278C5.50773 16.8653 5.45996 16.8025 5.42934 16.7325L3.59703 17.5341C3.79427 17.985 4.11271 18.3454 4.52037 18.6084L5.60463 16.9278ZM5.43377 16.7428C5.36843 16.5887 5.32057 16.3971 5.303 16.157L3.30833 16.303C3.33959 16.7302 3.43008 17.1408 3.5926 17.5239L5.43377 16.7428ZM5.30448 16.1813C5.28905 15.8649 5.28125 15.5354 5.28125 15.1924H3.28125C3.28125 15.5656 3.28973 15.9277 3.30685 16.2787L5.30448 16.1813ZM5.28125 15.1924V3.69336H3.28125V15.1924H5.28125ZM5.28125 3.69336C5.28125 3.35891 5.28903 3.03338 5.30448 2.71669L3.30685 2.61925C3.28975 2.96988 3.28125 3.32794 3.28125 3.69336H5.28125ZM5.303 2.74094C5.32057 2.50083 5.3681 2.31764 5.42934 2.17767L3.59703 1.37604C3.4304 1.7569 3.33959 2.16779 3.30833 2.59499L5.303 2.74094ZM5.42934 2.17767C5.45784 2.11253 5.49949 2.05935 5.58506 2.0069L4.53994 0.301696C4.12095 0.558493 3.79639 0.920347 3.59703 1.37604L5.42934 2.17767ZM5.60463 1.99459C5.62964 1.97846 5.76827 1.91016 6.13672 1.91016V-0.0898438C5.57743 -0.0898438 4.99992 0.00461439 4.52037 0.314L5.60463 1.99459ZM6.13672 1.91016H9.67676V-0.0898438H6.13672V1.91016ZM6.99219 3.7666V15.0947H8.99219V3.7666H6.99219ZM7.99219 16.0947H9.5791V14.0947H7.99219V16.0947ZM9.62556 16.0936C10.1051 16.0713 10.5652 15.9576 10.9869 15.7344L10.0512 13.9668C9.91948 14.0365 9.75296 14.0856 9.53264 14.0958L9.62556 16.0936ZM10.9663 15.745C11.1649 15.6457 11.3463 15.5196 11.5116 15.3779L10.21 13.8594C10.1475 13.913 10.101 13.9416 10.0718 13.9562L10.9663 15.745ZM11.5116 15.3779C11.6948 15.2209 11.854 15.0413 11.9901 14.8434L10.342 13.7103C10.299 13.7728 10.2547 13.8211 10.21 13.8594L11.5116 15.3779ZM12.0056 14.8201C12.1621 14.5783 12.27 14.3138 12.3412 14.041L10.4059 13.5362C10.3794 13.6377 10.349 13.6988 10.3264 13.7336L12.0056 14.8201ZM12.3302 14.0797C12.422 13.7782 12.459 13.4611 12.459 13.1416H10.459C10.459 13.3104 10.439 13.4246 10.4169 13.4974L12.3302 14.0797ZM12.459 13.1416V5.93945H10.459V13.1416H12.459ZM12.459 5.93945C12.459 5.60314 12.4236 5.27301 12.3365 4.96182L10.4106 5.50108C10.4374 5.59678 10.459 5.73866 10.459 5.93945H12.459ZM12.3479 5.00659C12.2814 4.71813 12.1802 4.43804 12.0314 4.18109L10.3006 5.18317C10.3309 5.23546 10.3681 5.32158 10.3991 5.4563L12.3479 5.00659ZM12.0314 4.18109C11.8994 3.95302 11.738 3.74135 11.5413 3.55871L10.1804 5.0243C10.2116 5.05325 10.2536 5.102 10.3006 5.18317L12.0314 4.18109ZM11.5413 3.55871C11.3813 3.41014 11.2064 3.27618 11.0152 3.16691L10.0229 4.9034C10.0596 4.92434 10.1125 4.96128 10.1804 5.0243L11.5413 3.55871ZM11.0069 3.16221C10.5885 2.92841 10.1297 2.80258 9.6487 2.76903L9.5095 4.76418C9.72838 4.77945 9.89622 4.83266 10.0312 4.9081L11.0069 3.16221ZM9.5791 2.7666H7.99219V4.7666H9.5791V2.7666ZM20.4287 7.52637L19.4364 7.40233L19.4349 7.41458L19.4337 7.42686L20.4287 7.52637ZM20.6851 6.65967L21.5738 7.11835L21.5795 7.10688L20.6851 6.65967ZM21.2466 6.03711L21.7816 6.88193L21.7915 6.87566L21.8013 6.86916L21.2466 6.03711ZM23.2241 6.03711L22.6694 6.86916L22.6792 6.87566L22.6891 6.88193L23.2241 6.03711ZM23.7856 6.65967L22.8911 7.10692L22.897 7.11831L23.7856 6.65967ZM24.0298 7.52637L23.0347 7.62587L23.036 7.63815L23.0375 7.6504L24.0298 7.52637ZM24.0298 16.2788L23.0371 16.1578L23.0358 16.1685L23.0347 16.1793L24.0298 16.2788ZM23.7856 17.1577L24.6743 17.6164L24.6801 17.6049L23.7856 17.1577ZM20.6851 17.1577L19.7906 17.605L19.7964 17.6164L20.6851 17.1577ZM20.4287 16.2788L19.4334 16.3759L19.4348 16.3894L19.4364 16.4028L20.4287 16.2788ZM23.627 4.16943L24.3061 4.9036L24.3157 4.89443L23.627 4.16943ZM20.8926 4.16943L20.2038 4.8945L20.2135 4.90353L20.8926 4.16943ZM23.6514 1.34961L22.954 2.0664L22.9636 2.07556L23.6514 1.34961ZM21.3799 8.52734C21.3799 8.2173 21.3946 7.91689 21.4237 7.62587L19.4337 7.42686C19.3977 7.78688 19.3799 8.15379 19.3799 8.52734H21.3799ZM21.421 7.6504C21.4493 7.42378 21.5051 7.25113 21.5737 7.11831L19.7964 6.20103C19.6046 6.57276 19.4895 6.97792 19.4364 7.40233L21.421 7.6504ZM21.5795 7.10688C21.629 7.00794 21.6924 6.93841 21.7816 6.88193L20.7115 5.19229C20.3124 5.44505 20.0016 5.79056 19.7906 6.21245L21.5795 7.10688ZM21.8013 6.86916C21.8261 6.85258 21.9392 6.79297 22.2354 6.79297V4.79297C21.7014 4.79297 21.1553 4.89612 20.6919 5.20506L21.8013 6.86916ZM22.2354 6.79297C22.5315 6.79297 22.6446 6.85258 22.6694 6.86916L23.7788 5.20506C23.3154 4.89612 22.7693 4.79297 22.2354 4.79297V6.79297ZM22.6891 6.88193C22.7783 6.93841 22.8417 7.00794 22.8912 7.10688L24.6801 6.21245C24.4691 5.79056 24.1583 5.44505 23.7592 5.19229L22.6891 6.88193ZM22.897 7.11831C22.9614 7.24295 23.0128 7.40683 23.0347 7.62587L25.0248 7.42686C24.9816 6.99486 24.8704 6.58094 24.6743 6.20103L22.897 7.11831ZM23.0375 7.6504C23.0728 7.9331 23.0908 8.22529 23.0908 8.52734H25.0908C25.0908 8.14581 25.0681 7.77067 25.0221 7.40233L23.0375 7.6504ZM23.0908 8.52734V15.2656H25.0908V8.52734H23.0908ZM23.0908 15.2656C23.0908 15.5676 23.0728 15.8649 23.0371 16.1578L25.0224 16.3999C25.0681 16.0254 25.0908 15.6472 25.0908 15.2656H23.0908ZM23.0347 16.1793C23.0128 16.3986 22.9607 16.5715 22.8912 16.7105L24.6801 17.6049C24.871 17.2231 24.9817 16.81 25.0248 16.3783L23.0347 16.1793ZM22.897 16.6991C22.8498 16.7906 22.786 16.8619 22.6891 16.9232L23.7592 18.6129C24.1506 18.365 24.4611 18.0294 24.6743 17.6164L22.897 16.6991ZM22.6891 16.9232C22.6604 16.9414 22.5394 17 22.2354 17V19C22.7614 19 23.2996 18.9039 23.7592 18.6129L22.6891 16.9232ZM22.2354 17C21.9313 17 21.8103 16.9414 21.7816 16.9232L20.7115 18.6129C21.1711 18.9039 21.7093 19 22.2354 19V17ZM21.7816 16.9232C21.6847 16.8619 21.6209 16.7906 21.5737 16.6991L19.7964 17.6164C20.0096 18.0294 20.3202 18.365 20.7115 18.6129L21.7816 16.9232ZM21.5795 16.7105C21.506 16.5635 21.4494 16.3819 21.421 16.1548L19.4364 16.4028C19.4894 16.8267 19.6037 17.2311 19.7906 17.6049L21.5795 16.7105ZM21.424 16.1817C21.3946 15.8809 21.3799 15.5756 21.3799 15.2656H19.3799C19.3799 15.6392 19.3977 16.0094 19.4334 16.3759L21.424 16.1817ZM21.3799 15.2656V8.52734H19.3799V15.2656H21.3799ZM23.1152 2.76562C23.1152 3.22922 22.9967 3.38883 22.9382 3.44443L24.3157 4.89443C24.9082 4.33155 25.1152 3.55528 25.1152 2.76562H23.1152ZM22.9479 3.43533C22.8602 3.5165 22.6768 3.62109 22.2598 3.62109V5.62109C23.0146 5.62109 23.7427 5.42458 24.306 4.90353L22.9479 3.43533ZM22.2598 3.62109C21.8427 3.62109 21.6594 3.5165 21.5716 3.43533L20.2135 4.90353C20.7768 5.42458 21.505 5.62109 22.2598 5.62109V3.62109ZM21.5813 3.44443C21.5228 3.38883 21.4043 3.22922 21.4043 2.76562H19.4043C19.4043 3.55528 19.6113 4.33155 20.2038 4.89443L21.5813 3.44443ZM21.4043 2.76562C21.4043 2.25897 21.5317 2.11973 21.5615 2.0929L20.2236 0.606315C19.6024 1.16542 19.4043 1.9702 19.4043 2.76562H21.4043ZM21.5615 2.0929C21.6489 2.01429 21.8361 1.91016 22.2598 1.91016V-0.0898438C21.5116 -0.0898438 20.7873 0.0989958 20.2236 0.606315L21.5615 2.0929ZM22.2598 1.91016C22.7522 1.91016 22.9139 2.02729 22.954 2.06634L24.3487 0.632883C23.7866 0.0859955 23.0206 -0.0898438 22.2598 -0.0898438V1.91016ZM22.9636 2.07556C22.989 2.09964 23.1152 2.24569 23.1152 2.76562H25.1152C25.1152 1.98347 24.9322 1.18552 24.3391 0.623657L22.9636 2.07556ZM33.9395 9.8457L33.3513 10.6544L33.3719 10.6694L33.3932 10.6833L33.9395 9.8457ZM34.5742 10.2119L34.1148 11.1002L34.127 11.1063L34.5742 10.2119ZM35.3311 10.5781L35.7709 9.68006L35.7632 9.6763L35.7555 9.67267L35.3311 10.5781ZM36.5518 11.2129L36.0705 12.0895L36.0772 12.0931L36.0839 12.0967L36.5518 11.2129ZM37.687 11.9941L38.348 11.2438L37.687 11.9941ZM38.5171 13.0439L37.6337 13.5127L37.6395 13.5235L37.6455 13.5342L38.5171 13.0439ZM38.627 15.7295L37.6957 15.3651L37.6923 15.3739L37.689 15.3828L38.627 15.7295ZM38.0654 16.7061L38.8166 17.3662L38.8215 17.3606L38.8263 17.355L38.0654 16.7061ZM37.2354 17.3774L36.744 16.5064L36.7343 16.512L37.2354 17.3774ZM36.2466 17.8047L35.9572 16.8475L35.9509 16.8494L36.2466 17.8047ZM35.1968 18.0244L35.0839 17.0308L35.0728 17.0321L35.0617 17.0336L35.1968 18.0244ZM31.3516 17.5239L30.8787 18.4051L30.8872 18.4096L30.8957 18.414L31.3516 17.5239ZM30.5215 16.9258L29.7887 17.6062L29.8013 17.6198L29.8144 17.6329L30.5215 16.9258ZM29.7646 15.4976L28.784 15.6937L28.7854 15.7002L29.7646 15.4976ZM30.0942 13.752L29.4585 12.98L29.4529 12.9847L29.4473 12.9894L30.0942 13.752ZM32.7676 14.8018L31.7681 14.8351L31.7684 14.8434L31.7688 14.8517L32.7676 14.8018ZM32.9019 15.1924L32.1336 15.8326L32.1487 15.8507L32.1647 15.8681L32.9019 15.1924ZM33.2314 15.4365L32.7842 16.331L32.8169 16.3473L32.8507 16.3612L33.2314 15.4365ZM33.6831 15.5586L33.5348 16.5475L33.5591 16.5512L33.5836 16.5536L33.6831 15.5586ZM34.9282 15.3389L35.5684 16.1071L35.5714 16.1046L34.9282 15.3389ZM35.0259 14.0449L34.1836 14.584L34.1963 14.6038L34.2099 14.6229L35.0259 14.0449ZM33.7441 12.9951L33.2371 13.8571L33.2519 13.8658L33.267 13.874L33.7441 12.9951ZM32.8896 12.5068L33.3753 11.6327L33.3678 11.6285L33.3602 11.6245L32.8896 12.5068ZM31.7788 11.8843L31.2643 12.7418L31.2726 12.7467L31.7788 11.8843ZM30.0454 10.2485L29.1683 10.7289L29.1733 10.7378L30.0454 10.2485ZM30.0698 7.50195L29.172 7.06151L29.1686 7.06866L30.0698 7.50195ZM30.9854 6.46436L31.5321 7.30163L31.5381 7.29775L31.544 7.29379L30.9854 6.46436ZM32.438 5.89062L32.2445 4.90951L32.2419 4.91004L32.438 5.89062ZM34.4033 5.69531V4.69531H34.3922L34.3811 4.69556L34.4033 5.69531ZM36.271 5.86621L36.0285 6.83636L36.0325 6.83735L36.271 5.86621ZM37.4185 6.31787L36.8905 7.16716L36.9038 7.17544L36.9174 7.1833L37.4185 6.31787ZM38.1387 6.92822L37.3387 7.52822L37.3454 7.53721L37.3524 7.54604L38.1387 6.92822ZM38.5293 7.62402L37.5839 7.95001L37.5908 7.97L37.5985 7.98968L38.5293 7.62402ZM38.688 8.2832L37.6909 8.3599L37.6924 8.3789L37.6946 8.39783L38.688 8.2832ZM38.5659 9.43066L37.7274 8.88563L37.7204 8.89667L38.5659 9.43066ZM38.1631 9.80908L38.645 10.6853L38.6521 10.6814L38.6592 10.6773L38.1631 9.80908ZM37.6016 10.0044L37.7536 10.9928L37.7721 10.9899L37.7904 10.9864L37.6016 10.0044ZM36.9424 10.0654V11.0654H36.9602L36.9781 11.0648L36.9424 10.0654ZM36.4053 9.96777L36.0172 10.8894L36.0255 10.8929L36.0339 10.8963L36.4053 9.96777ZM35.7339 9.39404L34.8277 9.81693L34.839 9.8411L34.8515 9.86463L35.7339 9.39404ZM35.6484 9.04004H36.6484V9.01374L36.6471 8.98748L35.6484 9.04004ZM35.27 8.33203L34.6888 9.14576L34.6955 9.15056L34.7023 9.15524L35.27 8.33203ZM34.0249 8.13672L34.221 9.1173L34.2444 9.11263L34.2674 9.10686L34.0249 8.13672ZM33.6831 8.2832L34.2378 9.11525L34.2451 9.11039L34.2523 9.1054L33.6831 8.2832ZM33.439 8.55176L32.5707 8.05562L32.557 8.07972L32.5445 8.10454L33.439 8.55176ZM32.3535 8.99121C32.3535 9.38939 32.4886 9.75058 32.7178 10.0503L34.3066 8.83542C34.3118 8.84221 34.3252 8.86208 34.3366 8.89471C34.3484 8.92809 34.3535 8.96199 34.3535 8.99121H32.3535ZM32.7178 10.0503C32.8957 10.2829 33.1142 10.482 33.3513 10.6544L34.5276 9.03697C34.4066 8.94895 34.3403 8.87958 34.3066 8.83542L32.7178 10.0503ZM33.3932 10.6833C33.6131 10.8267 33.8544 10.9654 34.1148 11.1001L35.0336 9.3237C34.822 9.21425 34.6402 9.10882 34.4857 9.00809L33.3932 10.6833ZM34.127 11.1063C34.3791 11.2324 34.639 11.3581 34.9066 11.4836L35.7555 9.67267C35.5023 9.55399 35.2576 9.43559 35.0214 9.31749L34.127 11.1063ZM34.8912 11.4762C35.2751 11.6642 35.6682 11.8686 36.0705 12.0895L37.033 10.3363C36.6052 10.1015 36.1845 9.88265 35.7709 9.68006L34.8912 11.4762ZM36.0839 12.0967C36.4317 12.2808 36.7449 12.4969 37.026 12.7445L38.348 11.2438C37.9455 10.8892 37.5019 10.5844 37.0196 10.3291L36.0839 12.0967ZM37.026 12.7445C37.2781 12.9666 37.4792 13.2214 37.6337 13.5127L39.4004 12.5752C39.1318 12.069 38.7795 11.6239 38.348 11.2438L37.026 12.7445ZM37.6455 13.5342C37.7658 13.748 37.8467 14.0361 37.8467 14.4355H39.8467C39.8467 13.7607 39.7078 13.1211 39.3887 12.5537L37.6455 13.5342ZM37.8467 14.4355C37.8467 14.8252 37.7882 15.1288 37.6957 15.3651L39.5582 16.0939C39.7587 15.5814 39.8467 15.0225 39.8467 14.4355H37.8467ZM37.689 15.3828C37.5874 15.6575 37.4571 15.8783 37.3046 16.0571L38.8263 17.355C39.1457 16.9804 39.3898 16.5502 39.5649 16.0761L37.689 15.3828ZM37.3143 16.0459C37.1539 16.2285 36.9655 16.3815 36.744 16.5065L37.7267 18.2484C38.14 18.0153 38.505 17.7207 38.8166 17.3662L37.3143 16.0459ZM36.7343 16.512C36.4934 16.6515 36.235 16.7635 35.9572 16.8475L36.536 18.7619C36.958 18.6343 37.3588 18.4614 37.7364 18.2429L36.7343 16.512ZM35.9509 16.8494C35.6691 16.9366 35.3804 16.9971 35.0839 17.0308L35.3097 19.018C35.7293 18.9703 36.1404 18.8843 36.5423 18.76L35.9509 16.8494ZM35.0617 17.0336C34.7424 17.0771 34.4501 17.0977 34.1836 17.0977V19.0977C34.5519 19.0977 34.9351 19.0694 35.3319 19.0152L35.0617 17.0336ZM34.1836 17.0977C33.6097 17.0977 33.1424 17.0489 32.7702 16.964L32.3255 18.9139C32.8811 19.0406 33.5042 19.0977 34.1836 19.0977V17.0977ZM32.7702 16.964C32.3668 16.872 32.0504 16.7583 31.8074 16.6339L30.8957 18.414C31.3201 18.6313 31.8012 18.7943 32.3255 18.9139L32.7702 16.964ZM31.8244 16.6428C31.5588 16.5003 31.366 16.3561 31.2286 16.2187L29.8144 17.6329C30.1164 17.9349 30.477 18.1895 30.8787 18.4051L31.8244 16.6428ZM31.2543 16.2453C31.0986 16.0776 30.9895 15.9188 30.9154 15.7706L29.1266 16.665C29.2966 17.005 29.5212 17.3182 29.7887 17.6062L31.2543 16.2453ZM30.9154 15.7706C30.8271 15.5939 30.773 15.4357 30.7439 15.295L28.7854 15.7002C28.8539 16.0314 28.9708 16.3534 29.1266 16.665L30.9154 15.7706ZM30.7452 15.3014C30.7066 15.1081 30.6914 14.9511 30.6914 14.8262H28.6914C28.6914 15.1082 28.7251 15.3987 28.7841 15.6937L30.7452 15.3014ZM30.6914 14.8262C30.6914 14.6703 30.7133 14.583 30.7284 14.5425C30.741 14.509 30.7479 14.5088 30.7412 14.5145L29.4473 12.9894C28.8778 13.4726 28.6914 14.1629 28.6914 14.8262H30.6914ZM30.7299 14.5239C30.7508 14.5067 30.8978 14.4102 31.3516 14.4102V12.4102C30.6823 12.4102 29.9911 12.5415 29.4585 12.98L30.7299 14.5239ZM31.3516 14.4102C31.5704 14.4102 31.6612 14.4648 31.7077 14.504L32.9974 12.9755C32.5231 12.5752 31.9466 12.4102 31.3516 12.4102V14.4102ZM31.7077 14.504C31.6963 14.4945 31.7046 14.494 31.7202 14.534C31.7383 14.5802 31.7627 14.6735 31.7681 14.8351L33.767 14.7684C33.7455 14.1228 33.5544 13.4454 32.9974 12.9755L31.7077 14.504ZM31.7688 14.8517C31.7847 15.1695 31.8786 15.5266 32.1336 15.8326L33.6701 14.5522C33.7623 14.6629 33.7667 14.7595 33.7663 14.7518L31.7688 14.8517ZM32.1647 15.8681C32.3445 16.0642 32.5556 16.2167 32.7842 16.331L33.6787 14.5421C33.6621 14.5338 33.652 14.5271 33.6466 14.5231C33.6413 14.5192 33.6393 14.517 33.639 14.5167L32.1647 15.8681ZM32.8507 16.3612C33.0706 16.4518 33.3001 16.5123 33.5348 16.5475L33.8314 14.5697C33.7406 14.556 33.6689 14.5352 33.6122 14.5118L32.8507 16.3612ZM33.5836 16.5536C33.7775 16.573 33.9695 16.583 34.1592 16.583V14.583C34.0396 14.583 33.9142 14.5767 33.7826 14.5636L33.5836 16.5536ZM34.1592 16.583C34.6507 16.583 35.1523 16.4539 35.5684 16.1071L34.288 14.5706C34.2956 14.5644 34.2989 14.565 34.2869 14.5688C34.2724 14.5735 34.2332 14.583 34.1592 14.583V16.583ZM35.5714 16.1046C36.0039 15.7413 36.2334 15.24 36.2334 14.6797H34.2334C34.2334 14.6848 34.2332 14.6613 34.2496 14.6258C34.2662 14.5899 34.2854 14.5728 34.285 14.5732L35.5714 16.1046ZM36.2334 14.6797C36.2334 14.2339 36.0935 13.8222 35.8419 13.4669L34.2099 14.6229C34.2254 14.6449 34.2299 14.6573 34.231 14.6608C34.232 14.6639 34.2334 14.6688 34.2334 14.6797H36.2334ZM35.8682 13.5059C35.6681 13.1932 35.411 12.9243 35.1149 12.694L33.887 14.2728C34.0304 14.3843 34.1233 14.4897 34.1836 14.584L35.8682 13.5059ZM35.1149 12.694C34.8458 12.4847 34.5464 12.2928 34.2212 12.1163L33.267 13.874C33.5115 14.0067 33.7167 14.1403 33.887 14.2728L35.1149 12.694ZM34.2512 12.1332C33.9671 11.9661 33.6751 11.7993 33.3753 11.6327L32.404 13.381C32.6901 13.5399 32.9678 13.6986 33.2371 13.8571L34.2512 12.1332ZM33.3602 11.6245C33.0066 11.4359 32.6482 11.235 32.285 11.0219L31.2726 12.7467C31.6582 12.973 32.0403 13.1872 32.4191 13.3892L33.3602 11.6245ZM32.2933 11.0268C31.9777 10.8374 31.6951 10.63 31.4434 10.4056L30.1122 11.8982C30.4627 12.2108 30.8475 12.4917 31.2643 12.7418L32.2933 11.0268ZM31.4434 10.4056C31.2204 10.2066 31.0477 9.99125 30.9176 9.75928L29.1733 10.7378C29.4175 11.1731 29.7331 11.56 30.1122 11.8982L31.4434 10.4056ZM30.9225 9.76822C30.8243 9.58894 30.7646 9.3706 30.7646 9.08887H28.7646C28.7646 9.66976 28.8921 10.2245 29.1683 10.7288L30.9225 9.76822ZM30.7646 9.08887C30.7646 8.55402 30.8513 8.18437 30.9711 7.93525L29.1686 7.06866C28.8814 7.66589 28.7646 8.35418 28.7646 9.08887H30.7646ZM30.9676 7.94238C31.1007 7.67101 31.2853 7.46282 31.5321 7.30163L30.4386 5.62708C29.8879 5.98672 29.4621 6.47026 29.172 7.06153L30.9676 7.94238ZM31.544 7.29379C31.8128 7.11276 32.1677 6.96449 32.6341 6.87121L32.2419 4.91004C31.569 5.04463 30.9555 5.27884 30.4268 5.63492L31.544 7.29379ZM32.6314 6.87173C33.1411 6.77123 33.7374 6.71036 34.4255 6.69507L34.3811 4.69556C33.6044 4.71282 32.8904 4.78215 32.2445 4.90952L32.6314 6.87173ZM34.4033 6.69531H34.5986V4.69531H34.4033V6.69531ZM34.5986 6.69531C35.2061 6.69531 35.6767 6.74842 36.0285 6.83635L36.5135 4.89607C35.9538 4.75614 35.3095 4.69531 34.5986 4.69531V6.69531ZM36.0325 6.83735C36.4272 6.93429 36.7038 7.05111 36.8905 7.16716L37.9464 5.46859C37.5309 5.21029 37.0426 5.026 36.5095 4.89507L36.0325 6.83735ZM36.9174 7.1833C37.1388 7.31147 37.2663 7.43171 37.3387 7.52822L38.9387 6.32822C38.6693 5.96901 38.3166 5.68235 37.9195 5.45244L36.9174 7.1833ZM37.3524 7.54604C37.4733 7.70002 37.5442 7.83491 37.5839 7.95001L39.4747 7.29803C39.3516 6.94113 39.1621 6.61216 38.925 6.3104L37.3524 7.54604ZM37.5985 7.98968C37.6572 8.13895 37.6833 8.26125 37.6909 8.3599L39.685 8.20651C39.6601 7.88198 39.5804 7.56483 39.46 7.25837L37.5985 7.98968ZM37.6946 8.39783C37.7164 8.58678 37.7246 8.72502 37.7246 8.82031H39.7246C39.7246 8.62263 39.7084 8.4028 39.6814 8.16858L37.6946 8.39783ZM37.7246 8.82031C37.7246 8.87079 37.7191 8.89678 37.7171 8.90437C37.7155 8.91061 37.7171 8.90166 37.7275 8.88568L39.4044 9.97565C39.6398 9.6135 39.7246 9.20821 39.7246 8.82031H37.7246ZM37.7204 8.89667C37.7167 8.90254 37.7069 8.91799 37.6669 8.94084L38.6592 10.6773C38.961 10.5049 39.2198 10.268 39.4114 9.96466L37.7204 8.89667ZM37.6812 8.93287C37.6233 8.96471 37.5377 8.99834 37.4127 9.02239L37.7904 10.9864C38.0886 10.9291 38.3774 10.8325 38.645 10.6853L37.6812 8.93287ZM37.4495 9.01602C37.2789 9.04228 37.0981 9.05923 36.9067 9.06607L36.9781 11.0648C37.2424 11.0554 37.5011 11.0316 37.7536 10.9928L37.4495 9.01602ZM36.9424 9.06543C36.8598 9.06543 36.8085 9.05205 36.7767 9.0393L36.0339 10.8963C36.3275 11.0137 36.6344 11.0654 36.9424 11.0654V9.06543ZM36.7933 9.04614C36.723 9.01654 36.6798 8.98719 36.6532 8.96438L35.3517 10.4829C35.5529 10.6554 35.7783 10.7888 36.0172 10.8894L36.7933 9.04614ZM36.6532 8.96438C36.6257 8.94081 36.618 8.92677 36.6162 8.92345L34.8515 9.86463C34.98 10.1055 35.1513 10.3111 35.3517 10.4829L36.6532 8.96438ZM36.6401 8.97116C36.6337 8.95761 36.6484 8.98359 36.6484 9.04004H34.6484C34.6484 9.32435 34.7201 9.58634 34.8277 9.81693L36.6401 8.97116ZM36.6471 8.98748C36.616 8.3971 36.3519 7.8634 35.8378 7.50882L34.7023 9.15524C34.7024 9.15532 34.7007 9.15417 34.6977 9.15158C34.6947 9.14897 34.6907 9.14518 34.6861 9.14013C34.6765 9.12948 34.6672 9.1165 34.6597 9.10248C34.6436 9.07228 34.6482 9.0615 34.6498 9.0926L36.6471 8.98748ZM35.8513 7.5183C35.4233 7.21261 34.9289 7.08789 34.4277 7.08789V9.08789C34.5939 9.08789 34.661 9.12594 34.6888 9.14576L35.8513 7.5183ZM34.4277 7.08789C34.2102 7.08789 33.9943 7.11359 33.7824 7.16658L34.2674 9.10686C34.3159 9.09474 34.3686 9.08789 34.4277 9.08789V7.08789ZM33.8288 7.15614C33.5683 7.20823 33.3281 7.31273 33.1139 7.46101L34.2523 9.1054C34.2524 9.10532 34.2515 9.10595 34.2496 9.10701C34.2477 9.10807 34.2451 9.10939 34.2418 9.1108C34.2349 9.11377 34.2276 9.11599 34.221 9.1173L33.8288 7.15614ZM33.1284 7.45115C32.887 7.61209 32.7037 7.82298 32.5707 8.05562L34.3072 9.0479C34.3066 9.04898 34.3011 9.05828 34.2888 9.07184C34.2762 9.08571 34.2591 9.10107 34.2378 9.11525L33.1284 7.45115ZM32.5445 8.10454C32.3958 8.40195 32.3535 8.716 32.3535 8.99121H34.3535C34.3535 8.97282 34.3543 8.95931 34.355 8.9502C34.3558 8.94108 34.3566 8.93723 34.3565 8.93794C34.3563 8.93888 34.3517 8.96236 34.3334 8.99897L32.5445 8.10454ZM47.0229 14.2769L46.0301 14.396L46.0307 14.4009L47.0229 14.2769ZM47.1938 14.8628L46.2848 15.2794L46.2882 15.2869L46.2917 15.2942L47.1938 14.8628ZM47.5845 15.3511L46.9553 16.1283L46.9641 16.1354L46.973 16.1424L47.5845 15.3511ZM49.5986 15.1069L50.4156 15.6836L50.4233 15.6727L50.4307 15.6616L49.5986 15.1069ZM49.7817 14.6064L50.7734 14.7358L50.774 14.7305L49.7817 14.6064ZM49.8672 13.6421L48.9078 13.3599L48.902 13.3796L48.897 13.3996L49.8672 13.6421ZM50.1357 13.2637L50.7714 14.0356L50.7846 14.0248L50.7974 14.0135L50.1357 13.2637ZM50.7461 12.9707L51.0092 13.9355L51.0188 13.9329L51.0283 13.9301L50.7461 12.9707ZM53.3828 13.3491L52.5885 13.9566L52.6085 13.9828L52.6302 14.0076L53.3828 13.3491ZM53.5781 13.7642L52.5842 13.8746L52.585 13.881L53.5781 13.7642ZM53.3584 15.4731L52.4325 15.0952L52.4286 15.1051L53.3584 15.4731ZM52.7236 16.4985L53.4513 17.1846L53.4608 17.1743L52.7236 16.4985ZM50.6729 17.6826L50.3981 16.7211L50.3929 16.7226L50.6729 17.6826ZM44.8257 16.938L44.206 17.7229L44.2127 17.7281L44.8257 16.938ZM43.7026 15.5342L42.8057 15.9763L42.8082 15.9814L43.7026 15.5342ZM43.5439 8.63721L42.5996 8.3081L42.5953 8.32098L43.5439 8.63721ZM45.2529 6.46436L45.7235 7.34671L45.7311 7.34268L45.7386 7.33851L45.2529 6.46436ZM46.3638 6.0127L46.1113 5.04508L46.3638 6.0127ZM47.4258 5.82959L47.3545 4.83213L47.3528 4.83226L47.4258 5.82959ZM50.1968 5.97607L49.9752 6.95121L49.9783 6.95192L50.1968 5.97607ZM52.5649 7.17236L51.8361 7.85704L51.8468 7.86842L51.8578 7.87947L52.5649 7.17236ZM53.4805 8.88135L52.4989 9.07222L52.5014 9.08528L52.5043 9.09828L53.4805 8.88135ZM53.5537 10.1631L54.5492 10.2579L54.5496 10.2536L53.5537 10.1631ZM53.3584 10.6636L52.5391 10.0901L52.5331 10.0989L53.3584 10.6636ZM51.2588 11.2251L51.1875 12.2226L51.2059 12.2239L51.2243 12.2245L51.2588 11.2251ZM49.7573 9.52832L48.7611 9.61495L48.7632 9.63926L48.7665 9.66343L49.7573 9.52832ZM49.1348 8.71045L48.7181 9.61951L48.7405 9.62978L48.7634 9.63893L49.1348 8.71045ZM47.5845 8.72266L47.1056 7.84476L47.0969 7.8495L47.0883 7.85441L47.5845 8.72266ZM45.9863 13.7764C45.9863 13.9622 46.0033 14.1727 46.0301 14.396L48.0158 14.1577C47.9938 13.9742 47.9863 13.8509 47.9863 13.7764H45.9863ZM46.0307 14.4009C46.0688 14.7062 46.1566 14.9999 46.2848 15.2794L48.1029 14.4461C48.052 14.3351 48.0259 14.2381 48.0152 14.1528L46.0307 14.4009ZM46.2917 15.2942C46.4492 15.6235 46.6759 15.9021 46.9553 16.1283L48.2137 14.5738C48.1513 14.5233 48.1175 14.4764 48.096 14.4313L46.2917 15.2942ZM46.973 16.1424C47.3773 16.4547 47.8553 16.5586 48.3047 16.5586V14.5586C48.2293 14.5586 48.1895 14.5498 48.1757 14.5458C48.1642 14.5425 48.1757 14.5442 48.1959 14.5598L46.973 16.1424ZM48.3047 16.5586C48.7195 16.5586 49.1454 16.5142 49.5184 16.365L48.7756 14.508C48.7416 14.5216 48.606 14.5586 48.3047 14.5586V16.5586ZM49.5184 16.365C49.8491 16.2327 50.1781 16.0201 50.4156 15.6836L48.7817 14.5303C48.7913 14.5167 48.8006 14.506 48.8084 14.4982C48.8161 14.4905 48.8214 14.4864 48.823 14.4853C48.8257 14.4834 48.813 14.4931 48.7756 14.508L49.5184 16.365ZM50.4307 15.6616C50.6195 15.3784 50.7305 15.0639 50.7733 14.7358L48.7901 14.4771C48.7841 14.5234 48.7731 14.5425 48.7666 14.5522L50.4307 15.6616ZM50.774 14.7305C50.8039 14.4911 50.8184 14.2461 50.8184 13.9961H48.8184C48.8184 14.1693 48.8084 14.3312 48.7895 14.4824L50.774 14.7305ZM50.8184 13.9961C50.8184 13.9905 50.8196 13.9556 50.8373 13.8846L48.897 13.3996C48.8497 13.589 48.8184 13.7901 48.8184 13.9961H50.8184ZM50.8266 13.9243C50.8135 13.9687 50.795 14.0019 50.7804 14.0225C50.7666 14.0418 50.7599 14.0451 50.7714 14.0356L49.5 12.4917C49.2449 12.7018 49.0173 12.9876 48.9078 13.3599L50.8266 13.9243ZM50.7974 14.0135C50.7842 14.0251 50.7883 14.0179 50.8248 14.0004C50.8612 13.983 50.9204 13.9597 51.0092 13.9355L50.483 12.0059C50.1354 12.1007 49.7705 12.2523 49.4741 12.5138L50.7974 14.0135ZM51.0283 13.9301C51.1738 13.8873 51.4402 13.8486 51.8691 13.8486V11.8486C51.3541 11.8486 50.8717 11.8914 50.4639 12.0113L51.0283 13.9301ZM51.8691 13.8486C52.2472 13.8486 52.4287 13.8947 52.4878 13.9191L53.2525 12.0711C52.8395 11.9002 52.3537 11.8486 51.8691 11.8486V13.8486ZM52.4878 13.9191C52.5547 13.9468 52.5913 13.9689 52.6071 13.9798C52.6224 13.9903 52.6101 13.9848 52.5885 13.9566L54.1772 12.7417C53.9257 12.4129 53.5803 12.2068 53.2525 12.0711L52.4878 13.9191ZM52.6302 14.0076C52.6338 14.0117 52.6242 14.0017 52.6123 13.9763C52.5998 13.9498 52.5887 13.9147 52.5842 13.8746L54.572 13.6537C54.5295 13.2707 54.3598 12.9471 54.1354 12.6906L52.6302 14.0076ZM52.585 13.881C52.5994 14.0037 52.6025 14.0693 52.6025 14.0938H54.6025C54.6025 13.9555 54.5894 13.8014 54.5713 13.6473L52.585 13.881ZM52.6025 14.0938C52.6025 14.5114 52.5373 14.8387 52.4326 15.0952L54.2842 15.851C54.5051 15.31 54.6025 14.7177 54.6025 14.0938H52.6025ZM52.4286 15.1051C52.3163 15.3888 52.168 15.6248 51.9865 15.8228L53.4608 17.1743C53.8164 16.7863 54.0913 16.3387 54.2882 15.8412L52.4286 15.1051ZM51.996 15.8125C51.7992 16.0213 51.5714 16.1988 51.3085 16.3456L52.2833 18.0919C52.7202 17.8481 53.111 17.5454 53.4512 17.1845L51.996 15.8125ZM51.3085 16.3456C51.0281 16.502 50.7254 16.6276 50.3981 16.7211L50.9476 18.6441C51.4178 18.5098 51.8638 18.3261 52.2833 18.0919L51.3085 16.3456ZM50.3929 16.7226C50.0552 16.8211 49.7103 16.8915 49.3574 16.9339L49.5957 18.9196C50.0566 18.8643 50.5092 18.772 50.9529 18.6426L50.3929 16.7226ZM49.3574 16.9339C48.9864 16.9784 48.6357 17 48.3047 17V19C48.7224 19 49.1529 18.9728 49.5957 18.9196L49.3574 16.9339ZM48.3047 17C47.7516 17 47.221 16.9267 46.71 16.7816L46.164 18.7057C46.8574 18.9024 47.572 19 48.3047 19V17ZM46.71 16.7816C46.2251 16.644 45.8046 16.4318 45.4387 16.1479L44.2127 17.7281C44.7908 18.1766 45.4445 18.5015 46.164 18.7057L46.71 16.7816ZM45.4453 16.1531C45.1055 15.8848 44.8214 15.5356 44.5971 15.087L42.8082 15.9814C43.1535 16.672 43.6181 17.2587 44.206 17.7229L45.4453 16.1531ZM44.5996 15.092C44.3974 14.6819 44.2754 14.1488 44.2754 13.459H42.2754C42.2754 14.3805 42.4382 15.2309 42.8057 15.9763L44.5996 15.092ZM44.2754 13.459V10.6025H42.2754V13.459H44.2754ZM44.2754 10.6025C44.2754 9.90043 44.3575 9.35894 44.4926 8.95343L42.5953 8.32098C42.3724 8.9897 42.2754 9.75842 42.2754 10.6025H44.2754ZM44.4882 8.96628C44.6454 8.51527 44.8341 8.17701 45.0381 7.92767L43.4902 6.6612C43.1083 7.128 42.8168 7.68493 42.5996 8.30813L44.4882 8.96628ZM45.0381 7.92767C45.257 7.66013 45.4866 7.47308 45.7235 7.34671L44.7823 5.582C44.2869 5.84625 43.8572 6.21259 43.4902 6.6612L45.0381 7.92767ZM45.7386 7.33851C46.0373 7.17254 46.3296 7.05507 46.6162 6.98031L46.1113 5.04508C45.6492 5.16563 45.201 5.34927 44.7673 5.5902L45.7386 7.33851ZM46.6162 6.98031C46.9406 6.89567 47.2342 6.84628 47.4988 6.82692L47.3528 4.83226C46.95 4.86173 46.5356 4.93441 46.1113 5.04508L46.6162 6.98031ZM47.497 6.82705C47.8238 6.80371 48.0916 6.79297 48.3047 6.79297V4.79297C48.0295 4.79297 47.7114 4.80664 47.3545 4.83213L47.497 6.82705ZM48.3047 6.79297C48.9763 6.79297 49.5294 6.84989 49.9752 6.95121L50.4184 5.00094C49.79 4.85811 49.0817 4.79297 48.3047 4.79297V6.79297ZM49.9783 6.95192C50.4604 7.05985 50.8423 7.19694 51.1387 7.35127L52.0625 5.57744C51.5776 5.32487 51.0237 5.13644 50.4152 5.00023L49.9783 6.95192ZM51.1387 7.35127C51.4485 7.51265 51.6742 7.68465 51.8361 7.85704L53.2938 6.48769C52.9512 6.12297 52.5339 5.82296 52.0625 5.57744L51.1387 7.35127ZM51.8578 7.87947C52.0516 8.07322 52.188 8.26396 52.2809 8.44966L54.0697 7.55523C53.8696 7.15498 53.5991 6.79234 53.272 6.46526L51.8578 7.87947ZM52.2809 8.44966C52.3907 8.66934 52.4608 8.87645 52.4989 9.07222L54.4621 8.69048C54.3862 8.30031 54.2528 7.92148 54.0697 7.55523L52.2809 8.44966ZM52.5043 9.09828C52.5564 9.33301 52.5781 9.5321 52.5781 9.69922H54.5781C54.5781 9.36178 54.5347 9.01563 54.4567 8.66442L52.5043 9.09828ZM52.5781 9.69922C52.5781 9.7903 52.5723 9.9132 52.5578 10.0726L54.5496 10.2536C54.5677 10.0549 54.5781 9.86856 54.5781 9.69922H52.5781ZM52.5582 10.0683C52.5587 10.0635 52.5594 10.0594 52.5602 10.0562C52.5609 10.0532 52.5614 10.052 52.5611 10.0528C52.5605 10.0545 52.5554 10.067 52.5392 10.0901L54.1776 11.237C54.3749 10.9552 54.5141 10.6263 54.5492 10.2579L52.5582 10.0683ZM52.5331 10.0989C52.546 10.08 52.551 10.0798 52.5331 10.0939C52.5145 10.1085 52.4768 10.1341 52.411 10.1659L53.2805 11.967C53.6142 11.8059 53.9477 11.5732 54.1837 11.2283L52.5331 10.0989ZM52.411 10.1659C52.3708 10.1852 52.211 10.2373 51.8447 10.2373V12.2373C52.341 12.2373 52.8486 12.1755 53.2805 11.967L52.411 10.1659ZM51.8447 10.2373C51.7059 10.2373 51.5231 10.2336 51.2933 10.2257L51.2243 12.2245C51.4665 12.2329 51.6743 12.2373 51.8447 12.2373V10.2373ZM51.33 10.2276C51.1867 10.2174 51.0452 10.1893 50.9036 10.1421L50.2712 12.0395C50.5691 12.1388 50.8751 12.2002 51.1875 12.2226L51.33 10.2276ZM50.9036 10.1421C50.8222 10.115 50.7714 10.0803 50.733 10.0419L49.3188 11.4561C49.5896 11.727 49.9131 11.9202 50.2712 12.0395L50.9036 10.1421ZM50.733 10.0419C50.7492 10.0581 50.7632 10.076 50.7745 10.0942C50.7856 10.1122 50.792 10.1271 50.7952 10.1364C50.8014 10.1539 50.7939 10.1435 50.7939 10.0898H48.7939C48.7939 10.5563 48.9248 11.0622 49.3188 11.4561L50.733 10.0419ZM50.7939 10.0898C50.7939 9.85293 50.7791 9.62045 50.7482 9.39321L48.7665 9.66343C48.7843 9.79427 48.7939 9.93613 48.7939 10.0898H50.7939ZM50.7536 9.44169C50.7237 9.09798 50.614 8.76172 50.4034 8.46336L48.7695 9.61672C48.7669 9.61312 48.7645 9.60918 48.7625 9.60518C48.7604 9.6012 48.7592 9.59806 48.7585 9.59622C48.7571 9.59218 48.7595 9.59711 48.7611 9.61495L50.7536 9.44169ZM50.4034 8.46336C50.1659 8.12685 49.8369 7.91428 49.5062 7.78197L48.7634 9.63893C48.8008 9.65391 48.8135 9.66362 48.8108 9.66167C48.8092 9.66053 48.8039 9.65642 48.7962 9.64873C48.7884 9.64095 48.7791 9.63032 48.7695 9.61672L50.4034 8.46336ZM49.5514 7.80138C49.1662 7.62484 48.7229 7.57617 48.3047 7.57617V9.57617C48.4441 9.57617 48.5477 9.58503 48.6211 9.59691C48.696 9.60903 48.7227 9.6216 48.7181 9.61951L49.5514 7.80138ZM48.3047 7.57617C47.9102 7.57617 47.485 7.6378 47.1056 7.84476L48.0633 9.60055C48.0497 9.60797 48.0568 9.60113 48.0981 9.59273C48.1397 9.58428 48.2065 9.57617 48.3047 9.57617V7.57617ZM47.0883 7.85441C46.7927 8.02332 46.5302 8.25717 46.3406 8.56742L48.0471 9.61032C48.0432 9.61672 48.0404 9.61903 48.0426 9.61699C48.0452 9.61451 48.0561 9.60491 48.0806 9.5909L47.0883 7.85441ZM46.3406 8.56742C46.1844 8.82295 46.0791 9.10376 46.034 9.40439L48.0119 9.70107C48.0156 9.67619 48.0242 9.64776 48.0471 9.61032L46.3406 8.56742ZM46.034 9.40439C46.0041 9.60409 45.9863 9.80138 45.9863 9.99219H47.9863C47.9863 9.92258 47.993 9.8269 48.0119 9.70107L46.034 9.40439ZM45.9863 9.99219V13.7764H47.9863V9.99219H45.9863ZM58.9956 7.17236L58.2634 6.49121L58.2549 6.50055L58.9956 7.17236ZM60.0698 6.35449L59.6299 5.4564L59.6226 5.46006L60.0698 6.35449ZM62.3037 5.73193L62.2307 4.7346L62.2289 4.73473L62.3037 5.73193ZM64.8916 5.91504L64.6339 6.88129L64.6392 6.88266L64.8916 5.91504ZM66.0146 6.35449L65.5521 7.24111L65.5599 7.2451L66.0146 6.35449ZM67.04 7.17236L66.282 7.82466L66.2907 7.83456L67.04 7.17236ZM67.04 16.6206L66.2906 15.9583L66.282 15.9684L67.04 16.6206ZM66.0146 17.4385L65.5599 16.5478L65.5521 16.5519L66.0146 17.4385ZM64.8916 17.8779L64.6392 16.9103L64.6339 16.9117L64.8916 17.8779ZM62.3037 18.061L62.2289 19.0582L62.2307 19.0584L62.3037 18.061ZM60.0698 17.4385L59.6226 18.3329L59.63 18.3365L60.0698 17.4385ZM58.9956 16.6206L58.2548 17.2925L58.2634 17.3017L58.9956 16.6206ZM58.2144 15.3145L57.2829 15.6783L58.2144 15.3145ZM61.6689 14.2646H60.6689V14.2819L60.6695 14.2991L61.6689 14.2646ZM61.8398 14.8872L62.7161 14.4053L62.7086 14.3918L62.7008 14.3785L61.8398 14.8872ZM62.2549 15.3267L61.6838 16.1476L61.704 16.1616L61.7249 16.1747L62.2549 15.3267ZM63.8662 15.3267L64.4296 16.1529L64.4373 16.1476L63.8662 15.3267ZM64.2812 14.8872L65.1575 15.3691L65.1591 15.3661L64.2812 14.8872ZM64.4521 14.2646L65.4498 14.3335L65.4521 14.2991V14.2646H64.4521ZM64.4521 9.8457H65.4521V9.81241L65.4499 9.77918L64.4521 9.8457ZM64.2812 9.17432L65.1828 8.74159L65.1708 8.71664L65.1575 8.6924L64.2812 9.17432ZM63.8662 8.72266L63.233 9.49661L63.252 9.5122L63.2718 9.52683L63.8662 8.72266ZM62.2549 8.72266L62.8493 9.52685L62.8549 9.52266L62.2549 8.72266ZM61.8398 9.17432L60.9636 8.6924L60.958 8.70262L60.9526 8.71296L61.8398 9.17432ZM61.6689 9.8457L60.6695 9.81239L60.6689 9.82904V9.8457H61.6689ZM58.9092 10.3828C58.9092 9.7189 59.0002 9.21525 59.1458 8.84237L57.2829 8.11467C57.0217 8.78345 56.9092 9.54933 56.9092 10.3828H58.9092ZM59.1458 8.84237C59.3129 8.41457 59.5142 8.08903 59.7363 7.84418L58.2549 6.50055C57.8422 6.95557 57.5227 7.5008 57.2829 8.11467L59.1458 8.84237ZM59.7278 7.85347C59.9795 7.58285 60.243 7.38591 60.517 7.24892L59.6226 5.46006C59.1154 5.7137 58.6627 6.06201 58.2634 6.49126L59.7278 7.85347ZM60.5097 7.25255C60.8544 7.08372 61.1806 6.96271 61.4891 6.88396L60.9943 4.94612C60.5378 5.06269 60.0828 5.23464 59.63 5.45643L60.5097 7.25255ZM61.4891 6.88396C61.8263 6.79787 62.1218 6.74839 62.3785 6.72913L62.2289 4.73473C61.8346 4.76431 61.4221 4.8369 60.9943 4.94612L61.4891 6.88396ZM62.3767 6.72927C62.7017 6.70548 62.934 6.69531 63.085 6.69531V4.69531C62.8616 4.69531 62.573 4.70956 62.2307 4.7346L62.3767 6.72927ZM63.085 6.69531C63.2355 6.69531 63.4632 6.70543 63.7792 6.72913L63.9288 4.73473C63.5937 4.7096 63.3088 4.69531 63.085 4.69531V6.69531ZM63.7792 6.72913C64.034 6.74824 64.3183 6.7971 64.6339 6.88127L65.1493 4.9488C64.7325 4.83767 64.325 4.76445 63.9288 4.73473L63.7792 6.72913ZM64.6392 6.88266C64.9344 6.95966 65.2385 7.07746 65.5521 7.24108L66.4772 5.46791C66.0421 5.2409 65.5975 5.06573 65.144 4.94742L64.6392 6.88266ZM65.5599 7.2451C65.8183 7.37708 66.0592 7.56561 66.282 7.82461L67.798 6.52012C67.4187 6.07925 66.9759 5.72253 66.4694 5.46389L65.5599 7.2451ZM66.2907 7.83456C66.5053 8.07744 66.7001 8.40171 66.8605 8.82964L68.7332 8.12739C68.5031 7.51365 68.1932 6.96716 67.7894 6.51017L66.2907 7.83456ZM66.8605 8.82964C67.002 9.20678 67.0898 9.71513 67.0898 10.3828H69.0898C69.0898 9.5531 68.9824 8.79192 68.7332 8.12739L66.8605 8.82964ZM67.0898 10.3828V13.4102H69.0898V10.3828H67.0898ZM67.0898 13.4102C67.0898 14.0778 67.002 14.5862 66.8605 14.9633L68.7332 15.6656C68.9824 15.001 69.0898 14.2399 69.0898 13.4102H67.0898ZM66.8605 14.9633C66.7001 15.3913 66.5053 15.7155 66.2907 15.9584L67.7894 17.2828C68.1932 16.8258 68.5031 16.2793 68.7332 15.6656L66.8605 14.9633ZM66.282 15.9684C66.0592 16.2274 65.8183 16.4159 65.5599 16.5479L66.4694 18.3291C66.9759 18.0704 67.4187 17.7137 67.798 17.2728L66.282 15.9684ZM65.5521 16.5519C65.2385 16.7155 64.9344 16.8333 64.6392 16.9103L65.144 18.8455C65.5975 18.7272 66.0421 18.5521 66.4772 18.3251L65.5521 16.5519ZM64.6339 16.9117C64.3183 16.9959 64.034 17.0447 63.7792 17.0638L63.9288 19.0582C64.325 19.0285 64.7325 18.9553 65.1493 18.8442L64.6339 16.9117ZM63.7792 17.0638C63.4632 17.0875 63.2355 17.0977 63.085 17.0977V19.0977C63.3088 19.0977 63.5937 19.0834 63.9288 19.0582L63.7792 17.0638ZM63.085 17.0977C62.934 17.0977 62.7017 17.0875 62.3767 17.0637L62.2307 19.0584C62.573 19.0834 62.8616 19.0977 63.085 19.0977V17.0977ZM62.3785 17.0638C62.1218 17.0446 61.8263 16.9951 61.4891 16.909L60.9943 18.8468C61.4221 18.9561 61.8346 19.0287 62.2289 19.0582L62.3785 17.0638ZM61.4891 16.909C61.1806 16.8303 60.8544 16.7092 60.5097 16.5404L59.63 18.3365C60.0828 18.5583 60.5378 18.7303 60.9943 18.8468L61.4891 16.909ZM60.517 16.544C60.243 16.4071 59.9795 16.2101 59.7278 15.9395L58.2634 17.3017C58.6627 17.731 59.1154 18.0793 59.6226 18.3329L60.517 16.544ZM59.7363 15.9488C59.5142 15.7039 59.3129 15.3784 59.1458 14.9506L57.2829 15.6783C57.5227 16.2922 57.8422 16.8374 58.2549 17.2924L59.7363 15.9488ZM59.1458 14.9506C59.0002 14.5777 58.9092 14.0741 58.9092 13.4102H56.9092C56.9092 14.2436 57.0217 15.0095 57.2829 15.6783L59.1458 14.9506ZM58.9092 13.4102V10.3828H56.9092V13.4102H58.9092ZM60.6695 14.2991C60.6827 14.6793 60.7771 15.0543 60.9789 15.3959L62.7008 14.3785C62.691 14.362 62.6715 14.322 62.6684 14.2302L60.6695 14.2991ZM60.9636 15.3691C61.1424 15.6941 61.3984 15.949 61.6838 16.1476L62.8259 14.5058C62.737 14.4439 62.7164 14.4058 62.7161 14.4053L60.9636 15.3691ZM61.7249 16.1747C62.1443 16.4368 62.635 16.5098 63.085 16.5098V14.5098C62.9603 14.5098 62.8762 14.4989 62.8243 14.4875C62.7727 14.4761 62.7664 14.4671 62.7849 14.4787L61.7249 16.1747ZM63.085 16.5098C63.5208 16.5098 64.0139 16.4363 64.4295 16.1529L63.3029 14.5004C63.3358 14.478 63.3459 14.4816 63.3084 14.4904C63.2703 14.4993 63.1991 14.5098 63.085 14.5098V16.5098ZM64.4373 16.1476C64.7227 15.949 64.9787 15.6941 65.1575 15.3691L63.405 14.4053C63.4047 14.4058 63.3841 14.4439 63.2951 14.5058L64.4373 16.1476ZM65.1591 15.3661C65.336 15.0419 65.4252 14.6903 65.4498 14.3335L63.4545 14.1958C63.4466 14.311 63.4218 14.3745 63.4034 14.4084L65.1591 15.3661ZM65.4521 14.2646V9.8457H63.4521V14.2646H65.4521ZM65.4499 9.77918C65.4259 9.41873 65.34 9.06921 65.1828 8.74159L63.3797 9.60705C63.4178 9.68633 63.4458 9.7844 63.4544 9.91222L65.4499 9.77918ZM65.1575 8.6924C64.9831 8.37536 64.7354 8.12156 64.4606 7.91848L63.2718 9.52683C63.3714 9.60044 63.4004 9.64775 63.405 9.65624L65.1575 8.6924ZM64.4994 7.9487C64.0738 7.60042 63.5511 7.50293 63.085 7.50293V9.50293C63.1872 9.50293 63.2434 9.51418 63.2659 9.52051C63.2858 9.5261 63.2665 9.52406 63.233 9.49661L64.4994 7.9487ZM63.085 7.50293C62.6073 7.50293 62.0874 7.59829 61.6549 7.92266L62.8549 9.52266C62.8335 9.53869 62.8297 9.53385 62.8648 9.52457C62.9018 9.51476 62.9717 9.50293 63.085 9.50293V7.50293ZM61.6605 7.91848C61.3857 8.12156 61.138 8.37536 60.9636 8.6924L62.7161 9.65624C62.7207 9.64775 62.7497 9.60044 62.8493 9.52683L61.6605 7.91848ZM60.9526 8.71296C60.7735 9.05748 60.6823 9.42893 60.6695 9.81239L62.6684 9.87902C62.6719 9.7742 62.6946 9.69805 62.7271 9.63567L60.9526 8.71296ZM60.6689 9.8457V14.2646H62.6689V9.8457H60.6689ZM78.8418 16.0957L79.7768 16.4504L79.7781 16.4468L78.8418 16.0957ZM78.3413 17.1943L79.194 17.7169L79.2012 17.7049L78.3413 17.1943ZM77.4502 17.9756L77.5606 18.9695L77.5877 18.9665L77.6146 18.962L77.4502 17.9756ZM76.4858 17.9756L76.3299 18.9633L76.3554 18.9674L76.3812 18.9701L76.4858 17.9756ZM76.022 17.7681L75.4023 18.5529L75.4154 18.5633L75.4288 18.5731L76.022 17.7681ZM75.5459 17.2065L74.6979 17.7365L74.7017 17.7426L74.7056 17.7487L75.5459 17.2065ZM75.0332 16.0957L75.9702 15.7463L75.9674 15.7391L75.0332 16.0957ZM72.2744 8.86914L71.3381 9.22027L71.3402 9.22579L72.2744 8.86914ZM72.0669 8.24658L71.0968 8.48912L71.102 8.51002L71.1081 8.53067L72.0669 8.24658ZM72.0669 6.90381L71.1081 6.61972L71.1045 6.63173L71.1013 6.64384L72.0669 6.90381ZM74.3374 5.93945L73.8748 6.82604L73.8825 6.83003L73.8902 6.83388L74.3374 5.93945ZM74.8501 6.33008L74.1068 6.99904L74.1158 7.00906L74.1251 7.01883L74.8501 6.33008ZM75.5215 7.55078L74.56 7.8255L74.5627 7.83521L74.5657 7.84487L75.5215 7.55078ZM76.8887 11.9941L75.9329 12.2882L76.1501 12.9941H76.8887V11.9941ZM77.084 11.9941V12.9941H77.8383L78.0455 12.2689L77.084 11.9941ZM78.3535 7.55078L79.3151 7.82551L79.3165 7.82041L78.3535 7.55078ZM78.9761 6.3667L78.2345 5.69578L78.2328 5.69773L78.9761 6.3667ZM79.5132 5.95166L79.066 5.05723L79.0589 5.06078L79.0518 5.06444L79.5132 5.95166ZM80.978 5.95166L80.5167 6.83888L80.5309 6.84626L80.5453 6.85318L80.978 5.95166ZM81.4785 6.35449L80.6831 6.96054L80.6903 6.96995L80.6976 6.97919L81.4785 6.35449ZM81.7593 8.23438L80.7937 7.9744L80.789 7.99188L80.7849 8.00952L81.7593 8.23438ZM81.5518 8.86914L80.6308 8.4795L80.6227 8.4986L80.6154 8.51802L81.5518 8.86914ZM77.9068 15.741C77.7367 16.1896 77.5936 16.4949 77.4815 16.6838L79.2012 17.7049C79.3983 17.3729 79.5889 16.9458 79.7768 16.4504L77.9068 15.741ZM77.4887 16.6718C77.3632 16.8765 77.2793 16.9628 77.2495 16.9876L78.5298 18.5241C78.793 18.3048 79.0102 18.0167 79.1939 17.7169L77.4887 16.6718ZM77.2495 16.9876C77.226 17.0072 77.2168 17.0109 77.2227 17.0079C77.2295 17.0045 77.2512 16.995 77.2858 16.9892L77.6146 18.962C77.9793 18.9012 78.2849 18.7282 78.5298 18.5241L77.2495 16.9876ZM77.3398 16.9817C77.2335 16.9935 77.116 17 76.9863 17V19C77.1822 19 77.3739 18.9902 77.5606 18.9695L77.3398 16.9817ZM76.9863 17C76.8371 17 76.7056 16.9932 76.5905 16.9811L76.3812 18.9701C76.5753 18.9905 76.7774 19 76.9863 19V17ZM76.6418 16.9878C76.6584 16.9904 76.6657 16.9941 76.6623 16.9926C76.6583 16.9908 76.6424 16.9831 76.6152 16.963L75.4288 18.5731C75.6835 18.7609 75.985 18.9089 76.3299 18.9633L76.6418 16.9878ZM76.6416 16.9832C76.6062 16.9552 76.5172 16.8674 76.3862 16.6644L74.7056 17.7487C74.9001 18.0502 75.1285 18.3368 75.4023 18.5529L76.6416 16.9832ZM76.3939 16.6765C76.2825 16.4984 76.1391 16.1992 75.9702 15.7463L74.0962 16.4451C74.2854 16.9525 74.4837 17.3939 74.6979 17.7365L76.3939 16.6765ZM75.9674 15.7391L73.2087 8.51249L71.3402 9.22579L74.099 16.4524L75.9674 15.7391ZM73.2107 8.51802C73.1465 8.34681 73.0847 8.16179 73.0257 7.96249L71.1081 8.53067C71.1793 8.77082 71.2558 9.00085 71.3381 9.22026L73.2107 8.51802ZM73.037 8.00405C72.9985 7.85007 72.9814 7.70774 72.9814 7.5752H70.9814C70.9814 7.8821 71.0213 8.18737 71.0968 8.48912L73.037 8.00405ZM72.9814 7.5752C72.9814 7.42026 73.0001 7.28435 73.0325 7.16378L71.1013 6.64384C71.0198 6.94645 70.9814 7.25812 70.9814 7.5752H72.9814ZM73.0257 7.1879C73.0541 7.09188 73.0923 7.02676 73.134 6.97773L71.6101 5.68243C71.3751 5.95891 71.2099 6.27629 71.1081 6.61972L73.0257 7.1879ZM73.134 6.97773C73.1636 6.94286 73.2153 6.89771 73.3153 6.85326L72.503 5.02564C72.1636 5.17651 71.8572 5.39177 71.6101 5.68243L73.134 6.97773ZM73.3153 6.85326C73.3733 6.82751 73.4948 6.79297 73.7148 6.79297V4.79297C73.3002 4.79297 72.8846 4.85608 72.503 5.02564L73.3153 6.85326ZM73.7148 6.79297C73.7947 6.79297 73.8416 6.80871 73.8748 6.82604L74.8 5.05287C74.4588 4.87488 74.0907 4.79297 73.7148 4.79297V6.79297ZM73.8902 6.83388C73.9733 6.87541 74.0438 6.92904 74.1068 6.99904L75.5934 5.66111C75.3634 5.4056 75.0922 5.19881 74.7846 5.04503L73.8902 6.83388ZM74.1251 7.01883C74.2145 7.11289 74.2976 7.22676 74.3725 7.3657L76.1334 6.4175C75.9803 6.13326 75.795 5.87279 75.5751 5.64133L74.1251 7.01883ZM74.3725 7.3657C74.4528 7.51483 74.5149 7.66779 74.56 7.8255L76.483 7.27606C76.3979 6.97804 76.281 6.69155 76.1334 6.4175L74.3725 7.3657ZM74.5657 7.84487L75.9329 12.2882L77.8445 11.7001L76.4773 7.2567L74.5657 7.84487ZM76.8887 12.9941H77.084V10.9941H76.8887V12.9941ZM78.0455 12.2689L79.315 7.8255L77.392 7.27606L76.1225 11.7194L78.0455 12.2689ZM79.3165 7.82041C79.3544 7.68497 79.4114 7.53679 79.4921 7.37544L77.7032 6.48101C77.5723 6.74283 77.4666 7.0097 77.3906 7.28115L79.3165 7.82041ZM79.4921 7.37544C79.5609 7.23781 79.6376 7.1265 79.7194 7.03566L78.2328 5.69773C78.0216 5.93241 77.846 6.19546 77.7032 6.48101L79.4921 7.37544ZM79.7176 7.03761C79.7929 6.95445 79.8771 6.88952 79.9745 6.83888L79.0518 5.06444C78.7423 5.22539 78.4685 5.43715 78.2345 5.69579L79.7176 7.03761ZM79.9604 6.84609C80.0154 6.81859 80.099 6.79297 80.2334 6.79297V4.79297C79.8307 4.79297 79.4342 4.87314 79.066 5.05723L79.9604 6.84609ZM80.2334 6.79297C80.4091 6.79297 80.4898 6.82489 80.5167 6.83888L81.4394 5.06444C81.0594 4.86684 80.6436 4.79297 80.2334 4.79297V6.79297ZM80.5453 6.85318C80.6136 6.88596 80.6536 6.92179 80.6831 6.96054L82.2739 5.74845C82.043 5.4454 81.7494 5.21267 81.4108 5.05014L80.5453 6.85318ZM80.6976 6.97919C80.7323 7.02245 80.7665 7.08355 80.7913 7.17918L82.7273 6.67726C82.6381 6.33344 82.4852 6.01205 82.2594 5.7298L80.6976 6.97919ZM80.7913 7.17918C80.8269 7.31663 80.8447 7.45609 80.8447 7.59961H82.8447C82.8447 7.2874 82.8056 6.97927 82.7273 6.67726L80.7913 7.17918ZM80.8447 7.59961C80.8447 7.72032 80.8286 7.84455 80.7937 7.9744L82.7249 8.49435C82.8039 8.20102 82.8447 7.90207 82.8447 7.59961H80.8447ZM80.7849 8.00952C80.7498 8.16158 80.6991 8.31813 80.6308 8.4795L82.4727 9.25878C82.5835 8.99698 82.6711 8.73034 82.7337 8.45923L80.7849 8.00952ZM80.6154 8.51802L77.9055 15.7446L79.7781 16.4468L82.4881 9.22026L80.6154 8.51802ZM96.1367 11.5059L97.1322 11.6007L97.1326 11.5964L96.1367 11.5059ZM95.9414 12.0063L95.1221 11.4329L95.1161 11.4417L95.9414 12.0063ZM89.5693 12.5801V11.5801H88.5693V12.5801H89.5693ZM89.8867 14.9482L89.0431 15.4851L89.0516 15.4985L89.0605 15.5116L89.8867 14.9482ZM91.8276 15.4487L92.2216 16.3679L92.2315 16.3636L92.2414 16.3591L91.8276 15.4487ZM92.2427 15.1558L91.5099 14.4753L91.4964 14.4899L91.4834 14.505L92.2427 15.1558ZM92.5234 14.7896L93.3714 15.3195L92.5234 14.7896ZM92.8408 14.4233L92.2051 13.6514L92.1936 13.6609L92.1823 13.6708L92.8408 14.4233ZM93.4023 14.1426L93.6987 15.0976L93.7087 15.0946L93.7186 15.0913L93.4023 14.1426ZM94.9893 14.0693L94.8179 15.0546L94.8249 15.0557L94.9893 14.0693ZM95.856 14.6309L94.9797 15.1128L94.985 15.1224L94.9905 15.1319L95.856 14.6309ZM95.4897 16.5718L96.2135 17.2619L96.2214 17.2535L95.4897 16.5718ZM92.5845 17.8657L92.4355 16.8769L92.4334 16.8772L92.5845 17.8657ZM90.9365 18L90.9245 19H90.9365V18ZM87.3843 16.9624L86.7732 17.754L86.7799 17.7591L87.3843 16.9624ZM86.127 8.61279L85.1826 8.28369L85.1783 8.29657L86.127 8.61279ZM87.8359 6.43994L88.3065 7.32229L88.3141 7.31826L88.3216 7.3141L87.8359 6.43994ZM88.9468 5.98828L88.6944 5.02066L88.9468 5.98828ZM90.0088 5.80518L89.9375 4.80772L89.9358 4.80784L90.0088 5.80518ZM92.9873 5.98828L92.7416 6.95762L92.7448 6.95842L92.9873 5.98828ZM95.8926 8.34424L94.9462 8.66739L94.9487 8.67459L95.8926 8.34424ZM96.1123 9.34521L95.1168 9.44002L95.117 9.44231L96.1123 9.34521ZM89.5693 10.749H88.5693V11.749H89.5693V10.749ZM92.6211 10.749V11.749H93.6211V10.749H92.6211ZM92.5845 9.73584L91.5859 9.78982L91.5867 9.80436L91.5879 9.81889L92.5845 9.73584ZM92.4014 8.979L91.4998 9.41173L91.5068 9.42616L91.5142 9.44036L92.4014 8.979ZM91.9253 8.51514L91.4781 9.40956L91.4848 9.4129L91.4915 9.41614L91.9253 8.51514ZM90.2163 8.51514L89.74 7.63584L89.7321 7.64014L89.7243 7.64457L90.2163 8.51514ZM89.7891 8.91797L90.6346 9.45196L90.6407 9.44228L90.6466 9.43246L89.7891 8.91797ZM95.1611 11.042C95.1611 11.1331 95.1553 11.256 95.1408 11.4153L97.1326 11.5964C97.1507 11.3977 97.1611 11.2113 97.1611 11.042H95.1611ZM95.1412 11.4111C95.1417 11.4062 95.1424 11.4021 95.1432 11.399C95.1439 11.3959 95.1444 11.3947 95.1441 11.3956C95.1435 11.3973 95.1384 11.4097 95.1222 11.4329L96.7606 12.5798C96.958 12.2979 97.0971 11.9691 97.1322 11.6007L95.1412 11.4111ZM95.1161 11.4417C95.129 11.4228 95.134 11.4226 95.1161 11.4367C95.0975 11.4513 95.0598 11.4768 94.994 11.5086L95.8635 13.3097C96.1972 13.1486 96.5307 12.916 96.7667 12.571L95.1161 11.4417ZM94.994 11.5086C94.9538 11.528 94.794 11.5801 94.4277 11.5801V13.5801C94.9241 13.5801 95.4316 13.5182 95.8635 13.3097L94.994 11.5086ZM94.4277 11.5801H89.5693V13.5801H94.4277V11.5801ZM88.5693 12.5801V13.752H90.5693V12.5801H88.5693ZM88.5693 13.752C88.5693 14.0308 88.6042 14.3099 88.6682 14.5872L90.617 14.1374C90.5833 13.9915 90.5693 13.8637 90.5693 13.752H88.5693ZM88.6682 14.5872C88.742 14.9068 88.8667 15.208 89.0431 15.4851L90.7304 14.4114C90.6789 14.3304 90.6409 14.241 90.617 14.1374L88.6682 14.5872ZM89.0605 15.5116C89.27 15.8189 89.5409 16.066 89.8589 16.2515L90.8667 14.5239C90.7941 14.4816 90.7476 14.4357 90.7129 14.3849L89.0605 15.5116ZM89.8589 16.2515C90.2421 16.475 90.6665 16.5586 91.083 16.5586V14.5586C90.9299 14.5586 90.8741 14.5283 90.8667 14.5239L89.8589 16.2515ZM91.083 16.5586C91.4574 16.5586 91.8657 16.5204 92.2216 16.3679L91.4337 14.5296C91.4496 14.5228 91.4337 14.532 91.3673 14.5418C91.3033 14.5513 91.2104 14.5586 91.083 14.5586V16.5586ZM92.2414 16.3591C92.5137 16.2353 92.7848 16.0599 93.0019 15.8066L91.4834 14.505C91.4947 14.4918 91.4992 14.4903 91.489 14.4975C91.4785 14.5049 91.4552 14.5196 91.4138 14.5384L92.2414 16.3591ZM92.9755 15.8362C93.1238 15.6765 93.2561 15.5041 93.3714 15.3195L91.6754 14.2596C91.628 14.3354 91.5731 14.4072 91.5099 14.4753L92.9755 15.8362ZM93.3714 15.3195C93.3948 15.2822 93.4336 15.2334 93.4993 15.1759L92.1823 13.6708C91.9876 13.8412 91.8148 14.0365 91.6754 14.2596L93.3714 15.3195ZM93.4765 15.1953C93.4845 15.1887 93.5428 15.146 93.6987 15.0976L93.1059 13.1875C92.7898 13.2856 92.4738 13.4301 92.2051 13.6514L93.4765 15.1953ZM93.7186 15.0913C93.8163 15.0587 94.0278 15.0205 94.4033 15.0205V13.0205C93.9325 13.0205 93.4767 13.0637 93.0861 13.1939L93.7186 15.0913ZM94.4033 15.0205C94.5534 15.0205 94.6912 15.0325 94.8179 15.0545L95.1606 13.0841C94.913 13.0411 94.6602 13.0205 94.4033 13.0205V15.0205ZM94.8249 15.0557C94.9129 15.0704 94.9589 15.0925 94.9805 15.1057L96.0234 13.3992C95.7521 13.2334 95.4562 13.1334 95.1537 13.0829L94.8249 15.0557ZM94.9805 15.1057C94.9788 15.1047 94.9767 15.1032 94.9745 15.1015C94.9724 15.0997 94.9708 15.0982 94.97 15.0973C94.9681 15.0953 94.9721 15.0988 94.9797 15.1128L96.7322 14.1489C96.5658 13.8465 96.3305 13.5869 96.0234 13.3992L94.9805 15.1057ZM94.9905 15.1319C94.976 15.1067 94.9762 15.0968 94.98 15.1143C94.984 15.1325 94.9902 15.1727 94.9902 15.2412H96.9902C96.9902 14.8817 96.9281 14.4868 96.7214 14.1298L94.9905 15.1319ZM94.9902 15.2412C94.9902 15.5395 94.9047 15.7328 94.7581 15.8901L96.2214 17.2535C96.7421 16.6946 96.9902 16.0009 96.9902 15.2412H94.9902ZM94.766 15.8817C94.5392 16.1195 94.2398 16.3266 93.8457 16.4919L94.6191 18.3363C95.2341 18.0784 95.7729 17.7239 96.2135 17.2619L94.766 15.8817ZM93.8457 16.4919C93.4244 16.6686 92.9558 16.7985 92.4355 16.8769L92.7335 18.8546C93.4013 18.7539 94.0314 18.5827 94.6191 18.3363L93.8457 16.4919ZM92.4334 16.8772C91.89 16.9602 91.3916 17 90.9365 17V19C91.5069 19 92.1071 18.9503 92.7355 18.8543L92.4334 16.8772ZM90.9486 17.0001C90.3503 16.9929 89.7903 16.9174 89.2655 16.7774L88.7501 18.7099C89.446 18.8954 90.1718 18.9909 90.9245 18.9999L90.9486 17.0001ZM89.2655 16.7774C88.7722 16.6459 88.3505 16.4402 87.9887 16.1657L86.7799 17.7591C87.3621 18.2008 88.0227 18.5159 88.7501 18.7099L89.2655 16.7774ZM87.9953 16.1708C87.6664 15.9169 87.3909 15.5769 87.1754 15.1267L85.3715 15.9905C85.7093 16.6959 86.1744 17.2917 86.7732 17.754L87.9953 16.1708ZM87.1754 15.1267C86.9799 14.7186 86.8584 14.1675 86.8584 13.4346H84.8584C84.8584 14.378 85.0135 15.243 85.3715 15.9905L87.1754 15.1267ZM86.8584 13.4346V10.5781H84.8584V13.4346H86.8584ZM86.8584 10.5781C86.8584 9.87602 86.9405 9.33452 87.0756 8.92902L85.1783 8.29657C84.9554 8.96528 84.8584 9.73401 84.8584 10.5781H86.8584ZM87.0713 8.94187C87.2284 8.49085 87.4171 8.15259 87.6211 7.90326L86.0732 6.63678C85.6913 7.10359 85.3998 7.66051 85.1826 8.28372L87.0713 8.94187ZM87.6211 7.90326C87.84 7.63571 88.0696 7.44867 88.3065 7.32229L87.3653 5.55759C86.8699 5.82184 86.4402 6.18818 86.0732 6.63678L87.6211 7.90326ZM88.3216 7.3141C88.6203 7.14813 88.9126 7.03066 89.1992 6.9559L88.6944 5.02066C88.2322 5.14122 87.784 5.32485 87.3503 5.56578L88.3216 7.3141ZM89.1992 6.9559C89.5237 6.87126 89.8172 6.82187 90.0818 6.80251L89.9358 4.80784C89.533 4.83731 89.1186 4.90999 88.6944 5.02066L89.1992 6.9559ZM90.08 6.80263C90.4068 6.7793 90.6746 6.76855 90.8877 6.76855V4.76855C90.6125 4.76855 90.2944 4.78223 89.9375 4.80772L90.08 6.80263ZM90.8877 6.76855C91.6556 6.76855 92.2679 6.83754 92.7416 6.95762L93.2331 5.01895C92.5511 4.84606 91.7637 4.76855 90.8877 4.76855V6.76855ZM92.7448 6.95842C93.2633 7.08805 93.6522 7.24705 93.935 7.41793L94.9693 5.7061C94.4708 5.40497 93.8832 5.18148 93.2298 5.01814L92.7448 6.95842ZM93.935 7.41793C94.2341 7.59861 94.438 7.78734 94.5748 7.97308L96.1849 6.78668C95.8661 6.35394 95.4514 5.99741 94.9693 5.7061L93.935 7.41793ZM94.5748 7.97308C94.7475 8.20738 94.8681 8.43868 94.9462 8.66738L96.8389 8.02109C96.6892 7.58248 96.468 7.17087 96.1849 6.78668L94.5748 7.97308ZM94.9487 8.67459C95.0361 8.92431 95.0919 9.1789 95.1168 9.44002L97.1078 9.25041C97.0676 8.82794 96.9769 8.41521 96.8364 8.01389L94.9487 8.67459ZM95.117 9.44231C95.1469 9.7482 95.1611 10.0288 95.1611 10.2852H97.1611C97.1611 9.95554 97.1428 9.60955 97.1076 9.24811L95.117 9.44231ZM95.1611 10.2852V11.042H97.1611V10.2852H95.1611ZM89.5693 11.749H92.6211V9.74902H89.5693V11.749ZM93.6211 10.749C93.6211 10.3466 93.6083 9.98015 93.581 9.65279L91.5879 9.81889C91.6095 10.0775 91.6211 10.3865 91.6211 10.749H93.6211ZM93.583 9.68186C93.5614 9.28133 93.4773 8.88056 93.2886 8.51765L91.5142 9.44036C91.537 9.48435 91.575 9.58813 91.5859 9.78982L93.583 9.68186ZM93.3029 8.54627C93.0989 8.1212 92.7657 7.80992 92.3591 7.61414L91.4915 9.41614C91.503 9.42166 91.5093 9.42571 91.5117 9.42742C91.5141 9.42906 91.5136 9.42893 91.5112 9.42668C91.5089 9.42438 91.5061 9.42125 91.5036 9.41768C91.5024 9.41601 91.5014 9.41455 91.5008 9.41342C91.5001 9.41229 91.4998 9.41168 91.4998 9.41173L93.3029 8.54627ZM92.3725 7.62071C91.9577 7.41333 91.4708 7.35645 91.0098 7.35645V9.35645C91.1673 9.35645 91.2841 9.36707 91.3669 9.38143C91.4513 9.39606 91.4816 9.41135 91.4781 9.40956L92.3725 7.62071ZM91.0098 7.35645C90.5866 7.35645 90.1369 7.42089 89.74 7.63584L90.6926 9.39443C90.686 9.398 90.7027 9.3876 90.7573 9.3767C90.8119 9.36578 90.894 9.35645 91.0098 9.35645V7.35645ZM89.7243 7.64457C89.4068 7.82398 89.1295 8.07361 88.9316 8.40347L90.6466 9.43246C90.6468 9.43206 90.6485 9.42905 90.6551 9.42278C90.6623 9.41606 90.6781 9.40278 90.7084 9.3857L89.7243 7.64457ZM88.9436 8.38398C88.7704 8.65811 88.6591 8.96072 88.6151 9.28334L90.5968 9.55357C90.6016 9.51812 90.6124 9.48707 90.6346 9.45196L88.9436 8.38398ZM88.6151 9.28334C88.5863 9.49444 88.5693 9.69975 88.5693 9.89453H90.5693C90.5693 9.81262 90.5767 9.70055 90.5968 9.55357L88.6151 9.28334ZM88.5693 9.89453V10.749H90.5693V9.89453H88.5693ZM108.61 9.01562L107.932 8.28076L107.922 8.28967L108.61 9.01562ZM106.925 9.47949L106.981 10.478L107.005 10.4766L107.03 10.474L106.925 9.47949ZM106.449 9.57715L106.724 10.5387L106.745 10.5327L106.765 10.5258L106.449 9.57715ZM105.924 9.80908L106.42 10.6773L106.427 10.6737L106.433 10.67L105.924 9.80908ZM105.448 10.2241L106.207 10.8749L106.215 10.8662L106.222 10.8574L105.448 10.2241ZM104.899 16.3154L103.907 16.1883L103.905 16.2008L103.904 16.2134L104.899 16.3154ZM104.655 17.1699L105.537 17.6406L105.543 17.6286L104.655 17.1699ZM102.14 17.7681L101.592 18.6045L102.14 17.7681ZM101.591 17.1699L100.691 17.6055L100.699 17.6232L100.708 17.6405L101.591 17.1699ZM101.347 16.3154L100.352 16.4175L100.353 16.43L100.355 16.4426L101.347 16.3154ZM101.347 7.51416L100.354 7.39013L100.353 7.40111L100.352 7.41213L101.347 7.51416ZM101.591 6.64746L100.702 6.18882L100.696 6.20028L100.691 6.2119L101.591 6.64746ZM102.14 6.04932L102.667 6.89896L102.678 6.89249L102.688 6.88578L102.14 6.04932ZM104.057 6.09814L103.408 6.85939L103.423 6.87223L103.439 6.88446L104.057 6.09814ZM104.557 6.80615L103.617 7.14581L103.62 7.15434L104.557 6.80615ZM104.74 7.77051L103.741 7.81592L103.741 7.81697L104.74 7.77051ZM104.765 8.7959H103.765V9.7959H104.765V8.7959ZM104.96 8.7959V9.7959H105.741L105.93 9.03843L104.96 8.7959ZM105.412 7.56299L106.302 8.01812L106.306 8.0102L105.412 7.56299ZM106.034 6.62305L106.776 7.29333L106.782 7.28748L106.787 7.28155L106.034 6.62305ZM108.317 5.92725L107.966 6.86358L107.989 6.87219L108.012 6.87967L108.317 5.92725ZM108.086 7.62402C108.086 8.11192 107.964 8.2513 107.932 8.28082L109.288 9.75043C109.891 9.19402 110.086 8.40566 110.086 7.62402H108.086ZM107.922 8.28967C107.857 8.35178 107.694 8.45508 107.279 8.45508V10.4551C108.02 10.4551 108.745 10.2654 109.298 9.74158L107.922 8.28967ZM107.279 8.45508C107.144 8.45508 106.985 8.4677 106.821 8.48499L107.03 10.474C107.175 10.4587 107.251 10.4551 107.279 10.4551V8.45508ZM106.87 8.48103C106.617 8.49507 106.37 8.54952 106.133 8.62847L106.765 10.5258C106.87 10.4908 106.94 10.4802 106.981 10.478L106.87 8.48103ZM106.174 8.61562C105.909 8.69144 105.656 8.80614 105.416 8.94816L106.433 10.67C106.551 10.6004 106.648 10.5605 106.724 10.5387L106.174 8.61562ZM105.428 8.94084C105.134 9.1088 104.885 9.33345 104.674 9.59088L106.222 10.8574C106.305 10.7567 106.373 10.7047 106.42 10.6773L105.428 8.94084ZM104.689 9.57333C104.44 9.86419 104.266 10.2062 104.146 10.5671L106.043 11.1995C106.102 11.0232 106.164 10.9259 106.207 10.8749L104.689 9.57333ZM104.146 10.5671C104.013 10.9645 103.96 11.3984 103.96 11.8477H105.96C105.96 11.5483 105.996 11.3393 106.043 11.1995L104.146 10.5671ZM103.96 11.8477V15.3389H105.96V11.8477H103.96ZM103.96 15.3389C103.96 15.6318 103.942 15.9148 103.907 16.1883L105.891 16.4426C105.937 16.0813 105.96 15.7132 105.96 15.3389H103.96ZM103.904 16.2134C103.883 16.4217 103.832 16.5831 103.766 16.7113L105.543 17.6286C105.738 17.2522 105.85 16.844 105.894 16.4175L103.904 16.2134ZM103.772 16.6993C103.727 16.7839 103.663 16.8569 103.558 16.9232L104.628 18.6129C105.012 18.37 105.322 18.0442 105.537 17.6405L103.772 16.6993ZM103.558 16.9232C103.53 16.9414 103.409 17 103.104 17V19C103.631 19 104.169 18.9039 104.628 18.6129L103.558 16.9232ZM103.104 17C102.81 17 102.704 16.9421 102.688 16.9316L101.592 18.6045C102.048 18.9033 102.585 19 103.104 19V17ZM102.688 16.9316C102.59 16.8671 102.523 16.7924 102.473 16.6993L100.708 17.6405C100.919 18.0357 101.219 18.3598 101.592 18.6045L102.688 16.9316ZM102.491 16.7344C102.422 16.5919 102.367 16.4135 102.339 16.1883L100.355 16.4426C100.407 16.8521 100.515 17.2433 100.691 17.6055L102.491 16.7344ZM102.341 16.2134C102.313 15.9314 102.298 15.64 102.298 15.3389H100.298C100.298 15.7051 100.316 16.0647 100.352 16.4175L102.341 16.2134ZM102.298 15.3389V8.50293H100.298V15.3389H102.298ZM102.298 8.50293C102.298 8.19282 102.313 7.89738 102.341 7.61619L100.352 7.41213C100.316 7.76571 100.298 8.12945 100.298 8.50293H102.298ZM102.339 7.63819C102.368 7.40282 102.424 7.22206 102.491 7.08302L100.691 6.2119C100.514 6.57742 100.406 6.97446 100.354 7.39013L102.339 7.63819ZM102.479 7.1061C102.529 7.01068 102.589 6.94796 102.667 6.89896L101.613 5.19968C101.22 5.44365 100.913 5.77969 100.702 6.18882L102.479 7.1061ZM102.688 6.88578C102.704 6.87527 102.81 6.81738 103.104 6.81738V4.81738C102.585 4.81738 102.048 4.91411 101.592 5.21286L102.688 6.88578ZM103.104 6.81738C103.384 6.81738 103.434 6.88167 103.408 6.85939L104.705 5.3369C104.239 4.94027 103.655 4.81738 103.104 4.81738V6.81738ZM103.439 6.88446C103.508 6.93907 103.569 7.01527 103.617 7.1458L105.498 6.46651C105.333 6.0111 105.061 5.61529 104.674 5.31183L103.439 6.88446ZM103.62 7.15434C103.684 7.32641 103.729 7.54325 103.741 7.81592L105.739 7.7251C105.719 7.28162 105.642 6.85556 105.495 6.45797L103.62 7.15434ZM103.741 7.81697C103.757 8.15219 103.765 8.47848 103.765 8.7959H105.765C105.765 8.446 105.756 8.08869 105.739 7.72405L103.741 7.81697ZM104.765 9.7959H104.96V7.7959H104.765V9.7959ZM105.93 9.03843C106.028 8.64616 106.154 8.30795 106.302 8.0181L104.521 7.10788C104.295 7.55045 104.12 8.03418 103.99 8.55336L105.93 9.03843ZM106.306 8.0102C106.462 7.69888 106.621 7.46511 106.776 7.29333L105.292 5.95276C104.992 6.28554 104.736 6.6784 104.517 7.11577L106.306 8.0102ZM106.787 7.28155C106.948 7.09704 107.1 6.98038 107.236 6.90802L106.297 5.14179C105.913 5.34612 105.576 5.62822 105.282 5.96454L106.787 7.28155ZM107.236 6.90802C107.371 6.83614 107.472 6.81738 107.548 6.81738V4.81738C107.103 4.81738 106.683 4.93697 106.297 5.14179L107.236 6.90802ZM107.548 6.81738C107.801 6.81738 107.925 6.84843 107.966 6.86358L108.668 4.99092C108.318 4.85958 107.929 4.81738 107.548 4.81738V6.81738ZM108.012 6.87967C108.036 6.88725 108.04 6.89187 108.034 6.88747C108.031 6.88536 108.026 6.88171 108.02 6.87636C108.014 6.87098 108.009 6.86492 108.004 6.85857L109.582 5.63069C109.327 5.30203 108.987 5.09178 108.622 4.97482L108.012 6.87967ZM108.004 6.85857C107.996 6.84915 108.021 6.87503 108.04 6.98194L110.009 6.63036C109.947 6.28154 109.818 5.93307 109.582 5.63069L108.004 6.85857ZM108.04 6.98194C108.068 7.13494 108.086 7.34557 108.086 7.62402H110.086C110.086 7.26771 110.063 6.93309 110.009 6.63036L108.04 6.98194Z" fill="#744949"/>
</g>
<defs>
<filter id="filter0_bd_3_1678" x="0.28125" y="-3.08984" width="112.805" height="29.1875" filterUnits="userSpaceOnUse" color-interpolation-filters="sRGB">
<feFlood flood-opacity="0" result="BackgroundImageFix"/>
<feGaussianBlur in="BackgroundImage" stdDeviation="2"/>
<feComposite in2="SourceAlpha" operator="in" result="effect1_backgroundBlur_3_1678"/>
<feColorMatrix in="SourceAlpha" type="matrix" values="0 0 0 0 0 0 0 0 0 0 0 0 0 0 0 0 0 0 127 0" result="hardAlpha"/>
<feOffset dy="4"/>
<feGaussianBlur stdDeviation="2"/>
<feComposite in2="hardAlpha" operator="out"/>
<feColorMatrix type="matrix" values="0 0 0 0 0 0 0 0 0 0 0 0 0 0 0 0 0 0 0.25 0"/>
<feBlend mode="normal" in2="effect1_backgroundBlur_3_1678" result="effect2_dropShadow_3_1678"/>
<feBlend mode="normal" in="SourceGraphic" in2="effect2_dropShadow_3_1678" result="shape"/>
</filter>
</defs>
</svg>
