<svg width="100" height="22" viewBox="0 0 100 22" fill="none" xmlns="http://www.w3.org/2000/svg">
<g filter="url(#filter0_bd_3_1670)">
<path d="M8.69318 0.183594C9.28562 0.183594 9.83575 0.258464 10.3436 0.408203C10.8579 0.557943 11.3039 0.782552 11.6815 1.08203C12.0656 1.375 12.3651 1.74284 12.5799 2.18555C12.8012 2.62826 12.9119 3.14583 12.9119 3.73828V9.79297C12.9119 10.3008 12.8566 10.75 12.7459 11.1406C12.6352 11.5247 12.4887 11.86 12.3065 12.1465C12.1307 12.4264 11.9289 12.6673 11.701 12.8691C11.4731 13.0645 11.242 13.224 11.0076 13.3477C10.4477 13.6471 9.81297 13.8164 9.10333 13.8555H5.86115C5.49005 13.8555 5.20359 13.7936 5.00177 13.6699C4.79995 13.5397 4.65346 13.3704 4.56232 13.1621C4.47117 12.9473 4.41583 12.7064 4.3963 12.4395C4.38328 12.1725 4.37677 11.8958 4.37677 11.6094V2.41016C4.37677 2.13021 4.38328 1.85677 4.3963 1.58984C4.41583 1.32292 4.47117 1.08529 4.56232 0.876953C4.65346 0.66862 4.79995 0.502604 5.00177 0.378906C5.20359 0.248698 5.49005 0.183594 5.86115 0.183594H8.69318ZM7.34552 2.46875V11.5312H8.61505C8.895 11.5182 9.14565 11.4531 9.367 11.3359C9.45815 11.2904 9.5493 11.2285 9.64044 11.1504C9.73159 11.0723 9.81297 10.9811 9.88458 10.877C9.9562 10.7663 10.0115 10.6361 10.0506 10.4863C10.0962 10.3366 10.119 10.1641 10.119 9.96875V4.20703C10.119 3.99219 10.0962 3.80339 10.0506 3.64062C10.0115 3.47135 9.9562 3.32487 9.88458 3.20117C9.81297 3.07747 9.73159 2.97331 9.64044 2.88867C9.5493 2.80404 9.45815 2.73568 9.367 2.68359C9.14565 2.5599 8.895 2.48828 8.61505 2.46875H7.34552ZM16.5135 7.76172C16.5135 7.16276 16.5949 6.65495 16.7576 6.23828C16.9204 5.82161 17.1287 5.47331 17.3826 5.19336C17.643 4.91341 17.9295 4.69531 18.242 4.53906C18.561 4.38281 18.8735 4.26562 19.1795 4.1875C19.4855 4.10938 19.7687 4.06055 20.0291 4.04102C20.296 4.02148 20.5044 4.01172 20.6541 4.01172C20.8039 4.01172 21.0089 4.02148 21.2693 4.04102C21.5298 4.06055 21.8065 4.10938 22.0994 4.1875C22.3989 4.26562 22.6984 4.38281 22.9979 4.53906C23.3039 4.69531 23.5773 4.91341 23.8182 5.19336C24.0656 5.47331 24.2674 5.82161 24.4236 6.23828C24.5799 6.65495 24.658 7.16276 24.658 7.76172V10.1836C24.658 10.7826 24.5799 11.2904 24.4236 11.707C24.2674 12.1237 24.0656 12.472 23.8182 12.752C23.5773 13.0319 23.3039 13.25 22.9979 13.4062C22.6984 13.5625 22.3989 13.6797 22.0994 13.7578C21.8065 13.8359 21.5298 13.8848 21.2693 13.9043C21.0089 13.9238 20.8039 13.9336 20.6541 13.9336C20.5044 13.9336 20.296 13.9238 20.0291 13.9043C19.7687 13.8848 19.4855 13.8359 19.1795 13.7578C18.8735 13.6797 18.561 13.5625 18.242 13.4062C17.9295 13.25 17.643 13.0319 17.3826 12.752C17.1287 12.472 16.9204 12.1237 16.7576 11.707C16.5949 11.2904 16.5135 10.7826 16.5135 10.1836V7.76172ZM19.5213 10.8672C19.5278 11.056 19.5734 11.222 19.658 11.3652C19.7296 11.4954 19.8403 11.6126 19.9901 11.7168C20.1463 11.8145 20.3677 11.8633 20.6541 11.8633C20.9276 11.8633 21.1359 11.8145 21.2791 11.7168C21.4289 11.6126 21.5395 11.4954 21.6111 11.3652C21.6893 11.222 21.7348 11.056 21.7479 10.8672V7.33203C21.7348 7.13672 21.6893 6.95768 21.6111 6.79492C21.5395 6.66471 21.4289 6.54427 21.2791 6.43359C21.1359 6.31641 20.9276 6.25781 20.6541 6.25781C20.3677 6.25781 20.1463 6.31641 19.9901 6.43359C19.8403 6.54427 19.7296 6.66471 19.658 6.79492C19.5734 6.95768 19.5278 7.13672 19.5213 7.33203V10.8672ZM34.2557 5.22266C34.5682 5.22266 34.8449 5.32357 35.0858 5.52539C35.3332 5.7207 35.5512 6.07552 35.7401 6.58984L36.7752 9.34375H36.9315L38.0252 5.51562C38.0773 5.33333 38.1424 5.15755 38.2205 4.98828C38.3052 4.81901 38.4061 4.66927 38.5233 4.53906C38.6404 4.40234 38.7804 4.29492 38.9432 4.2168C39.1059 4.13216 39.3012 4.08984 39.5291 4.08984C39.7635 4.08984 39.9621 4.13216 40.1248 4.2168C40.2876 4.30143 40.421 4.41211 40.5252 4.54883C40.6294 4.68555 40.7042 4.8418 40.7498 5.01758C40.7954 5.19336 40.8182 5.3724 40.8182 5.55469C40.8182 5.73047 40.7921 5.90299 40.7401 6.07227C40.6945 6.23503 40.6424 6.40104 40.5838 6.57031L38.4158 12.332C38.2661 12.7161 38.1294 13.0124 38.0057 13.2207C37.8885 13.4225 37.7713 13.5723 37.6541 13.6699C37.5369 13.7611 37.4197 13.8164 37.3026 13.8359C37.1854 13.849 37.0617 13.8555 36.9315 13.8555C36.7882 13.8555 36.6515 13.849 36.5213 13.8359C36.3976 13.8164 36.2707 13.7611 36.1404 13.6699C36.0167 13.5723 35.8898 13.4225 35.7596 13.2207C35.6294 13.0124 35.4927 12.7161 35.3494 12.332L34.3338 8.81641H34.1776L33.1229 12.332C32.9796 12.7161 32.8462 13.0124 32.7225 13.2207C32.6053 13.4225 32.4881 13.5723 32.3709 13.6699C32.2602 13.7611 32.1463 13.8164 32.0291 13.8359C31.9119 13.849 31.7882 13.8555 31.658 13.8555C31.5148 13.8555 31.3781 13.849 31.2479 13.8359C31.1242 13.8164 30.9972 13.7611 30.867 13.6699C30.7433 13.5723 30.6164 13.4225 30.4861 13.2207C30.3559 13.0124 30.2192 12.7161 30.076 12.332L27.8885 6.57031C27.8299 6.41406 27.7746 6.24805 27.7225 6.07227C27.6769 5.88997 27.6541 5.71094 27.6541 5.53516C27.6541 5.34635 27.6769 5.16406 27.7225 4.98828C27.7746 4.8125 27.8527 4.65951 27.9568 4.5293C28.0675 4.39258 28.2108 4.28516 28.3865 4.20703C28.5623 4.12891 28.7804 4.08984 29.0408 4.08984C29.2231 4.08984 29.3859 4.13216 29.5291 4.2168C29.6789 4.29492 29.8123 4.40234 29.9295 4.53906C30.0467 4.66927 30.1476 4.81901 30.2322 4.98828C30.3169 5.15755 30.3885 5.33333 30.4471 5.51562L31.6776 9.34375H31.8338L32.7322 6.58984C32.895 6.07552 33.1098 5.7207 33.3768 5.52539C33.6502 5.32357 33.9432 5.22266 34.2557 5.22266ZM52.4861 11.6289C52.4861 11.9089 52.4699 12.1823 52.4373 12.4492C52.4048 12.7161 52.3332 12.9538 52.2225 13.1621C52.1183 13.3704 51.9653 13.5397 51.7635 13.6699C51.5682 13.7936 51.3012 13.8555 50.9627 13.8555C50.6307 13.8555 50.367 13.7936 50.1717 13.6699C49.9764 13.5397 49.8266 13.3704 49.7225 13.1621C49.6183 12.9538 49.5499 12.7161 49.5174 12.4492C49.4914 12.1823 49.4783 11.9089 49.4783 11.6289V7.82031C49.4783 7.63802 49.4686 7.45898 49.449 7.2832C49.436 7.10742 49.4002 6.95443 49.3416 6.82422C49.283 6.6875 49.1951 6.58008 49.0779 6.50195C48.9673 6.41732 48.8143 6.375 48.619 6.375C48.352 6.375 48.1372 6.46289 47.9744 6.63867C47.8117 6.81445 47.6815 7.05534 47.5838 7.36133C47.4927 7.66732 47.4308 8.02865 47.3983 8.44531C47.3657 8.85547 47.3494 9.29818 47.3494 9.77344V11.6289C47.3494 11.9089 47.3332 12.1823 47.3006 12.4492C47.268 12.7161 47.1964 12.9538 47.0858 13.1621C46.9816 13.3704 46.8286 13.5397 46.6268 13.6699C46.4315 13.7936 46.1645 13.8555 45.826 13.8555C45.494 13.8555 45.2303 13.7936 45.035 13.6699C44.8397 13.5397 44.6899 13.3704 44.5858 13.1621C44.4816 12.9538 44.4132 12.7161 44.3807 12.4492C44.3546 12.1823 44.3416 11.9089 44.3416 11.6289V6.29688C44.3416 6.01693 44.3514 5.74674 44.3709 5.48633C44.3904 5.2194 44.449 4.98503 44.5467 4.7832C44.6443 4.57487 44.7908 4.40885 44.9861 4.28516C45.188 4.15495 45.4679 4.08984 45.826 4.08984C46.1841 4.08984 46.464 4.15169 46.6658 4.27539C46.8677 4.39258 47.0174 4.53581 47.1151 4.70508C47.2192 4.87435 47.2843 5.05339 47.3104 5.24219C47.3364 5.43099 47.3494 5.59375 47.3494 5.73047C47.4015 5.54167 47.4829 5.34961 47.5936 5.1543C47.7042 4.95898 47.8442 4.7832 48.0135 4.62695C48.1893 4.4707 48.3976 4.34375 48.6385 4.24609C48.8794 4.14193 49.1593 4.08984 49.4783 4.08984C49.8364 4.08984 50.1945 4.14844 50.5526 4.26562C50.9106 4.38281 51.2329 4.57812 51.5193 4.85156C51.8058 5.125 52.0369 5.48307 52.2127 5.92578C52.395 6.36849 52.4861 6.91536 52.4861 7.56641V11.6289ZM56.9861 2.35156C56.9861 2.07812 56.9992 1.8112 57.0252 1.55078C57.0578 1.29036 57.1261 1.05924 57.2303 0.857422C57.3345 0.655599 57.4842 0.492839 57.6795 0.369141C57.8748 0.245443 58.1385 0.183594 58.4705 0.183594C58.8091 0.183594 59.076 0.245443 59.2713 0.369141C59.4666 0.492839 59.6131 0.655599 59.7108 0.857422C59.8149 1.05924 59.88 1.29036 59.9061 1.55078C59.9386 1.8112 59.9549 2.07812 59.9549 2.35156V11.668C59.9549 11.9414 59.9386 12.2116 59.9061 12.4785C59.88 12.7389 59.8149 12.9733 59.7108 13.1816C59.6131 13.3835 59.4666 13.5462 59.2713 13.6699C59.076 13.7936 58.8091 13.8555 58.4705 13.8555C58.1385 13.8555 57.8748 13.7936 57.6795 13.6699C57.4842 13.5462 57.3345 13.3835 57.2303 13.1816C57.1261 12.9733 57.0578 12.7389 57.0252 12.4785C56.9992 12.2116 56.9861 11.9414 56.9861 11.668V2.35156ZM64.1033 7.76172C64.1033 7.16276 64.1847 6.65495 64.3475 6.23828C64.5102 5.82161 64.7186 5.47331 64.9725 5.19336C65.2329 4.91341 65.5193 4.69531 65.8318 4.53906C66.1509 4.38281 66.4634 4.26562 66.7693 4.1875C67.0753 4.10938 67.3585 4.06055 67.619 4.04102C67.8859 4.02148 68.0942 4.01172 68.244 4.01172C68.3937 4.01172 68.5988 4.02148 68.8592 4.04102C69.1196 4.06055 69.3963 4.10938 69.6893 4.1875C69.9887 4.26562 70.2882 4.38281 70.5877 4.53906C70.8937 4.69531 71.1671 4.91341 71.408 5.19336C71.6554 5.47331 71.8572 5.82161 72.0135 6.23828C72.1697 6.65495 72.2479 7.16276 72.2479 7.76172V10.1836C72.2479 10.7826 72.1697 11.2904 72.0135 11.707C71.8572 12.1237 71.6554 12.472 71.408 12.752C71.1671 13.0319 70.8937 13.25 70.5877 13.4062C70.2882 13.5625 69.9887 13.6797 69.6893 13.7578C69.3963 13.8359 69.1196 13.8848 68.8592 13.9043C68.5988 13.9238 68.3937 13.9336 68.244 13.9336C68.0942 13.9336 67.8859 13.9238 67.619 13.9043C67.3585 13.8848 67.0753 13.8359 66.7693 13.7578C66.4634 13.6797 66.1509 13.5625 65.8318 13.4062C65.5193 13.25 65.2329 13.0319 64.9725 12.752C64.7186 12.472 64.5102 12.1237 64.3475 11.707C64.1847 11.2904 64.1033 10.7826 64.1033 10.1836V7.76172ZM67.1111 10.8672C67.1177 11.056 67.1632 11.222 67.2479 11.3652C67.3195 11.4954 67.4302 11.6126 67.5799 11.7168C67.7361 11.8145 67.9575 11.8633 68.244 11.8633C68.5174 11.8633 68.7257 11.8145 68.869 11.7168C69.0187 11.6126 69.1294 11.4954 69.201 11.3652C69.2791 11.222 69.3247 11.056 69.3377 10.8672V7.33203C69.3247 7.13672 69.2791 6.95768 69.201 6.79492C69.1294 6.66471 69.0187 6.54427 68.869 6.43359C68.7257 6.31641 68.5174 6.25781 68.244 6.25781C67.9575 6.25781 67.7361 6.31641 67.5799 6.43359C67.4302 6.54427 67.3195 6.66471 67.2479 6.79492C67.1632 6.95768 67.1177 7.13672 67.1111 7.33203V10.8672ZM83.9158 11.6484C83.9158 11.9219 83.9061 12.1921 83.8865 12.459C83.867 12.7194 83.8084 12.9538 83.7108 13.1621C83.6131 13.3704 83.4666 13.5397 83.2713 13.6699C83.076 13.7936 82.8026 13.8555 82.451 13.8555C82.0929 13.8555 81.813 13.7969 81.6111 13.6797C81.4093 13.556 81.2596 13.4095 81.1619 13.2402C81.0643 13.0645 81.0024 12.8822 80.9764 12.6934C80.9568 12.5046 80.9471 12.3451 80.9471 12.2148C80.8885 12.4036 80.8039 12.5957 80.6932 12.791C80.589 12.9863 80.4523 13.1621 80.283 13.3184C80.1137 13.4746 79.9087 13.6048 79.6678 13.709C79.4334 13.8066 79.1567 13.8555 78.8377 13.8555C78.4796 13.8555 78.1216 13.7969 77.7635 13.6797C77.4054 13.5625 77.0832 13.3672 76.7967 13.0938C76.5102 12.8203 76.2759 12.4655 76.0936 12.0293C75.9178 11.5866 75.8299 11.043 75.8299 10.3984V7.56641C75.8299 6.91536 75.9178 6.37174 76.0936 5.93555C76.2759 5.49284 76.5102 5.13802 76.7967 4.87109C77.0832 4.59766 77.4054 4.40234 77.7635 4.28516C78.1216 4.16797 78.4796 4.10938 78.8377 4.10938C79.1567 4.10938 79.4334 4.1582 79.6678 4.25586C79.9087 4.35352 80.1137 4.48047 80.283 4.63672C80.4523 4.79297 80.589 4.96875 80.6932 5.16406C80.8039 5.35938 80.8885 5.55469 80.9471 5.75C80.9471 5.42448 80.9927 5.1543 81.0838 4.93945C81.1749 4.72461 81.2921 4.55534 81.4354 4.43164C81.5786 4.30143 81.7381 4.21354 81.9139 4.16797C82.0962 4.11589 82.2752 4.08984 82.451 4.08984C82.7765 4.08984 83.0369 4.15495 83.2322 4.28516C83.4276 4.40885 83.574 4.57487 83.6717 4.7832C83.7759 4.98503 83.841 5.22266 83.867 5.49609C83.8996 5.76302 83.9158 6.03646 83.9158 6.31641V11.6484ZM78.8377 10.1445C78.8377 10.3203 78.8442 10.4928 78.8572 10.6621C78.8703 10.8314 78.9061 10.9844 78.9647 11.1211C79.0233 11.2578 79.1079 11.3685 79.2186 11.4531C79.3358 11.5312 79.4953 11.5703 79.6971 11.5703C79.951 11.5703 80.1561 11.515 80.3123 11.4043C80.4751 11.2871 80.602 11.1113 80.6932 10.877C80.7843 10.6361 80.8462 10.3366 80.8787 9.97852C80.9178 9.61393 80.9406 9.18099 80.9471 8.67969C80.9471 8.47786 80.9276 8.24674 80.8885 7.98633C80.8559 7.7194 80.7941 7.46875 80.7029 7.23438C80.6118 7 80.4848 6.80143 80.3221 6.63867C80.1593 6.47591 79.951 6.39453 79.6971 6.39453C79.4953 6.39453 79.3358 6.43685 79.2186 6.52148C79.1079 6.59961 79.0233 6.70378 78.9647 6.83398C78.9061 6.96419 78.8703 7.11393 78.8572 7.2832C78.8442 7.44596 78.8377 7.61198 78.8377 7.78125V10.1445ZM95.8572 11.6484C95.8572 11.9219 95.8475 12.1921 95.8279 12.459C95.8084 12.7194 95.7498 12.9538 95.6522 13.1621C95.5545 13.3704 95.408 13.5397 95.2127 13.6699C95.0174 13.7936 94.744 13.8555 94.3924 13.8555C94.0343 13.8555 93.7544 13.7969 93.5526 13.6797C93.3507 13.556 93.201 13.4095 93.1033 13.2402C93.0057 13.0645 92.9438 12.8822 92.9178 12.6934C92.8983 12.5046 92.8885 12.3451 92.8885 12.2148C92.8299 12.4036 92.7453 12.5957 92.6346 12.791C92.5304 12.9863 92.3937 13.1621 92.2244 13.3184C92.0552 13.4746 91.8501 13.6048 91.6092 13.709C91.3748 13.8066 91.0981 13.8555 90.7791 13.8555C90.421 13.8555 90.063 13.7969 89.7049 13.6797C89.3468 13.5625 89.0246 13.3672 88.7381 13.0938C88.4516 12.8203 88.2173 12.4655 88.035 12.0293C87.8592 11.5866 87.7713 11.043 87.7713 10.3984V7.56641C87.7713 6.91536 87.8592 6.37174 88.035 5.93555C88.2173 5.49284 88.4516 5.13802 88.7381 4.87109C89.0246 4.59766 89.3468 4.40234 89.7049 4.28516C90.063 4.16797 90.421 4.10938 90.7791 4.10938C91.0981 4.10938 91.3748 4.1582 91.6092 4.25586C91.8501 4.35352 92.0552 4.48047 92.2244 4.63672C92.3937 4.79297 92.5304 4.96875 92.6346 5.16406C92.7453 5.35938 92.8299 5.55469 92.8885 5.75V2.41016C92.8885 2.13021 92.9015 1.85677 92.9276 1.58984C92.9601 1.31641 93.0252 1.07878 93.1229 0.876953C93.227 0.66862 93.3768 0.502604 93.5721 0.378906C93.7739 0.248698 94.0473 0.183594 94.3924 0.183594C94.7179 0.183594 94.9783 0.248698 95.1736 0.378906C95.369 0.502604 95.5154 0.66862 95.6131 0.876953C95.7173 1.07878 95.7824 1.31641 95.8084 1.58984C95.841 1.85677 95.8572 2.13021 95.8572 2.41016V11.6484ZM90.7791 10.1445C90.7791 10.3203 90.7856 10.4928 90.7986 10.6621C90.8117 10.8314 90.8475 10.9844 90.9061 11.1211C90.9647 11.2578 91.0493 11.3685 91.16 11.4531C91.2772 11.5312 91.4367 11.5703 91.6385 11.5703C91.8924 11.5703 92.0975 11.515 92.2537 11.4043C92.4165 11.2871 92.5434 11.1113 92.6346 10.877C92.7257 10.6361 92.7876 10.3366 92.8201 9.97852C92.8592 9.61393 92.882 9.18099 92.8885 8.67969C92.8885 8.47786 92.869 8.24674 92.8299 7.98633C92.7973 7.7194 92.7355 7.46875 92.6443 7.23438C92.5532 7 92.4262 6.80143 92.2635 6.63867C92.1007 6.47591 91.8924 6.39453 91.6385 6.39453C91.4367 6.39453 91.2772 6.43685 91.16 6.52148C91.0493 6.59961 90.9647 6.70378 90.9061 6.83398C90.8475 6.96419 90.8117 7.11393 90.7986 7.2832C90.7856 7.44596 90.7791 7.61198 90.7791 7.78125V10.1445Z" fill="#D84242"/>
<path d="M10.3436 0.408203L10.0607 1.36738L10.064 1.36834L10.3436 0.408203ZM11.6815 1.08203L11.0601 1.86553L11.0675 1.87141L11.075 1.87715L11.6815 1.08203ZM12.5799 2.18555L11.6802 2.62218L11.6855 2.63276L12.5799 2.18555ZM12.7459 11.1406L13.7068 11.4175L13.708 11.4132L12.7459 11.1406ZM12.3065 12.1465L11.4628 11.6096L11.4596 11.6147L12.3065 12.1465ZM11.701 12.8691L12.3518 13.6284L12.3579 13.6231L12.364 13.6177L11.701 12.8691ZM11.0076 13.3477L10.5409 12.4633L10.536 12.4659L11.0076 13.3477ZM9.10333 13.8555V14.8555H9.13083L9.1583 14.854L9.10333 13.8555ZM5.00177 13.6699L4.45964 14.5102L4.46935 14.5165L4.47921 14.5225L5.00177 13.6699ZM4.56232 13.1621L3.64168 13.5527L3.64616 13.5629L4.56232 13.1621ZM4.3963 12.4395L3.39749 12.4882L3.39808 12.5003L3.39897 12.5124L4.3963 12.4395ZM4.3963 1.58984L3.39897 1.51687L3.39808 1.52899L3.39749 1.54112L4.3963 1.58984ZM5.00177 0.378906L5.52433 1.23151L5.53419 1.22547L5.5439 1.2192L5.00177 0.378906ZM7.34552 2.46875V1.46875H6.34552V2.46875H7.34552ZM7.34552 11.5312H6.34552V12.5312H7.34552V11.5312ZM8.61505 11.5312V12.5312H8.63829L8.66151 12.5302L8.61505 11.5312ZM9.367 11.3359L8.91979 10.4415L8.90939 10.4467L8.89912 10.4521L9.367 11.3359ZM9.88458 10.877L10.7086 11.4435L10.7166 11.432L10.7242 11.4202L9.88458 10.877ZM10.0506 10.4863L9.09392 10.1952L9.08806 10.2144L9.08298 10.2339L10.0506 10.4863ZM10.0506 3.64062L9.07621 3.86548L9.0814 3.888L9.08763 3.91025L10.0506 3.64062ZM9.367 2.68359L9.86317 1.81531L9.85483 1.81065L9.367 2.68359ZM8.61505 2.46875L8.68465 1.47117L8.64989 1.46875H8.61505V2.46875ZM8.69318 1.18359C9.20111 1.18359 9.65494 1.24772 10.0607 1.36737L10.6264 -0.550966C10.0166 -0.730789 9.37014 -0.816406 8.69318 -0.816406V1.18359ZM10.064 1.36834C10.4679 1.48592 10.7946 1.65501 11.0601 1.86553L12.3029 0.298534C11.8131 -0.0899103 11.2479 -0.370036 10.6231 -0.551933L10.064 1.36834ZM11.075 1.87715C11.3323 2.07339 11.5324 2.31752 11.6802 2.62214L13.4796 1.74895C13.1977 1.16815 12.7988 0.676611 12.2879 0.286909L11.075 1.87715ZM11.6855 2.63276C11.825 2.91185 11.9119 3.27079 11.9119 3.73828H13.9119C13.9119 3.02087 13.7775 2.34466 13.4743 1.73833L11.6855 2.63276ZM11.9119 3.73828V9.79297H13.9119V3.73828H11.9119ZM11.9119 9.79297C11.9119 10.2306 11.864 10.585 11.7838 10.868L13.708 11.4132C13.8492 10.915 13.9119 10.371 13.9119 9.79297H11.9119ZM11.785 10.8638C11.6962 11.1718 11.5856 11.4166 11.4628 11.6096L13.1501 12.6834C13.3919 12.3035 13.5742 11.8776 13.7068 11.4175L11.785 10.8638ZM11.4596 11.6147C11.3301 11.8209 11.1887 11.9871 11.038 12.1206L12.364 13.6177C12.669 13.3476 12.9312 13.032 13.1533 12.6783L11.4596 11.6147ZM11.0502 12.1099C10.8715 12.263 10.7014 12.3785 10.5409 12.4633L11.4744 14.232C11.7826 14.0694 12.0747 13.8659 12.3518 13.6284L11.0502 12.1099ZM10.536 12.4659C10.1194 12.6887 9.62974 12.825 9.04837 12.857L9.1583 14.854C9.99619 14.8078 10.7761 14.6056 11.4793 14.2294L10.536 12.4659ZM9.10333 12.8555H5.86115V14.8555H9.10333V12.8555ZM5.86115 12.8555C5.72875 12.8555 5.63744 12.8442 5.57903 12.8316C5.52073 12.819 5.50942 12.8082 5.52433 12.8173L4.47921 14.5225C4.90369 14.7827 5.40135 14.8555 5.86115 14.8555V12.8555ZM5.5439 12.8296C5.49746 12.7997 5.48631 12.7792 5.47847 12.7613L3.64616 13.5629C3.82062 13.9617 4.10244 14.2798 4.45964 14.5102L5.5439 12.8296ZM5.4829 12.7716C5.44035 12.6713 5.40632 12.5398 5.39363 12.3665L3.39897 12.5124C3.42535 12.8729 3.502 13.2233 3.64174 13.5527L5.4829 12.7716ZM5.39511 12.3907C5.38294 12.1411 5.37677 11.8807 5.37677 11.6094H3.37677C3.37677 11.9109 3.38362 12.2039 3.39749 12.4882L5.39511 12.3907ZM5.37677 11.6094V2.41016H3.37677V11.6094H5.37677ZM5.37677 2.41016C5.37677 2.14569 5.38292 1.88852 5.39511 1.63857L3.39749 1.54112C3.38364 1.82502 3.37677 2.11472 3.37677 2.41016H5.37677ZM5.39363 1.66282C5.40632 1.48943 5.44002 1.36566 5.47847 1.27777L3.64616 0.476134C3.50232 0.804914 3.42534 1.1564 3.39897 1.51687L5.39363 1.66282ZM5.47847 1.27777C5.48419 1.26471 5.48922 1.25303 5.52433 1.23151L4.47921 -0.473695C4.11068 -0.247822 3.82274 0.0725282 3.64616 0.476134L5.47847 1.27777ZM5.5439 1.2192C5.52752 1.22977 5.5357 1.2198 5.5896 1.20755C5.64404 1.19518 5.73164 1.18359 5.86115 1.18359V-0.816406C5.39463 -0.816406 4.88874 -0.738224 4.45964 -0.46139L5.5439 1.2192ZM5.86115 1.18359H8.69318V-0.816406H5.86115V1.18359ZM6.34552 2.46875V11.5312H8.34552V2.46875H6.34552ZM7.34552 12.5312H8.61505V10.5312H7.34552V12.5312ZM8.66151 12.5302C9.07108 12.5111 9.46852 12.4137 9.83489 12.2197L8.89912 10.4521C8.82278 10.4926 8.71892 10.5253 8.56859 10.5323L8.66151 12.5302ZM9.81422 12.2304C9.99009 12.1424 10.1487 12.0318 10.2912 11.9096L8.98965 10.3911C8.9499 10.4252 8.92621 10.4383 8.91979 10.4415L9.81422 12.2304ZM10.2912 11.9096C10.4516 11.7722 10.5905 11.6153 10.7086 11.4435L9.06054 10.3104C9.03547 10.3469 9.01153 10.3724 8.98965 10.3911L10.2912 11.9096ZM10.7242 11.4202C10.8627 11.206 10.9568 10.9741 11.0182 10.7388L9.08298 10.2339C9.06626 10.298 9.04965 10.3265 9.04501 10.3337L10.7242 11.4202ZM11.0073 10.7775C11.0877 10.5134 11.119 10.2394 11.119 9.96875H9.11896C9.11896 10.0887 9.10469 10.1598 9.09392 10.1952L11.0073 10.7775ZM11.119 9.96875V4.20703H9.11896V9.96875H11.119ZM11.119 4.20703C11.119 3.92443 11.0893 3.6415 11.0136 3.371L9.08763 3.91025C9.10304 3.96527 9.11896 4.05995 9.11896 4.20703H11.119ZM11.025 3.41577C10.9682 3.16963 10.8809 2.92616 10.75 2.70014L9.01916 3.70221C9.03153 3.72358 9.05488 3.77308 9.07621 3.86548L11.025 3.41577ZM10.75 2.70014C10.6359 2.50298 10.4948 2.31736 10.3209 2.15588L8.95999 3.62147C8.96838 3.62926 8.99007 3.65197 9.01916 3.70221L10.75 2.70014ZM10.3209 2.15588C10.1837 2.02846 10.0316 1.9116 9.86314 1.81535L8.87087 3.55184C8.88473 3.55976 8.91492 3.57961 8.95999 3.62147L10.3209 2.15588ZM9.85483 1.81065C9.49178 1.60777 9.09566 1.49985 8.68465 1.47117L8.54545 3.46633C8.69434 3.47671 8.79952 3.51202 8.87918 3.55654L9.85483 1.81065ZM8.61505 1.46875H7.34552V3.46875H8.61505V1.46875ZM17.3826 5.19336L16.6504 4.5122L16.6419 4.52154L17.3826 5.19336ZM18.242 4.53906L17.8021 3.64097L17.7948 3.64464L18.242 4.53906ZM20.0291 4.04102L19.9561 3.04368L19.9543 3.04382L20.0291 4.04102ZM22.0994 4.1875L21.8418 5.15375L21.847 5.15512L22.0994 4.1875ZM22.9979 4.53906L22.5353 5.42568L22.5431 5.42967L22.9979 4.53906ZM23.8182 5.19336L23.0601 5.84566L23.0688 5.85556L23.8182 5.19336ZM23.8182 12.752L23.0688 12.0897L23.0602 12.0997L23.8182 12.752ZM22.9979 13.4062L22.5431 12.5156L22.5353 12.5197L22.9979 13.4062ZM22.0994 13.7578L21.847 12.7902L21.8418 12.7916L22.0994 13.7578ZM20.0291 13.9043L19.9543 14.9015L19.9561 14.9016L20.0291 13.9043ZM18.242 13.4062L17.7948 14.3007L17.8021 14.3043L18.242 13.4062ZM17.3826 12.752L16.6419 13.4238L16.6504 13.4331L17.3826 12.752ZM16.7576 11.707L15.8262 12.0709L16.7576 11.707ZM19.5213 10.8672H18.5213V10.8844L18.5219 10.9016L19.5213 10.8672ZM19.658 11.3652L20.5342 10.8833L20.5268 10.8698L20.5189 10.8565L19.658 11.3652ZM19.9901 11.7168L19.419 12.5377L19.4392 12.5518L19.4601 12.5648L19.9901 11.7168ZM21.2791 11.7168L21.8425 12.5431L21.8502 12.5377L21.2791 11.7168ZM21.6111 11.3652L22.4874 11.8472L22.489 11.8441L21.6111 11.3652ZM21.7479 10.8672L22.7455 10.936L22.7479 10.9016V10.8672H21.7479ZM21.7479 7.33203H22.7479V7.29873L22.7456 7.26551L21.7479 7.33203ZM21.6111 6.79492L22.5127 6.36219L22.5007 6.33725L22.4874 6.313L21.6111 6.79492ZM21.2791 6.43359L20.6459 7.20755L20.6649 7.22314L20.6847 7.23777L21.2791 6.43359ZM19.9901 6.43359L20.5845 7.23779L20.5901 7.23359L19.9901 6.43359ZM19.658 6.79492L18.7818 6.313L18.7762 6.32322L18.7708 6.33357L19.658 6.79492ZM19.5213 7.33203L18.5219 7.29872L18.5213 7.31537V7.33203H19.5213ZM17.5135 7.76172C17.5135 7.24754 17.5841 6.87085 17.6891 6.60213L15.8262 5.87443C15.6056 6.43905 15.5135 7.07798 15.5135 7.76172H17.5135ZM17.6891 6.60213C17.8155 6.2785 17.9647 6.04004 18.1233 5.86517L16.6419 4.52154C16.2927 4.90657 16.0253 5.36473 15.8262 5.87443L17.6891 6.60213ZM18.1148 5.87446C18.3015 5.67383 18.4934 5.53142 18.6892 5.43349L17.7948 3.64464C17.3657 3.8592 16.9846 4.15299 16.6504 4.51226L18.1148 5.87446ZM18.6819 5.43713C18.9468 5.30735 19.195 5.21564 19.4269 5.15642L18.9321 3.21858C18.5521 3.31561 18.1752 3.45827 17.8021 3.641L18.6819 5.43713ZM19.4269 5.15642C19.6876 5.08986 19.9123 5.05258 20.1039 5.03821L19.9543 3.04382C19.6251 3.06851 19.2834 3.12889 18.9321 3.21858L19.4269 5.15642ZM20.1021 5.03835C20.3604 5.01945 20.5405 5.01172 20.6541 5.01172V3.01172C20.4682 3.01172 20.2317 3.02352 19.9561 3.04368L20.1021 5.03835ZM20.6541 5.01172C20.7672 5.01172 20.9437 5.0194 21.1946 5.03821L21.3441 3.04382C21.0742 3.02357 20.8405 3.01172 20.6541 3.01172V5.01172ZM21.1946 5.03821C21.3843 5.05244 21.5993 5.08909 21.8418 5.15373L22.3571 3.22127C22.0136 3.12966 21.6753 3.06865 21.3441 3.04382L21.1946 5.03821ZM21.847 5.15512C22.0673 5.21259 22.2966 5.30109 22.5353 5.42565L23.4604 3.65248C23.1002 3.46453 22.7305 3.31866 22.3518 3.21988L21.847 5.15512ZM22.5431 5.42967C22.7251 5.52259 22.8975 5.65659 23.0602 5.8456L24.5762 4.54112C24.2571 4.17023 23.8827 3.86804 23.4526 3.64846L22.5431 5.42967ZM23.0688 5.85556C23.2216 6.02845 23.3659 6.26564 23.4873 6.5894L25.36 5.88716C25.1689 5.37758 24.9095 4.91816 24.5675 4.53116L23.0688 5.85556ZM23.4873 6.5894C23.5897 6.86238 23.658 7.24378 23.658 7.76172H25.658C25.658 7.08174 25.5701 6.44752 25.36 5.88716L23.4873 6.5894ZM23.658 7.76172V10.1836H25.658V7.76172H23.658ZM23.658 10.1836C23.658 10.7015 23.5897 11.0829 23.4873 11.3559L25.36 12.0582C25.5701 11.4978 25.658 10.8636 25.658 10.1836H23.658ZM23.4873 11.3559C23.3659 11.6797 23.2216 11.9169 23.0688 12.0898L24.5675 13.4142C24.9095 13.0271 25.1689 12.5677 25.36 12.0582L23.4873 11.3559ZM23.0602 12.0997C22.8975 12.2887 22.7251 12.4227 22.5431 12.5156L23.4526 14.2969C23.8827 14.0773 24.2571 13.7751 24.5762 13.4042L23.0602 12.0997ZM22.5353 12.5197C22.2966 12.6442 22.0673 12.7327 21.847 12.7902L22.3518 14.7254C22.7305 14.6267 23.1002 14.4808 23.4604 14.2928L22.5353 12.5197ZM21.8418 12.7916C21.5993 12.8562 21.3843 12.8929 21.1946 12.9071L21.3441 14.9015C21.6753 14.8767 22.0136 14.8157 22.3571 14.724L21.8418 12.7916ZM21.1946 12.9071C20.9437 12.9259 20.7672 12.9336 20.6541 12.9336V14.9336C20.8405 14.9336 21.0742 14.9217 21.3441 14.9015L21.1946 12.9071ZM20.6541 12.9336C20.5405 12.9336 20.3604 12.9259 20.1021 12.907L19.9561 14.9016C20.2317 14.9218 20.4682 14.9336 20.6541 14.9336V12.9336ZM20.1039 12.9071C19.9123 12.8927 19.6876 12.8555 19.4269 12.7889L18.9321 14.7267C19.2834 14.8164 19.6251 14.8768 19.9543 14.9015L20.1039 12.9071ZM19.4269 12.7889C19.195 12.7297 18.9468 12.638 18.6819 12.5082L17.8021 14.3043C18.1752 14.487 18.5521 14.6297 18.9321 14.7267L19.4269 12.7889ZM18.6892 12.5118C18.4934 12.4139 18.3015 12.2715 18.1148 12.0708L16.6504 13.4331C16.9846 13.7923 17.3657 14.0861 17.7948 14.3007L18.6892 12.5118ZM18.1233 12.0801C17.9647 11.9053 17.8155 11.6668 17.6891 11.3432L15.8262 12.0709C16.0253 12.5806 16.2927 13.0387 16.6419 13.4238L18.1233 12.0801ZM17.6891 11.3432C17.5841 11.0745 17.5135 10.6978 17.5135 10.1836H15.5135C15.5135 10.8673 15.6056 11.5063 15.8262 12.0709L17.6891 11.3432ZM17.5135 10.1836V7.76172H15.5135V10.1836H17.5135ZM18.5219 10.9016C18.5334 11.2347 18.6164 11.5682 18.7971 11.874L20.5189 10.8565C20.5209 10.8598 20.5224 10.8629 20.5235 10.8655C20.5246 10.868 20.5249 10.8692 20.5247 10.8686C20.5244 10.8676 20.5215 10.8567 20.5207 10.8327L18.5219 10.9016ZM18.7818 11.8472C18.9426 12.1396 19.171 12.3652 19.419 12.5377L20.5611 10.8959C20.5355 10.878 20.5242 10.8667 20.5218 10.8642C20.5197 10.862 20.5259 10.8682 20.5342 10.8833L18.7818 11.8472ZM19.4601 12.5648C19.8404 12.8025 20.2758 12.8633 20.6541 12.8633V10.8633C20.5653 10.8633 20.5129 10.8555 20.4887 10.8501C20.4647 10.8448 20.482 10.845 20.5201 10.8688L19.4601 12.5648ZM20.6541 12.8633C21.0216 12.8633 21.4626 12.802 21.8425 12.543L20.7158 10.8906C20.7666 10.8559 20.7987 10.8504 20.7873 10.853C20.7821 10.8542 20.769 10.8569 20.7462 10.8592C20.7234 10.8615 20.693 10.8633 20.6541 10.8633V12.8633ZM21.8502 12.5377C22.0981 12.3652 22.3265 12.1396 22.4874 11.8472L20.7349 10.8833C20.7433 10.8682 20.7494 10.862 20.7474 10.8642C20.745 10.8667 20.7337 10.878 20.708 10.8959L21.8502 12.5377ZM22.489 11.8441C22.6463 11.5557 22.7241 11.2456 22.7455 10.936L20.7502 10.7984C20.7478 10.833 20.7432 10.8556 20.7396 10.8686C20.7361 10.8812 20.7333 10.8862 20.7332 10.8864L22.489 11.8441ZM22.7479 10.8672V7.33203H20.7479V10.8672H22.7479ZM22.7456 7.26551C22.7249 6.95388 22.6504 6.64912 22.5127 6.36219L20.7096 7.22765C20.7281 7.26624 20.7448 7.31955 20.7501 7.39855L22.7456 7.26551ZM22.4874 6.313C22.3309 6.02852 22.1108 5.80483 21.8735 5.62942L20.6847 7.23777C20.7469 7.28371 20.7482 7.30091 20.7349 7.27684L22.4874 6.313ZM21.9124 5.65964C21.5225 5.34066 21.0519 5.25781 20.6541 5.25781V7.25781C20.6871 7.25781 20.7107 7.2596 20.7263 7.26148C20.7418 7.26337 20.7473 7.26513 20.7447 7.26441C20.7385 7.26268 20.6973 7.24965 20.6459 7.20755L21.9124 5.65964ZM20.6541 5.25781C20.2481 5.25781 19.7835 5.33853 19.3901 5.63359L20.5901 7.23359C20.5491 7.26428 20.5217 7.27043 20.5291 7.26846C20.5385 7.26598 20.5767 7.25781 20.6541 7.25781V5.25781ZM19.3957 5.62942C19.1583 5.80483 18.9383 6.02852 18.7818 6.313L20.5342 7.27684C20.521 7.30091 20.5223 7.28371 20.5844 7.23777L19.3957 5.62942ZM18.7708 6.33357C18.6128 6.6374 18.533 6.96408 18.5219 7.29872L20.5207 7.36535C20.5226 7.30935 20.534 7.27797 20.5452 7.25627L18.7708 6.33357ZM18.5213 7.33203V10.8672H20.5213V7.33203H18.5213ZM35.0858 5.52539L34.4435 6.29191L34.4547 6.30126L34.4661 6.31027L35.0858 5.52539ZM35.7401 6.58984L34.8013 6.93446L34.804 6.94169L35.7401 6.58984ZM36.7752 9.34375L35.8392 9.6956L36.0828 10.3438H36.7752V9.34375ZM36.9315 9.34375V10.3438H37.6858L37.893 9.61847L36.9315 9.34375ZM38.0252 5.51562L38.9867 5.79035L38.0252 5.51562ZM38.2205 4.98828L37.3261 4.54107L37.3191 4.55504L37.3126 4.56922L38.2205 4.98828ZM38.5233 4.53906L39.2665 5.20803L39.2746 5.19904L39.2825 5.18985L38.5233 4.53906ZM38.9432 4.2168L39.3759 5.11832L39.3903 5.1114L39.4045 5.10401L38.9432 4.2168ZM40.7401 6.07227L39.7843 5.77818L39.7805 5.79036L39.7771 5.80264L40.7401 6.07227ZM40.5838 6.57031L41.5197 6.92248L41.5244 6.91001L41.5288 6.89742L40.5838 6.57031ZM38.4158 12.332L39.3476 12.6953L39.3518 12.6842L38.4158 12.332ZM38.0057 13.2207L37.1458 12.7101L37.1409 12.7186L38.0057 13.2207ZM37.6541 13.6699L38.2681 14.4593L38.2814 14.4489L38.2943 14.4381L37.6541 13.6699ZM37.3026 13.8359L37.413 14.8298L37.4401 14.8268L37.467 14.8223L37.3026 13.8359ZM36.5213 13.8359L36.3653 14.8237L36.3935 14.8281L36.4218 14.831L36.5213 13.8359ZM36.1404 13.6699L35.5208 14.4548L35.5434 14.4726L35.567 14.4892L36.1404 13.6699ZM35.7596 13.2207L34.9116 13.7507L34.9154 13.7568L34.9193 13.7628L35.7596 13.2207ZM35.3494 12.332L34.3887 12.6096L34.3992 12.6459L34.4124 12.6814L35.3494 12.332ZM34.3338 8.81641L35.2945 8.53887L35.0858 7.81641H34.3338V8.81641ZM34.1776 8.81641V7.81641H33.4335L33.2197 8.52906L34.1776 8.81641ZM33.1229 12.332L34.0598 12.6814L34.0713 12.6507L34.0807 12.6194L33.1229 12.332ZM32.7225 13.2207L31.8626 12.7101L31.8577 12.7186L32.7225 13.2207ZM32.3709 13.6699L33.0066 14.4419L33.0111 14.4381L32.3709 13.6699ZM32.0291 13.8359L32.1395 14.8298L32.1666 14.8268L32.1935 14.8223L32.0291 13.8359ZM31.2479 13.8359L31.0919 14.8237L31.12 14.8281L31.1484 14.831L31.2479 13.8359ZM30.867 13.6699L30.2474 14.4548L30.27 14.4726L30.2935 14.4892L30.867 13.6699ZM30.4861 13.2207L29.6381 13.7507L29.642 13.7568L29.6458 13.7628L30.4861 13.2207ZM30.076 12.332L31.013 11.9826L31.0109 11.9771L30.076 12.332ZM27.8885 6.57031L26.9522 6.92144L26.9536 6.92525L27.8885 6.57031ZM27.7225 6.07227L26.7523 6.3148L26.7576 6.3357L26.7637 6.35635L27.7225 6.07227ZM27.7225 4.98828L26.7637 4.70419L26.7588 4.72068L26.7545 4.73732L27.7225 4.98828ZM27.9568 4.5293L27.1796 3.90009L27.176 3.9046L27.9568 4.5293ZM29.5291 4.2168L29.0204 5.07772L29.0431 5.09116L29.0665 5.10338L29.5291 4.2168ZM29.9295 4.53906L29.1702 5.18985L29.1781 5.19904L29.1862 5.20803L29.9295 4.53906ZM30.4471 5.51562L31.3991 5.20962L30.4471 5.51562ZM31.6776 9.34375L30.7255 9.64976L30.9486 10.3438H31.6776V9.34375ZM31.8338 9.34375V10.3438H32.5594L32.7845 9.6539L31.8338 9.34375ZM32.7322 6.58984L33.683 6.90001L33.6856 6.89155L32.7322 6.58984ZM33.3768 5.52539L33.9673 6.33243L33.9706 6.32996L33.3768 5.52539ZM34.2557 6.22266C34.3319 6.22266 34.3816 6.23998 34.4435 6.29191L35.728 4.75887C35.3082 4.40715 34.8045 4.22266 34.2557 4.22266V6.22266ZM34.4661 6.31027C34.497 6.33469 34.635 6.48147 34.8013 6.93445L36.6788 6.24524C36.4675 5.66958 36.1693 5.10671 35.7054 4.74051L34.4661 6.31027ZM34.804 6.94169L35.8392 9.6956L37.7113 8.9919L36.6761 6.23799L34.804 6.94169ZM36.7752 10.3438H36.9315V8.34375H36.7752V10.3438ZM37.893 9.61847L38.9867 5.79035L37.0637 5.2409L35.9699 9.06903L37.893 9.61847ZM38.9867 5.79035C39.0249 5.65663 39.0723 5.52916 39.1285 5.40734L37.3126 4.56922C37.2125 4.78594 37.1296 5.01003 37.0637 5.2409L38.9867 5.79035ZM39.1149 5.43549C39.1626 5.34018 39.2141 5.26632 39.2665 5.20803L37.78 3.8701C37.598 4.07223 37.4477 4.29784 37.3261 4.54107L39.1149 5.43549ZM39.2825 5.18985C39.3092 5.15874 39.3379 5.13658 39.3759 5.11832L38.5104 3.31527C38.223 3.45326 37.9717 3.64595 37.764 3.88827L39.2825 5.18985ZM39.4045 5.10401C39.3944 5.10928 39.4237 5.08984 39.5291 5.08984V3.08984C39.1788 3.08984 38.8175 3.15504 38.4818 3.32958L39.4045 5.10401ZM39.5291 5.08984C39.6462 5.08984 39.6773 5.11119 39.6635 5.10401L40.5862 3.32958C40.2469 3.15314 39.8807 3.08984 39.5291 3.08984V5.08984ZM39.6635 5.10401C39.7045 5.12535 39.7208 5.14313 39.7298 5.15487L41.3206 3.94278C41.1213 3.68109 40.8707 3.47752 40.5862 3.32958L39.6635 5.10401ZM39.7298 5.15487C39.7489 5.17997 39.7677 5.21403 39.7818 5.26854L41.7178 4.76662C41.6408 4.46957 41.5099 4.19112 41.3206 3.94278L39.7298 5.15487ZM39.7818 5.26854C39.8061 5.36204 39.8182 5.45674 39.8182 5.55469H41.8182C41.8182 5.28805 41.7847 5.02468 41.7178 4.76662L39.7818 5.26854ZM39.8182 5.55469C39.8182 5.63003 39.8073 5.70346 39.7843 5.77818L41.6958 6.36635C41.777 6.10253 41.8182 5.83091 41.8182 5.55469H39.8182ZM39.7771 5.80264C39.7372 5.94495 39.6912 6.09179 39.6388 6.2432L41.5288 6.89742C41.5936 6.7103 41.6517 6.5251 41.703 6.3419L39.7771 5.80264ZM39.6479 6.21815L37.4799 11.9799L39.3518 12.6842L41.5197 6.92248L39.6479 6.21815ZM37.4841 11.9688C37.3425 12.332 37.2289 12.5703 37.1458 12.7102L38.8655 13.7312C39.0299 13.4545 39.1896 13.1003 39.3475 12.6952L37.4841 11.9688ZM37.1409 12.7186C37.1004 12.7883 37.0671 12.8365 37.0424 12.8681C37.0172 12.9002 37.0068 12.9076 37.0139 12.9017L38.2943 14.4381C38.5358 14.2369 38.7223 13.9779 38.8705 13.7228L37.1409 12.7186ZM37.0402 12.8806C37.022 12.8947 37.0555 12.8633 37.1382 12.8495L37.467 14.8223C37.784 14.7695 38.0519 14.6274 38.2681 14.4593L37.0402 12.8806ZM37.1921 12.8421C37.1152 12.8506 37.0285 12.8555 36.9315 12.8555V14.8555C37.0948 14.8555 37.2556 14.8473 37.413 14.8298L37.1921 12.8421ZM36.9315 12.8555C36.8184 12.8555 36.715 12.8503 36.6208 12.8409L36.4218 14.831C36.588 14.8476 36.7581 14.8555 36.9315 14.8555V12.8555ZM36.6773 12.8482C36.7386 12.8579 36.7521 12.8774 36.7139 12.8507L35.567 14.4892C35.7892 14.6447 36.0566 14.775 36.3653 14.8237L36.6773 12.8482ZM36.7601 12.885C36.7613 12.886 36.7457 12.8736 36.7152 12.8377C36.6852 12.8023 36.6464 12.7507 36.5999 12.6786L34.9193 13.7628C35.0813 14.0139 35.2779 14.263 35.5208 14.4548L36.7601 12.885ZM36.6076 12.6907C36.5288 12.5646 36.4195 12.3395 36.2864 11.9826L34.4124 12.6814C34.5658 13.0928 34.73 13.4601 34.9116 13.7507L36.6076 12.6907ZM36.3101 12.0545L35.2945 8.53887L33.3731 9.09395L34.3887 12.6096L36.3101 12.0545ZM34.3338 7.81641H34.1776V9.81641H34.3338V7.81641ZM33.2197 8.52906L32.165 12.0447L34.0807 12.6194L35.1354 9.10375L33.2197 8.52906ZM32.1859 11.9826C32.0513 12.3435 31.9421 12.5763 31.8626 12.7102L33.5823 13.7312C33.7502 13.4485 33.9079 13.0888 34.0598 12.6814L32.1859 11.9826ZM31.8577 12.7186C31.8172 12.7883 31.7839 12.8365 31.7592 12.8681C31.734 12.9002 31.7236 12.9076 31.7307 12.9017L33.0111 14.4381C33.2526 14.2369 33.4391 13.9779 33.5873 13.7228L31.8577 12.7186ZM31.7352 12.898C31.7321 12.9006 31.7761 12.8643 31.8647 12.8495L32.1935 14.8223C32.5165 14.7685 32.7884 14.6216 33.0066 14.4419L31.7352 12.898ZM31.9187 12.8421C31.8417 12.8506 31.7551 12.8555 31.658 12.8555V14.8555C31.8214 14.8555 31.9821 14.8473 32.1395 14.8298L31.9187 12.8421ZM31.658 12.8555C31.5449 12.8555 31.4416 12.8503 31.3474 12.8409L31.1484 14.831C31.3146 14.8476 31.4846 14.8555 31.658 14.8555V12.8555ZM31.4038 12.8482C31.4651 12.8579 31.4787 12.8774 31.4405 12.8507L30.2935 14.4892C30.5158 14.6447 30.7832 14.775 31.0919 14.8237L31.4038 12.8482ZM31.4866 12.885C31.4879 12.886 31.4723 12.8736 31.4418 12.8377C31.4118 12.8023 31.373 12.7507 31.3264 12.6786L29.6458 13.7628C29.8078 14.0139 30.0044 14.263 30.2474 14.4548L31.4866 12.885ZM31.3341 12.6907C31.2553 12.5646 31.146 12.3395 31.013 11.9826L29.139 12.6814C29.2924 13.0928 29.4565 13.4601 29.6381 13.7507L31.3341 12.6907ZM31.0109 11.9771L28.8234 6.21537L26.9536 6.92525L29.1411 12.687L31.0109 11.9771ZM28.8248 6.21919C28.7753 6.08704 28.7273 5.94353 28.6813 5.78818L26.7637 6.35635C26.8218 6.55256 26.8845 6.74108 26.9522 6.92144L28.8248 6.21919ZM28.6926 5.82973C28.6655 5.72132 28.6541 5.62376 28.6541 5.53516H26.6541C26.6541 5.79812 26.6883 6.05863 26.7523 6.3148L28.6926 5.82973ZM28.6541 5.53516C28.6541 5.42766 28.667 5.32986 28.6905 5.23924L26.7545 4.73732C26.6868 4.99826 26.6541 5.26505 26.6541 5.53516H28.6541ZM28.6813 5.27237C28.7003 5.20819 28.722 5.17363 28.7377 5.15399L27.176 3.9046C26.9834 4.14538 26.8488 4.41681 26.7637 4.70419L28.6813 5.27237ZM28.7341 5.1585C28.7362 5.15585 28.7476 5.14088 28.7927 5.12084L27.9804 3.29322C27.6739 3.42943 27.3988 3.62931 27.1796 3.9001L28.7341 5.1585ZM28.7927 5.12084C28.8039 5.11587 28.8736 5.08984 29.0408 5.08984V3.08984C28.6872 3.08984 28.3208 3.14195 27.9804 3.29322L28.7927 5.12084ZM29.0408 5.08984C29.0541 5.08984 29.0553 5.09132 29.048 5.0894C29.0445 5.08851 29.04 5.08706 29.0348 5.08491C29.0296 5.08276 29.0247 5.08028 29.0204 5.07772L30.0378 3.35587C29.726 3.17161 29.3844 3.08984 29.0408 3.08984V5.08984ZM29.0665 5.10338C29.0959 5.11872 29.1305 5.14345 29.1702 5.18985L30.6888 3.88827C30.4942 3.66124 30.2618 3.47112 29.9917 3.33021L29.0665 5.10338ZM29.1862 5.20803C29.2387 5.26632 29.2902 5.34018 29.3378 5.43549L31.1267 4.54107C31.0051 4.29784 30.8547 4.07223 30.6728 3.8701L29.1862 5.20803ZM29.3378 5.43549C29.3994 5.5587 29.4519 5.68724 29.4951 5.82163L31.3991 5.20962C31.3251 4.97943 31.2343 4.75641 31.1267 4.54107L29.3378 5.43549ZM29.4951 5.82163L30.7255 9.64976L32.6296 9.03774L31.3991 5.20962L29.4951 5.82163ZM31.6776 10.3438H31.8338V8.34375H31.6776V10.3438ZM32.7845 9.6539L33.6829 6.9L31.7816 6.27969L30.8831 9.0336L32.7845 9.6539ZM33.6856 6.89155C33.8213 6.46276 33.95 6.34509 33.9673 6.33242L32.7863 4.71836C32.2697 5.09631 31.9687 5.68828 31.7788 6.28813L33.6856 6.89155ZM33.9706 6.32996C34.088 6.24334 34.1759 6.22266 34.2557 6.22266V4.22266C33.7105 4.22266 33.2124 4.4038 32.7829 4.72082L33.9706 6.32996ZM52.2225 13.1621L51.3394 12.693L51.3336 12.7039L51.328 12.7149L52.2225 13.1621ZM51.7635 13.6699L52.2986 14.5148L52.3056 14.5102L51.7635 13.6699ZM50.1717 13.6699L49.617 14.502L49.6267 14.5085L49.6366 14.5147L50.1717 13.6699ZM49.5174 12.4492L48.5221 12.5463L48.5233 12.5583L48.5247 12.5703L49.5174 12.4492ZM49.449 7.2832L48.4518 7.35707L48.4531 7.37539L48.4552 7.39363L49.449 7.2832ZM49.3416 6.82422L48.4225 7.21814L48.426 7.22639L48.4297 7.23458L49.3416 6.82422ZM49.0779 6.50195L48.4705 7.29631L48.4963 7.31601L48.5232 7.334L49.0779 6.50195ZM47.9744 6.63867L48.7082 7.31808L47.9744 6.63867ZM47.5838 7.36133L46.6311 7.05729L46.6282 7.06654L46.6254 7.07585L47.5838 7.36133ZM47.3983 8.44531L48.3951 8.52443L48.3952 8.5232L47.3983 8.44531ZM47.0858 13.1621L46.2026 12.693L46.1968 12.7039L46.1913 12.7149L47.0858 13.1621ZM46.6268 13.6699L47.1618 14.5148L47.1689 14.5102L46.6268 13.6699ZM45.035 13.6699L44.4803 14.502L44.49 14.5085L44.4999 14.5147L45.035 13.6699ZM44.3807 12.4492L43.3854 12.5463L43.3866 12.5583L43.388 12.5703L44.3807 12.4492ZM44.3709 5.48633L45.3681 5.56112L45.3682 5.5593L44.3709 5.48633ZM44.5467 4.7832L45.4469 5.2188L45.4522 5.20764L44.5467 4.7832ZM44.9861 4.28516L45.5212 5.13001L45.5283 5.12545L44.9861 4.28516ZM46.6658 4.27539L46.1433 5.12799L46.1534 5.13421L46.1637 5.14018L46.6658 4.27539ZM47.1151 4.70508L46.2489 5.2048L46.256 5.21709L46.2634 5.22918L47.1151 4.70508ZM47.3494 5.73047H46.3494L48.3134 5.9964L47.3494 5.73047ZM48.0135 4.62695L47.3491 3.87954L47.3421 3.88578L47.3352 3.89215L48.0135 4.62695ZM48.6385 4.24609L49.0142 5.17283L49.0248 5.16851L49.0354 5.16395L48.6385 4.24609ZM52.2127 5.92578L51.2832 6.29484L51.288 6.30653L52.2127 5.92578ZM51.4861 11.6289C51.4861 11.87 51.4721 12.103 51.4447 12.3282L53.43 12.5703C53.4676 12.2616 53.4861 11.9477 53.4861 11.6289H51.4861ZM51.4447 12.3282C51.4249 12.4902 51.385 12.607 51.3394 12.693L53.1056 13.6313C53.2813 13.3005 53.3846 12.9421 53.43 12.5703L51.4447 12.3282ZM51.328 12.7149C51.3066 12.7579 51.2776 12.7934 51.2214 12.8296L52.3056 14.5102C52.653 14.2861 52.9301 13.983 53.1169 13.6093L51.328 12.7149ZM51.2284 12.8251C51.2416 12.8167 51.2347 12.8248 51.1911 12.8349C51.1466 12.8452 51.073 12.8555 50.9627 12.8555V14.8555C51.4078 14.8555 51.8852 14.7765 52.2985 14.5147L51.2284 12.8251ZM50.9627 12.8555C50.7417 12.8555 50.6866 12.8124 50.7067 12.8251L49.6366 14.5147C50.0474 14.7749 50.5197 14.8555 50.9627 14.8555V12.8555ZM50.7264 12.8379C50.6747 12.8034 50.6426 12.7663 50.6169 12.7149L48.828 13.6093C49.0107 13.9746 49.2781 14.276 49.617 14.502L50.7264 12.8379ZM50.6169 12.7149C50.5711 12.6233 50.5308 12.4988 50.51 12.3282L48.5247 12.5703C48.569 12.9335 48.6655 13.2842 48.828 13.6093L50.6169 12.7149ZM50.5127 12.3521C50.4899 12.1188 50.4783 11.8778 50.4783 11.6289H48.4783C48.4783 11.9399 48.4928 12.2457 48.5221 12.5463L50.5127 12.3521ZM50.4783 11.6289V7.82031H48.4783V11.6289H50.4783ZM50.4783 7.82031C50.4783 7.60225 50.4666 7.38633 50.4429 7.17277L48.4552 7.39363C48.4705 7.53164 48.4783 7.67379 48.4783 7.82031H50.4783ZM50.4463 7.20933C50.4266 6.94354 50.3697 6.67203 50.2535 6.41385L48.4297 7.23458C48.4307 7.23683 48.4454 7.2713 48.4518 7.35707L50.4463 7.20933ZM50.2608 6.4303C50.1303 6.12579 49.9205 5.86181 49.6326 5.6699L48.5232 7.334C48.5005 7.31886 48.4776 7.29856 48.4578 7.27435C48.4383 7.25048 48.4275 7.22981 48.4225 7.21814L50.2608 6.4303ZM49.6854 5.7076C49.3424 5.44527 48.9476 5.375 48.619 5.375V7.375C48.6809 7.375 48.5922 7.38936 48.4705 7.29631L49.6854 5.7076ZM48.619 5.375C48.1087 5.375 47.6154 5.55457 47.2407 5.95926L48.7082 7.31808C48.7023 7.32448 48.6925 7.33362 48.6788 7.34321C48.665 7.35286 48.6503 7.36071 48.6363 7.36646C48.6069 7.37849 48.5961 7.375 48.619 7.375V5.375ZM47.2407 5.95926C46.9504 6.27271 46.7589 6.65685 46.6311 7.05729L48.5365 7.66537C48.604 7.45382 48.6729 7.3562 48.7082 7.31808L47.2407 5.95926ZM46.6254 7.07585C46.509 7.46652 46.4378 7.90066 46.4013 8.36742L48.3952 8.5232C48.4239 8.15664 48.4763 7.86812 48.5422 7.6468L46.6254 7.07585ZM46.4014 8.3662C46.3665 8.80633 46.3494 9.27572 46.3494 9.77344H48.3494C48.3494 9.32064 48.3649 8.90461 48.3951 8.52443L46.4014 8.3662ZM46.3494 9.77344V11.6289H48.3494V9.77344H46.3494ZM46.3494 11.6289C46.3494 11.87 46.3354 12.103 46.308 12.3282L48.2932 12.5703C48.3309 12.2616 48.3494 11.9477 48.3494 11.6289H46.3494ZM46.308 12.3282C46.2882 12.4902 46.2483 12.607 46.2026 12.693L47.9689 13.6313C48.1446 13.3005 48.2479 12.9421 48.2932 12.5703L46.308 12.3282ZM46.1913 12.7149C46.1698 12.7579 46.1409 12.7934 46.0846 12.8296L47.1689 14.5102C47.5163 14.2861 47.7933 13.983 47.9802 13.6093L46.1913 12.7149ZM46.0917 12.8251C46.1049 12.8167 46.098 12.8248 46.0544 12.8349C46.0098 12.8452 45.9363 12.8555 45.826 12.8555V14.8555C46.2711 14.8555 46.7485 14.7765 47.1618 14.5147L46.0917 12.8251ZM45.826 12.8555C45.605 12.8555 45.5499 12.8124 45.57 12.8251L44.4999 14.5147C44.9107 14.7749 45.3829 14.8555 45.826 14.8555V12.8555ZM45.5897 12.8379C45.538 12.8034 45.5059 12.7663 45.4802 12.7149L43.6913 13.6093C43.874 13.9746 44.1413 14.276 44.4803 14.502L45.5897 12.8379ZM45.4802 12.7149C45.4344 12.6233 45.3941 12.4988 45.3733 12.3282L43.388 12.5703C43.4323 12.9335 43.5288 13.2842 43.6913 13.6093L45.4802 12.7149ZM45.376 12.3521C45.3532 12.1188 45.3416 11.8778 45.3416 11.6289H43.3416C43.3416 11.9399 43.3561 12.2457 43.3854 12.5463L45.376 12.3521ZM45.3416 11.6289V6.29688H43.3416V11.6289H45.3416ZM45.3416 6.29688C45.3416 6.04012 45.3506 5.79495 45.3681 5.56112L43.3737 5.41154C43.3522 5.69854 43.3416 5.99374 43.3416 6.29688H45.3416ZM45.3682 5.5593C45.3803 5.39444 45.4137 5.28724 45.4469 5.21876L43.6465 4.34764C43.4844 4.68281 43.4006 5.04436 43.3736 5.41335L45.3682 5.5593ZM45.4522 5.20764C45.4685 5.17274 45.4861 5.15222 45.5212 5.12998L44.4511 3.44034C44.0956 3.66549 43.8202 3.977 43.6412 4.35877L45.4522 5.20764ZM45.5283 5.12545C45.5155 5.13367 45.5247 5.12415 45.574 5.11268C45.6242 5.10101 45.7054 5.08984 45.826 5.08984V3.08984C45.3641 3.08984 44.8685 3.17103 44.444 3.44486L45.5283 5.12545ZM45.826 5.08984C45.9496 5.08984 46.0346 5.10071 46.0888 5.11268C46.1425 5.12454 46.1546 5.13496 46.1433 5.12799L47.1884 3.42279C46.7684 3.16535 46.2808 3.08984 45.826 3.08984V5.08984ZM46.1637 5.14018C46.2046 5.16395 46.2273 5.1828 46.2383 5.19334C46.2487 5.20329 46.2503 5.20722 46.2489 5.2048L47.9812 4.20536C47.7807 3.8577 47.4915 3.59848 47.168 3.4106L46.1637 5.14018ZM46.2634 5.22918C46.2981 5.2855 46.3135 5.33331 46.3197 5.37882L48.301 5.10555C48.2552 4.77347 48.1404 4.4632 47.9667 4.18098L46.2634 5.22918ZM46.3197 5.37882C46.3418 5.53854 46.3494 5.65331 46.3494 5.73047H48.3494C48.3494 5.53419 48.331 5.32344 48.301 5.10555L46.3197 5.37882ZM48.3134 5.9964C48.3407 5.89742 48.3877 5.78127 48.4636 5.64731L46.7235 4.66128C46.5781 4.91794 46.4623 5.18591 46.3854 5.46454L48.3134 5.9964ZM48.4636 5.64731C48.5219 5.54438 48.5965 5.44967 48.6918 5.36176L47.3352 3.89215C47.0919 4.11673 46.8866 4.37359 46.7235 4.66128L48.4636 5.64731ZM48.6779 5.37436C48.7599 5.30147 48.868 5.23211 49.0142 5.17283L48.2628 3.31935C47.9272 3.45539 47.6187 3.63994 47.3491 3.87954L48.6779 5.37436ZM49.0354 5.16395C49.127 5.12432 49.2671 5.08984 49.4783 5.08984V3.08984C49.0515 3.08984 48.6317 3.15953 48.2416 3.32824L49.0354 5.16395ZM49.4783 5.08984C49.7254 5.08984 49.9786 5.12997 50.2415 5.21602L50.8636 3.31523C50.4104 3.1669 49.9475 3.08984 49.4783 3.08984V5.08984ZM50.2415 5.21602C50.4505 5.28442 50.6447 5.39913 50.8289 5.57492L52.2098 4.12821C51.8211 3.75712 51.3707 3.48121 50.8636 3.31523L50.2415 5.21602ZM50.8289 5.57492C50.9921 5.73074 51.1501 5.95933 51.2833 6.29481L53.1421 5.55675C52.9238 5.00681 52.6195 4.51926 52.2098 4.12821L50.8289 5.57492ZM51.288 6.30653C51.4062 6.59346 51.4861 7.00188 51.4861 7.56641H53.4861C53.4861 6.82885 53.3838 6.14352 53.1374 5.54503L51.288 6.30653ZM51.4861 7.56641V11.6289H53.4861V7.56641H51.4861ZM57.0252 1.55078L56.0329 1.42675L56.0314 1.43899L56.0302 1.45128L57.0252 1.55078ZM59.7108 0.857422L58.8106 1.29298L58.8162 1.3046L58.8221 1.31606L59.7108 0.857422ZM59.9061 1.55078L58.911 1.65028L58.9123 1.66257L58.9138 1.67482L59.9061 1.55078ZM59.9061 12.4785L58.9134 12.3575L58.9121 12.3682L58.911 12.379L59.9061 12.4785ZM59.7108 13.1816L58.8163 12.7344L58.8106 12.7461L59.7108 13.1816ZM57.2303 13.1816L56.3358 13.6289L56.3417 13.6403L57.2303 13.1816ZM57.0252 12.4785L56.0299 12.5756L56.0312 12.5891L56.0329 12.6026L57.0252 12.4785ZM57.9861 2.35156C57.9861 2.10988 57.9977 1.8762 58.0202 1.65028L56.0302 1.45128C56.0007 1.74619 55.9861 2.04637 55.9861 2.35156H57.9861ZM58.0175 1.67482C58.0377 1.5133 58.0764 1.39843 58.1189 1.31606L56.3417 0.398779C56.1758 0.720059 56.0778 1.06743 56.0329 1.42675L58.0175 1.67482ZM58.1189 1.31606C58.1401 1.27503 58.1665 1.24441 58.2146 1.21396L57.1445 -0.475678C56.8019 -0.258729 56.5288 0.0361701 56.3417 0.398779L58.1189 1.31606ZM58.2146 1.21396C58.1944 1.2267 58.2495 1.18359 58.4705 1.18359V-0.816406C58.0275 -0.816406 57.5552 -0.735816 57.1445 -0.475678L58.2146 1.21396ZM58.4705 1.18359C58.5808 1.18359 58.6544 1.19385 58.6989 1.20417C58.7425 1.21427 58.7495 1.22232 58.7362 1.21396L59.8064 -0.475678C59.393 -0.737459 58.9156 -0.816406 58.4705 -0.816406V1.18359ZM58.7362 1.21396C58.7793 1.2412 58.7967 1.26435 58.8106 1.29298L60.6109 0.421861C60.4295 0.0468452 60.154 -0.25552 59.8064 -0.475678L58.7362 1.21396ZM58.8221 1.31606C58.8604 1.39025 58.8956 1.49635 58.911 1.65028L60.9011 1.45128C60.8644 1.08438 60.7694 0.728242 60.5994 0.398779L58.8221 1.31606ZM58.9138 1.67482C58.941 1.89241 58.9549 2.11787 58.9549 2.35156H60.9549C60.9549 2.03838 60.9362 1.72998 60.8983 1.42675L58.9138 1.67482ZM58.9549 2.35156V11.668H60.9549V2.35156H58.9549ZM58.9549 11.668C58.9549 11.9016 58.941 12.1314 58.9134 12.3575L60.8987 12.5996C60.9362 12.2918 60.9549 11.9812 60.9549 11.668H58.9549ZM58.911 12.379C58.8956 12.5332 58.8598 12.6475 58.8163 12.7344L60.6052 13.6289C60.7701 13.2991 60.8644 12.9446 60.9011 12.578L58.911 12.379ZM58.8106 12.7461C58.7967 12.7747 58.7793 12.7979 58.7362 12.8251L59.8064 14.5147C60.154 14.2946 60.4295 13.9922 60.6109 13.6172L58.8106 12.7461ZM58.7362 12.8251C58.7495 12.8167 58.7425 12.8248 58.6989 12.8349C58.6544 12.8452 58.5808 12.8555 58.4705 12.8555V14.8555C58.9156 14.8555 59.393 14.7765 59.8064 14.5147L58.7362 12.8251ZM58.4705 12.8555C58.2495 12.8555 58.1944 12.8124 58.2146 12.8251L57.1445 14.5147C57.5552 14.7749 58.0275 14.8555 58.4705 14.8555V12.8555ZM58.2146 12.8251C58.1665 12.7947 58.1401 12.764 58.1189 12.723L56.3417 13.6403C56.5288 14.0029 56.8019 14.2978 57.1445 14.5147L58.2146 12.8251ZM58.1247 12.7344C58.0772 12.6395 58.0377 12.5165 58.0175 12.3545L56.0329 12.6026C56.0778 12.9614 56.175 13.3071 56.3359 13.6289L58.1247 12.7344ZM58.0205 12.3814C57.9976 12.1474 57.9861 11.9096 57.9861 11.668H55.9861C55.9861 11.9732 56.0007 12.2758 56.0299 12.5756L58.0205 12.3814ZM57.9861 11.668V2.35156H55.9861V11.668H57.9861ZM64.9725 5.19336L64.2402 4.5122L64.2318 4.52154L64.9725 5.19336ZM65.8318 4.53906L65.392 3.64097L65.3846 3.64464L65.8318 4.53906ZM67.619 4.04102L67.546 3.04368L67.5442 3.04382L67.619 4.04102ZM69.6893 4.1875L69.4316 5.15375L69.4368 5.15512L69.6893 4.1875ZM70.5877 4.53906L70.1251 5.42568L70.1329 5.42967L70.5877 4.53906ZM71.408 5.19336L70.6499 5.84566L70.6587 5.85556L71.408 5.19336ZM71.408 12.752L70.6586 12.0897L70.65 12.0997L71.408 12.752ZM70.5877 13.4062L70.1329 12.5156L70.1251 12.5197L70.5877 13.4062ZM69.6893 13.7578L69.4368 12.7902L69.4316 12.7916L69.6893 13.7578ZM67.619 13.9043L67.5442 14.9015L67.546 14.9016L67.619 13.9043ZM65.8318 13.4062L65.3846 14.3007L65.392 14.3043L65.8318 13.4062ZM64.9725 12.752L64.2317 13.4238L64.2403 13.4331L64.9725 12.752ZM64.3475 11.707L63.416 12.0709L64.3475 11.707ZM67.1111 10.8672H66.1111V10.8844L66.1117 10.9016L67.1111 10.8672ZM67.2479 11.3652L68.1241 10.8833L68.1166 10.8698L68.1088 10.8565L67.2479 11.3652ZM67.5799 11.7168L67.0088 12.5377L67.029 12.5518L67.0499 12.5648L67.5799 11.7168ZM68.869 11.7168L69.4323 12.5431L69.44 12.5377L68.869 11.7168ZM69.201 11.3652L70.0772 11.8472L70.0789 11.8441L69.201 11.3652ZM69.3377 10.8672L70.3353 10.936L70.3377 10.9016V10.8672H69.3377ZM69.3377 7.33203H70.3377V7.29873L70.3355 7.26551L69.3377 7.33203ZM69.201 6.79492L70.1025 6.36219L70.0905 6.33725L70.0772 6.313L69.201 6.79492ZM68.869 6.43359L68.2357 7.20755L68.2548 7.22314L68.2746 7.23777L68.869 6.43359ZM67.5799 6.43359L68.1743 7.23779L68.1799 7.23359L67.5799 6.43359ZM67.2479 6.79492L66.3716 6.313L66.366 6.32322L66.3606 6.33357L67.2479 6.79492ZM67.1111 7.33203L66.1117 7.29872L66.1111 7.31537V7.33203H67.1111ZM65.1033 7.76172C65.1033 7.24754 65.174 6.87085 65.2789 6.60213L63.416 5.87443C63.1955 6.43905 63.1033 7.07798 63.1033 7.76172H65.1033ZM65.2789 6.60213C65.4053 6.2785 65.5546 6.04004 65.7132 5.86517L64.2318 4.52154C63.8825 4.90657 63.6151 5.36473 63.416 5.87443L65.2789 6.60213ZM65.7047 5.87446C65.8913 5.67383 66.0832 5.53142 66.2791 5.43349L65.3846 3.64464C64.9555 3.8592 64.5745 4.15299 64.2403 4.51226L65.7047 5.87446ZM66.2717 5.43713C66.5367 5.30735 66.7848 5.21564 67.0167 5.15642L66.522 3.21858C66.1419 3.31561 65.7651 3.45827 65.392 3.641L66.2717 5.43713ZM67.0167 5.15642C67.2774 5.08986 67.5022 5.05258 67.6937 5.03821L67.5442 3.04382C67.2149 3.06851 66.8733 3.12889 66.522 3.21858L67.0167 5.15642ZM67.6919 5.03835C67.9502 5.01945 68.1304 5.01172 68.244 5.01172V3.01172C68.058 3.01172 67.8215 3.02352 67.546 3.04368L67.6919 5.03835ZM68.244 5.01172C68.357 5.01172 68.5335 5.0194 68.7844 5.03821L68.934 3.04382C68.664 3.02357 68.4304 3.01172 68.244 3.01172V5.01172ZM68.7844 5.03821C68.9741 5.05244 69.1892 5.08909 69.4316 5.15373L69.9469 3.22127C69.6034 3.12966 69.2651 3.06865 68.934 3.04382L68.7844 5.03821ZM69.4368 5.15512C69.6572 5.21259 69.8864 5.30109 70.1251 5.42565L71.0503 3.65248C70.69 3.46453 70.3203 3.31866 69.9417 3.21988L69.4368 5.15512ZM70.1329 5.42967C70.3149 5.52259 70.4874 5.65659 70.65 5.8456L72.166 4.54112C71.8469 4.17023 71.4725 3.86804 71.0425 3.64846L70.1329 5.42967ZM70.6587 5.85556C70.8115 6.02845 70.9557 6.26564 71.0772 6.5894L72.9498 5.88716C72.7587 5.37758 72.4994 4.91816 72.1573 4.53116L70.6587 5.85556ZM71.0772 6.5894C71.1795 6.86238 71.2479 7.24378 71.2479 7.76172H73.2479C73.2479 7.08174 73.16 6.44752 72.9498 5.88716L71.0772 6.5894ZM71.2479 7.76172V10.1836H73.2479V7.76172H71.2479ZM71.2479 10.1836C71.2479 10.7015 71.1795 11.0829 71.0772 11.3559L72.9498 12.0582C73.16 11.4978 73.2479 10.8636 73.2479 10.1836H71.2479ZM71.0772 11.3559C70.9557 11.6797 70.8115 11.9169 70.6587 12.0898L72.1573 13.4142C72.4994 13.0271 72.7587 12.5677 72.9498 12.0582L71.0772 11.3559ZM70.65 12.0997C70.4874 12.2887 70.3149 12.4227 70.1329 12.5156L71.0425 14.2969C71.4725 14.0773 71.8469 13.7751 72.166 13.4042L70.65 12.0997ZM70.1251 12.5197C69.8864 12.6442 69.6572 12.7327 69.4368 12.7902L69.9417 14.7254C70.3203 14.6267 70.69 14.4808 71.0503 14.2928L70.1251 12.5197ZM69.4316 12.7916C69.1892 12.8562 68.9741 12.8929 68.7844 12.9071L68.934 14.9015C69.2651 14.8767 69.6034 14.8157 69.9469 14.724L69.4316 12.7916ZM68.7844 12.9071C68.5335 12.9259 68.357 12.9336 68.244 12.9336V14.9336C68.4304 14.9336 68.664 14.9217 68.934 14.9015L68.7844 12.9071ZM68.244 12.9336C68.1304 12.9336 67.9502 12.9259 67.6919 12.907L67.546 14.9016C67.8215 14.9218 68.058 14.9336 68.244 14.9336V12.9336ZM67.6937 12.9071C67.5022 12.8927 67.2774 12.8555 67.0167 12.7889L66.522 14.7267C66.8733 14.8164 67.2149 14.8768 67.5442 14.9015L67.6937 12.9071ZM67.0167 12.7889C66.7848 12.7297 66.5367 12.638 66.2717 12.5082L65.392 14.3043C65.7651 14.487 66.1419 14.6297 66.522 14.7267L67.0167 12.7889ZM66.2791 12.5118C66.0832 12.4139 65.8913 12.2715 65.7047 12.0708L64.2403 13.4331C64.5745 13.7923 64.9555 14.0861 65.3846 14.3007L66.2791 12.5118ZM65.7132 12.0801C65.5546 11.9053 65.4053 11.6668 65.2789 11.3432L63.416 12.0709C63.6151 12.5806 63.8825 13.0387 64.2318 13.4238L65.7132 12.0801ZM65.2789 11.3432C65.174 11.0745 65.1033 10.6978 65.1033 10.1836H63.1033C63.1033 10.8673 63.1955 11.5063 63.416 12.0709L65.2789 11.3432ZM65.1033 10.1836V7.76172H63.1033V10.1836H65.1033ZM66.1117 10.9016C66.1232 11.2347 66.2062 11.5682 66.3869 11.874L68.1088 10.8565C68.1108 10.8598 68.1123 10.8629 68.1133 10.8655C68.1144 10.868 68.1147 10.8692 68.1145 10.8686C68.1143 10.8676 68.1114 10.8567 68.1106 10.8327L66.1117 10.9016ZM66.3716 11.8472C66.5325 12.1396 66.7609 12.3652 67.0088 12.5377L68.151 10.8959C68.1253 10.878 68.114 10.8667 68.1116 10.8642C68.1096 10.862 68.1157 10.8682 68.1241 10.8833L66.3716 11.8472ZM67.0499 12.5648C67.4303 12.8025 67.8656 12.8633 68.244 12.8633V10.8633C68.1551 10.8633 68.1028 10.8555 68.0785 10.8501C68.0545 10.8448 68.0719 10.845 68.1099 10.8688L67.0499 12.5648ZM68.244 12.8633C68.6114 12.8633 69.0524 12.802 69.4323 12.543L68.3056 10.8906C68.3564 10.8559 68.3886 10.8504 68.3771 10.853C68.372 10.8542 68.3588 10.8569 68.336 10.8592C68.3132 10.8615 68.2829 10.8633 68.244 10.8633V12.8633ZM69.44 12.5377C69.688 12.3652 69.9164 12.1396 70.0772 11.8472L68.3248 10.8833C68.3331 10.8682 68.3393 10.862 68.3373 10.8642C68.3348 10.8667 68.3235 10.878 68.2979 10.8959L69.44 12.5377ZM70.0789 11.8441C70.2362 11.5557 70.314 11.2456 70.3353 10.936L68.3401 10.7984C68.3377 10.833 68.333 10.8556 68.3294 10.8686C68.326 10.8812 68.3232 10.8862 68.3231 10.8864L70.0789 11.8441ZM70.3377 10.8672V7.33203H68.3377V10.8672H70.3377ZM70.3355 7.26551C70.3147 6.95388 70.2402 6.64912 70.1025 6.36219L68.2995 7.22765C68.318 7.26624 68.3347 7.31955 68.3399 7.39855L70.3355 7.26551ZM70.0772 6.313C69.9207 6.02852 69.7007 5.80483 69.4633 5.62942L68.2746 7.23777C68.3367 7.28371 68.338 7.30091 68.3248 7.27684L70.0772 6.313ZM69.5022 5.65964C69.1123 5.34066 68.6417 5.25781 68.244 5.25781V7.25781C68.2769 7.25781 68.3006 7.2596 68.3161 7.26148C68.3316 7.26337 68.3371 7.26513 68.3345 7.26441C68.3284 7.26268 68.2872 7.24965 68.2357 7.20755L69.5022 5.65964ZM68.244 5.25781C67.8379 5.25781 67.3733 5.33853 66.9799 5.63359L68.1799 7.23359C68.139 7.26428 68.1116 7.27043 68.119 7.26846C68.1284 7.26598 68.1665 7.25781 68.244 7.25781V5.25781ZM66.9855 5.62942C66.7482 5.80483 66.5281 6.02852 66.3716 6.313L68.1241 7.27684C68.1108 7.30091 68.1121 7.28371 68.1743 7.23777L66.9855 5.62942ZM66.3606 6.33357C66.2027 6.6374 66.1229 6.96408 66.1117 7.29872L68.1106 7.36535C68.1125 7.30935 68.1238 7.27797 68.1351 7.25627L66.3606 6.33357ZM66.1111 7.33203V10.8672H68.1111V7.33203H66.1111ZM83.8865 12.459L84.8837 12.5338L84.8839 12.532L83.8865 12.459ZM83.2713 13.6699L83.8064 14.5147L83.8163 14.5085L83.826 14.502L83.2713 13.6699ZM81.6111 13.6797L81.0886 14.5323L81.0987 14.5385L81.109 14.5445L81.6111 13.6797ZM81.1619 13.2402L80.2878 13.7259L80.2917 13.7329L80.2957 13.74L81.1619 13.2402ZM80.9764 12.6934L79.9817 12.7963L79.9834 12.8132L79.9858 12.83L80.9764 12.6934ZM80.9471 12.2148H81.9471L79.992 11.9184L80.9471 12.2148ZM80.6932 12.791L79.8232 12.298L79.8168 12.3091L79.8108 12.3204L80.6932 12.791ZM79.6678 13.709L80.0524 14.6321L80.0647 14.6268L79.6678 13.709ZM77.7635 13.6797L77.4524 14.6301L77.7635 13.6797ZM76.0936 12.0293L75.1642 12.3983L75.1675 12.4066L75.1709 12.4149L76.0936 12.0293ZM76.0936 5.93555L75.1689 5.55479L75.166 5.56177L76.0936 5.93555ZM76.7967 4.87109L77.4785 5.60275L77.4872 5.59445L76.7967 4.87109ZM77.7635 4.28516L77.4524 3.33476L77.7635 4.28516ZM79.6678 4.25586L79.2832 5.17898L79.2921 5.1826L79.6678 4.25586ZM80.6932 5.16406L79.8108 5.63465L79.8168 5.64594L79.8232 5.65708L80.6932 5.16406ZM80.9471 5.75L79.9893 6.03735L81.9471 5.75H80.9471ZM81.4354 4.43164L82.089 5.18846L82.0986 5.18014L82.108 5.17158L81.4354 4.43164ZM81.9139 4.16797L82.1648 5.13597L82.1768 5.13288L82.1886 5.12949L81.9139 4.16797ZM83.2322 4.28516L82.6775 5.11721L82.6873 5.12371L82.6972 5.12998L83.2322 4.28516ZM83.6717 4.7832L82.7662 5.20764L82.7743 5.2249L82.7831 5.24185L83.6717 4.7832ZM83.867 5.49609L82.8715 5.5909L82.8728 5.60404L82.8744 5.61715L83.867 5.49609ZM79.2186 11.4531L78.6111 12.2475L78.6369 12.2672L78.6639 12.2852L79.2186 11.4531ZM80.3123 11.4043L80.8904 12.2203L80.8966 12.2158L80.3123 11.4043ZM80.6932 10.877L81.6252 11.2394L81.6285 11.2308L80.6932 10.877ZM80.8787 9.97852L79.8844 9.87198L79.8836 9.87997L79.8828 9.88798L80.8787 9.97852ZM80.9471 8.67969L81.9471 8.69267V8.67969H80.9471ZM80.8885 7.98633L79.8958 8.10738L79.8975 8.12105L79.8996 8.13467L80.8885 7.98633ZM79.2186 6.52148L79.7953 7.3385L79.8041 7.33216L79.2186 6.52148ZM78.8572 7.2832L79.8541 7.36295L79.8543 7.3599L78.8572 7.2832ZM82.9158 11.6484C82.9158 11.8981 82.9069 12.1439 82.8892 12.386L84.8839 12.532C84.9052 12.2402 84.9158 11.9457 84.9158 11.6484H82.9158ZM82.8893 12.3842C82.8777 12.5397 82.8449 12.6532 82.8053 12.7377L84.6162 13.5865C84.7719 13.2544 84.8563 12.8991 84.8837 12.5338L82.8893 12.3842ZM82.8053 12.7377C82.7868 12.7772 82.7632 12.8068 82.7166 12.8379L83.826 14.502C84.17 14.2726 84.4394 13.9637 84.6162 13.5865L82.8053 12.7377ZM82.7362 12.8251C82.7532 12.8143 82.7473 12.8228 82.6991 12.8337C82.6503 12.8448 82.5704 12.8555 82.451 12.8555V14.8555C82.9004 14.8555 83.3881 14.7796 83.8064 14.5147L82.7362 12.8251ZM82.451 12.8555C82.3244 12.8555 82.2356 12.8449 82.1773 12.8327C82.1192 12.8206 82.1037 12.8093 82.1133 12.8149L81.109 14.5445C81.5239 14.7854 82.003 14.8555 82.451 14.8555V12.8555ZM82.1337 12.8271C82.0886 12.7994 82.0617 12.7768 82.0468 12.7622C82.0324 12.7482 82.0282 12.7407 82.0281 12.7405L80.2957 13.74C80.4926 14.0812 80.7744 14.3397 81.0886 14.5323L82.1337 12.8271ZM82.0361 12.7546C81.9952 12.6809 81.9752 12.6163 81.967 12.5567L79.9858 12.83C80.0296 13.148 80.1334 13.448 80.2878 13.7259L82.0361 12.7546ZM81.9711 12.5905C81.9536 12.4219 81.9471 12.2991 81.9471 12.2148H79.9471C79.9471 12.3911 79.9601 12.5872 79.9817 12.7963L81.9711 12.5905ZM79.992 11.9184C79.9573 12.0304 79.9032 12.1568 79.8232 12.298L81.5632 13.284C81.7045 13.0346 81.8197 12.7769 81.9021 12.5112L79.992 11.9184ZM79.8108 12.3204C79.7615 12.4129 79.6951 12.5002 79.6047 12.5836L80.9613 14.0532C81.2095 13.824 81.4165 13.5598 81.5755 13.2616L79.8108 12.3204ZM79.6047 12.5836C79.5289 12.6535 79.4225 12.7255 79.2709 12.7911L80.0647 14.6268C80.3948 14.4841 80.6986 14.2957 80.9613 14.0532L79.6047 12.5836ZM79.2832 12.7859C79.1976 12.8216 79.0573 12.8555 78.8377 12.8555V14.8555C79.2561 14.8555 79.6693 14.7917 80.0524 14.6321L79.2832 12.7859ZM78.8377 12.8555C78.5907 12.8555 78.3375 12.8153 78.0745 12.7293L77.4524 14.6301C77.9057 14.7784 78.3686 14.8555 78.8377 14.8555V12.8555ZM78.0745 12.7293C77.8655 12.6609 77.6713 12.5462 77.4872 12.3704L76.1062 13.8171C76.495 14.1882 76.9453 14.4641 77.4524 14.6301L78.0745 12.7293ZM77.4872 12.3704C77.318 12.2089 77.1554 11.9768 77.0162 11.6437L75.1709 12.4149C75.3963 12.9542 75.7025 13.4317 76.1062 13.8171L77.4872 12.3704ZM77.023 11.6603C76.9071 11.3685 76.8299 10.9585 76.8299 10.3984H74.8299C74.8299 11.1275 74.9284 11.8047 75.1642 12.3983L77.023 11.6603ZM76.8299 10.3984V7.56641H74.8299V10.3984H76.8299ZM76.8299 7.56641C76.8299 6.99759 76.9078 6.59053 77.0211 6.30932L75.166 5.56177C74.9278 6.15296 74.8299 6.83313 74.8299 7.56641H76.8299ZM77.0182 6.3163C77.1577 5.97766 77.318 5.75218 77.4784 5.6027L76.115 4.13949C75.7025 4.52386 75.394 5.00802 75.1689 5.5548L77.0182 6.3163ZM77.4872 5.59445C77.6713 5.41866 77.8655 5.30395 78.0745 5.23555L77.4524 3.33476C76.9453 3.50074 76.495 3.77665 76.1062 4.14774L77.4872 5.59445ZM78.0745 5.23555C78.3375 5.1495 78.5907 5.10938 78.8377 5.10938V3.10938C78.3686 3.10938 77.9057 3.18644 77.4524 3.33476L78.0745 5.23555ZM78.8377 5.10938C79.0573 5.10938 79.1976 5.14327 79.2832 5.17894L80.0524 3.33278C79.6693 3.17314 79.2561 3.10938 78.8377 3.10938V5.10938ZM79.2921 5.1826C79.4356 5.24077 79.5346 5.30674 79.6047 5.37152L80.9613 3.90192C80.6929 3.6542 80.3818 3.46626 80.0435 3.32912L79.2921 5.1826ZM79.6047 5.37152C79.6951 5.45489 79.7615 5.54221 79.8108 5.63465L81.5755 4.69347C81.4165 4.39529 81.2095 4.13105 80.9613 3.90192L79.6047 5.37152ZM79.8232 5.65708C79.9006 5.79379 79.9542 5.92044 79.9893 6.03735L81.9049 5.46265C81.8228 5.18894 81.7071 4.92496 81.5632 4.67105L79.8232 5.65708ZM81.9471 5.75C81.9471 5.50933 81.982 5.3828 82.0044 5.33L80.1632 4.5489C80.0033 4.92579 79.9471 5.33963 79.9471 5.75H81.9471ZM82.0044 5.33C82.0494 5.22387 82.0855 5.19151 82.089 5.18846L80.7817 3.67482C80.4988 3.91916 80.3005 4.22535 80.1632 4.5489L82.0044 5.33ZM82.108 5.17158C82.1394 5.14306 82.1564 5.13817 82.1648 5.13597L81.6629 3.19997C81.3198 3.28892 81.0178 3.4598 80.7627 3.6917L82.108 5.17158ZM82.1886 5.12949C82.2885 5.10094 82.3751 5.08984 82.451 5.08984V3.08984C82.1753 3.08984 81.9038 3.13083 81.6392 3.20644L82.1886 5.12949ZM82.451 5.08984C82.6529 5.08984 82.6987 5.13131 82.6775 5.11721L83.7869 3.45311C83.3752 3.17858 82.9001 3.08984 82.451 3.08984V5.08984ZM82.6972 5.12998C82.7323 5.15222 82.7499 5.17274 82.7662 5.20764L84.5772 4.35877C84.3982 3.977 84.1228 3.66549 83.7673 3.44034L82.6972 5.12998ZM82.7831 5.24185C82.8179 5.30928 82.8551 5.41854 82.8715 5.5909L84.8625 5.40128C84.8268 5.02677 84.7338 4.66077 84.5603 4.32456L82.7831 5.24185ZM82.8744 5.61715C82.9018 5.84231 82.9158 6.07527 82.9158 6.31641H84.9158C84.9158 5.99764 84.8973 5.68374 84.8597 5.37504L82.8744 5.61715ZM82.9158 6.31641V11.6484H84.9158V6.31641H82.9158ZM77.8377 10.1445C77.8377 10.345 77.8451 10.5431 77.8602 10.7388L79.8543 10.5854C79.8433 10.4425 79.8377 10.2956 79.8377 10.1445H77.8377ZM77.8602 10.7388C77.8804 11.0022 77.9381 11.2644 78.0455 11.515L79.8838 10.7272C79.874 10.7043 79.8601 10.6606 79.8543 10.5854L77.8602 10.7388ZM78.0455 11.515C78.1671 11.7988 78.3546 12.0513 78.6111 12.2475L79.826 10.6588C79.841 10.6702 79.855 10.6842 79.8664 10.6992C79.8777 10.7139 79.8827 10.7246 79.8838 10.7272L78.0455 11.515ZM78.6639 12.2852C79.0021 12.5107 79.3795 12.5703 79.6971 12.5703V10.5703C79.6588 10.5703 79.6505 10.5664 79.664 10.5697C79.6787 10.5733 79.7206 10.5859 79.7733 10.6211L78.6639 12.2852ZM79.6971 12.5703C80.0913 12.5703 80.5178 12.4842 80.8903 12.2203L79.7343 10.5883C79.7477 10.5788 79.7595 10.5724 79.7685 10.5683C79.7773 10.5642 79.7819 10.563 79.7808 10.5633C79.7778 10.5641 79.7526 10.5703 79.6971 10.5703V12.5703ZM80.8966 12.2158C81.2518 11.9601 81.4817 11.6083 81.6252 11.2394L79.7612 10.5145C79.7416 10.5648 79.7255 10.59 79.7189 10.5991C79.7132 10.607 79.7155 10.6018 79.728 10.5928L80.8966 12.2158ZM81.6285 11.2308C81.7615 10.8793 81.8368 10.4846 81.8746 10.0691L79.8828 9.88798C79.8555 10.1886 79.8072 10.3928 79.7579 10.5231L81.6285 11.2308ZM81.873 10.085C81.9164 9.68048 81.9402 9.21476 81.947 8.69267L79.9472 8.6667C79.9409 9.14722 79.9192 9.54739 79.8844 9.87198L81.873 10.085ZM81.9471 8.67969C81.9471 8.4159 81.9218 8.13361 81.8774 7.83799L79.8996 8.13467C79.9333 8.35988 79.9471 8.53983 79.9471 8.67969H81.9471ZM81.8811 7.86527C81.8392 7.52137 81.7583 7.1891 81.6349 6.87193L79.7709 7.59682C79.8299 7.7484 79.8727 7.91743 79.8958 8.10738L81.8811 7.86527ZM81.6349 6.87193C81.4982 6.52038 81.2988 6.20114 81.0292 5.93157L79.615 7.34578C79.6709 7.40173 79.7254 7.47962 79.7709 7.59682L81.6349 6.87193ZM81.0292 5.93157C80.6587 5.56106 80.1862 5.39453 79.6971 5.39453V7.39453C79.7162 7.39453 79.7063 7.39733 79.6799 7.38702C79.6673 7.38212 79.6543 7.37545 79.6419 7.36728C79.6295 7.35915 79.6205 7.35135 79.615 7.34578L81.0292 5.93157ZM79.6971 5.39453C79.366 5.39453 78.9763 5.46291 78.6331 5.71081L79.8041 7.33216C79.7504 7.3709 79.7045 7.387 79.6825 7.39283C79.6625 7.39815 79.6643 7.39453 79.6971 7.39453V5.39453ZM78.6419 5.70452C78.3771 5.89141 78.1806 6.13951 78.0527 6.42362L79.8766 7.24435C79.8726 7.2532 79.8639 7.26951 79.8482 7.2888C79.8323 7.30833 79.8139 7.3253 79.7953 7.33845L78.6419 5.70452ZM78.0527 6.42362C77.9387 6.67711 77.8804 6.94317 77.8602 7.20651L79.8543 7.3599C79.8601 7.28469 79.8735 7.25127 79.8766 7.24435L78.0527 6.42362ZM77.8604 7.20346C77.8452 7.3937 77.8377 7.58633 77.8377 7.78125H79.8377C79.8377 7.63762 79.8432 7.49823 79.8541 7.36295L77.8604 7.20346ZM77.8377 7.78125V10.1445H79.8377V7.78125H77.8377ZM95.8279 12.459L96.8251 12.5338L96.8253 12.532L95.8279 12.459ZM95.2127 13.6699L95.7478 14.5147L95.7577 14.5085L95.7674 14.502L95.2127 13.6699ZM93.5526 13.6797L93.03 14.5323L93.0401 14.5385L93.0504 14.5445L93.5526 13.6797ZM93.1033 13.2402L92.2292 13.7259L92.2331 13.7329L92.2371 13.74L93.1033 13.2402ZM92.9178 12.6934L91.9231 12.7963L91.9248 12.8132L91.9272 12.83L92.9178 12.6934ZM92.8885 12.2148H93.8885L91.9334 11.9184L92.8885 12.2148ZM92.6346 12.791L91.7646 12.298L91.7583 12.3091L91.7522 12.3204L92.6346 12.791ZM91.6092 13.709L91.9938 14.6321L92.0061 14.6268L91.6092 13.709ZM89.7049 13.6797L89.3939 14.6301L89.7049 13.6797ZM88.035 12.0293L87.1056 12.3983L87.1089 12.4066L87.1123 12.4149L88.035 12.0293ZM88.035 5.93555L87.1103 5.55479L87.1075 5.56177L88.035 5.93555ZM88.7381 4.87109L89.4199 5.60275L89.4286 5.59445L88.7381 4.87109ZM89.7049 4.28516L89.3939 3.33476L89.7049 4.28516ZM91.6092 4.25586L91.2246 5.17898L91.2335 5.1826L91.6092 4.25586ZM92.6346 5.16406L91.7522 5.63465L91.7583 5.64594L91.7646 5.65708L92.6346 5.16406ZM92.8885 5.75L91.9307 6.03735L93.8885 5.75H92.8885ZM92.9276 1.58984L91.9346 1.47163L91.9333 1.48218L91.9323 1.49274L92.9276 1.58984ZM93.1229 0.876953L92.2284 0.429702L92.2227 0.441392L93.1229 0.876953ZM93.5721 0.378906L94.1072 1.22376L94.1142 1.2192L93.5721 0.378906ZM95.1736 0.378906L94.6189 1.21096L94.6287 1.21746L94.6386 1.22373L95.1736 0.378906ZM95.6131 0.876953L94.7076 1.30139L94.7157 1.31865L94.7245 1.3356L95.6131 0.876953ZM95.8084 1.58984L94.8129 1.68465L94.8142 1.69779L94.8158 1.7109L95.8084 1.58984ZM91.16 11.4531L90.5525 12.2475L90.5783 12.2672L90.6053 12.2852L91.16 11.4531ZM92.2537 11.4043L92.8318 12.2203L92.838 12.2158L92.2537 11.4043ZM92.6346 10.877L93.5666 11.2394L93.5699 11.2308L92.6346 10.877ZM92.8201 9.97852L91.8258 9.87198L91.825 9.87997L91.8242 9.88798L92.8201 9.97852ZM92.8885 8.67969L93.8885 8.69267V8.67969H92.8885ZM92.8299 7.98633L91.8372 8.10738L91.8389 8.12105L91.841 8.13467L92.8299 7.98633ZM91.16 6.52148L91.7367 7.3385L91.7455 7.33216L91.16 6.52148ZM90.7986 7.2832L91.7955 7.36295L91.7957 7.3599L90.7986 7.2832ZM94.8572 11.6484C94.8572 11.8981 94.8483 12.1439 94.8306 12.386L96.8253 12.532C96.8466 12.2402 96.8572 11.9457 96.8572 11.6484H94.8572ZM94.8307 12.3842C94.8191 12.5397 94.7863 12.6532 94.7467 12.7377L96.5576 13.5865C96.7133 13.2544 96.7977 12.8991 96.8251 12.5338L94.8307 12.3842ZM94.7467 12.7377C94.7282 12.7772 94.7046 12.8068 94.658 12.8379L95.7674 14.502C96.1114 14.2726 96.3808 13.9637 96.5576 13.5865L94.7467 12.7377ZM94.6777 12.8251C94.6946 12.8143 94.6887 12.8228 94.6405 12.8337C94.5917 12.8448 94.5118 12.8555 94.3924 12.8555V14.8555C94.8418 14.8555 95.3295 14.7796 95.7478 14.5147L94.6777 12.8251ZM94.3924 12.8555C94.2658 12.8555 94.177 12.8449 94.1187 12.8327C94.0606 12.8206 94.0451 12.8093 94.0547 12.8149L93.0504 14.5445C93.4653 14.7854 93.9445 14.8555 94.3924 14.8555V12.8555ZM94.0751 12.8271C94.03 12.7994 94.0031 12.7768 93.9882 12.7622C93.9738 12.7482 93.9696 12.7407 93.9695 12.7405L92.2371 13.74C92.434 14.0812 92.7158 14.3397 93.03 14.5323L94.0751 12.8271ZM93.9775 12.7546C93.9366 12.6809 93.9166 12.6163 93.9084 12.5567L91.9272 12.83C91.971 13.148 92.0748 13.448 92.2292 13.7259L93.9775 12.7546ZM93.9125 12.5905C93.895 12.4219 93.8885 12.2991 93.8885 12.2148H91.8885C91.8885 12.3911 91.9015 12.5872 91.9231 12.7963L93.9125 12.5905ZM91.9334 11.9184C91.8987 12.0304 91.8446 12.1568 91.7646 12.298L93.5046 13.284C93.6459 13.0346 93.7611 12.7769 93.8436 12.5112L91.9334 11.9184ZM91.7522 12.3204C91.7029 12.4129 91.6365 12.5002 91.5461 12.5836L92.9027 14.0532C93.1509 13.824 93.3579 13.5598 93.5169 13.2616L91.7522 12.3204ZM91.5461 12.5836C91.4703 12.6535 91.3639 12.7255 91.2123 12.7911L92.0061 14.6268C92.3362 14.4841 92.64 14.2957 92.9027 14.0532L91.5461 12.5836ZM91.2246 12.7859C91.139 12.8216 90.9987 12.8555 90.7791 12.8555V14.8555C91.1975 14.8555 91.6107 14.7917 91.9938 14.6321L91.2246 12.7859ZM90.7791 12.8555C90.5321 12.8555 90.2789 12.8153 90.0159 12.7293L89.3939 14.6301C89.8471 14.7784 90.31 14.8555 90.7791 14.8555V12.8555ZM90.0159 12.7293C89.8069 12.6609 89.6127 12.5462 89.4286 12.3704L88.0476 13.8171C88.4364 14.1882 88.8867 14.4641 89.3939 14.6301L90.0159 12.7293ZM89.4286 12.3704C89.2594 12.2089 89.0968 11.9768 88.9576 11.6437L87.1123 12.4149C87.3377 12.9542 87.6439 13.4317 88.0476 13.8171L89.4286 12.3704ZM88.9644 11.6603C88.8485 11.3685 88.7713 10.9585 88.7713 10.3984H86.7713C86.7713 11.1275 86.8698 11.8047 87.1056 12.3983L88.9644 11.6603ZM88.7713 10.3984V7.56641H86.7713V10.3984H88.7713ZM88.7713 7.56641C88.7713 6.99759 88.8492 6.59053 88.9625 6.30932L87.1075 5.56177C86.8692 6.15296 86.7713 6.83313 86.7713 7.56641H88.7713ZM88.9597 6.3163C89.0991 5.97766 89.2594 5.75218 89.4198 5.6027L88.0564 4.13949C87.6439 4.52386 87.3354 5.00802 87.1103 5.5548L88.9597 6.3163ZM89.4286 5.59445C89.6127 5.41866 89.8069 5.30395 90.0159 5.23555L89.3939 3.33476C88.8867 3.50074 88.4364 3.77665 88.0476 4.14774L89.4286 5.59445ZM90.0159 5.23555C90.2789 5.1495 90.5321 5.10938 90.7791 5.10938V3.10938C90.31 3.10938 89.8471 3.18644 89.3939 3.33476L90.0159 5.23555ZM90.7791 5.10938C90.9987 5.10938 91.139 5.14327 91.2246 5.17894L91.9938 3.33278C91.6107 3.17314 91.1975 3.10938 90.7791 3.10938V5.10938ZM91.2335 5.1826C91.377 5.24077 91.476 5.30674 91.5461 5.37152L92.9027 3.90192C92.6344 3.6542 92.3232 3.46626 91.9849 3.32912L91.2335 5.1826ZM91.5461 5.37152C91.6365 5.45489 91.7029 5.54221 91.7522 5.63465L93.5169 4.69347C93.3579 4.39529 93.1509 4.13105 92.9027 3.90192L91.5461 5.37152ZM91.7646 5.65708C91.842 5.79379 91.8956 5.92044 91.9307 6.03735L93.8463 5.46265C93.7642 5.18894 93.6485 4.92496 93.5046 4.67105L91.7646 5.65708ZM93.8885 5.75V2.41016H91.8885V5.75H93.8885ZM93.8885 2.41016C93.8885 2.16122 93.9001 1.92023 93.9228 1.68694L91.9323 1.49274C91.903 1.79331 91.8885 2.09919 91.8885 2.41016H93.8885ZM93.9205 1.70806C93.9429 1.5206 93.9833 1.39462 94.023 1.31251L92.2227 0.441392C92.0671 0.762932 91.9774 1.11221 91.9346 1.47163L93.9205 1.70806ZM94.0173 1.32417C94.0407 1.27731 94.0668 1.24929 94.1071 1.22373L93.037 -0.465913C92.6868 -0.244079 92.4133 0.0599305 92.2284 0.42974L94.0173 1.32417ZM94.1142 1.2192C94.0984 1.22942 94.1598 1.18359 94.3924 1.18359V-0.816406C93.9349 -0.816406 93.4494 -0.73202 93.03 -0.46139L94.1142 1.2192ZM94.3924 1.18359C94.5943 1.18359 94.6401 1.22506 94.6189 1.21096L95.7283 -0.453144C95.3166 -0.727665 94.8415 -0.816406 94.3924 -0.816406V1.18359ZM94.6386 1.22373C94.6737 1.24597 94.6913 1.26649 94.7076 1.30139L96.5186 0.452519C96.3396 0.0707482 96.0642 -0.240764 95.7087 -0.465913L94.6386 1.22373ZM94.7245 1.3356C94.7593 1.40303 94.7965 1.51229 94.8129 1.68465L96.8039 1.49503C96.7682 1.12052 96.6752 0.754519 96.5017 0.41831L94.7245 1.3356ZM94.8158 1.7109C94.8432 1.93606 94.8572 2.16902 94.8572 2.41016H96.8572C96.8572 2.09139 96.8387 1.77749 96.8011 1.46879L94.8158 1.7109ZM94.8572 2.41016V11.6484H96.8572V2.41016H94.8572ZM89.7791 10.1445C89.7791 10.345 89.7865 10.5431 89.8016 10.7388L91.7957 10.5854C91.7847 10.4425 91.7791 10.2956 91.7791 10.1445H89.7791ZM89.8016 10.7388C89.8218 11.0022 89.8795 11.2644 89.9869 11.515L91.8252 10.7272C91.8154 10.7043 91.8015 10.6606 91.7957 10.5854L89.8016 10.7388ZM89.9869 11.515C90.1085 11.7988 90.296 12.0513 90.5525 12.2475L91.7674 10.6588C91.7824 10.6702 91.7964 10.6842 91.8078 10.6992C91.8191 10.7139 91.8241 10.7246 91.8252 10.7272L89.9869 11.515ZM90.6053 12.2852C90.9435 12.5107 91.3209 12.5703 91.6385 12.5703V10.5703C91.6002 10.5703 91.5919 10.5664 91.6054 10.5697C91.6201 10.5733 91.662 10.5859 91.7147 10.6211L90.6053 12.2852ZM91.6385 12.5703C92.0327 12.5703 92.4592 12.4842 92.8317 12.2203L91.6757 10.5883C91.6891 10.5788 91.7009 10.5724 91.7099 10.5683C91.7187 10.5642 91.7233 10.563 91.7222 10.5633C91.7192 10.5641 91.694 10.5703 91.6385 10.5703V12.5703ZM92.838 12.2158C93.1932 11.9601 93.4231 11.6083 93.5666 11.2394L91.7026 10.5145C91.683 10.5648 91.6669 10.59 91.6603 10.5991C91.6546 10.607 91.6569 10.6018 91.6694 10.5928L92.838 12.2158ZM93.5699 11.2308C93.7029 10.8793 93.7782 10.4846 93.816 10.0691L91.8242 9.88798C91.7969 10.1886 91.7486 10.3928 91.6993 10.5231L93.5699 11.2308ZM93.8144 10.085C93.8578 9.68048 93.8816 9.21476 93.8884 8.69267L91.8886 8.6667C91.8823 9.14722 91.8606 9.54739 91.8258 9.87198L93.8144 10.085ZM93.8885 8.67969C93.8885 8.4159 93.8632 8.13361 93.8188 7.83799L91.841 8.13467C91.8747 8.35988 91.8885 8.53983 91.8885 8.67969H93.8885ZM93.8225 7.86527C93.7806 7.52137 93.6997 7.1891 93.5764 6.87193L91.7123 7.59682C91.7713 7.7484 91.8141 7.91743 91.8372 8.10738L93.8225 7.86527ZM93.5764 6.87193C93.4396 6.52038 93.2402 6.20114 92.9706 5.93157L91.5564 7.34578C91.6123 7.40173 91.6668 7.47962 91.7123 7.59682L93.5764 6.87193ZM92.9706 5.93157C92.6001 5.56106 92.1276 5.39453 91.6385 5.39453V7.39453C91.6576 7.39453 91.6477 7.39733 91.6213 7.38702C91.6088 7.38212 91.5957 7.37545 91.5833 7.36728C91.5709 7.35915 91.562 7.35135 91.5564 7.34578L92.9706 5.93157ZM91.6385 5.39453C91.3074 5.39453 90.9177 5.46291 90.5745 5.71081L91.7455 7.33216C91.6918 7.3709 91.6459 7.387 91.6239 7.39283C91.6039 7.39815 91.6057 7.39453 91.6385 7.39453V5.39453ZM90.5833 5.70452C90.3185 5.89141 90.122 6.13951 89.9941 6.42362L91.818 7.24435C91.814 7.2532 91.8053 7.26951 91.7896 7.2888C91.7737 7.30833 91.7553 7.3253 91.7367 7.33845L90.5833 5.70452ZM89.9941 6.42362C89.8801 6.67711 89.8218 6.94317 89.8016 7.20651L91.7957 7.3599C91.8015 7.28469 91.8149 7.25127 91.818 7.24435L89.9941 6.42362ZM89.8018 7.20346C89.7866 7.3937 89.7791 7.58633 89.7791 7.78125H91.7791C91.7791 7.63762 91.7846 7.49823 91.7955 7.36295L89.8018 7.20346ZM89.7791 7.78125V10.1445H91.7791V7.78125H89.7791Z" fill="#513E3E"/>
</g>
<defs>
<filter id="filter0_bd_3_1670" x="0.37677" y="-3.81641" width="99.4805" height="25.75" filterUnits="userSpaceOnUse" color-interpolation-filters="sRGB">
<feFlood flood-opacity="0" result="BackgroundImageFix"/>
<feGaussianBlur in="BackgroundImage" stdDeviation="2"/>
<feComposite in2="SourceAlpha" operator="in" result="effect1_backgroundBlur_3_1670"/>
<feColorMatrix in="SourceAlpha" type="matrix" values="0 0 0 0 0 0 0 0 0 0 0 0 0 0 0 0 0 0 127 0" result="hardAlpha"/>
<feOffset dy="4"/>
<feGaussianBlur stdDeviation="2"/>
<feComposite in2="hardAlpha" operator="out"/>
<feColorMatrix type="matrix" values="0 0 0 0 0 0 0 0 0 0 0 0 0 0 0 0 0 0 0.25 0"/>
<feBlend mode="normal" in2="effect1_backgroundBlur_3_1670" result="effect2_dropShadow_3_1670"/>
<feBlend mode="normal" in="SourceGraphic" in2="effect2_dropShadow_3_1670" result="shape"/>
</filter>
</defs>
</svg>
