<svg width="72" height="26" viewBox="0 0 72 26" fill="none" xmlns="http://www.w3.org/2000/svg">
<g filter="url(#filter0_bd_3_1665)">
<path d="M4.85742 3.38623C4.85742 3.0363 4.8737 2.6945 4.90625 2.36084C4.9388 2.02718 5.01611 1.73014 5.13818 1.46973C5.26839 1.20117 5.45557 0.985514 5.69971 0.822754C5.94385 0.659993 6.28158 0.578613 6.71289 0.578613C7.13607 0.578613 7.46973 0.659993 7.71387 0.822754C7.96615 0.985514 8.15332 1.20117 8.27539 1.46973C8.4056 1.73014 8.48698 2.02718 8.51953 2.36084C8.55208 2.6945 8.56836 3.0363 8.56836 3.38623V7.21924H11.9131V3.38623C11.9131 3.0363 11.9294 2.6945 11.9619 2.36084C11.9945 2.02718 12.0718 1.73014 12.1938 1.46973C12.3241 1.20117 12.5112 0.985514 12.7554 0.822754C12.9995 0.659993 13.3372 0.578613 13.7686 0.578613C14.1917 0.578613 14.5254 0.659993 14.7695 0.822754C15.0218 0.985514 15.209 1.20117 15.3311 1.46973C15.4613 1.73014 15.5426 2.02718 15.5752 2.36084C15.6077 2.6945 15.624 3.0363 15.624 3.38623V14.8608C15.624 15.2189 15.6077 15.5648 15.5752 15.8984C15.5426 16.2321 15.4613 16.5332 15.3311 16.8018C15.209 17.0622 15.0218 17.2738 14.7695 17.4365C14.5254 17.5911 14.1917 17.6685 13.7686 17.6685C13.3372 17.6685 12.9995 17.5911 12.7554 17.4365C12.5112 17.2738 12.3241 17.0622 12.1938 16.8018C12.0718 16.5332 11.9945 16.2321 11.9619 15.8984C11.9294 15.5648 11.9131 15.2189 11.9131 14.8608V10.8081H8.56836V14.8608C8.56836 15.2189 8.55208 15.5648 8.51953 15.8984C8.48698 16.2321 8.4056 16.5332 8.27539 16.8018C8.15332 17.0622 7.96615 17.2738 7.71387 17.4365C7.46973 17.5911 7.13607 17.6685 6.71289 17.6685C6.28158 17.6685 5.94385 17.5911 5.69971 17.4365C5.45557 17.2738 5.26839 17.0622 5.13818 16.8018C5.01611 16.5332 4.9388 16.2321 4.90625 15.8984C4.8737 15.5648 4.85742 15.2189 4.85742 14.8608V3.38623ZM20.7607 10.0513C20.7607 9.30257 20.8625 8.66781 21.0659 8.14697C21.2694 7.62614 21.5298 7.19076 21.8472 6.84082C22.1727 6.49089 22.5308 6.21826 22.9214 6.02295C23.3201 5.82764 23.7108 5.68115 24.0933 5.5835C24.4757 5.48584 24.8298 5.4248 25.1553 5.40039C25.4889 5.37598 25.7493 5.36377 25.9365 5.36377C26.1237 5.36377 26.38 5.37598 26.7056 5.40039C27.0311 5.4248 27.377 5.48584 27.7432 5.5835C28.1175 5.68115 28.4919 5.82764 28.8662 6.02295C29.2487 6.21826 29.5905 6.49089 29.8916 6.84082C30.2008 7.19076 30.4531 7.62614 30.6484 8.14697C30.8438 8.66781 30.9414 9.30257 30.9414 10.0513V13.0786C30.9414 13.8273 30.8438 14.4621 30.6484 14.9829C30.4531 15.5037 30.2008 15.9391 29.8916 16.2891C29.5905 16.639 29.2487 16.9116 28.8662 17.1069C28.4919 17.3022 28.1175 17.4487 27.7432 17.5464C27.377 17.644 27.0311 17.7051 26.7056 17.7295C26.38 17.7539 26.1237 17.7661 25.9365 17.7661C25.7493 17.7661 25.4889 17.7539 25.1553 17.7295C24.8298 17.7051 24.4757 17.644 24.0933 17.5464C23.7108 17.4487 23.3201 17.3022 22.9214 17.1069C22.5308 16.9116 22.1727 16.639 21.8472 16.2891C21.5298 15.9391 21.2694 15.5037 21.0659 14.9829C20.8625 14.4621 20.7607 13.8273 20.7607 13.0786V10.0513ZM24.5205 13.9331C24.5286 14.1691 24.5856 14.3766 24.6914 14.5557C24.7809 14.7184 24.9193 14.8649 25.1064 14.9951C25.3018 15.1172 25.5785 15.1782 25.9365 15.1782C26.2783 15.1782 26.5387 15.1172 26.7178 14.9951C26.9049 14.8649 27.0433 14.7184 27.1328 14.5557C27.2305 14.3766 27.2874 14.1691 27.3037 13.9331V9.51416C27.2874 9.27002 27.2305 9.04622 27.1328 8.84277C27.0433 8.68001 26.9049 8.52946 26.7178 8.39111C26.5387 8.24463 26.2783 8.17139 25.9365 8.17139C25.5785 8.17139 25.3018 8.24463 25.1064 8.39111C24.9193 8.52946 24.7809 8.68001 24.6914 8.84277C24.5856 9.04622 24.5286 9.27002 24.5205 9.51416V13.9331ZM44.2568 17.6685C43.8418 17.6685 43.5122 17.5911 43.2681 17.4365C43.0239 17.2738 42.8368 17.0622 42.7065 16.8018C42.5763 16.5413 42.4909 16.2484 42.4502 15.9229C42.4176 15.5892 42.4014 15.2515 42.4014 14.9097V10.0757C42.4014 9.85596 42.3892 9.6403 42.3647 9.42871C42.3485 9.21712 42.3037 9.02995 42.2305 8.86719C42.1572 8.70443 42.0474 8.57422 41.9009 8.47656C41.7625 8.37077 41.5713 8.31787 41.3271 8.31787C41.0016 8.31787 40.7371 8.42773 40.5337 8.64746C40.3302 8.86719 40.1675 9.16829 40.0454 9.55078C39.9315 9.92513 39.8501 10.3687 39.8013 10.8813C39.7606 11.394 39.7402 11.9474 39.7402 12.5415V14.9097C39.7402 15.2515 39.7199 15.5892 39.6792 15.9229C39.6466 16.2484 39.5653 16.5413 39.4351 16.8018C39.313 17.0622 39.1299 17.2738 38.8857 17.4365C38.6416 17.5911 38.3079 17.6685 37.8848 17.6685C37.4616 17.6685 37.1279 17.5911 36.8838 17.4365C36.6396 17.2738 36.4525 17.0622 36.3223 16.8018C36.2002 16.5413 36.1188 16.2484 36.0781 15.9229C36.0456 15.5892 36.0293 15.2515 36.0293 14.9097V8.22021C36.0293 7.87842 36.0415 7.54476 36.0659 7.21924C36.0985 6.88558 36.1758 6.58854 36.2979 6.32812C36.4199 6.06771 36.603 5.86019 36.8472 5.70557C37.0994 5.54281 37.4453 5.46143 37.8848 5.46143C38.3324 5.46143 38.6782 5.53874 38.9224 5.69336C39.1746 5.83984 39.3618 6.02295 39.4839 6.24268C39.606 6.45426 39.6792 6.67806 39.7036 6.91406C39.728 7.15007 39.7402 7.34945 39.7402 7.51221C39.8135 7.2762 39.9274 7.03613 40.082 6.79199C40.2448 6.54785 40.4482 6.32812 40.6924 6.13281C40.9365 5.9375 41.2173 5.77881 41.5347 5.65674C41.8521 5.52653 42.2061 5.46143 42.5967 5.46143C43.1338 5.46143 43.6546 5.59163 44.1592 5.85205C44.6637 6.11247 45.0951 6.53564 45.4531 7.12158C45.5752 6.84489 45.7542 6.60482 45.9902 6.40137C46.2262 6.18978 46.4948 6.01481 46.7959 5.87646C47.097 5.73812 47.4185 5.63639 47.7603 5.57129C48.1021 5.49805 48.4398 5.46143 48.7734 5.46143C49.221 5.46143 49.6686 5.53467 50.1162 5.68115C50.5638 5.82764 50.9666 6.07178 51.3247 6.41357C51.6828 6.75537 51.9717 7.20296 52.1914 7.75635C52.4193 8.3016 52.5332 8.97705 52.5332 9.78271V14.9097C52.5332 15.2515 52.5129 15.5892 52.4722 15.9229C52.4315 16.2484 52.346 16.5413 52.2158 16.8018C52.0856 17.0622 51.8944 17.2738 51.6421 17.4365C51.3979 17.5911 51.0684 17.6685 50.6533 17.6685C50.2301 17.6685 49.8924 17.5911 49.6401 17.4365C49.396 17.2738 49.2088 17.0622 49.0786 16.8018C48.9484 16.5413 48.863 16.2484 48.8223 15.9229C48.7897 15.5892 48.7734 15.2515 48.7734 14.9097V10.0757C48.7734 9.85596 48.7612 9.6403 48.7368 9.42871C48.7124 9.21712 48.6636 9.02995 48.5903 8.86719C48.5171 8.70443 48.4072 8.57422 48.2607 8.47656C48.1143 8.37077 47.9189 8.31787 47.6748 8.31787C47.4144 8.31787 47.1906 8.39925 47.0034 8.56201C46.8244 8.72477 46.6738 8.94857 46.5518 9.2334C46.4297 9.51823 46.3361 9.86003 46.271 10.2588C46.2059 10.6494 46.1611 11.0767 46.1367 11.5405V14.9097C46.1367 15.2515 46.1164 15.5892 46.0757 15.9229C46.0431 16.2484 45.9618 16.5413 45.8315 16.8018C45.7013 17.0622 45.5101 17.2738 45.2578 17.4365C45.0137 17.5911 44.68 17.6685 44.2568 17.6685ZM67.8994 10.7104C67.8994 10.8407 67.8913 10.9953 67.875 11.1743C67.8587 11.3452 67.7936 11.512 67.6797 11.6748C67.5739 11.8294 67.403 11.9637 67.167 12.0776C66.931 12.1916 66.5973 12.2485 66.166 12.2485H61.3076V13.4204C61.3076 13.6157 61.332 13.8192 61.3809 14.0308C61.4297 14.2424 61.5111 14.4377 61.625 14.6167C61.7471 14.7957 61.9058 14.9422 62.1011 15.0562C62.2964 15.1701 62.5365 15.2271 62.8213 15.2271C63.1468 15.2271 63.395 15.1904 63.5659 15.1172C63.745 15.0358 63.8833 14.9382 63.981 14.8242C64.0868 14.7103 64.1803 14.5882 64.2617 14.458C64.3431 14.3278 64.4489 14.2057 64.5791 14.0918C64.7174 13.9779 64.9046 13.8843 65.1406 13.811C65.3848 13.7297 65.7184 13.689 66.1416 13.689C66.3451 13.689 66.5404 13.7052 66.7275 13.7378C66.9229 13.7703 67.0938 13.8314 67.2402 13.9209C67.3867 14.0104 67.5047 14.1366 67.5942 14.2993C67.6838 14.4539 67.7285 14.6574 67.7285 14.9097C67.7285 15.4386 67.5617 15.8822 67.228 16.2402C66.8944 16.5902 66.4753 16.8709 65.9707 17.0825C65.4661 17.2941 64.9168 17.4447 64.3228 17.5342C63.7368 17.6237 63.1875 17.6685 62.6748 17.6685C61.9993 17.6603 61.3564 17.5749 60.7461 17.4121C60.1357 17.2493 59.5946 16.9889 59.1226 16.6309C58.6587 16.2728 58.2884 15.8049 58.0117 15.2271C57.735 14.6493 57.5967 13.9412 57.5967 13.103V10.2466C57.5967 9.47347 57.6862 8.81836 57.8652 8.28125C58.0524 7.74414 58.2925 7.29655 58.5854 6.93848C58.8784 6.5804 59.208 6.30371 59.5742 6.1084C59.9404 5.90495 60.3107 5.75439 60.6851 5.65674C61.0594 5.55908 61.4134 5.49805 61.7471 5.47363C62.0889 5.44922 62.3818 5.43701 62.626 5.43701C63.4479 5.43701 64.1478 5.51025 64.7256 5.65674C65.3115 5.80322 65.7998 5.99447 66.1904 6.23047C66.5811 6.46647 66.8903 6.7391 67.1182 7.04834C67.346 7.35758 67.5169 7.67904 67.6309 8.0127C67.7448 8.33822 67.818 8.67188 67.8506 9.01367C67.8831 9.34733 67.8994 9.66064 67.8994 9.95361V10.7104ZM61.3076 10.4175H64.3594C64.3594 10.035 64.3472 9.69727 64.3228 9.4043C64.3065 9.10319 64.2454 8.85091 64.1396 8.64746C64.042 8.44401 63.8833 8.28939 63.6636 8.18359C63.452 8.0778 63.1468 8.0249 62.748 8.0249C62.4144 8.0249 62.1499 8.0778 61.9546 8.18359C61.7674 8.28939 61.625 8.42367 61.5273 8.58643C61.4297 8.74105 61.3687 8.90788 61.3442 9.08691C61.3198 9.26595 61.3076 9.42464 61.3076 9.56299V10.4175Z" fill="white"/>
<path d="M5.13818 1.46973L4.23829 1.03342L4.23272 1.04529L5.13818 1.46973ZM7.71387 0.822754L7.15917 1.6548L7.16542 1.65897L7.17174 1.66305L7.71387 0.822754ZM8.27539 1.46973L7.36502 1.88353L7.37268 1.90038L7.38096 1.91694L8.27539 1.46973ZM8.56836 7.21924H7.56836V8.21924H8.56836V7.21924ZM11.9131 7.21924V8.21924H12.9131V7.21924H11.9131ZM12.1938 1.46973L11.294 1.03342L11.2884 1.04529L12.1938 1.46973ZM14.7695 0.822754L14.2148 1.6548L14.2211 1.65897L14.2274 1.66305L14.7695 0.822754ZM15.3311 1.46973L14.4207 1.88353L14.4283 1.90038L14.4366 1.91694L15.3311 1.46973ZM15.5752 2.36084L14.5799 2.45794L15.5752 2.36084ZM15.5752 15.8984L14.5799 15.8013L15.5752 15.8984ZM15.3311 16.8018L14.4312 16.3654L14.4256 16.3773L15.3311 16.8018ZM14.7695 17.4365L15.3046 18.2814L15.3117 18.2768L14.7695 17.4365ZM12.7554 17.4365L12.2007 18.2686L12.2104 18.2751L12.2203 18.2813L12.7554 17.4365ZM12.1938 16.8018L11.2835 17.2156L11.2911 17.2324L11.2994 17.249L12.1938 16.8018ZM11.9619 15.8984L10.9666 15.9955L11.9619 15.8984ZM11.9131 10.8081H12.9131V9.80811H11.9131V10.8081ZM8.56836 10.8081V9.80811H7.56836V10.8081H8.56836ZM8.27539 16.8018L7.3755 16.3654L7.36993 16.3773L8.27539 16.8018ZM7.71387 17.4365L8.24894 18.2814L8.25599 18.2768L7.71387 17.4365ZM5.69971 17.4365L5.14501 18.2686L5.15476 18.2751L5.16465 18.2813L5.69971 17.4365ZM5.13818 16.8018L4.22782 17.2156L4.23548 17.2324L4.24376 17.249L5.13818 16.8018ZM5.85742 3.38623C5.85742 3.06731 5.87225 2.75796 5.90152 2.45794L3.91098 2.26374C3.87514 2.63104 3.85742 3.00528 3.85742 3.38623H5.85742ZM5.90152 2.45794C5.92481 2.2193 5.97722 2.03586 6.04364 1.89416L4.23272 1.04529C4.05501 1.42442 3.9528 1.83506 3.91098 2.26374L5.90152 2.45794ZM6.038 1.906C6.09188 1.79487 6.16116 1.71697 6.25441 1.6548L5.14501 -0.00929639C4.74998 0.254058 4.4449 0.607476 4.23837 1.03345L6.038 1.906ZM6.25441 1.6548C6.27395 1.64177 6.39126 1.57861 6.71289 1.57861V-0.421387C6.17189 -0.421387 5.61374 -0.321788 5.14501 -0.00929639L6.25441 1.6548ZM6.71289 1.57861C7.0218 1.57861 7.13701 1.64003 7.15917 1.6548L8.26857 -0.00929639C7.80245 -0.320044 7.25033 -0.421387 6.71289 -0.421387V1.57861ZM7.17174 1.66305C7.26595 1.72383 7.32376 1.79275 7.36502 1.88353L9.18576 1.05592C8.98288 0.609597 8.66634 0.247195 8.25599 -0.0175427L7.17174 1.66305ZM7.38096 1.91694C7.44877 2.05255 7.50182 2.22796 7.52426 2.45794L9.51481 2.26374C9.47214 1.8264 9.36243 1.40773 9.16982 1.02251L7.38096 1.91694ZM7.52426 2.45794C7.55353 2.75796 7.56836 3.06731 7.56836 3.38623H9.56836C9.56836 3.00528 9.55064 2.63104 9.51481 2.26374L7.52426 2.45794ZM7.56836 3.38623V7.21924H9.56836V3.38623H7.56836ZM8.56836 8.21924H11.9131V6.21924H8.56836V8.21924ZM12.9131 7.21924V3.38623H10.9131V7.21924H12.9131ZM12.9131 3.38623C12.9131 3.06731 12.9279 2.75796 12.9572 2.45794L10.9666 2.26374C10.9308 2.63104 10.9131 3.00528 10.9131 3.38623H12.9131ZM12.9572 2.45794C12.9805 2.2193 13.0329 2.03586 13.0993 1.89416L11.2884 1.04529C11.1107 1.42442 11.0085 1.83506 10.9666 2.26374L12.9572 2.45794ZM13.0937 1.906C13.1475 1.79487 13.2168 1.71697 13.3101 1.6548L12.2007 -0.00929639C11.8056 0.254058 11.5006 0.607476 11.294 1.03345L13.0937 1.906ZM13.3101 1.6548C13.3296 1.64177 13.4469 1.57861 13.7686 1.57861V-0.421387C13.2276 -0.421387 12.6694 -0.321788 12.2007 -0.00929639L13.3101 1.6548ZM13.7686 1.57861C14.0775 1.57861 14.1927 1.64003 14.2148 1.6548L15.3242 -0.00929639C14.8581 -0.320044 14.306 -0.421387 13.7686 -0.421387V1.57861ZM14.2274 1.66305C14.3216 1.72383 14.3794 1.79275 14.4207 1.88353L16.2414 1.05592C16.0385 0.609597 15.722 0.247195 15.3117 -0.0175427L14.2274 1.66305ZM14.4366 1.91694C14.5044 2.05255 14.5575 2.22796 14.5799 2.45794L16.5705 2.26374C16.5278 1.8264 16.4181 1.40773 16.2255 1.02251L14.4366 1.91694ZM14.5799 2.45794C14.6092 2.75796 14.624 3.06731 14.624 3.38623H16.624C16.624 3.00528 16.6063 2.63104 16.5705 2.26374L14.5799 2.45794ZM14.624 3.38623V14.8608H16.624V3.38623H14.624ZM14.624 14.8608C14.624 15.1887 14.6091 15.502 14.5799 15.8013L16.5705 15.9955C16.6064 15.6275 16.624 15.2492 16.624 14.8608H14.624ZM14.5799 15.8013C14.5575 16.0316 14.5038 16.2157 14.4312 16.3655L16.2309 17.238C16.4187 16.8507 16.5278 16.4326 16.5705 15.9955L14.5799 15.8013ZM14.4256 16.3773C14.3868 16.4601 14.3292 16.5305 14.2274 16.5962L15.3117 18.2768C15.7144 18.017 16.0312 17.6642 16.2365 17.2262L14.4256 16.3773ZM14.2345 16.5917C14.2084 16.6082 14.0852 16.6685 13.7686 16.6685V18.6685C14.2983 18.6685 14.8424 18.574 15.3046 18.2813L14.2345 16.5917ZM13.7686 16.6685C13.4394 16.6685 13.314 16.6067 13.2904 16.5917L12.2203 18.2813C12.685 18.5756 13.2351 18.6685 13.7686 18.6685V16.6685ZM13.3101 16.6045C13.2095 16.5375 13.14 16.458 13.0883 16.3545L11.2994 17.249C11.5081 17.6663 11.8129 18.0101 12.2007 18.2686L13.3101 16.6045ZM13.1042 16.388C13.0334 16.2322 12.9805 16.0402 12.9572 15.8013L10.9666 15.9955C11.0084 16.424 11.1101 16.8342 11.2835 17.2156L13.1042 16.388ZM12.9572 15.8013C12.928 15.502 12.9131 15.1887 12.9131 14.8608H10.9131C10.9131 15.2492 10.9307 15.6275 10.9666 15.9955L12.9572 15.8013ZM12.9131 14.8608V10.8081H10.9131V14.8608H12.9131ZM11.9131 9.80811H8.56836V11.8081H11.9131V9.80811ZM7.56836 10.8081V14.8608H9.56836V10.8081H7.56836ZM7.56836 14.8608C7.56836 15.1887 7.55346 15.502 7.52426 15.8013L9.51481 15.9955C9.55071 15.6275 9.56836 15.2492 9.56836 14.8608H7.56836ZM7.52426 15.8013C7.50179 16.0316 7.44818 16.2157 7.37558 16.3655L9.1752 17.238C9.36302 16.8507 9.47217 16.4326 9.51481 15.9955L7.52426 15.8013ZM7.36993 16.3773C7.33113 16.4601 7.27354 16.5305 7.17174 16.5962L8.25599 18.2768C8.65875 18.017 8.97551 17.6642 9.18085 17.2262L7.36993 16.3773ZM7.17882 16.5917C7.1527 16.6082 7.02951 16.6685 6.71289 16.6685V18.6685C7.24263 18.6685 7.78675 18.574 8.24892 18.2813L7.17882 16.5917ZM6.71289 16.6685C6.38375 16.6685 6.25837 16.6067 6.23476 16.5917L5.16465 18.2813C5.62933 18.5756 6.1794 18.6685 6.71289 18.6685V16.6685ZM6.25441 16.6045C6.15388 16.5375 6.08436 16.458 6.03261 16.3545L4.24376 17.249C4.45243 17.6663 4.75725 18.0101 5.14501 18.2686L6.25441 16.6045ZM6.04855 16.388C5.97776 16.2322 5.92483 16.0402 5.90152 15.8013L3.91098 15.9955C3.95278 16.424 4.05447 16.8342 4.22782 17.2156L6.04855 16.388ZM5.90152 15.8013C5.87233 15.502 5.85742 15.1887 5.85742 14.8608H3.85742C3.85742 15.2492 3.87507 15.6275 3.91098 15.9955L5.90152 15.8013ZM5.85742 14.8608V3.38623H3.85742V14.8608H5.85742ZM21.8472 6.84082L21.1149 6.15966L21.1064 6.16901L21.8472 6.84082ZM22.9214 6.02295L22.4815 5.12486L22.4742 5.12852L22.9214 6.02295ZM25.1553 5.40039L25.0823 4.40306L25.0805 4.40319L25.1553 5.40039ZM27.7432 5.5835L27.4855 6.54975L27.4907 6.55111L27.7432 5.5835ZM28.8662 6.02295L28.4036 6.90957L28.4114 6.91355L28.8662 6.02295ZM29.8916 6.84082L29.1335 7.49312L29.1423 7.50302L29.8916 6.84082ZM29.8916 16.2891L29.1422 15.6268L29.1336 15.6368L29.8916 16.2891ZM28.8662 17.1069L28.4114 16.2163L28.4036 16.2203L28.8662 17.1069ZM27.7432 17.5464L27.4907 16.5788L27.4855 16.5802L27.7432 17.5464ZM25.1553 17.7295L25.0805 18.7267L25.0823 18.7268L25.1553 17.7295ZM22.9214 17.1069L22.4742 18.0014L22.4815 18.005L22.9214 17.1069ZM21.8472 16.2891L21.1064 16.9609L21.115 16.9702L21.8472 16.2891ZM21.0659 14.9829L20.1345 15.3468L21.0659 14.9829ZM24.5205 13.9331H23.5205V13.9503L23.5211 13.9676L24.5205 13.9331ZM24.6914 14.5557L25.5676 14.0737L25.5602 14.0602L25.5523 14.0469L24.6914 14.5557ZM25.1064 14.9951L24.5354 15.816L24.5556 15.8301L24.5764 15.8431L25.1064 14.9951ZM26.7178 14.9951L27.2811 15.8214L27.2888 15.816L26.7178 14.9951ZM27.1328 14.5557L28.009 15.0376L28.0107 15.0345L27.1328 14.5557ZM27.3037 13.9331L28.3013 14.0019L28.3037 13.9675V13.9331H27.3037ZM27.3037 9.51416H28.3037V9.48086L28.3015 9.44764L27.3037 9.51416ZM27.1328 8.84277L28.0343 8.41004L28.0224 8.3851L28.009 8.36085L27.1328 8.84277ZM26.7178 8.39111L26.0845 9.16507L26.1036 9.18066L26.1234 9.19529L26.7178 8.39111ZM25.1064 8.39111L25.7009 9.19531L25.7064 9.19111L25.1064 8.39111ZM24.6914 8.84277L23.8152 8.36085L23.8096 8.37107L23.8042 8.38142L24.6914 8.84277ZM24.5205 9.51416L23.5211 9.48085L23.5205 9.4975V9.51416H24.5205ZM21.7607 10.0513C21.7607 9.38735 21.8517 8.88371 21.9974 8.51082L20.1345 7.78312C19.8732 8.45191 19.7607 9.21779 19.7607 10.0513H21.7607ZM21.9974 8.51082C22.1645 8.08303 22.3658 7.75749 22.5879 7.51264L21.1064 6.16901C20.6938 6.62402 20.3743 7.16925 20.1345 7.78312L21.9974 8.51082ZM22.5794 7.52192C22.8311 7.2513 23.0946 7.05437 23.3686 6.91738L22.4742 5.12852C21.9669 5.38215 21.5143 5.73047 21.115 6.15972L22.5794 7.52192ZM23.3613 6.92101C23.706 6.75218 24.0322 6.63116 24.3406 6.55241L23.8459 4.61458C23.3893 4.73114 22.9343 4.9031 22.4815 5.12489L23.3613 6.92101ZM24.3406 6.55241C24.6778 6.46632 24.9734 6.41684 25.2301 6.39759L25.0805 4.40319C24.6861 4.43277 24.2737 4.50536 23.8459 4.61458L24.3406 6.55241ZM25.2282 6.39772C25.5533 6.37394 25.7855 6.36377 25.9365 6.36377V4.36377C25.7132 4.36377 25.4246 4.37801 25.0823 4.40306L25.2282 6.39772ZM25.9365 6.36377C26.087 6.36377 26.3148 6.37389 26.6308 6.39759L26.7804 4.40319C26.4453 4.37806 26.1604 4.36377 25.9365 4.36377V6.36377ZM26.6308 6.39759C26.8856 6.4167 27.1698 6.46556 27.4855 6.54973L28.0008 4.61726C27.5841 4.50612 27.1766 4.43291 26.7804 4.40319L26.6308 6.39759ZM27.4907 6.55111C27.7859 6.62812 28.09 6.74592 28.4036 6.90953L29.3288 5.13636C28.8937 4.90936 28.4491 4.73419 27.9956 4.61588L27.4907 6.55111ZM28.4114 6.91355C28.6699 7.04554 28.9107 7.23406 29.1336 7.49306L30.6496 6.18858C30.2703 5.74771 29.8275 5.39099 29.321 5.13234L28.4114 6.91355ZM29.1423 7.50302C29.3569 7.7459 29.5516 8.07017 29.7121 8.4981L31.5848 7.79585C31.3546 7.18211 31.0448 6.63561 30.6409 6.17862L29.1423 7.50302ZM29.7121 8.4981C29.8535 8.87523 29.9414 9.38359 29.9414 10.0513H31.9414C31.9414 9.22156 31.834 8.46038 31.5848 7.79585L29.7121 8.4981ZM29.9414 10.0513V13.0786H31.9414V10.0513H29.9414ZM29.9414 13.0786C29.9414 13.7463 29.8535 14.2546 29.7121 14.6318L31.5848 15.334C31.834 14.6695 31.9414 13.9083 31.9414 13.0786H29.9414ZM29.7121 14.6318C29.5516 15.0597 29.3569 15.384 29.1423 15.6269L30.6409 16.9513C31.0448 16.4943 31.3546 15.9478 31.5848 15.334L29.7121 14.6318ZM29.1336 15.6368C28.9107 15.8958 28.6699 16.0843 28.4114 16.2163L29.321 17.9975C29.8275 17.7389 30.2703 17.3822 30.6496 16.9413L29.1336 15.6368ZM28.4036 16.2203C28.09 16.384 27.7859 16.5018 27.4907 16.5788L27.9956 18.514C28.4491 18.3957 28.8937 18.2205 29.3288 17.9935L28.4036 16.2203ZM27.4855 16.5802C27.1698 16.6643 26.8856 16.7132 26.6308 16.7323L26.7804 18.7267C27.1766 18.697 27.5841 18.6238 28.0008 18.5126L27.4855 16.5802ZM26.6308 16.7323C26.3148 16.756 26.087 16.7661 25.9365 16.7661V18.7661C26.1604 18.7661 26.4453 18.7518 26.7804 18.7267L26.6308 16.7323ZM25.9365 16.7661C25.7855 16.7661 25.5533 16.7559 25.2282 16.7322L25.0823 18.7268C25.4246 18.7519 25.7132 18.7661 25.9365 18.7661V16.7661ZM25.2301 16.7323C24.9734 16.713 24.6778 16.6636 24.3406 16.5775L23.8459 18.5153C24.2737 18.6245 24.6861 18.6971 25.0805 18.7267L25.2301 16.7323ZM24.3406 16.5775C24.0322 16.4987 23.706 16.3777 23.3613 16.2089L22.4815 18.005C22.9343 18.2268 23.3893 18.3987 23.8459 18.5153L24.3406 16.5775ZM23.3686 16.2125C23.0946 16.0755 22.8311 15.8786 22.5794 15.608L21.115 16.9702C21.5143 17.3994 21.9669 17.7477 22.4742 18.0014L23.3686 16.2125ZM22.5879 15.6172C22.3658 15.3724 22.1645 15.0469 21.9974 14.6191L20.1345 15.3468C20.3743 15.9606 20.6938 16.5059 21.1064 16.9609L22.5879 15.6172ZM21.9974 14.6191C21.8517 14.2462 21.7607 13.7425 21.7607 13.0786H19.7607C19.7607 13.9121 19.8732 14.678 20.1345 15.3468L21.9974 14.6191ZM21.7607 13.0786V10.0513H19.7607V13.0786H21.7607ZM23.5211 13.9676C23.5342 14.3478 23.6286 14.7228 23.8305 15.0644L25.5523 14.0469C25.5426 14.0305 25.5231 13.9904 25.5199 13.8986L23.5211 13.9676ZM23.8152 15.0376C23.9939 15.3626 24.25 15.6175 24.5354 15.816L25.6775 14.1742C25.5886 14.1123 25.5679 14.0743 25.5676 14.0737L23.8152 15.0376ZM24.5764 15.8431C24.9959 16.1053 25.4866 16.1782 25.9365 16.1782V14.1782C25.8119 14.1782 25.7278 14.1674 25.6759 14.1559C25.6242 14.1445 25.618 14.1356 25.6364 14.1471L24.5764 15.8431ZM25.9365 16.1782C26.3723 16.1782 26.8654 16.1048 27.2811 15.8213L26.1544 14.1689C26.1873 14.1465 26.1975 14.15 26.16 14.1588C26.1219 14.1678 26.0507 14.1782 25.9365 14.1782V16.1782ZM27.2888 15.816C27.5742 15.6175 27.8303 15.3626 28.009 15.0376L26.2566 14.0737C26.2563 14.0743 26.2357 14.1123 26.1467 14.1742L27.2888 15.816ZM28.0107 15.0345C28.1875 14.7103 28.2767 14.3588 28.3013 14.0019L26.3061 13.8643C26.2981 13.9795 26.2734 14.0429 26.2549 14.0768L28.0107 15.0345ZM28.3037 13.9331V9.51416H26.3037V13.9331H28.3037ZM28.3015 9.44764C28.2775 9.08718 28.1916 8.73767 28.0343 8.41004L26.2313 9.2755C26.2693 9.35478 26.2974 9.45286 26.3059 9.58068L28.3015 9.44764ZM28.009 8.36085C27.8347 8.04382 27.5869 7.79002 27.3122 7.58694L26.1234 9.19529C26.223 9.2689 26.2519 9.31621 26.2566 9.32469L28.009 8.36085ZM27.351 7.61716C26.9253 7.26888 26.4026 7.17139 25.9365 7.17139V9.17139C26.0388 9.17139 26.0949 9.18264 26.1174 9.18897C26.1373 9.19456 26.1181 9.19252 26.0845 9.16507L27.351 7.61716ZM25.9365 7.17139C25.4589 7.17139 24.9389 7.26675 24.5064 7.59111L25.7064 9.19111C25.6851 9.20715 25.6813 9.20231 25.7163 9.19302C25.7534 9.18322 25.8233 9.17139 25.9365 9.17139V7.17139ZM24.5121 7.58694C24.2373 7.79002 23.9896 8.04382 23.8152 8.36085L25.5676 9.32469C25.5723 9.31621 25.6012 9.2689 25.7008 9.19529L24.5121 7.58694ZM23.8042 8.38142C23.625 8.72594 23.5338 9.09738 23.5211 9.48085L25.52 9.54747C25.5234 9.44265 25.5462 9.36651 25.5786 9.30413L23.8042 8.38142ZM23.5205 9.51416V13.9331H25.5205V9.51416H23.5205ZM43.2681 17.4365L42.7134 18.2686L42.7231 18.2751L42.733 18.2813L43.2681 17.4365ZM42.4502 15.9229L41.4549 16.02L41.4562 16.0334L41.4579 16.0469L42.4502 15.9229ZM42.3647 9.42871L41.3677 9.50541L41.3692 9.52441L41.3713 9.54334L42.3647 9.42871ZM41.9009 8.47656L41.2934 9.27092L41.3192 9.29062L41.3462 9.30861L41.9009 8.47656ZM40.5337 8.64746L41.2675 9.32687L40.5337 8.64746ZM40.0454 9.55078L39.0927 9.24671L39.0887 9.25962L40.0454 9.55078ZM39.8013 10.8813L38.8058 10.7865L38.805 10.7944L38.8044 10.8022L39.8013 10.8813ZM39.6792 15.9229L38.6866 15.8018L38.6852 15.8126L38.6842 15.8233L39.6792 15.9229ZM39.4351 16.8018L38.5406 16.3545L38.535 16.3659L38.5296 16.3773L39.4351 16.8018ZM38.8857 17.4365L39.4208 18.2813L39.4307 18.2751L39.4404 18.2686L38.8857 17.4365ZM36.8838 17.4365L36.3291 18.2686L36.3388 18.2751L36.3487 18.2813L36.8838 17.4365ZM36.3223 16.8018L35.4168 17.2262L35.4222 17.2377L35.4278 17.249L36.3223 16.8018ZM36.0781 15.9229L35.0829 16.02L35.0842 16.0334L35.0858 16.0469L36.0781 15.9229ZM36.0659 7.21924L35.0706 7.12214L35.0696 7.13328L35.0687 7.14445L36.0659 7.21924ZM36.8472 5.70557L37.3822 6.55042L37.3893 6.54586L36.8472 5.70557ZM38.9224 5.69336L38.3873 6.53818L38.4036 6.54848L38.4202 6.55815L38.9224 5.69336ZM39.4839 6.24268L38.6097 6.72832L38.6137 6.73539L38.6177 6.7424L39.4839 6.24268ZM39.7402 7.51221H38.7402L40.6953 7.80861L39.7402 7.51221ZM40.082 6.79199L39.25 6.23729L39.2435 6.24704L39.2372 6.25694L40.082 6.79199ZM41.5347 5.65674L41.8936 6.59008L41.904 6.58611L41.9142 6.58191L41.5347 5.65674ZM45.4531 7.12158L44.5998 7.64303L45.5965 9.27398L46.368 7.52522L45.4531 7.12158ZM45.9902 6.40137L46.6432 7.15878L46.6505 7.15243L46.6578 7.14594L45.9902 6.40137ZM46.7959 5.87646L46.3784 4.96779L46.7959 5.87646ZM47.7603 5.57129L47.9474 6.55363L47.9586 6.55149L47.9698 6.54909L47.7603 5.57129ZM50.1162 5.68115L49.8052 6.63155L50.1162 5.68115ZM52.1914 7.75635L51.262 8.12538L51.2653 8.13369L51.2687 8.14194L52.1914 7.75635ZM52.4722 15.9229L53.4645 16.0469L53.4648 16.0439L52.4722 15.9229ZM52.2158 16.8018L51.3214 16.3545L52.2158 16.8018ZM51.6421 17.4365L52.1772 18.2814L52.1842 18.2768L51.6421 17.4365ZM49.6401 17.4365L49.0854 18.2686L49.1013 18.2792L49.1176 18.2891L49.6401 17.4365ZM48.8223 15.9229L47.827 16.02L47.8283 16.0334L47.83 16.0469L48.8223 15.9229ZM48.2607 8.47656L47.6753 9.28724L47.6904 9.29822L47.706 9.30861L48.2607 8.47656ZM47.0034 8.56201L46.3472 7.80741L46.3389 7.81465L46.3307 7.82207L47.0034 8.56201ZM46.271 10.2588L47.2574 10.4232L47.2579 10.4199L46.271 10.2588ZM46.1367 11.5405L45.1381 11.488L45.1367 11.5142V11.5405H46.1367ZM46.0757 15.9229L45.083 15.8018L45.0817 15.8126L45.0806 15.8233L46.0757 15.9229ZM45.2578 17.4365L45.7929 18.2814L45.7999 18.2768L45.2578 17.4365ZM44.2568 16.6685C43.9528 16.6685 43.8318 16.6099 43.8031 16.5917L42.733 18.2813C43.1926 18.5724 43.7308 18.6685 44.2568 18.6685V16.6685ZM43.8228 16.6045C43.7222 16.5375 43.6527 16.458 43.601 16.3545L41.8121 17.249C42.0208 17.6663 42.3256 18.0101 42.7134 18.2686L43.8228 16.6045ZM43.601 16.3545C43.5275 16.2075 43.4709 16.026 43.4425 15.7988L41.4579 16.0469C41.5109 16.4708 41.6252 16.8752 41.8121 17.249L43.601 16.3545ZM43.4455 15.8258C43.4161 15.525 43.4014 15.2197 43.4014 14.9097H41.4014C41.4014 15.2833 41.4192 15.6534 41.4549 16.02L43.4455 15.8258ZM43.4014 14.9097V10.0757H41.4014V14.9097H43.4014ZM43.4014 10.0757C43.4014 9.81886 43.3871 9.5649 43.3582 9.31409L41.3713 9.54334C41.3912 9.7157 41.4014 9.89306 41.4014 10.0757H43.4014ZM43.3618 9.35201C43.3383 9.04636 43.2711 8.74287 43.1424 8.45682L41.3185 9.27755C41.3363 9.31703 41.3587 9.38788 41.3677 9.50541L43.3618 9.35201ZM43.1424 8.45682C42.9932 8.12523 42.7607 7.84789 42.4556 7.64451L41.3462 9.30861C41.3437 9.30698 41.3366 9.30155 41.3288 9.29233C41.3211 9.28319 41.3182 9.27677 41.3185 9.27755L43.1424 8.45682ZM42.5083 7.6822C42.1376 7.39872 41.7046 7.31787 41.3271 7.31787V9.31787C41.379 9.31787 41.3955 9.32369 41.3871 9.32136C41.3764 9.31838 41.3392 9.30589 41.2934 9.27092L42.5083 7.6822ZM41.3271 7.31787C40.7501 7.31787 40.2103 7.52488 39.7999 7.96805L41.2675 9.32687C41.2729 9.32102 41.275 9.31981 41.2736 9.32082C41.272 9.32192 41.2698 9.3231 41.2682 9.32377C41.2634 9.32578 41.2782 9.31787 41.3271 9.31787V7.31787ZM39.7999 7.96805C39.469 8.32544 39.245 8.76981 39.0928 9.24674L40.9981 9.85482C41.09 9.56678 41.1915 9.40893 41.2675 9.32687L39.7999 7.96805ZM39.0887 9.25962C38.9503 9.71435 38.8591 10.2268 38.8058 10.7865L40.7968 10.9762C40.8411 10.5105 40.9126 10.1359 41.0021 9.84194L39.0887 9.25962ZM38.8044 10.8022C38.7613 11.3449 38.7402 11.925 38.7402 12.5415H40.7402C40.7402 11.9699 40.7598 11.4432 40.7981 10.9605L38.8044 10.8022ZM38.7402 12.5415V14.9097H40.7402V12.5415H38.7402ZM38.7402 14.9097C38.7402 15.2117 38.7223 15.509 38.6866 15.8018L40.6718 16.0439C40.7175 15.6694 40.7402 15.2912 40.7402 14.9097H38.7402ZM38.6842 15.8233C38.6622 16.0427 38.6101 16.2156 38.5406 16.3545L40.3295 17.249C40.5204 16.8671 40.6311 16.4541 40.6742 16.0224L38.6842 15.8233ZM38.5296 16.3773C38.4867 16.4689 38.4265 16.5409 38.331 16.6045L39.4404 18.2686C39.8333 18.0067 40.1393 17.6554 40.3405 17.2262L38.5296 16.3773ZM38.3507 16.5917C38.3246 16.6082 38.2014 16.6685 37.8848 16.6685V18.6685C38.4145 18.6685 38.9586 18.574 39.4208 18.2813L38.3507 16.5917ZM37.8848 16.6685C37.5682 16.6685 37.445 16.6082 37.4188 16.5917L36.3487 18.2813C36.8109 18.574 37.355 18.6685 37.8848 18.6685V16.6685ZM37.4385 16.6045C37.338 16.5375 37.2684 16.458 37.2167 16.3545L35.4278 17.249C35.6365 17.6663 35.9413 18.0101 36.3291 18.2686L37.4385 16.6045ZM37.2277 16.3773C37.1559 16.2242 37.0999 16.0347 37.0704 15.7988L35.0858 16.0469C35.1377 16.4621 35.2445 16.8585 35.4168 17.2262L37.2277 16.3773ZM37.0734 15.8258C37.0441 15.525 37.0293 15.2197 37.0293 14.9097H35.0293C35.0293 15.2833 35.0471 15.6534 35.0829 16.02L37.0734 15.8258ZM37.0293 14.9097V8.22021H35.0293V14.9097H37.0293ZM37.0293 8.22021C37.0293 7.90221 37.0407 7.59353 37.0631 7.29403L35.0687 7.14445C35.0424 7.49599 35.0293 7.85462 35.0293 8.22021H37.0293ZM37.0612 7.31634C37.0845 7.0777 37.1369 6.89426 37.2033 6.75256L35.3924 5.90369C35.2147 6.28282 35.1125 6.69346 35.0706 7.12214L37.0612 7.31634ZM37.2033 6.75256C37.2441 6.66558 37.2983 6.60356 37.3822 6.55039L36.3121 4.86075C35.9078 5.11682 35.5958 5.46984 35.3924 5.90369L37.2033 6.75256ZM37.3893 6.54586C37.4214 6.52515 37.5534 6.46143 37.8848 6.46143V4.46143C37.3372 4.46143 36.7775 4.56046 36.305 4.86527L37.3893 6.54586ZM37.8848 6.46143C38.2387 6.46143 38.3685 6.52624 38.3873 6.53818L39.4574 4.84854C38.988 4.55123 38.426 4.46143 37.8848 4.46143V6.46143ZM38.4202 6.55815C38.542 6.62884 38.5885 6.69003 38.6097 6.72832L40.358 5.75703C40.1352 5.35587 39.8073 5.05084 39.4245 4.82857L38.4202 6.55815ZM38.6177 6.7424C38.6717 6.83591 38.6994 6.92498 38.7089 7.01696L40.6983 6.81116C40.659 6.43114 40.5403 6.07262 40.3501 5.74295L38.6177 6.7424ZM38.7089 7.01696C38.7312 7.23273 38.7402 7.39545 38.7402 7.51221H40.7402C40.7402 7.30345 40.7248 7.06741 40.6983 6.81116L38.7089 7.01696ZM40.6953 7.80861C40.7385 7.66944 40.8116 7.50906 40.9269 7.32704L39.2372 6.25694C39.0432 6.5632 38.8885 6.88296 38.7852 7.21581L40.6953 7.80861ZM40.9141 7.34669C41.0161 7.1936 41.148 7.04894 41.3171 6.91368L40.0677 5.35194C39.7485 5.60731 39.4734 5.9021 39.25 6.23729L40.9141 7.34669ZM41.3171 6.91368C41.4743 6.78791 41.6638 6.6785 41.8936 6.59008L41.1757 4.72339C40.7708 4.87912 40.3988 5.08709 40.0677 5.35194L41.3171 6.91368ZM41.9142 6.58191C42.0956 6.50749 42.3183 6.46143 42.5967 6.46143V4.46143C42.0938 4.46143 41.6085 4.54557 41.1551 4.73157L41.9142 6.58191ZM42.5967 6.46143C42.9651 6.46143 43.3294 6.54914 43.7005 6.74067L44.6178 4.96343C43.9798 4.63413 43.3025 4.46143 42.5967 4.46143V6.46143ZM43.7005 6.74067C44.0113 6.90109 44.3172 7.18049 44.5998 7.64303L46.3064 6.60013C45.8729 5.8908 45.3161 5.32385 44.6178 4.96343L43.7005 6.74067ZM46.368 7.52522C46.4283 7.38863 46.5162 7.26826 46.6432 7.15878L45.3373 5.64396C44.9923 5.94138 44.7221 6.30115 44.5382 6.71794L46.368 7.52522ZM46.6578 7.14594C46.8158 7.00427 46.9992 6.88354 47.2134 6.78514L46.3784 4.96779C45.9904 5.14608 45.6367 5.37529 45.3227 5.6568L46.6578 7.14594ZM47.2134 6.78514C47.4374 6.68223 47.6811 6.60435 47.9474 6.55363L47.5731 4.58895C47.1558 4.66844 46.7566 4.79401 46.3784 4.96779L47.2134 6.78514ZM47.9698 6.54909C48.246 6.48991 48.5135 6.46143 48.7734 6.46143V4.46143C48.3661 4.46143 47.9581 4.50619 47.5507 4.59349L47.9698 6.54909ZM48.7734 6.46143C49.11 6.46143 49.4527 6.5162 49.8052 6.63155L50.4272 4.73076C49.8845 4.55313 49.3321 4.46143 48.7734 4.46143V6.46143ZM49.8052 6.63155C50.1037 6.72924 50.3785 6.89278 50.6342 7.13693L52.0152 5.69022C51.5548 5.25077 51.0239 4.92603 50.4272 4.73076L49.8052 6.63155ZM50.6342 7.13693C50.8691 7.36112 51.0848 7.67922 51.262 8.12538L53.1208 7.38731C52.8585 6.7267 52.4965 6.14963 52.0152 5.69022L50.6342 7.13693ZM51.2687 8.14194C51.4306 8.52935 51.5332 9.0643 51.5332 9.78271H53.5332C53.5332 8.8898 53.4079 8.07384 53.1141 7.37075L51.2687 8.14194ZM51.5332 9.78271V14.9097H53.5332V9.78271H51.5332ZM51.5332 14.9097C51.5332 15.2117 51.5152 15.509 51.4795 15.8018L53.4648 16.0439C53.5105 15.6694 53.5332 15.2912 53.5332 14.9097H51.5332ZM51.4799 15.7988C51.4515 16.026 51.3949 16.2075 51.3214 16.3545L53.1102 17.249C53.2971 16.8752 53.4115 16.4708 53.4644 16.0469L51.4799 15.7988ZM51.3214 16.3545C51.2739 16.4496 51.2066 16.5274 51.1 16.5962L52.1842 18.2768C52.5821 18.0201 52.8974 17.6748 53.1102 17.249L51.3214 16.3545ZM51.107 16.5917C51.0783 16.6099 50.9573 16.6685 50.6533 16.6685V18.6685C51.1794 18.6685 51.7176 18.5724 52.1771 18.2813L51.107 16.5917ZM50.6533 16.6685C50.3394 16.6685 50.204 16.6093 50.1627 16.5839L49.1176 18.2891C49.5808 18.573 50.1209 18.6685 50.6533 18.6685V16.6685ZM50.1948 16.6045C50.0943 16.5375 50.0248 16.458 49.973 16.3545L48.1842 17.249C48.3929 17.6663 48.6977 18.0101 49.0854 18.2686L50.1948 16.6045ZM49.973 16.3545C49.8995 16.2075 49.8429 16.026 49.8145 15.7988L47.83 16.0469C47.883 16.4708 47.9973 16.8752 48.1842 17.249L49.973 16.3545ZM49.8175 15.8258C49.7882 15.525 49.7734 15.2197 49.7734 14.9097H47.7734C47.7734 15.2833 47.7912 15.6534 47.827 16.02L49.8175 15.8258ZM49.7734 14.9097V10.0757H47.7734V14.9097H49.7734ZM49.7734 10.0757C49.7734 9.81886 49.7592 9.5649 49.7302 9.31409L47.7434 9.54334C47.7633 9.7157 47.7734 9.89306 47.7734 10.0757H49.7734ZM49.7302 9.31409C49.6962 9.01946 49.6249 8.72948 49.5023 8.45682L47.6784 9.27755C47.7022 9.33042 47.7286 9.41478 47.7434 9.54334L49.7302 9.31409ZM49.5023 8.45682C49.353 8.12523 49.1205 7.84789 48.8154 7.64451L47.706 9.30861C47.7036 9.30698 47.6965 9.30155 47.6887 9.29233C47.681 9.28319 47.6781 9.27677 47.6784 9.27755L49.5023 8.45682ZM48.8462 7.66588C48.4786 7.40039 48.0565 7.31787 47.6748 7.31787V9.31787C47.6999 9.31787 47.7178 9.31924 47.7292 9.32062C47.7407 9.322 47.7448 9.32327 47.743 9.32277C47.741 9.32224 47.733 9.31989 47.7206 9.31414C47.7081 9.30832 47.6924 9.29962 47.6753 9.28724L48.8462 7.66588ZM47.6748 7.31787C47.1863 7.31787 46.7261 7.478 46.3472 7.80741L47.6596 9.31662C47.6629 9.31378 47.6635 9.31371 47.6614 9.31494C47.6593 9.31621 47.6564 9.31762 47.6534 9.3187C47.6505 9.31976 47.6497 9.31971 47.6521 9.3193C47.6547 9.31887 47.6619 9.31787 47.6748 9.31787V7.31787ZM46.3307 7.82207C46.0204 8.10423 45.7958 8.45859 45.6326 8.83948L47.4709 9.62732C47.5518 9.43854 47.6284 9.34532 47.6761 9.30195L46.3307 7.82207ZM45.6326 8.83948C45.4706 9.21744 45.3585 9.64159 45.2841 10.0977L47.2579 10.4199C47.3137 10.0785 47.3887 9.81902 47.4709 9.62732L45.6326 8.83948ZM45.2846 10.0944C45.2124 10.5277 45.1642 10.9928 45.1381 11.488L47.1353 11.5931C47.1581 11.1605 47.1994 10.7711 47.2574 10.4232L45.2846 10.0944ZM45.1367 11.5405V14.9097H47.1367V11.5405H45.1367ZM45.1367 14.9097C45.1367 15.2117 45.1187 15.509 45.083 15.8018L47.0683 16.0439C47.114 15.6694 47.1367 15.2912 47.1367 14.9097H45.1367ZM45.0806 15.8233C45.0587 16.0427 45.0066 16.2156 44.9371 16.3545L46.726 17.249C46.9169 16.8671 47.0275 16.4541 47.0707 16.0224L45.0806 15.8233ZM44.9371 16.3545C44.8896 16.4496 44.8224 16.5274 44.7157 16.5962L45.7999 18.2768C46.1978 18.0201 46.5131 17.6748 46.726 17.249L44.9371 16.3545ZM44.7228 16.5917C44.6966 16.6082 44.5735 16.6685 44.2568 16.6685V18.6685C44.7866 18.6685 45.3307 18.574 45.7929 18.2813L44.7228 16.5917ZM67.875 11.1743L68.8705 11.2691L68.8709 11.2649L67.875 11.1743ZM67.6797 11.6748L66.8604 11.1013L66.8544 11.1101L67.6797 11.6748ZM61.3076 12.2485V11.2485H60.3076V12.2485H61.3076ZM61.625 14.6167L60.7813 15.1536L60.7898 15.1669L60.7988 15.18L61.625 14.6167ZM63.5659 15.1172L63.9598 16.0363L63.9698 16.0321L63.9797 16.0276L63.5659 15.1172ZM63.981 14.8242L63.2482 14.1438L63.2346 14.1583L63.2217 14.1734L63.981 14.8242ZM64.2617 14.458L65.1097 14.988L64.2617 14.458ZM64.5791 14.0918L63.9434 13.3199L63.9319 13.3294L63.9206 13.3392L64.5791 14.0918ZM65.1406 13.811L65.437 14.7661L65.447 14.763L65.4569 14.7597L65.1406 13.811ZM66.7275 13.7378L66.5562 14.723L66.5631 14.7242L66.7275 13.7378ZM67.5942 14.2993L66.718 14.7812L66.7233 14.7909L66.7288 14.8004L67.5942 14.2993ZM67.228 16.2402L67.9518 16.9304L67.9596 16.922L67.228 16.2402ZM64.3228 17.5342L64.1738 16.5453L64.1717 16.5456L64.3228 17.5342ZM62.6748 17.6685L62.6628 18.6685H62.6748V17.6685ZM59.1226 16.6309L58.5115 17.4225L58.5182 17.4276L59.1226 16.6309ZM57.8652 8.28125L56.9208 7.95214L56.9166 7.96502L57.8652 8.28125ZM59.5742 6.1084L60.0448 6.99075L60.0524 6.98672L60.0599 6.98256L59.5742 6.1084ZM60.6851 5.65674L60.4326 4.68912L60.6851 5.65674ZM61.7471 5.47363L61.6758 4.47617L61.6741 4.4763L61.7471 5.47363ZM64.7256 5.65674L64.4798 6.62608L64.4831 6.62688L64.7256 5.65674ZM67.6309 8.0127L66.6845 8.33585L66.687 8.34305L67.6309 8.0127ZM67.8506 9.01367L66.8551 9.10848L66.8553 9.11077L67.8506 9.01367ZM61.3076 10.4175H60.3076V11.4175H61.3076V10.4175ZM64.3594 10.4175V11.4175H65.3594V10.4175H64.3594ZM64.3228 9.4043L63.3242 9.45827L63.325 9.47282L63.3262 9.48734L64.3228 9.4043ZM64.1396 8.64746L63.2381 9.08019L63.245 9.09462L63.2524 9.10881L64.1396 8.64746ZM63.6636 8.18359L63.2164 9.07802L63.223 9.08136L63.2298 9.0846L63.6636 8.18359ZM61.9546 8.18359L61.4783 7.3043L61.4704 7.3086L61.4625 7.31303L61.9546 8.18359ZM61.5273 8.58643L62.3728 9.12042L62.3789 9.11074L62.3848 9.10092L61.5273 8.58643ZM66.8994 10.7104C66.8994 10.8015 66.8936 10.9244 66.8791 11.0838L68.8709 11.2649C68.889 11.0661 68.8994 10.8798 68.8994 10.7104H66.8994ZM66.8795 11.0795C66.88 11.0747 66.8807 11.0706 66.8815 11.0675C66.8822 11.0644 66.8827 11.0632 66.8824 11.0641C66.8817 11.0657 66.8767 11.0782 66.8605 11.1013L68.4989 12.2483C68.6962 11.9664 68.8354 11.6376 68.8705 11.2691L66.8795 11.0795ZM66.8544 11.1101C66.8673 11.0912 66.8723 11.0911 66.8543 11.1052C66.8358 11.1197 66.7981 11.1453 66.7322 11.1771L67.6017 12.9782C67.9354 12.8171 68.2689 12.5845 68.505 12.2395L66.8544 11.1101ZM66.7322 11.1771C66.6921 11.1965 66.5323 11.2485 66.166 11.2485V13.2485C66.6623 13.2485 67.1699 13.1867 67.6017 12.9782L66.7322 11.1771ZM66.166 11.2485H61.3076V13.2485H66.166V11.2485ZM60.3076 12.2485V13.4204H62.3076V12.2485H60.3076ZM60.3076 13.4204C60.3076 13.6993 60.3425 13.9784 60.4065 14.2556L62.3553 13.8059C62.3216 13.66 62.3076 13.5322 62.3076 13.4204H60.3076ZM60.4065 14.2556C60.4802 14.5753 60.605 14.8765 60.7813 15.1536L62.4687 14.0798C62.4171 13.9989 62.3791 13.9094 62.3553 13.8059L60.4065 14.2556ZM60.7988 15.18C61.0083 15.4873 61.2792 15.7344 61.5972 15.9199L62.6049 14.1924C62.5324 14.15 62.4859 14.1042 62.4512 14.0534L60.7988 15.18ZM61.5972 15.9199C61.9804 16.1434 62.4048 16.2271 62.8213 16.2271V14.2271C62.6682 14.2271 62.6124 14.1967 62.6049 14.1924L61.5972 15.9199ZM62.8213 16.2271C63.1957 16.2271 63.604 16.1888 63.9598 16.0363L63.172 14.198C63.1879 14.1912 63.172 14.2005 63.1056 14.2103C63.0416 14.2197 62.9487 14.2271 62.8213 14.2271V16.2271ZM63.9797 16.0276C64.252 15.9038 64.5231 15.7284 64.7402 15.475L63.2217 14.1734C63.233 14.1602 63.2374 14.1588 63.2273 14.1659C63.2168 14.1734 63.1934 14.188 63.1521 14.2068L63.9797 16.0276ZM64.7138 15.5047C64.8621 15.3449 64.9944 15.1726 65.1097 14.988L63.4137 13.928C63.3663 14.0039 63.3114 14.0756 63.2482 14.1438L64.7138 15.5047ZM65.1097 14.988C65.1331 14.9506 65.1719 14.9018 65.2376 14.8444L63.9206 13.3392C63.7259 13.5096 63.5531 13.705 63.4137 13.928L65.1097 14.988ZM65.2148 14.8637C65.2228 14.8571 65.2811 14.8145 65.437 14.7661L64.8442 12.856C64.5281 12.9541 64.2121 13.0986 63.9434 13.3199L65.2148 14.8637ZM65.4569 14.7597C65.5546 14.7271 65.766 14.689 66.1416 14.689V12.689C65.6708 12.689 65.215 12.7322 64.8244 12.8624L65.4569 14.7597ZM66.1416 14.689C66.2916 14.689 66.4294 14.701 66.5562 14.723L66.8989 12.7526C66.6513 12.7095 66.3985 12.689 66.1416 12.689V14.689ZM66.5631 14.7242C66.6512 14.7389 66.6971 14.761 66.7188 14.7742L67.7617 13.0676C67.4904 12.9018 67.1945 12.8018 66.8919 12.7514L66.5631 14.7242ZM66.7188 14.7742C66.7171 14.7731 66.715 14.7717 66.7128 14.7699C66.7107 14.7682 66.7091 14.7667 66.7083 14.7658C66.7064 14.7637 66.7104 14.7673 66.718 14.7812L68.4705 13.8174C68.3041 13.515 68.0688 13.2553 67.7617 13.0676L66.7188 14.7742ZM66.7288 14.8004C66.7142 14.7752 66.7145 14.7653 66.7183 14.7827C66.7223 14.801 66.7285 14.8412 66.7285 14.9097H68.7285C68.7285 14.5501 68.6663 14.1553 68.4597 13.7983L66.7288 14.8004ZM66.7285 14.9097C66.7285 15.208 66.643 15.4013 66.4964 15.5585L67.9596 16.922C68.4804 16.3631 68.7285 15.6693 68.7285 14.9097H66.7285ZM66.5043 15.5502C66.2775 15.788 65.9781 15.995 65.584 16.1603L66.3574 18.0047C66.9724 17.7468 67.5112 17.3923 67.9518 16.9303L66.5043 15.5502ZM65.584 16.1603C65.1626 16.337 64.694 16.4669 64.1738 16.5453L64.4718 18.523C65.1396 18.4224 65.7697 18.2512 66.3574 18.0047L65.584 16.1603ZM64.1717 16.5456C63.6282 16.6287 63.1299 16.6685 62.6748 16.6685V18.6685C63.2451 18.6685 63.8454 18.6187 64.4738 18.5227L64.1717 16.5456ZM62.6869 16.6685C62.0886 16.6613 61.5286 16.5858 61.0038 16.4459L60.4884 18.3783C61.1843 18.5639 61.9101 18.6593 62.6628 18.6684L62.6869 16.6685ZM61.0038 16.4459C60.5105 16.3143 60.0888 16.1087 59.7269 15.8342L58.5182 17.4276C59.1004 17.8692 59.761 18.1844 60.4884 18.3783L61.0038 16.4459ZM59.7336 15.8393C59.4047 15.5854 59.1292 15.2453 58.9136 14.7951L57.1098 15.659C57.4476 16.3644 57.9127 16.9602 58.5115 17.4224L59.7336 15.8393ZM58.9136 14.7951C58.7182 14.3871 58.5967 13.836 58.5967 13.103H56.5967C56.5967 14.0465 56.7518 14.9114 57.1098 15.659L58.9136 14.7951ZM58.5967 13.103V10.2466H56.5967V13.103H58.5967ZM58.5967 10.2466C58.5967 9.54448 58.6788 9.00298 58.8139 8.59748L56.9166 7.96502C56.6936 8.63374 56.5967 9.40246 56.5967 10.2466H58.5967ZM58.8095 8.61033C58.9667 8.15931 59.1554 7.82105 59.3594 7.57171L57.8115 6.30524C57.4296 6.77205 57.1381 7.32897 56.9209 7.95217L58.8095 8.61033ZM59.3594 7.57171C59.5783 7.30417 59.8079 7.11712 60.0448 6.99075L59.1036 5.22605C58.6082 5.4903 58.1785 5.85664 57.8115 6.30524L59.3594 7.57171ZM60.0599 6.98256C60.3586 6.81659 60.6509 6.69911 60.9375 6.62436L60.4326 4.68912C59.9705 4.80968 59.5223 4.99331 59.0886 5.23424L60.0599 6.98256ZM60.9375 6.62436C61.2619 6.53972 61.5555 6.49032 61.82 6.47097L61.6741 4.4763C61.2713 4.50577 60.8569 4.57845 60.4326 4.68912L60.9375 6.62436ZM61.8183 6.47109C62.145 6.44775 62.4129 6.43701 62.626 6.43701V4.43701C62.3507 4.43701 62.0327 4.45068 61.6758 4.47617L61.8183 6.47109ZM62.626 6.43701C63.3939 6.43701 64.0062 6.50599 64.4798 6.62607L64.9713 4.6874C64.2894 4.51452 63.502 4.43701 62.626 4.43701V6.43701ZM64.4831 6.62688C65.0016 6.75651 65.3905 6.9155 65.6733 7.08638L66.7075 5.37455C66.2091 5.07343 65.6215 4.84994 64.9681 4.6866L64.4831 6.62688ZM65.6733 7.08638C65.9724 7.26707 66.1762 7.45579 66.3131 7.64154L67.9232 6.45514C67.6044 6.0224 67.1897 5.66587 66.7075 5.37455L65.6733 7.08638ZM66.3131 7.64154C66.4858 7.87584 66.6064 8.10714 66.6845 8.33584L68.5772 7.68955C68.4274 7.25093 68.2063 6.83933 67.9232 6.45514L66.3131 7.64154ZM66.687 8.34305C66.7744 8.59277 66.8302 8.84736 66.8551 9.10848L68.8461 8.91886C68.8058 8.49639 68.7152 8.08366 68.5747 7.68234L66.687 8.34305ZM66.8553 9.11077C66.8852 9.41666 66.8994 9.69729 66.8994 9.95361H68.8994C68.8994 9.624 68.8811 9.278 68.8459 8.91657L66.8553 9.11077ZM66.8994 9.95361V10.7104H68.8994V9.95361H66.8994ZM61.3076 11.4175H64.3594V9.41748H61.3076V11.4175ZM65.3594 10.4175C65.3594 10.015 65.3466 9.64861 65.3193 9.32125L63.3262 9.48734C63.3478 9.74593 63.3594 10.055 63.3594 10.4175H65.3594ZM65.3213 9.35032C65.2996 8.94979 65.2156 8.54902 65.0269 8.18611L63.2524 9.10881C63.2753 9.1528 63.3133 9.25659 63.3242 9.45827L65.3213 9.35032ZM65.0412 8.21473C64.8371 7.78965 64.504 7.47838 64.0974 7.28259L63.2298 9.0846C63.2412 9.09012 63.2475 9.09417 63.25 9.09588C63.2524 9.09752 63.2518 9.09739 63.2495 9.09514C63.2472 9.09284 63.2444 9.0897 63.2419 9.08614C63.2407 9.08447 63.2397 9.08301 63.2391 9.08188C63.2384 9.08075 63.2381 9.08014 63.2381 9.08019L65.0412 8.21473ZM64.1108 7.28917C63.696 7.08179 63.2091 7.0249 62.748 7.0249V9.0249C62.9056 9.0249 63.0224 9.03553 63.1052 9.04988C63.1896 9.06451 63.2199 9.07981 63.2164 9.07802L64.1108 7.28917ZM62.748 7.0249C62.3249 7.0249 61.8751 7.08935 61.4783 7.3043L62.4309 9.06289C62.4243 9.06646 62.441 9.05606 62.4956 9.04516C62.5502 9.03423 62.6323 9.0249 62.748 9.0249V7.0249ZM61.4625 7.31303C61.1451 7.49243 60.8678 7.74207 60.6699 8.07193L62.3848 9.10092C62.3851 9.10052 62.3868 9.09751 62.3934 9.09124C62.4005 9.08452 62.4164 9.07124 62.4466 9.05416L61.4625 7.31303ZM60.6819 8.05243C60.5087 8.32657 60.3974 8.62917 60.3534 8.9518L62.3351 9.22203C62.3399 9.18658 62.3507 9.15553 62.3728 9.12042L60.6819 8.05243ZM60.3534 8.9518C60.3246 9.1629 60.3076 9.36821 60.3076 9.56299H62.3076C62.3076 9.48107 62.315 9.369 62.3351 9.22203L60.3534 8.9518ZM60.3076 9.56299V10.4175H62.3076V9.56299H60.3076Z" fill="#773E3E"/>
</g>
<defs>
<filter id="filter0_bd_3_1665" x="0.857422" y="-3.42139" width="71.042" height="29.1875" filterUnits="userSpaceOnUse" color-interpolation-filters="sRGB">
<feFlood flood-opacity="0" result="BackgroundImageFix"/>
<feGaussianBlur in="BackgroundImage" stdDeviation="2"/>
<feComposite in2="SourceAlpha" operator="in" result="effect1_backgroundBlur_3_1665"/>
<feColorMatrix in="SourceAlpha" type="matrix" values="0 0 0 0 0 0 0 0 0 0 0 0 0 0 0 0 0 0 127 0" result="hardAlpha"/>
<feOffset dy="4"/>
<feGaussianBlur stdDeviation="2"/>
<feComposite in2="hardAlpha" operator="out"/>
<feColorMatrix type="matrix" values="0 0 0 0 0 0 0 0 0 0 0 0 0 0 0 0 0 0 0.25 0"/>
<feBlend mode="normal" in2="effect1_backgroundBlur_3_1665" result="effect2_dropShadow_3_1665"/>
<feBlend mode="normal" in="SourceGraphic" in2="effect2_dropShadow_3_1665" result="shape"/>
</filter>
</defs>
</svg>
