<svg width="113" height="31" viewBox="0 0 113 31" fill="none" xmlns="http://www.w3.org/2000/svg">
<g filter="url(#filter0_bd_3_1668)">
<path d="M8.19971 10.9302V14.8853C8.19971 15.2352 8.1875 15.577 8.16309 15.9106C8.14681 16.2443 8.07764 16.5413 7.95557 16.8018C7.84163 17.0622 7.65853 17.2738 7.40625 17.4365C7.15397 17.5911 6.79183 17.6685 6.31982 17.6685C5.8641 17.6685 5.51009 17.5911 5.25781 17.4365C5.01367 17.2738 4.83464 17.0622 4.7207 16.8018C4.60677 16.5413 4.5376 16.2443 4.51318 15.9106C4.49691 15.577 4.48877 15.2352 4.48877 14.8853V3.36182C4.48877 3.01188 4.49691 2.67008 4.51318 2.33643C4.5376 2.00277 4.60677 1.70573 4.7207 1.44531C4.83464 1.1849 5.01367 0.977376 5.25781 0.822754C5.51009 0.659993 5.8641 0.578613 6.31982 0.578613H10.3481C11.3573 0.627441 12.2606 0.83903 13.0581 1.21338C13.3999 1.37614 13.7295 1.57959 14.0469 1.82373C14.3724 2.06787 14.6613 2.36898 14.9136 2.72705C15.174 3.07699 15.3815 3.49609 15.5361 3.98438C15.6908 4.46452 15.7681 5.02197 15.7681 5.65674C15.7681 6.52751 15.6297 7.29248 15.353 7.95166C15.0845 8.6027 14.6898 9.15202 14.1689 9.59961C13.6562 10.0391 13.0256 10.3727 12.2769 10.6006C11.5363 10.8203 10.6981 10.9302 9.76221 10.9302H8.19971ZM9.85986 8.0249C10.2668 8.00049 10.633 7.90283 10.9585 7.73193C11.0968 7.65869 11.2311 7.5651 11.3613 7.45117C11.4915 7.33724 11.6095 7.19889 11.7153 7.03613C11.8211 6.86523 11.9025 6.66585 11.9595 6.43799C12.0246 6.21012 12.0571 5.94971 12.0571 5.65674C12.0571 5.38005 12.0246 5.13997 11.9595 4.93652C11.9025 4.72493 11.8252 4.5459 11.7275 4.39941C11.6299 4.24479 11.52 4.11458 11.3979 4.00879C11.2759 3.90299 11.1497 3.81348 11.0195 3.74023C10.7103 3.58561 10.3644 3.49202 9.98193 3.45947H8.19971V8.0249H9.85986ZM27.8628 7.29248C27.8628 7.92725 27.7041 8.39111 27.3867 8.68408C27.0775 8.97705 26.634 9.12354 26.0562 9.12354C25.9748 9.12354 25.8568 9.13167 25.7021 9.14795C25.5557 9.15609 25.397 9.18864 25.2261 9.24561C25.0552 9.29443 24.8802 9.37174 24.7012 9.47754C24.5303 9.5752 24.3716 9.71354 24.2251 9.89258C24.0786 10.0635 23.9606 10.2832 23.8711 10.5518C23.7816 10.8203 23.7368 11.1418 23.7368 11.5161V15.0073C23.7368 15.341 23.7165 15.6665 23.6758 15.9839C23.6432 16.3013 23.5618 16.5861 23.4316 16.8384C23.3014 17.0825 23.1143 17.2819 22.8701 17.4365C22.626 17.5911 22.2964 17.6685 21.8813 17.6685C21.4744 17.6685 21.153 17.5911 20.917 17.4365C20.681 17.2819 20.4979 17.0825 20.3677 16.8384C20.2456 16.5861 20.1642 16.3013 20.1235 15.9839C20.091 15.6665 20.0747 15.341 20.0747 15.0073V8.17139C20.0747 7.82959 20.091 7.5 20.1235 7.18262C20.1642 6.8571 20.2456 6.5682 20.3677 6.31592C20.4979 6.06364 20.681 5.86426 20.917 5.71777C21.153 5.56315 21.4744 5.48584 21.8813 5.48584C22.2964 5.48584 22.6138 5.57943 22.8335 5.7666C23.0614 5.94564 23.2282 6.18164 23.334 6.47461C23.4398 6.75944 23.5008 7.08089 23.5171 7.43896C23.5334 7.7889 23.5415 8.1307 23.5415 8.46436H23.7368C23.8507 8.00863 24.0013 7.59766 24.1885 7.23145C24.3757 6.8571 24.5832 6.54378 24.811 6.2915C25.0389 6.03109 25.283 5.83171 25.5435 5.69336C25.8039 5.55501 26.0643 5.48584 26.3247 5.48584C26.6421 5.48584 26.8984 5.52246 27.0938 5.5957C27.2972 5.66081 27.4559 5.7666 27.5698 5.91309C27.6838 6.05957 27.7611 6.24674 27.8018 6.47461C27.8424 6.70247 27.8628 6.9751 27.8628 7.29248ZM31.5835 10.0513C31.5835 9.30257 31.6852 8.66781 31.8887 8.14697C32.0921 7.62614 32.3525 7.19076 32.6699 6.84082C32.9954 6.49089 33.3535 6.21826 33.7441 6.02295C34.1429 5.82764 34.5335 5.68115 34.916 5.5835C35.2985 5.48584 35.6525 5.4248 35.978 5.40039C36.3117 5.37598 36.5721 5.36377 36.7593 5.36377C36.9465 5.36377 37.2028 5.37598 37.5283 5.40039C37.8538 5.4248 38.1997 5.48584 38.5659 5.5835C38.9403 5.68115 39.3146 5.82764 39.689 6.02295C40.0715 6.21826 40.4132 6.49089 40.7144 6.84082C41.0236 7.19076 41.2759 7.62614 41.4712 8.14697C41.6665 8.66781 41.7642 9.30257 41.7642 10.0513V13.0786C41.7642 13.8273 41.6665 14.4621 41.4712 14.9829C41.2759 15.5037 41.0236 15.9391 40.7144 16.2891C40.4132 16.639 40.0715 16.9116 39.689 17.1069C39.3146 17.3022 38.9403 17.4487 38.5659 17.5464C38.1997 17.644 37.8538 17.7051 37.5283 17.7295C37.2028 17.7539 36.9465 17.7661 36.7593 17.7661C36.5721 17.7661 36.3117 17.7539 35.978 17.7295C35.6525 17.7051 35.2985 17.644 34.916 17.5464C34.5335 17.4487 34.1429 17.3022 33.7441 17.1069C33.3535 16.9116 32.9954 16.639 32.6699 16.2891C32.3525 15.9391 32.0921 15.5037 31.8887 14.9829C31.6852 14.4621 31.5835 13.8273 31.5835 13.0786V10.0513ZM35.3433 13.9331C35.3514 14.1691 35.4084 14.3766 35.5142 14.5557C35.6037 14.7184 35.742 14.8649 35.9292 14.9951C36.1245 15.1172 36.4012 15.1782 36.7593 15.1782C37.1011 15.1782 37.3615 15.1172 37.5405 14.9951C37.7277 14.8649 37.866 14.7184 37.9556 14.5557C38.0532 14.3766 38.1102 14.1691 38.1265 13.9331V9.51416C38.1102 9.27002 38.0532 9.04622 37.9556 8.84277C37.866 8.68001 37.7277 8.52946 37.5405 8.39111C37.3615 8.24463 37.1011 8.17139 36.7593 8.17139C36.4012 8.17139 36.1245 8.24463 35.9292 8.39111C35.742 8.52946 35.6037 8.68001 35.5142 8.84277C35.4084 9.04622 35.3514 9.27002 35.3433 9.51416V13.9331ZM47.3647 8.1958C47.3647 7.84587 47.381 7.50814 47.4136 7.18262C47.4543 6.84896 47.5397 6.55599 47.6699 6.30371C47.8001 6.04329 47.9873 5.83984 48.2314 5.69336C48.4837 5.53874 48.8215 5.46143 49.2446 5.46143C49.6515 5.46143 49.9771 5.53874 50.2212 5.69336C50.4653 5.83984 50.6484 6.04329 50.7705 6.30371C50.9007 6.55599 50.9821 6.84896 51.0146 7.18262C51.0553 7.50814 51.0757 7.84587 51.0757 8.1958V17.3022C51.0757 18.0591 51.0472 18.759 50.9902 19.4019C50.9333 20.0448 50.7827 20.5981 50.5386 21.062C50.2944 21.5259 49.9242 21.888 49.4277 22.1484C48.9313 22.417 48.2437 22.5513 47.3647 22.5513C47.0067 22.5513 46.6649 22.5146 46.3394 22.4414C46.0138 22.3682 45.729 22.2542 45.4849 22.0996C45.2407 21.945 45.0454 21.7497 44.8989 21.5137C44.7524 21.2777 44.6792 20.9969 44.6792 20.6714C44.6792 20.3703 44.7118 20.1221 44.7769 19.9268C44.8338 19.7314 44.9315 19.5728 45.0698 19.4507C45.2 19.3368 45.3669 19.2554 45.5703 19.2065C45.7819 19.1577 46.0382 19.1333 46.3394 19.1333C46.5916 19.1333 46.7869 19.0804 46.9253 18.9746C47.0636 18.877 47.1654 18.7427 47.2305 18.5718C47.2956 18.4009 47.3322 18.2056 47.3403 17.9858C47.3566 17.7661 47.3647 17.5382 47.3647 17.3022V8.1958ZM51.0757 2.40967C51.0757 3.02002 50.9129 3.47982 50.5874 3.78906C50.27 4.09017 49.8224 4.24072 49.2446 4.24072C48.6587 4.24072 48.1989 4.09017 47.8652 3.78906C47.5316 3.47982 47.3647 3.02002 47.3647 2.40967C47.3647 1.7749 47.5316 1.30697 47.8652 1.00586C48.1989 0.704753 48.6587 0.554199 49.2446 0.554199C49.8713 0.554199 50.3311 0.704753 50.624 1.00586C50.9251 1.30697 51.0757 1.7749 51.0757 2.40967ZM66.7837 10.7104C66.7837 10.8407 66.7756 10.9953 66.7593 11.1743C66.743 11.3452 66.6779 11.512 66.564 11.6748C66.4582 11.8294 66.2873 11.9637 66.0513 12.0776C65.8153 12.1916 65.4816 12.2485 65.0503 12.2485H60.1919V13.4204C60.1919 13.6157 60.2163 13.8192 60.2651 14.0308C60.314 14.2424 60.3953 14.4377 60.5093 14.6167C60.6313 14.7957 60.79 14.9422 60.9854 15.0562C61.1807 15.1701 61.4207 15.2271 61.7056 15.2271C62.0311 15.2271 62.2793 15.1904 62.4502 15.1172C62.6292 15.0358 62.7676 14.9382 62.8652 14.8242C62.971 14.7103 63.0646 14.5882 63.146 14.458C63.2274 14.3278 63.3332 14.2057 63.4634 14.0918C63.6017 13.9779 63.7889 13.8843 64.0249 13.811C64.269 13.7297 64.6027 13.689 65.0259 13.689C65.2293 13.689 65.4246 13.7052 65.6118 13.7378C65.8071 13.7703 65.978 13.8314 66.1245 13.9209C66.271 14.0104 66.389 14.1366 66.4785 14.2993C66.568 14.4539 66.6128 14.6574 66.6128 14.9097C66.6128 15.4386 66.446 15.8822 66.1123 16.2402C65.7786 16.5902 65.3595 16.8709 64.855 17.0825C64.3504 17.2941 63.8011 17.4447 63.207 17.5342C62.6211 17.6237 62.0718 17.6685 61.5591 17.6685C60.8836 17.6603 60.2407 17.5749 59.6304 17.4121C59.02 17.2493 58.4788 16.9889 58.0068 16.6309C57.543 16.2728 57.1727 15.8049 56.896 15.2271C56.6193 14.6493 56.481 13.9412 56.481 13.103V10.2466C56.481 9.47347 56.5705 8.81836 56.7495 8.28125C56.9367 7.74414 57.1768 7.29655 57.4697 6.93848C57.7627 6.5804 58.0923 6.30371 58.4585 6.1084C58.8247 5.90495 59.195 5.75439 59.5693 5.65674C59.9437 5.55908 60.2977 5.49805 60.6313 5.47363C60.9731 5.44922 61.2661 5.43701 61.5103 5.43701C62.3322 5.43701 63.0321 5.51025 63.6099 5.65674C64.1958 5.80322 64.6841 5.99447 65.0747 6.23047C65.4653 6.46647 65.7746 6.7391 66.0024 7.04834C66.2303 7.35758 66.4012 7.67904 66.5151 8.0127C66.6291 8.33822 66.7023 8.67188 66.7349 9.01367C66.7674 9.34733 66.7837 9.66064 66.7837 9.95361V10.7104ZM60.1919 10.4175H63.2437C63.2437 10.035 63.2314 9.69727 63.207 9.4043C63.1908 9.10319 63.1297 8.85091 63.0239 8.64746C62.9263 8.44401 62.7676 8.28939 62.5479 8.18359C62.3363 8.0778 62.0311 8.0249 61.6323 8.0249C61.2987 8.0249 61.0342 8.0778 60.8389 8.18359C60.6517 8.28939 60.5093 8.42367 60.4116 8.58643C60.314 8.74105 60.2529 8.90788 60.2285 9.08691C60.2041 9.26595 60.1919 9.42464 60.1919 9.56299V10.4175ZM75.0454 13.4448C75.0454 13.575 75.0576 13.7419 75.082 13.9453C75.1064 14.1406 75.1634 14.3359 75.2529 14.5312C75.3424 14.7184 75.4727 14.8812 75.6436 15.0195C75.8226 15.1579 76.0627 15.2271 76.3638 15.2271C76.7218 15.2271 77.0026 15.1864 77.2061 15.105C77.4095 15.0236 77.5601 14.9137 77.6577 14.7754C77.7554 14.6289 77.8164 14.4621 77.8408 14.2749C77.8652 14.0796 77.8774 13.8761 77.8774 13.6646C77.8774 13.5588 77.8937 13.4408 77.9263 13.3105C77.967 13.1722 78.0565 13.0461 78.1948 12.9321C78.3332 12.8101 78.5366 12.7124 78.8052 12.6392C79.0819 12.5578 79.4562 12.5171 79.9282 12.5171C80.3595 12.5171 80.6932 12.5659 80.9292 12.6636C81.1652 12.7612 81.3361 12.8792 81.4419 13.0176C81.5558 13.1478 81.6209 13.2861 81.6372 13.4326C81.6535 13.571 81.6616 13.6808 81.6616 13.7622C81.6616 14.283 81.5802 14.7428 81.4175 15.1416C81.2629 15.5322 81.0513 15.874 80.7827 16.167C80.5142 16.4518 80.2049 16.6919 79.855 16.8872C79.505 17.0825 79.1307 17.2371 78.7319 17.3511C78.3413 17.465 77.9425 17.5464 77.5356 17.5952C77.1287 17.644 76.7381 17.6685 76.3638 17.6685C75.7209 17.6685 75.0983 17.583 74.4961 17.4121C73.8939 17.2412 73.3568 16.9727 72.8848 16.6064C72.4209 16.2402 72.0465 15.7723 71.7617 15.2026C71.4769 14.6248 71.3345 13.9331 71.3345 13.1274V10.271C71.3345 9.49788 71.424 8.84277 71.603 8.30566C71.7902 7.76855 72.0303 7.32096 72.3232 6.96289C72.6162 6.60482 72.9458 6.32812 73.312 6.13281C73.6782 5.92936 74.0485 5.77881 74.4229 5.68115C74.7972 5.5835 75.1512 5.52246 75.4849 5.49805C75.8267 5.47363 76.1196 5.46143 76.3638 5.46143C77.0881 5.46143 77.7188 5.52246 78.2559 5.64453C78.8011 5.7666 79.269 5.92936 79.6597 6.13281C80.0503 6.33626 80.3717 6.57227 80.624 6.84082C80.8844 7.10124 81.0879 7.37793 81.2344 7.6709C81.3809 7.96387 81.4826 8.25684 81.5396 8.5498C81.6047 8.84277 81.6372 9.1154 81.6372 9.36768C81.6372 9.49788 81.6291 9.65251 81.6128 9.83154C81.5965 10.0024 81.5314 10.1693 81.4175 10.332C81.3117 10.4867 81.1408 10.6209 80.9048 10.7349C80.6688 10.8488 80.3351 10.9058 79.9038 10.9058C79.7492 10.9058 79.5539 10.9017 79.3179 10.8936C79.09 10.8773 78.8662 10.8325 78.6465 10.7593C78.4268 10.686 78.2396 10.5721 78.085 10.4175C77.9303 10.2629 77.853 10.0431 77.853 9.7583C77.853 9.56299 77.8408 9.37581 77.8164 9.19678C77.8001 9.0096 77.7432 8.84684 77.6455 8.7085C77.5479 8.57015 77.3973 8.46029 77.1938 8.37891C76.9985 8.28939 76.7218 8.24463 76.3638 8.24463C76.0627 8.24463 75.8226 8.29346 75.6436 8.39111C75.4727 8.48877 75.3424 8.61084 75.2529 8.75732C75.1634 8.90381 75.1064 9.05843 75.082 9.22119C75.0576 9.38395 75.0454 9.53044 75.0454 9.66064V13.4448ZM88.1655 5.46143V3.31299C88.1655 2.97119 88.1818 2.63753 88.2144 2.31201C88.255 1.98649 88.3405 1.69759 88.4707 1.44531C88.6009 1.1849 88.7881 0.977376 89.0322 0.822754C89.2764 0.659993 89.606 0.578613 90.021 0.578613C90.4279 0.578613 90.7534 0.659993 90.9976 0.822754C91.2417 0.977376 91.4248 1.1849 91.5469 1.44531C91.6771 1.69759 91.7585 1.98649 91.791 2.31201C91.8317 2.63753 91.8521 2.97119 91.8521 3.31299V5.46143H92.853C93.0646 5.46143 93.2762 5.47363 93.4878 5.49805C93.6994 5.51432 93.8866 5.57129 94.0493 5.66895C94.2202 5.7666 94.3545 5.91309 94.4521 6.1084C94.5579 6.30371 94.6108 6.57633 94.6108 6.92627C94.6108 7.25993 94.5579 7.52441 94.4521 7.71973C94.3545 7.91504 94.2202 8.06152 94.0493 8.15918C93.8866 8.25684 93.6994 8.32194 93.4878 8.35449C93.2762 8.37891 93.0646 8.39111 92.853 8.39111H91.8521V12.6636C91.8521 12.8263 91.8561 13.0013 91.8643 13.1885C91.8805 13.3675 91.9253 13.5343 91.9985 13.689C92.0718 13.8436 92.1816 13.9738 92.3281 14.0796C92.4746 14.1772 92.6821 14.2261 92.9507 14.2261C93.2437 14.2261 93.4919 14.2505 93.6953 14.2993C93.9069 14.34 94.0778 14.4173 94.208 14.5312C94.3464 14.6452 94.4481 14.8039 94.5132 15.0073C94.5783 15.2108 94.6108 15.4712 94.6108 15.7886C94.6108 16.1141 94.5335 16.3949 94.3789 16.6309C94.2324 16.8669 94.033 17.0622 93.7808 17.2168C93.5285 17.3714 93.2355 17.4854 92.9019 17.5586C92.5682 17.6318 92.2183 17.6685 91.8521 17.6685C91.2743 17.6685 90.7778 17.6074 90.3628 17.4854C89.9559 17.3633 89.6141 17.1924 89.3374 16.9727C89.0688 16.7448 88.8532 16.4762 88.6904 16.167C88.5358 15.8496 88.4178 15.4956 88.3364 15.105C88.2632 14.7144 88.2144 14.2952 88.1899 13.8477C88.1737 13.3919 88.1655 12.9159 88.1655 12.4194V8.39111H87.4819C87.2703 8.39111 87.0588 8.37891 86.8472 8.35449C86.6437 8.32194 86.4606 8.25684 86.2979 8.15918C86.1351 8.06152 86.0008 7.91504 85.895 7.71973C85.7974 7.52441 85.7485 7.25993 85.7485 6.92627C85.7485 6.57633 85.7974 6.30371 85.895 6.1084C86.0008 5.91309 86.1351 5.7666 86.2979 5.66895C86.4606 5.57129 86.6437 5.51432 86.8472 5.49805C87.0588 5.47363 87.2703 5.46143 87.4819 5.46143H88.1655ZM102.848 8.65967C102.848 8.82243 102.901 8.97298 103.007 9.11133C103.113 9.24967 103.255 9.38395 103.434 9.51416C103.621 9.63623 103.833 9.7583 104.069 9.88037C104.313 10.0024 104.565 10.1245 104.826 10.2466C105.224 10.4419 105.631 10.6535 106.046 10.8813C106.461 11.1011 106.84 11.3615 107.182 11.6626C107.523 11.9637 107.8 12.3136 108.012 12.7124C108.231 13.103 108.341 13.5669 108.341 14.104C108.341 14.5923 108.268 15.0236 108.122 15.3979C107.983 15.7723 107.796 16.0978 107.56 16.3745C107.324 16.6431 107.047 16.8669 106.73 17.0459C106.421 17.2249 106.091 17.3674 105.741 17.4731C105.399 17.5789 105.049 17.6522 104.691 17.6929C104.333 17.7417 103.996 17.7661 103.678 17.7661C103.052 17.7661 102.506 17.7132 102.042 17.6074C101.579 17.5016 101.18 17.3633 100.846 17.1924C100.513 17.0133 100.236 16.814 100.016 16.5942C99.8045 16.3664 99.6377 16.1304 99.5156 15.8862C99.3936 15.6421 99.3081 15.402 99.2593 15.166C99.2104 14.9219 99.186 14.6981 99.186 14.4946C99.186 14.0063 99.3203 13.6483 99.5889 13.4204C99.8656 13.1925 100.285 13.0786 100.846 13.0786C101.253 13.0786 101.587 13.1885 101.847 13.4082C102.108 13.6279 102.246 13.9819 102.262 14.4702C102.27 14.633 102.315 14.7632 102.396 14.8608C102.486 14.9585 102.596 15.0399 102.726 15.105C102.864 15.1619 103.015 15.2026 103.178 15.2271C103.34 15.2433 103.499 15.2515 103.654 15.2515C103.971 15.2515 104.228 15.1701 104.423 15.0073C104.626 14.8364 104.728 14.6167 104.728 14.3481C104.728 14.1203 104.659 13.9087 104.521 13.7134C104.39 13.5099 104.215 13.3228 103.996 13.1519C103.776 12.981 103.524 12.8182 103.239 12.6636C102.962 12.5008 102.677 12.3381 102.384 12.1753C102.018 11.98 101.648 11.7725 101.273 11.5527C100.907 11.333 100.574 11.0889 100.272 10.8203C99.9714 10.5518 99.7272 10.2507 99.54 9.91699C99.3529 9.5752 99.2593 9.18864 99.2593 8.75732C99.2593 8.12256 99.361 7.59359 99.5645 7.17041C99.776 6.7391 100.081 6.39323 100.48 6.13281C100.879 5.86426 101.363 5.67301 101.933 5.55908C102.51 5.44515 103.166 5.38005 103.898 5.36377H104.093C104.752 5.36377 105.31 5.42074 105.766 5.53467C106.229 5.6486 106.612 5.79915 106.913 5.98633C107.222 6.16536 107.462 6.36882 107.633 6.59668C107.812 6.82454 107.943 7.05648 108.024 7.29248C108.113 7.52035 108.166 7.74007 108.183 7.95166C108.207 8.16325 108.219 8.34229 108.219 8.48877C108.219 8.73291 108.166 8.93636 108.061 9.09912C107.963 9.25374 107.829 9.37988 107.658 9.47754C107.495 9.56706 107.308 9.63216 107.096 9.67285C106.885 9.7054 106.665 9.72575 106.437 9.73389C106.242 9.73389 106.063 9.70133 105.9 9.63623C105.745 9.57113 105.611 9.48975 105.497 9.39209C105.383 9.29443 105.294 9.18457 105.229 9.0625C105.172 8.94043 105.143 8.82243 105.143 8.7085C105.127 8.39925 105.001 8.16325 104.765 8.00049C104.537 7.83773 104.256 7.75635 103.922 7.75635C103.784 7.75635 103.65 7.77262 103.52 7.80518C103.397 7.82959 103.284 7.87842 103.178 7.95166C103.08 8.01676 102.999 8.10628 102.934 8.22021C102.877 8.33415 102.848 8.48063 102.848 8.65967Z" fill="white"/>
<path d="M8.19971 10.9302V9.93018H7.19971V10.9302H8.19971ZM8.16309 15.9106L7.16575 15.8377L7.16487 15.8498L7.16427 15.8619L8.16309 15.9106ZM7.95557 16.8018L7.05011 16.3773L7.04461 16.3891L7.03941 16.4009L7.95557 16.8018ZM7.40625 17.4365L7.92881 18.2891L7.93867 18.2831L7.94838 18.2768L7.40625 17.4365ZM5.25781 17.4365L4.70311 18.2686L4.71899 18.2792L4.73525 18.2891L5.25781 17.4365ZM4.7207 16.8018L3.80455 17.2026L4.7207 16.8018ZM4.51318 15.9106L3.51437 15.9594L3.51496 15.9715L3.51585 15.9836L4.51318 15.9106ZM4.51318 2.33643L3.51585 2.26345L3.51496 2.27557L3.51437 2.2877L4.51318 2.33643ZM4.7207 1.44531L3.80455 1.04449L4.7207 1.44531ZM5.25781 0.822754L5.79288 1.6676L5.79994 1.66305L5.25781 0.822754ZM10.3481 0.578613L10.3965 -0.420218L10.3723 -0.421387H10.3481V0.578613ZM13.0581 1.21338L13.488 0.310504L13.483 0.308142L13.0581 1.21338ZM14.0469 1.82373L13.4371 2.61641L13.4469 2.62373L14.0469 1.82373ZM14.9136 2.72705L14.0961 3.303L14.1036 3.31363L14.1113 3.32406L14.9136 2.72705ZM15.5361 3.98438L14.5828 4.28627L14.5843 4.29091L15.5361 3.98438ZM15.353 7.95166L14.4309 7.56461L14.4286 7.57033L15.353 7.95166ZM14.1689 9.59961L14.8197 10.3589L14.8207 10.358L14.1689 9.59961ZM12.2769 10.6006L12.5613 11.5593L12.568 11.5573L12.2769 10.6006ZM9.85986 8.0249V9.0249H9.88984L9.91976 9.02311L9.85986 8.0249ZM10.9585 7.73193L11.4233 8.61734L11.4264 8.61572L10.9585 7.73193ZM11.7153 7.03613L12.5538 7.58112L12.5598 7.57187L12.5656 7.56249L11.7153 7.03613ZM11.9595 6.43799L10.9979 6.16327L10.9934 6.17929L10.9893 6.19545L11.9595 6.43799ZM11.9595 4.93652L10.9939 5.1965L10.9999 5.21905L11.007 5.2413L11.9595 4.93652ZM11.7275 4.39941L10.8821 4.93341L10.8886 4.94384L10.8955 4.95411L11.7275 4.39941ZM11.0195 3.74023L11.5098 2.86866L11.4885 2.85671L11.4667 2.84581L11.0195 3.74023ZM9.98193 3.45947L10.0667 2.46307L10.0244 2.45947H9.98193V3.45947ZM8.19971 3.45947V2.45947H7.19971V3.45947H8.19971ZM8.19971 8.0249H7.19971V9.0249H8.19971V8.0249ZM7.19971 10.9302V14.8853H9.19971V10.9302H7.19971ZM7.19971 14.8853C7.19971 15.2119 7.18831 15.5294 7.16575 15.8377L9.16042 15.9836C9.18669 15.6246 9.19971 15.2584 9.19971 14.8853H7.19971ZM7.16427 15.8619C7.15333 16.0862 7.1087 16.2523 7.05011 16.3773L8.86103 17.2262C9.04657 16.8304 9.14029 16.4024 9.1619 15.9594L7.16427 15.8619ZM7.03941 16.4009C7.00879 16.4709 6.96102 16.5337 6.86412 16.5962L7.94838 18.2768C8.35604 18.0138 8.67448 17.6534 8.87172 17.2026L7.03941 16.4009ZM6.88369 16.5839C6.85619 16.6008 6.70706 16.6685 6.31982 16.6685V18.6685C6.8766 18.6685 7.45176 18.5815 7.92881 18.2891L6.88369 16.5839ZM6.31982 16.6685C5.95678 16.6685 5.81218 16.6034 5.78037 16.5839L4.73525 18.2891C5.208 18.5789 5.77141 18.6685 6.31982 18.6685V16.6685ZM5.81251 16.6045C5.72222 16.5443 5.67149 16.4801 5.63686 16.4009L3.80455 17.2026C3.99778 17.6442 4.30512 18.0032 4.70311 18.2686L5.81251 16.6045ZM5.63686 16.4009C5.57562 16.261 5.52809 16.0778 5.51052 15.8377L3.51585 15.9836C3.54711 16.4108 3.63792 16.8217 3.80455 17.2026L5.63686 16.4009ZM5.512 15.8619C5.49655 15.5452 5.48877 15.2197 5.48877 14.8853H3.48877C3.48877 15.2507 3.49727 15.6087 3.51437 15.9594L5.512 15.8619ZM5.48877 14.8853V3.36182H3.48877V14.8853H5.48877ZM5.48877 3.36182C5.48877 3.02737 5.49655 2.70183 5.512 2.38515L3.51437 2.2877C3.49727 2.63834 3.48877 2.9964 3.48877 3.36182H5.48877ZM5.51052 2.4094C5.52809 2.16928 5.57562 1.9861 5.63686 1.84613L3.80455 1.04449C3.63792 1.42536 3.54711 1.83625 3.51585 2.26345L5.51052 2.4094ZM5.63686 1.84613C5.66946 1.77162 5.7142 1.7174 5.79286 1.66757L4.72276 -0.0220652C4.31315 0.237356 3.99981 0.598174 3.80455 1.04449L5.63686 1.84613ZM5.79994 1.66305C5.82724 1.64544 5.96369 1.57861 6.31982 1.57861V-0.421387C5.7645 -0.421387 5.19295 -0.325453 4.71569 -0.0175427L5.79994 1.66305ZM6.31982 1.57861H10.3481V-0.421387H6.31982V1.57861ZM10.2998 1.57744C11.1975 1.62088 11.9699 1.80729 12.6332 2.11862L13.483 0.308142C12.5512 -0.129233 11.517 -0.365997 10.3965 -0.420218L10.2998 1.57744ZM12.6282 2.11624C12.9028 2.247 13.1724 2.41273 13.4372 2.61635L14.6566 1.03111C14.2865 0.746452 13.897 0.505276 13.488 0.310518L12.6282 2.11624ZM13.4469 2.62373C13.6824 2.80041 13.8995 3.024 14.0961 3.303L15.7311 2.1511C15.4231 1.71396 15.0623 1.33533 14.6469 1.02373L13.4469 2.62373ZM14.1113 3.32406C14.2949 3.5707 14.456 3.88603 14.5828 4.28627L16.4895 3.68248C16.307 3.10616 16.0531 2.58328 15.7158 2.13004L14.1113 3.32406ZM14.5843 4.29091C14.7 4.65024 14.7681 5.1004 14.7681 5.65674H16.7681C16.7681 4.94355 16.6815 4.2788 16.488 3.67784L14.5843 4.29091ZM14.7681 5.65674C14.7681 6.42284 14.6463 7.05159 14.431 7.56462L16.2751 8.3387C16.6131 7.53337 16.7681 6.63218 16.7681 5.65674H14.7681ZM14.4286 7.57033C14.2184 8.07982 13.9156 8.49878 13.5172 8.84119L14.8207 10.358C15.4639 9.80526 15.9505 9.12558 16.2775 8.33299L14.4286 7.57033ZM13.5182 8.84035C13.1258 9.17668 12.623 9.44995 11.9857 9.64391L12.568 11.5573C13.4281 11.2955 14.1867 10.9014 14.8197 10.3589L13.5182 8.84035ZM11.9924 9.64189C11.3613 9.82916 10.6214 9.93018 9.76221 9.93018V11.9302C10.7748 11.9302 11.7113 11.8115 12.5613 11.5593L11.9924 9.64189ZM9.76221 9.93018H8.19971V11.9302H9.76221V9.93018ZM9.91976 9.02311C10.4526 8.99113 10.9593 8.86094 11.4233 8.61733L10.4937 6.84654C10.3066 6.94472 10.0809 7.00984 9.79997 7.0267L9.91976 9.02311ZM11.4264 8.61572C11.6399 8.5027 11.8374 8.36337 12.0198 8.20375L10.7028 6.6986C10.6248 6.76684 10.5538 6.81468 10.4906 6.84815L11.4264 8.61572ZM12.0198 8.20375C12.2271 8.02236 12.4039 7.81177 12.5538 7.58112L10.8769 6.49114C10.8152 6.58602 10.7559 6.65211 10.7028 6.6986L12.0198 8.20375ZM12.5656 7.56249C12.734 7.29038 12.8517 6.99214 12.9296 6.68052L10.9893 6.19545C10.9533 6.33957 10.9082 6.44009 10.8651 6.50978L12.5656 7.56249ZM12.921 6.71271C13.0168 6.37736 13.0571 6.02165 13.0571 5.65674H11.0571C11.0571 5.87776 11.0323 6.04288 10.9979 6.16327L12.921 6.71271ZM13.0571 5.65674C13.0571 5.30544 13.0163 4.95787 12.9119 4.63175L11.007 5.2413C11.0329 5.32208 11.0571 5.45465 11.0571 5.65674H13.0571ZM12.9251 4.67655C12.8465 4.3847 12.7301 4.10053 12.5596 3.84471L10.8955 4.95411C10.9203 4.99127 10.9585 5.06517 10.9939 5.1965L12.9251 4.67655ZM12.573 3.86542C12.4298 3.63872 12.258 3.43089 12.0529 3.2531L10.743 4.76448C10.782 4.79828 10.8299 4.85086 10.8821 4.93341L12.573 3.86542ZM12.0529 3.2531C11.884 3.10677 11.7032 2.97744 11.5098 2.86866L10.5293 4.61181C10.5963 4.64952 10.6677 4.69922 10.743 4.76448L12.0529 3.2531ZM11.4667 2.84581C11.0324 2.62863 10.5615 2.50518 10.0667 2.46307L9.89713 4.45587C10.1674 4.47887 10.3882 4.54259 10.5723 4.63466L11.4667 2.84581ZM9.98193 2.45947H8.19971V4.45947H9.98193V2.45947ZM7.19971 3.45947V8.0249H9.19971V3.45947H7.19971ZM8.19971 9.0249H9.85986V7.0249H8.19971V9.0249ZM27.3867 8.68408L26.7084 7.94922L26.699 7.95813L27.3867 8.68408ZM25.7021 9.14795L25.7576 10.1464L25.7823 10.145L25.8068 10.1425L25.7021 9.14795ZM25.2261 9.24561L25.5008 10.2071L25.5217 10.2012L25.5423 10.1943L25.2261 9.24561ZM24.7012 9.47754L25.1973 10.3458L25.2036 10.3422L25.2099 10.3385L24.7012 9.47754ZM24.2251 9.89258L24.9844 10.5434L24.9918 10.5347L24.9991 10.5258L24.2251 9.89258ZM23.6758 15.9839L22.6839 15.8567L22.6823 15.8693L22.681 15.8819L23.6758 15.9839ZM23.4316 16.8384L24.3141 17.309L24.3203 17.297L23.4316 16.8384ZM20.917 17.4365L20.369 18.273L20.917 17.4365ZM20.3677 16.8384L19.4675 17.2739L19.4761 17.2916L19.4853 17.309L20.3677 16.8384ZM20.1235 15.9839L19.1288 16.0859L19.13 16.0985L19.1317 16.1111L20.1235 15.9839ZM20.1235 7.18262L19.1313 7.05858L19.1299 7.06957L19.1288 7.08059L20.1235 7.18262ZM20.3677 6.31592L19.4791 5.85728L19.4731 5.86874L19.4675 5.88036L20.3677 6.31592ZM20.917 5.71777L21.4444 6.56741L21.4548 6.56095L21.465 6.55423L20.917 5.71777ZM22.8335 5.7666L22.185 6.52784L22.2001 6.54069L22.2157 6.55292L22.8335 5.7666ZM23.334 6.47461L22.3934 6.81427L22.3966 6.8228L23.334 6.47461ZM23.5171 7.43896L22.5181 7.48437L22.5182 7.48543L23.5171 7.43896ZM23.5415 8.46436H22.5415V9.46436H23.5415V8.46436ZM23.7368 8.46436V9.46436H24.5176L24.707 8.70689L23.7368 8.46436ZM24.1885 7.23145L25.0789 7.68657L25.0829 7.67866L24.1885 7.23145ZM24.811 6.2915L25.5531 6.96179L25.5584 6.95594L25.5636 6.95001L24.811 6.2915ZM27.0938 5.5957L26.7426 6.53203L26.7656 6.54065L26.789 6.54813L27.0938 5.5957ZM26.8628 7.29248C26.8628 7.78037 26.7404 7.91975 26.7084 7.94928L28.065 9.41889C28.6678 8.86247 28.8628 8.07412 28.8628 7.29248H26.8628ZM26.699 7.95813C26.6334 8.02023 26.471 8.12354 26.0562 8.12354V10.1235C26.797 10.1235 27.5215 9.93387 28.0745 9.41003L26.699 7.95813ZM26.0562 8.12354C25.9213 8.12354 25.7617 8.13616 25.5975 8.15344L25.8068 10.1425C25.9519 10.1272 26.0282 10.1235 26.0562 10.1235V8.12354ZM25.6467 8.14949C25.394 8.16353 25.1467 8.21797 24.9098 8.29692L25.5423 10.1943C25.6473 10.1593 25.7173 10.1486 25.7576 10.1464L25.6467 8.14949ZM24.9514 8.28408C24.686 8.3599 24.4328 8.4746 24.1924 8.61661L25.2099 10.3385C25.3276 10.2689 25.4244 10.229 25.5008 10.2071L24.9514 8.28408ZM24.205 8.6093C23.9111 8.77726 23.6618 9.00191 23.4511 9.25934L24.9991 10.5258C25.0814 10.4252 25.1495 10.3731 25.1973 10.3458L24.205 8.6093ZM23.4658 9.24179C23.2165 9.53264 23.0427 9.8747 22.9224 10.2355L24.8198 10.868C24.8785 10.6917 24.9407 10.5943 24.9844 10.5434L23.4658 9.24179ZM22.9224 10.2355C22.79 10.6329 22.7368 11.0668 22.7368 11.5161H24.7368C24.7368 11.2167 24.7732 11.0077 24.8198 10.868L22.9224 10.2355ZM22.7368 11.5161V15.0073H24.7368V11.5161H22.7368ZM22.7368 15.0073C22.7368 15.3003 22.719 15.5833 22.6839 15.8567L24.6677 16.1111C24.714 15.7497 24.7368 15.3817 24.7368 15.0073H22.7368ZM22.681 15.8819C22.6596 16.0901 22.6092 16.2516 22.543 16.3797L24.3203 17.297C24.5145 16.9206 24.6268 16.5124 24.6706 16.0859L22.681 15.8819ZM22.5493 16.3678C22.5042 16.4523 22.4398 16.5254 22.3351 16.5917L23.4052 18.2813C23.7888 18.0384 24.0987 17.7127 24.314 17.309L22.5493 16.3678ZM22.3351 16.5917C22.3064 16.6099 22.1854 16.6685 21.8813 16.6685V18.6685C22.4074 18.6685 22.9456 18.5724 23.4052 18.2813L22.3351 16.5917ZM21.8813 16.6685C21.5873 16.6685 21.481 16.6106 21.465 16.6001L20.369 18.273C20.8249 18.5717 21.3616 18.6685 21.8813 18.6685V16.6685ZM21.465 16.6001C21.3665 16.5355 21.2997 16.4608 21.25 16.3678L19.4853 17.309C19.6961 17.7042 19.9955 18.0283 20.369 18.273L21.465 16.6001ZM21.2678 16.4028C21.1989 16.2604 21.1443 16.082 21.1154 15.8567L19.1317 16.1111C19.1842 16.5206 19.2923 16.9118 19.4675 17.2739L21.2678 16.4028ZM21.1183 15.8819C21.0894 15.5999 21.0747 15.3085 21.0747 15.0073H19.0747C19.0747 15.3735 19.0926 15.7331 19.1288 16.0859L21.1183 15.8819ZM21.0747 15.0073V8.17139H19.0747V15.0073H21.0747ZM21.0747 8.17139C21.0747 7.86128 21.0895 7.56583 21.1183 7.28465L19.1288 7.08059C19.0925 7.43417 19.0747 7.7979 19.0747 8.17139H21.0747ZM21.1158 7.30665C21.1452 7.07128 21.2006 6.89052 21.2678 6.75148L19.4675 5.88036C19.2907 6.24588 19.1832 6.64291 19.1313 7.05858L21.1158 7.30665ZM21.2563 6.77456C21.3055 6.67914 21.3654 6.61641 21.4444 6.56741L20.3896 4.86813C19.9966 5.1121 19.6902 5.44814 19.4791 5.85728L21.2563 6.77456ZM21.465 6.55423C21.481 6.54373 21.5873 6.48584 21.8813 6.48584V4.48584C21.3616 4.48584 20.8249 4.58257 20.369 4.88131L21.465 6.55423ZM21.8813 6.48584C22.1609 6.48584 22.2112 6.55013 22.185 6.52784L23.482 5.00536C23.0163 4.60872 22.4319 4.48584 21.8813 4.48584V6.48584ZM22.2157 6.55292C22.2852 6.60753 22.3463 6.68373 22.3934 6.81425L24.2745 6.13496C24.1101 5.67955 23.8375 5.28375 23.4513 4.98028L22.2157 6.55292ZM22.3966 6.8228C22.4605 6.99486 22.5057 7.21171 22.5181 7.48437L24.5161 7.39356C24.4959 6.95007 24.4191 6.52402 24.2714 6.12642L22.3966 6.8228ZM22.5182 7.48543C22.5338 7.82065 22.5415 8.14694 22.5415 8.46436H24.5415C24.5415 8.11446 24.533 7.75715 24.516 7.3925L22.5182 7.48543ZM23.5415 9.46436H23.7368V7.46436H23.5415V9.46436ZM24.707 8.70689C24.805 8.31461 24.9308 7.9764 25.0789 7.68656L23.298 6.77633C23.0718 7.21891 22.8965 7.70264 22.7667 8.22182L24.707 8.70689ZM25.0829 7.67866C25.2386 7.36734 25.398 7.13357 25.5531 6.96179L24.0689 5.62122C23.7684 5.95399 23.5127 6.34685 23.294 6.78423L25.0829 7.67866ZM25.5636 6.95001C25.7251 6.7655 25.8764 6.64884 26.0126 6.57648L25.0743 4.81024C24.6897 5.01457 24.3527 5.29668 24.0585 5.633L25.5636 6.95001ZM26.0126 6.57648C26.1479 6.5046 26.2485 6.48584 26.3247 6.48584V4.48584C25.8801 4.48584 25.4598 4.60542 25.0743 4.81024L26.0126 6.57648ZM26.3247 6.48584C26.5782 6.48584 26.7022 6.51688 26.7426 6.53203L27.4449 4.65937C27.0946 4.52804 26.706 4.48584 26.3247 4.48584V6.48584ZM26.789 6.54813C26.8127 6.55571 26.8173 6.56032 26.8107 6.55593C26.8075 6.55381 26.8026 6.55017 26.7968 6.54481C26.791 6.53943 26.7854 6.53338 26.7805 6.52703L28.3592 5.29915C28.1036 4.97049 27.764 4.76024 27.3985 4.64328L26.789 6.54813ZM26.7805 6.52703C26.7731 6.51761 26.7982 6.54349 26.8173 6.6504L28.7862 6.29882C28.7239 5.95 28.5944 5.60153 28.3592 5.29915L26.7805 6.52703ZM26.8173 6.6504C26.8447 6.8034 26.8628 7.01403 26.8628 7.29248H28.8628C28.8628 6.93617 28.8402 6.60155 28.7862 6.29882L26.8173 6.6504ZM32.6699 6.84082L31.9377 6.15966L31.9292 6.16901L32.6699 6.84082ZM33.7441 6.02295L33.3043 5.12486L33.2969 5.12852L33.7441 6.02295ZM35.978 5.40039L35.9051 4.40306L35.9032 4.40319L35.978 5.40039ZM38.5659 5.5835L38.3083 6.54975L38.3135 6.55111L38.5659 5.5835ZM39.689 6.02295L39.2264 6.90957L39.2342 6.91355L39.689 6.02295ZM40.7144 6.84082L39.9563 7.49312L39.965 7.50302L40.7144 6.84082ZM40.7144 16.2891L39.965 15.6268L39.9563 15.6368L40.7144 16.2891ZM39.689 17.1069L39.2342 16.2163L39.2264 16.2203L39.689 17.1069ZM38.5659 17.5464L38.3135 16.5788L38.3083 16.5802L38.5659 17.5464ZM35.978 17.7295L35.9032 18.7267L35.9051 18.7268L35.978 17.7295ZM33.7441 17.1069L33.2969 18.0014L33.3043 18.005L33.7441 17.1069ZM32.6699 16.2891L31.9291 16.9609L31.9377 16.9702L32.6699 16.2891ZM31.8887 14.9829L30.9572 15.3468L31.8887 14.9829ZM35.3433 13.9331H34.3433V13.9503L34.3439 13.9676L35.3433 13.9331ZM35.5142 14.5557L36.3904 14.0737L36.3829 14.0602L36.3751 14.0469L35.5142 14.5557ZM35.9292 14.9951L35.3581 15.816L35.3783 15.8301L35.3992 15.8431L35.9292 14.9951ZM37.5405 14.9951L38.1039 15.8214L38.1116 15.816L37.5405 14.9951ZM37.9556 14.5557L38.8318 15.0376L38.8335 15.0345L37.9556 14.5557ZM38.1265 13.9331L39.1241 14.0019L39.1265 13.9675V13.9331H38.1265ZM38.1265 9.51416H39.1265V9.48086L39.1243 9.44764L38.1265 9.51416ZM37.9556 8.84277L38.8571 8.41004L38.8451 8.3851L38.8318 8.36085L37.9556 8.84277ZM37.5405 8.39111L36.9073 9.16507L36.9263 9.18066L36.9461 9.19529L37.5405 8.39111ZM35.9292 8.39111L36.5236 9.19531L36.5292 9.19111L35.9292 8.39111ZM35.5142 8.84277L34.6379 8.36085L34.6323 8.37107L34.6269 8.38142L35.5142 8.84277ZM35.3433 9.51416L34.3438 9.48085L34.3433 9.4975V9.51416H35.3433ZM32.5835 10.0513C32.5835 9.38735 32.6745 8.88371 32.8201 8.51082L30.9572 7.78312C30.696 8.45191 30.5835 9.21779 30.5835 10.0513H32.5835ZM32.8201 8.51082C32.9872 8.08303 33.1886 7.75749 33.4106 7.51264L31.9292 6.16901C31.5165 6.62402 31.197 7.16925 30.9572 7.78312L32.8201 8.51082ZM33.4021 7.52192C33.6538 7.2513 33.9174 7.05437 34.1914 6.91738L33.2969 5.12852C32.7897 5.38215 32.337 5.73047 31.9377 6.15972L33.4021 7.52192ZM34.184 6.92101C34.5287 6.75218 34.855 6.63116 35.1634 6.55241L34.6686 4.61458C34.2121 4.73114 33.7571 4.9031 33.3043 5.12489L34.184 6.92101ZM35.1634 6.55241C35.5006 6.46632 35.7961 6.41684 36.0528 6.39759L35.9032 4.40319C35.5089 4.43277 35.0964 4.50536 34.6686 4.61458L35.1634 6.55241ZM36.051 6.39772C36.376 6.37394 36.6083 6.36377 36.7593 6.36377V4.36377C36.5359 4.36377 36.2473 4.37801 35.9051 4.40306L36.051 6.39772ZM36.7593 6.36377C36.9098 6.36377 37.1376 6.37389 37.4535 6.39759L37.6031 4.40319C37.268 4.37806 36.9831 4.36377 36.7593 4.36377V6.36377ZM37.4535 6.39759C37.7083 6.4167 37.9926 6.46556 38.3083 6.54973L38.8236 4.61726C38.4068 4.50612 37.9993 4.43291 37.6031 4.40319L37.4535 6.39759ZM38.3135 6.55111C38.6087 6.62812 38.9128 6.74592 39.2264 6.90953L40.1515 5.13636C39.7164 4.90936 39.2719 4.73419 38.8183 4.61588L38.3135 6.55111ZM39.2342 6.91355C39.4927 7.04554 39.7335 7.23406 39.9563 7.49306L41.4724 6.18858C41.093 5.74771 40.6503 5.39099 40.1437 5.13234L39.2342 6.91355ZM39.965 7.50302C40.1797 7.7459 40.3744 8.07017 40.5349 8.4981L42.4075 7.79585C42.1774 7.18211 41.8675 6.63561 41.4637 6.17862L39.965 7.50302ZM40.5349 8.4981C40.6763 8.87523 40.7642 9.38359 40.7642 10.0513H42.7642C42.7642 9.22156 42.6567 8.46038 42.4075 7.79585L40.5349 8.4981ZM40.7642 10.0513V13.0786H42.7642V10.0513H40.7642ZM40.7642 13.0786C40.7642 13.7463 40.6763 14.2546 40.5349 14.6318L42.4075 15.334C42.6567 14.6695 42.7642 13.9083 42.7642 13.0786H40.7642ZM40.5349 14.6318C40.3744 15.0597 40.1797 15.384 39.965 15.6269L41.4637 16.9513C41.8675 16.4943 42.1774 15.9478 42.4075 15.334L40.5349 14.6318ZM39.9563 15.6368C39.7335 15.8958 39.4927 16.0843 39.2342 16.2163L40.1437 17.9975C40.6503 17.7389 41.093 17.3822 41.4724 16.9413L39.9563 15.6368ZM39.2264 16.2203C38.9128 16.384 38.6087 16.5018 38.3135 16.5788L38.8183 18.514C39.2719 18.3957 39.7164 18.2205 40.1515 17.9935L39.2264 16.2203ZM38.3083 16.5802C37.9926 16.6643 37.7083 16.7132 37.4535 16.7323L37.6031 18.7267C37.9993 18.697 38.4068 18.6238 38.8236 18.5126L38.3083 16.5802ZM37.4535 16.7323C37.1376 16.756 36.9098 16.7661 36.7593 16.7661V18.7661C36.9831 18.7661 37.268 18.7518 37.6031 18.7267L37.4535 16.7323ZM36.7593 16.7661C36.6083 16.7661 36.376 16.7559 36.051 16.7322L35.9051 18.7268C36.2473 18.7519 36.5359 18.7661 36.7593 18.7661V16.7661ZM36.0528 16.7323C35.7961 16.713 35.5006 16.6636 35.1634 16.5775L34.6686 18.5153C35.0964 18.6245 35.5089 18.6971 35.9032 18.7267L36.0528 16.7323ZM35.1634 16.5775C34.855 16.4987 34.5287 16.3777 34.184 16.2089L33.3043 18.005C33.7571 18.2268 34.2121 18.3987 34.6686 18.5153L35.1634 16.5775ZM34.1914 16.2125C33.9174 16.0755 33.6538 15.8786 33.4021 15.608L31.9377 16.9702C32.337 17.3994 32.7897 17.7477 33.2969 18.0014L34.1914 16.2125ZM33.4106 15.6172C33.1886 15.3724 32.9872 15.0469 32.8201 14.6191L30.9572 15.3468C31.197 15.9606 31.5165 16.5059 31.9292 16.9609L33.4106 15.6172ZM32.8201 14.6191C32.6745 14.2462 32.5835 13.7425 32.5835 13.0786H30.5835C30.5835 13.9121 30.696 14.678 30.9572 15.3468L32.8201 14.6191ZM32.5835 13.0786V10.0513H30.5835V13.0786H32.5835ZM34.3439 13.9676C34.357 14.3478 34.4514 14.7228 34.6532 15.0644L36.3751 14.0469C36.3654 14.0305 36.3458 13.9904 36.3427 13.8986L34.3439 13.9676ZM34.6379 15.0376C34.8167 15.3626 35.0727 15.6175 35.3581 15.816L36.5003 14.1742C36.4113 14.1123 36.3907 14.0743 36.3904 14.0737L34.6379 15.0376ZM35.3992 15.8431C35.8186 16.1053 36.3093 16.1782 36.7593 16.1782V14.1782C36.6347 14.1782 36.5506 14.1674 36.4986 14.1559C36.447 14.1445 36.4407 14.1356 36.4592 14.1471L35.3992 15.8431ZM36.7593 16.1782C37.1951 16.1782 37.6882 16.1048 38.1039 15.8213L36.9772 14.1689C37.0101 14.1465 37.0203 14.15 36.9827 14.1588C36.9446 14.1678 36.8734 14.1782 36.7593 14.1782V16.1782ZM38.1116 15.816C38.397 15.6175 38.653 15.3626 38.8318 15.0376L37.0794 14.0737C37.0791 14.0743 37.0584 14.1123 36.9695 14.1742L38.1116 15.816ZM38.8335 15.0345C39.0103 14.7103 39.0995 14.3588 39.1241 14.0019L37.1288 13.8643C37.1209 13.9795 37.0962 14.0429 37.0777 14.0768L38.8335 15.0345ZM39.1265 13.9331V9.51416H37.1265V13.9331H39.1265ZM39.1243 9.44764C39.1002 9.08718 39.0143 8.73767 38.8571 8.41004L37.054 9.2755C37.0921 9.35478 37.1202 9.45286 37.1287 9.58068L39.1243 9.44764ZM38.8318 8.36085C38.6574 8.04382 38.4097 7.79002 38.1349 7.58694L36.9461 9.19529C37.0457 9.2689 37.0747 9.31621 37.0794 9.32469L38.8318 8.36085ZM38.1738 7.61716C37.7481 7.26888 37.2254 7.17139 36.7593 7.17139V9.17139C36.8615 9.17139 36.9177 9.18264 36.9402 9.18897C36.9601 9.19456 36.9408 9.19252 36.9073 9.16507L38.1738 7.61716ZM36.7593 7.17139C36.2817 7.17139 35.7617 7.26675 35.3292 7.59111L36.5292 9.19111C36.5078 9.20715 36.504 9.20231 36.5391 9.19302C36.5761 9.18322 36.646 9.17139 36.7593 9.17139V7.17139ZM35.3348 7.58694C35.0601 7.79002 34.8123 8.04382 34.6379 8.36085L36.3904 9.32469C36.395 9.31621 36.424 9.2689 36.5236 9.19529L35.3348 7.58694ZM34.6269 8.38142C34.4478 8.72594 34.3566 9.09738 34.3438 9.48085L36.3427 9.54747C36.3462 9.44265 36.3689 9.36651 36.4014 9.30413L34.6269 8.38142ZM34.3433 9.51416V13.9331H36.3433V9.51416H34.3433ZM47.4136 7.18262L46.4209 7.06156L46.4196 7.07233L46.4185 7.08311L47.4136 7.18262ZM47.6699 6.30371L48.5586 6.76239L48.5643 6.75092L47.6699 6.30371ZM48.2314 5.69336L48.746 6.55089L48.754 6.54596L48.2314 5.69336ZM50.2212 5.69336L49.6861 6.53818L49.6963 6.54464L49.7067 6.55085L50.2212 5.69336ZM50.7705 6.30371L49.865 6.72814L49.8731 6.74541L49.8819 6.76235L50.7705 6.30371ZM51.0146 7.18262L50.0194 7.27972L50.0207 7.2932L50.0224 7.30665L51.0146 7.18262ZM49.4277 22.1484L48.9631 21.2628L48.9519 21.2689L49.4277 22.1484ZM46.3394 22.4414L46.1198 23.417L46.3394 22.4414ZM44.8989 21.5137L44.0493 22.041L44.8989 21.5137ZM44.7769 19.9268L45.7255 20.243L45.7315 20.225L45.7369 20.2068L44.7769 19.9268ZM45.0698 19.4507L44.4113 18.6981L44.4082 18.7008L45.0698 19.4507ZM45.5703 19.2065L45.3454 18.2321L45.3369 18.2342L45.5703 19.2065ZM46.9253 18.9746L46.3486 18.1576L46.333 18.1687L46.3178 18.1803L46.9253 18.9746ZM47.2305 18.5718L46.296 18.2158L47.2305 18.5718ZM47.3403 17.9858L46.3431 17.912L46.3417 17.9304L46.341 17.9488L47.3403 17.9858ZM50.5874 3.78906L51.2757 4.51453L51.2762 4.51406L50.5874 3.78906ZM47.8652 3.78906L47.1854 4.52256L47.1953 4.53146L47.8652 3.78906ZM50.624 1.00586L49.9072 1.70328L49.9169 1.71297L50.624 1.00586ZM48.3647 8.1958C48.3647 7.87682 48.3796 7.57238 48.4086 7.28212L46.4185 7.08311C46.3825 7.44389 46.3647 7.81492 46.3647 8.1958H48.3647ZM48.4062 7.30367C48.4351 7.06664 48.4918 6.89174 48.5585 6.76235L46.7813 5.84507C46.5877 6.22024 46.4734 6.63127 46.4209 7.06156L48.4062 7.30367ZM48.5643 6.75092C48.6115 6.65655 48.6687 6.59717 48.7459 6.55085L47.7169 4.83587C47.3059 5.08251 46.9887 5.43004 46.7755 5.8565L48.5643 6.75092ZM48.754 6.54596C48.7953 6.52063 48.9307 6.46143 49.2446 6.46143V4.46143C48.7122 4.46143 48.1721 4.55684 47.7089 4.84076L48.754 6.54596ZM49.2446 6.46143C49.536 6.46143 49.6547 6.51829 49.6861 6.53818L50.7562 4.84854C50.2994 4.55918 49.7671 4.46143 49.2446 4.46143V6.46143ZM49.7067 6.55085C49.7785 6.59395 49.8264 6.64578 49.865 6.72814L51.676 5.87928C51.4704 5.44081 51.1521 5.08574 50.7357 4.83587L49.7067 6.55085ZM49.8819 6.76235C49.9444 6.88357 49.9969 7.04985 50.0194 7.27972L52.0099 7.08552C51.9672 6.64807 51.857 6.22841 51.6591 5.84507L49.8819 6.76235ZM50.0224 7.30665C50.0576 7.58841 50.0757 7.8846 50.0757 8.1958H52.0757C52.0757 7.80713 52.0531 7.42787 52.0069 7.05858L50.0224 7.30665ZM50.0757 8.1958V17.3022H52.0757V8.1958H50.0757ZM50.0757 17.3022C50.0757 18.0345 50.0481 18.7045 49.9941 19.3136L51.9863 19.4901C52.0463 18.8134 52.0757 18.0837 52.0757 17.3022H50.0757ZM49.9941 19.3136C49.9462 19.8542 49.8236 20.2734 49.6537 20.5963L51.4235 21.5278C51.7418 20.9229 51.9203 20.2353 51.9863 19.4901L49.9941 19.3136ZM49.6537 20.5963C49.5105 20.8682 49.2933 21.0897 48.9632 21.2629L49.8923 23.034C50.555 22.6863 51.0783 22.1836 51.4235 21.5278L49.6537 20.5963ZM48.9519 21.2689C48.661 21.4263 48.1615 21.5513 47.3647 21.5513V23.5513C48.3258 23.5513 49.2016 23.4077 49.9036 23.028L48.9519 21.2689ZM47.3647 21.5513C47.0752 21.5513 46.8073 21.5217 46.5589 21.4658L46.1198 23.417C46.5225 23.5076 46.9382 23.5513 47.3647 23.5513V21.5513ZM46.5589 21.4658C46.3282 21.4139 46.1534 21.3394 46.0199 21.2548L44.9498 22.9444C45.3046 23.1691 45.6994 23.3224 46.1198 23.417L46.5589 21.4658ZM46.0199 21.2548C45.8979 21.1775 45.8122 21.0889 45.7486 20.9863L44.0493 22.041C44.2786 22.4105 44.5835 22.7124 44.9498 22.9444L46.0199 21.2548ZM45.7486 20.9863C45.7162 20.9342 45.6792 20.8431 45.6792 20.6714H43.6792C43.6792 21.1508 43.7887 21.6212 44.0493 22.041L45.7486 20.9863ZM45.6792 20.6714C45.6792 20.4327 45.7062 20.301 45.7255 20.243L43.8282 19.6105C43.7173 19.9432 43.6792 20.3078 43.6792 20.6714H45.6792ZM45.7369 20.2068C45.7426 20.1871 45.7466 20.1819 45.7445 20.1854C45.7436 20.1869 45.7418 20.1894 45.7392 20.1926C45.7366 20.1957 45.7338 20.1984 45.7314 20.2005L44.4082 18.7008C44.1136 18.9608 43.9212 19.2891 43.8169 19.6468L45.7369 20.2068ZM45.7283 20.2033C45.7137 20.216 45.725 20.1978 45.8037 20.1789L45.3369 18.2342C45.0087 18.3129 44.6863 18.4575 44.4113 18.6981L45.7283 20.2033ZM45.7952 20.1809C45.9109 20.1542 46.0872 20.1333 46.3394 20.1333V18.1333C45.9893 18.1333 45.653 18.1612 45.3455 18.2322L45.7952 20.1809ZM46.3394 20.1333C46.7161 20.1333 47.1571 20.0562 47.5327 19.769L46.3178 18.1803C46.3671 18.1426 46.406 18.1305 46.4136 18.1284C46.417 18.1275 46.4132 18.1288 46.4005 18.1303C46.3878 18.1318 46.3678 18.1333 46.3394 18.1333V20.1333ZM47.502 19.7916C47.8159 19.57 48.035 19.2689 48.165 18.9278L46.296 18.2158C46.2944 18.2201 46.2971 18.2115 46.3083 18.1968C46.3198 18.1816 46.3342 18.1678 46.3486 18.1576L47.502 19.7916ZM48.165 18.9278C48.2759 18.6365 48.3283 18.3303 48.3396 18.0229L46.341 17.9488C46.3361 18.0808 46.3152 18.1652 46.296 18.2158L48.165 18.9278ZM48.3376 18.0597C48.3558 17.8137 48.3647 17.5612 48.3647 17.3022H46.3647C46.3647 17.5153 46.3574 17.7185 46.3431 17.912L48.3376 18.0597ZM48.3647 17.3022V8.1958H46.3647V17.3022H48.3647ZM50.0757 2.40967C50.0757 2.84779 49.962 3.00386 49.8987 3.06406L51.2762 4.51406C51.8638 3.95577 52.0757 3.19225 52.0757 2.40967H50.0757ZM49.8991 3.0636C49.8209 3.13781 49.6508 3.24072 49.2446 3.24072V5.24072C49.9941 5.24072 50.7191 5.04253 51.2757 4.51453L49.8991 3.0636ZM49.2446 3.24072C48.8291 3.24072 48.635 3.1367 48.5352 3.04667L47.1953 4.53146C47.7628 5.04364 48.4883 5.24072 49.2446 5.24072V3.24072ZM48.545 3.05563C48.4784 2.99392 48.3647 2.84086 48.3647 2.40967H46.3647C46.3647 3.19918 46.5847 3.96571 47.1855 4.52249L48.545 3.05563ZM48.3647 2.40967C48.3647 1.93792 48.4867 1.792 48.5352 1.74825L47.1953 0.263466C46.5764 0.821936 46.3647 1.61188 46.3647 2.40967H48.3647ZM48.5352 1.74825C48.635 1.65823 48.8291 1.5542 49.2446 1.5542V-0.445801C48.4883 -0.445801 47.7628 -0.248721 47.1953 0.263466L48.5352 1.74825ZM49.2446 1.5542C49.7333 1.5542 49.8781 1.67324 49.9073 1.70321L51.3407 0.308504C50.784 -0.263734 50.0092 -0.445801 49.2446 -0.445801V1.5542ZM49.9169 1.71297C49.9557 1.7517 50.0757 1.9112 50.0757 2.40967H52.0757C52.0757 1.6386 51.8946 0.86223 51.3311 0.298753L49.9169 1.71297ZM66.7593 11.1743L67.7548 11.2691L67.7552 11.2649L66.7593 11.1743ZM66.564 11.6748L65.7447 11.1013L65.7387 11.1101L66.564 11.6748ZM60.1919 12.2485V11.2485H59.1919V12.2485H60.1919ZM60.5093 14.6167L59.6656 15.1536L59.6741 15.1669L59.6831 15.18L60.5093 14.6167ZM62.4502 15.1172L62.8441 16.0363L62.8541 16.0321L62.864 16.0276L62.4502 15.1172ZM62.8652 14.8242L62.1324 14.1438L62.1189 14.1583L62.106 14.1734L62.8652 14.8242ZM63.146 14.458L63.994 14.988L63.146 14.458ZM63.4634 14.0918L62.8277 13.3199L62.8161 13.3294L62.8049 13.3392L63.4634 14.0918ZM64.0249 13.811L64.3213 14.7661L64.3312 14.763L64.3411 14.7597L64.0249 13.811ZM65.6118 13.7378L65.4405 14.723L65.4474 14.7242L65.6118 13.7378ZM66.4785 14.2993L65.6023 14.7812L65.6076 14.7909L65.6131 14.8004L66.4785 14.2993ZM66.1123 16.2402L66.8361 16.9304L66.8439 16.922L66.1123 16.2402ZM63.207 17.5342L63.058 16.5453L63.056 16.5456L63.207 17.5342ZM61.5591 17.6685L61.547 18.6685H61.5591V17.6685ZM58.0068 16.6309L57.3958 17.4225L57.4024 17.4276L58.0068 16.6309ZM56.7495 8.28125L55.8051 7.95214L55.8008 7.96502L56.7495 8.28125ZM58.4585 6.1084L58.9291 6.99075L58.9366 6.98672L58.9441 6.98256L58.4585 6.1084ZM59.5693 5.65674L59.3169 4.68912L59.5693 5.65674ZM60.6313 5.47363L60.5601 4.47617L60.5584 4.4763L60.6313 5.47363ZM63.6099 5.65674L63.3641 6.62608L63.3673 6.62688L63.6099 5.65674ZM66.5151 8.0127L65.5688 8.33585L65.5713 8.34305L66.5151 8.0127ZM66.7349 9.01367L65.7394 9.10848L65.7396 9.11077L66.7349 9.01367ZM60.1919 10.4175H59.1919V11.4175H60.1919V10.4175ZM63.2437 10.4175V11.4175H64.2437V10.4175H63.2437ZM63.207 9.4043L62.2085 9.45827L62.2093 9.47282L62.2105 9.48734L63.207 9.4043ZM63.0239 8.64746L62.1224 9.08019L62.1293 9.09462L62.1367 9.10881L63.0239 8.64746ZM62.5479 8.18359L62.1006 9.07802L62.1073 9.08136L62.114 9.0846L62.5479 8.18359ZM60.8389 8.18359L60.3626 7.3043L60.3547 7.3086L60.3468 7.31303L60.8389 8.18359ZM60.4116 8.58643L61.2571 9.12042L61.2632 9.11074L61.2691 9.10092L60.4116 8.58643ZM65.7837 10.7104C65.7837 10.8015 65.7779 10.9244 65.7634 11.0838L67.7552 11.2649C67.7732 11.0661 67.7837 10.8798 67.7837 10.7104H65.7837ZM65.7638 11.0795C65.7642 11.0747 65.765 11.0706 65.7657 11.0675C65.7665 11.0644 65.767 11.0632 65.7667 11.0641C65.766 11.0657 65.7609 11.0782 65.7447 11.1013L67.3832 12.2483C67.5805 11.9664 67.7197 11.6376 67.7548 11.2691L65.7638 11.0795ZM65.7387 11.1101C65.7516 11.0912 65.7566 11.0911 65.7386 11.1052C65.7201 11.1197 65.6824 11.1453 65.6165 11.1771L66.486 12.9782C66.8197 12.8171 67.1532 12.5845 67.3893 12.2395L65.7387 11.1101ZM65.6165 11.1771C65.5764 11.1965 65.4166 11.2485 65.0503 11.2485V13.2485C65.5466 13.2485 66.0541 13.1867 66.486 12.9782L65.6165 11.1771ZM65.0503 11.2485H60.1919V13.2485H65.0503V11.2485ZM59.1919 12.2485V13.4204H61.1919V12.2485H59.1919ZM59.1919 13.4204C59.1919 13.6993 59.2268 13.9784 59.2907 14.2556L61.2395 13.8059C61.2058 13.66 61.1919 13.5322 61.1919 13.4204H59.1919ZM59.2907 14.2556C59.3645 14.5753 59.4893 14.8765 59.6656 15.1536L61.3529 14.0798C61.3014 13.9989 61.2634 13.9094 61.2395 13.8059L59.2907 14.2556ZM59.6831 15.18C59.8926 15.4873 60.1634 15.7344 60.4815 15.9199L61.4892 14.1924C61.4166 14.15 61.3701 14.1042 61.3355 14.0534L59.6831 15.18ZM60.4815 15.9199C60.8646 16.1434 61.289 16.2271 61.7056 16.2271V14.2271C61.5524 14.2271 61.4967 14.1967 61.4892 14.1924L60.4815 15.9199ZM61.7056 16.2271C62.08 16.2271 62.4883 16.1888 62.8441 16.0363L62.0563 14.198C62.0722 14.1912 62.0563 14.2005 61.9899 14.2103C61.9259 14.2197 61.833 14.2271 61.7056 14.2271V16.2271ZM62.864 16.0276C63.1363 15.9038 63.4073 15.7284 63.6245 15.475L62.106 14.1734C62.1173 14.1602 62.1217 14.1588 62.1115 14.1659C62.101 14.1734 62.0777 14.188 62.0364 14.2068L62.864 16.0276ZM63.598 15.5047C63.7464 15.3449 63.8786 15.1726 63.994 14.988L62.298 13.928C62.2506 14.0039 62.1957 14.0756 62.1324 14.1438L63.598 15.5047ZM63.994 14.988C64.0173 14.9506 64.0562 14.9018 64.1219 14.8444L62.8049 13.3392C62.6101 13.5096 62.4374 13.705 62.298 13.928L63.994 14.988ZM64.0991 14.8637C64.1071 14.8571 64.1654 14.8145 64.3213 14.7661L63.7285 12.856C63.4124 12.9541 63.0964 13.0986 62.8277 13.3199L64.0991 14.8637ZM64.3411 14.7597C64.4388 14.7271 64.6503 14.689 65.0259 14.689V12.689C64.5551 12.689 64.0992 12.7322 63.7087 12.8624L64.3411 14.7597ZM65.0259 14.689C65.1759 14.689 65.3137 14.701 65.4405 14.723L65.7832 12.7526C65.5356 12.7095 65.2827 12.689 65.0259 12.689V14.689ZM65.4474 14.7242C65.5355 14.7389 65.5814 14.761 65.6031 14.7742L66.646 13.0676C66.3746 12.9018 66.0788 12.8018 65.7762 12.7514L65.4474 14.7242ZM65.6031 14.7742C65.6014 14.7731 65.5993 14.7717 65.5971 14.7699C65.5949 14.7682 65.5934 14.7667 65.5926 14.7658C65.5907 14.7637 65.5946 14.7673 65.6023 14.7812L67.3547 13.8174C67.1884 13.515 66.9531 13.2553 66.646 13.0676L65.6031 14.7742ZM65.6131 14.8004C65.5985 14.7752 65.5987 14.7653 65.6026 14.7827C65.6066 14.801 65.6128 14.8412 65.6128 14.9097H67.6128C67.6128 14.5501 67.5506 14.1553 67.3439 13.7983L65.6131 14.8004ZM65.6128 14.9097C65.6128 15.208 65.5272 15.4013 65.3807 15.5585L66.8439 16.922C67.3647 16.3631 67.6128 15.6693 67.6128 14.9097H65.6128ZM65.3886 15.5502C65.1618 15.788 64.8624 15.995 64.4683 16.1603L65.2417 18.0047C65.8567 17.7468 66.3955 17.3923 66.836 16.9303L65.3886 15.5502ZM64.4683 16.1603C64.0469 16.337 63.5783 16.4669 63.058 16.5453L63.356 18.523C64.0239 18.4224 64.6539 18.2512 65.2417 18.0047L64.4683 16.1603ZM63.056 16.5456C62.5125 16.6287 62.0141 16.6685 61.5591 16.6685V18.6685C62.1294 18.6685 62.7297 18.6187 63.3581 18.5227L63.056 16.5456ZM61.5711 16.6685C60.9729 16.6613 60.4129 16.5858 59.888 16.4459L59.3727 18.3783C60.0686 18.5639 60.7943 18.6593 61.547 18.6684L61.5711 16.6685ZM59.888 16.4459C59.3948 16.3143 58.973 16.1087 58.6112 15.8342L57.4024 17.4276C57.9846 17.8692 58.6453 18.1844 59.3727 18.3783L59.888 16.4459ZM58.6179 15.8393C58.289 15.5854 58.0135 15.2453 57.7979 14.7951L55.9941 15.659C56.3319 16.3644 56.797 16.9602 57.3958 17.4224L58.6179 15.8393ZM57.7979 14.7951C57.6025 14.3871 57.481 13.836 57.481 13.103H55.481C55.481 14.0465 55.6361 14.9114 55.9941 15.659L57.7979 14.7951ZM57.481 13.103V10.2466H55.481V13.103H57.481ZM57.481 10.2466C57.481 9.54448 57.563 9.00298 57.6982 8.59748L55.8008 7.96502C55.5779 8.63374 55.481 9.40246 55.481 10.2466H57.481ZM57.6938 8.61033C57.851 8.15931 58.0397 7.82105 58.2437 7.57171L56.6958 6.30524C56.3138 6.77205 56.0224 7.32897 55.8052 7.95217L57.6938 8.61033ZM58.2437 7.57171C58.4626 7.30417 58.6921 7.11712 58.9291 6.99075L57.9879 5.22605C57.4924 5.4903 57.0628 5.85664 56.6958 6.30524L58.2437 7.57171ZM58.9441 6.98256C59.2429 6.81659 59.5352 6.69911 59.8218 6.62436L59.3169 4.68912C58.8548 4.80968 58.4065 4.99331 57.9729 5.23424L58.9441 6.98256ZM59.8218 6.62436C60.1462 6.53972 60.4398 6.49032 60.7043 6.47097L60.5584 4.4763C60.1556 4.50577 59.7412 4.57845 59.3169 4.68912L59.8218 6.62436ZM60.7026 6.47109C61.0293 6.44775 61.2972 6.43701 61.5103 6.43701V4.43701C61.235 4.43701 60.917 4.45068 60.5601 4.47617L60.7026 6.47109ZM61.5103 6.43701C62.2782 6.43701 62.8905 6.50599 63.3641 6.62607L63.8556 4.6874C63.1737 4.51452 62.3862 4.43701 61.5103 4.43701V6.43701ZM63.3673 6.62688C63.8858 6.75651 64.2748 6.9155 64.5576 7.08638L65.5918 5.37455C65.0934 5.07343 64.5058 4.84994 63.8524 4.6866L63.3673 6.62688ZM64.5576 7.08638C64.8567 7.26707 65.0605 7.45579 65.1974 7.64154L66.8075 6.45514C66.4886 6.0224 66.074 5.66587 65.5918 5.37455L64.5576 7.08638ZM65.1974 7.64154C65.37 7.87584 65.4907 8.10714 65.5688 8.33584L67.4615 7.68955C67.3117 7.25093 67.0906 6.83933 66.8075 6.45514L65.1974 7.64154ZM65.5713 8.34305C65.6587 8.59277 65.7145 8.84736 65.7394 9.10848L67.7304 8.91886C67.6901 8.49639 67.5995 8.08366 67.459 7.68234L65.5713 8.34305ZM65.7396 9.11077C65.7694 9.41666 65.7837 9.69729 65.7837 9.95361H67.7837C67.7837 9.624 67.7654 9.278 67.7301 8.91657L65.7396 9.11077ZM65.7837 9.95361V10.7104H67.7837V9.95361H65.7837ZM60.1919 11.4175H63.2437V9.41748H60.1919V11.4175ZM64.2437 10.4175C64.2437 10.015 64.2309 9.64861 64.2036 9.32125L62.2105 9.48734C62.232 9.74593 62.2437 10.055 62.2437 10.4175H64.2437ZM64.2056 9.35032C64.1839 8.94979 64.0999 8.54902 63.9111 8.18611L62.1367 9.10881C62.1596 9.1528 62.1976 9.25659 62.2085 9.45827L64.2056 9.35032ZM63.9254 8.21473C63.7214 7.78965 63.3883 7.47838 62.9817 7.28259L62.114 9.0846C62.1255 9.09012 62.1318 9.09417 62.1343 9.09588C62.1367 9.09752 62.1361 9.09739 62.1338 9.09514C62.1314 9.09284 62.1287 9.0897 62.1261 9.08614C62.1249 9.08447 62.124 9.08301 62.1233 9.08188C62.1227 9.08075 62.1224 9.08014 62.1224 9.08019L63.9254 8.21473ZM62.9951 7.28917C62.5803 7.08179 62.0934 7.0249 61.6323 7.0249V9.0249C61.7898 9.0249 61.9067 9.03553 61.9895 9.04988C62.0739 9.06451 62.1042 9.07981 62.1006 9.07802L62.9951 7.28917ZM61.6323 7.0249C61.2092 7.0249 60.7594 7.08935 60.3626 7.3043L61.3152 9.06289C61.3086 9.06646 61.3253 9.05606 61.3798 9.04516C61.4344 9.03423 61.5165 9.0249 61.6323 9.0249V7.0249ZM60.3468 7.31303C60.0294 7.49243 59.752 7.74207 59.5541 8.07193L61.2691 9.10092C61.2694 9.10052 61.271 9.09751 61.2777 9.09124C61.2848 9.08452 61.3007 9.07124 61.3309 9.05416L60.3468 7.31303ZM59.5661 8.05243C59.393 8.32657 59.2817 8.62917 59.2377 8.9518L61.2193 9.22203C61.2242 9.18658 61.2349 9.15553 61.2571 9.12042L59.5661 8.05243ZM59.2377 8.9518C59.2089 9.1629 59.1919 9.36821 59.1919 9.56299H61.1919C61.1919 9.48107 61.1993 9.369 61.2193 9.22203L59.2377 8.9518ZM59.1919 9.56299V10.4175H61.1919V9.56299H59.1919ZM75.082 13.9453L74.0891 14.0645L74.0898 14.0693L75.082 13.9453ZM75.2529 14.5312L74.3439 14.9479L74.3473 14.9553L74.3508 14.9627L75.2529 14.5312ZM75.6436 15.0195L75.0144 15.7968L75.0232 15.8039L75.0321 15.8108L75.6436 15.0195ZM77.6577 14.7754L78.4747 15.3521L78.4824 15.3412L78.4898 15.3301L77.6577 14.7754ZM77.8408 14.2749L78.8324 14.4042L78.8331 14.3989L77.8408 14.2749ZM77.9263 13.3105L76.9669 13.0284L76.9611 13.0481L76.9561 13.068L77.9263 13.3105ZM78.1948 12.9321L78.8305 13.7041L78.8437 13.6932L78.8564 13.682L78.1948 12.9321ZM78.8052 12.6392L79.0683 13.6039L79.0778 13.6013L79.0873 13.5985L78.8052 12.6392ZM81.4419 13.0176L80.6475 13.625L80.6676 13.6512L80.6893 13.6761L81.4419 13.0176ZM81.6372 13.4326L80.6433 13.5431L80.6441 13.5495L81.6372 13.4326ZM81.4175 15.1416L80.4916 14.7637L80.4877 14.7736L81.4175 15.1416ZM80.7827 16.167L81.5104 16.8531L81.5199 16.8427L80.7827 16.167ZM78.7319 17.3511L78.4572 16.3895L78.4519 16.3911L78.7319 17.3511ZM72.8848 16.6064L72.2651 17.3914L72.2718 17.3965L72.8848 16.6064ZM71.7617 15.2026L70.8648 15.6448L70.8673 15.6499L71.7617 15.2026ZM71.603 8.30566L70.6586 7.97656L70.6543 7.98944L71.603 8.30566ZM73.312 6.13281L73.7826 7.01517L73.7902 7.01113L73.7977 7.00697L73.312 6.13281ZM74.4229 5.68115L74.1704 4.71354L74.4229 5.68115ZM75.4849 5.49805L75.4136 4.50059L75.4119 4.50071L75.4849 5.49805ZM78.2559 5.64453L78.0342 6.61967L78.0374 6.62037L78.2559 5.64453ZM80.624 6.84082L79.8952 7.5255L79.9059 7.53688L79.9169 7.54793L80.624 6.84082ZM81.5396 8.5498L80.5579 8.74067L80.5605 8.75374L80.5634 8.76674L81.5396 8.5498ZM81.6128 9.83154L82.6083 9.92635L82.6087 9.92208L81.6128 9.83154ZM81.4175 10.332L80.5982 9.75854L80.5922 9.76735L81.4175 10.332ZM79.3179 10.8936L79.2466 11.891L79.265 11.8923L79.2834 11.893L79.3179 10.8936ZM77.8164 9.19678L76.8202 9.28341L76.8223 9.30771L76.8256 9.33189L77.8164 9.19678ZM77.1938 8.37891L76.7772 9.28797L76.7996 9.29823L76.8225 9.30738L77.1938 8.37891ZM75.6436 8.39111L75.1647 7.51322L75.156 7.51796L75.1474 7.52287L75.6436 8.39111ZM74.0454 13.4448C74.0454 13.6307 74.0624 13.8411 74.0892 14.0645L76.0749 13.8262C76.0529 13.6426 76.0454 13.5194 76.0454 13.4448H74.0454ZM74.0898 14.0693C74.1279 14.3747 74.2157 14.6683 74.3439 14.9479L76.162 14.1146C76.1111 14.0036 76.085 13.9066 76.0743 13.8213L74.0898 14.0693ZM74.3508 14.9627C74.5083 15.292 74.735 15.5706 75.0144 15.7968L76.2728 14.2423C76.2103 14.1918 76.1766 14.1449 76.1551 14.0998L74.3508 14.9627ZM75.0321 15.8108C75.4364 16.1232 75.9144 16.2271 76.3638 16.2271V14.2271C76.2884 14.2271 76.2486 14.2182 76.2348 14.2143C76.2233 14.211 76.2348 14.2126 76.255 14.2282L75.0321 15.8108ZM76.3638 16.2271C76.7786 16.2271 77.2045 16.1826 77.5774 16.0335L76.8347 14.1765C76.8007 14.1901 76.6651 14.2271 76.3638 14.2271V16.2271ZM77.5774 16.0335C77.9082 15.9012 78.2372 15.6886 78.4747 15.3521L76.8407 14.1987C76.8503 14.1851 76.8597 14.1745 76.8674 14.1667C76.8751 14.159 76.8805 14.1549 76.8821 14.1538C76.8848 14.1518 76.8721 14.1615 76.8347 14.1765L77.5774 16.0335ZM78.4898 15.3301C78.6786 15.0468 78.7896 14.7323 78.8324 14.4042L76.8492 14.1456C76.8432 14.1918 76.8321 14.211 76.8257 14.2207L78.4898 15.3301ZM78.8331 14.3989C78.863 14.1596 78.8774 13.9145 78.8774 13.6646H76.8774C76.8774 13.8377 76.8674 13.9996 76.8485 14.1509L78.8331 14.3989ZM78.8774 13.6646C78.8774 13.6589 78.8787 13.6241 78.8964 13.5531L76.9561 13.068C76.9088 13.2574 76.8774 13.4586 76.8774 13.6646H78.8774ZM78.8856 13.5927C78.8726 13.6371 78.854 13.6703 78.8394 13.6909C78.8257 13.7103 78.819 13.7135 78.8305 13.7041L77.5591 12.1602C77.304 12.3703 77.0764 12.656 76.9669 13.0284L78.8856 13.5927ZM78.8564 13.682C78.8433 13.6935 78.8474 13.6864 78.8839 13.6689C78.9203 13.6514 78.9794 13.6282 79.0683 13.6039L78.5421 11.6744C78.1945 11.7692 77.8296 11.9207 77.5332 12.1823L78.8564 13.682ZM79.0873 13.5985C79.2329 13.5557 79.4993 13.5171 79.9282 13.5171V11.5171C79.4132 11.5171 78.9308 11.5598 78.523 11.6798L79.0873 13.5985ZM79.9282 13.5171C80.3063 13.5171 80.4878 13.5631 80.5468 13.5876L81.3116 11.7396C80.8986 11.5687 80.4128 11.5171 79.9282 11.5171V13.5171ZM80.5468 13.5876C80.6138 13.6153 80.6504 13.6373 80.6662 13.6482C80.6815 13.6588 80.6692 13.6533 80.6475 13.625L82.2363 12.4101C81.9848 12.0813 81.6394 11.8752 81.3116 11.7396L80.5468 13.5876ZM80.6893 13.6761C80.6929 13.6801 80.6833 13.6701 80.6714 13.6448C80.6588 13.6182 80.6478 13.5832 80.6433 13.543L82.6311 13.3222C82.5885 12.9392 82.4189 12.6156 82.1945 12.3591L80.6893 13.6761ZM80.6441 13.5495C80.6585 13.6721 80.6616 13.7377 80.6616 13.7622H82.6616C82.6616 13.6239 82.6485 13.4698 82.6304 13.3158L80.6441 13.5495ZM80.6616 13.7622C80.6616 14.1799 80.5963 14.5072 80.4916 14.7637L82.3433 15.5195C82.5641 14.9785 82.6616 14.3862 82.6616 13.7622H80.6616ZM80.4877 14.7736C80.3754 15.0573 80.227 15.2933 80.0456 15.4913L81.5199 16.8427C81.8755 16.4548 82.1503 16.0072 82.3473 15.5097L80.4877 14.7736ZM80.0551 15.481C79.8583 15.6898 79.6305 15.8673 79.3676 16.014L80.3423 17.7604C80.7793 17.5165 81.17 17.2139 81.5103 16.853L80.0551 15.481ZM79.3676 16.014C79.0872 16.1705 78.7845 16.296 78.4572 16.3896L79.0067 18.3126C79.4769 18.1782 79.9229 17.9945 80.3423 17.7604L79.3676 16.014ZM78.4519 16.3911C78.1143 16.4895 77.7694 16.56 77.4165 16.6023L77.6548 18.5881C78.1157 18.5328 78.5683 18.4405 79.0119 18.3111L78.4519 16.3911ZM77.4165 16.6023C77.0455 16.6469 76.6948 16.6685 76.3638 16.6685V18.6685C76.7815 18.6685 77.212 18.6412 77.6548 18.5881L77.4165 16.6023ZM76.3638 16.6685C75.8107 16.6685 75.2801 16.5951 74.7691 16.4501L74.2231 18.3741C74.9165 18.5709 75.6311 18.6685 76.3638 18.6685V16.6685ZM74.7691 16.4501C74.2842 16.3125 73.8637 16.1003 73.4978 15.8164L72.2718 17.3965C72.8498 17.845 73.5036 18.1699 74.2231 18.3741L74.7691 16.4501ZM73.5044 15.8216C73.1646 15.5533 72.8805 15.2041 72.6561 14.7554L70.8673 15.6499C71.2126 16.3405 71.6772 16.9272 72.2651 17.3913L73.5044 15.8216ZM72.6587 14.7605C72.4565 14.3503 72.3345 13.8173 72.3345 13.1274H70.3345C70.3345 14.0489 70.4973 14.8994 70.8648 15.6448L72.6587 14.7605ZM72.3345 13.1274V10.271H70.3345V13.1274H72.3345ZM72.3345 10.271C72.3345 9.56889 72.4165 9.02739 72.5517 8.62189L70.6543 7.98944C70.4314 8.65815 70.3345 9.42688 70.3345 10.271H72.3345ZM72.5473 8.63474C72.7045 8.18372 72.8932 7.84547 73.0972 7.59613L71.5493 6.32965C71.1674 6.79646 70.8759 7.35339 70.6587 7.97659L72.5473 8.63474ZM73.0972 7.59613C73.3161 7.32858 73.5457 7.14154 73.7826 7.01517L72.8414 5.25046C72.346 5.51471 71.9163 5.88105 71.5493 6.32965L73.0972 7.59613ZM73.7977 7.00697C74.0964 6.841 74.3887 6.72353 74.6753 6.64877L74.1704 4.71354C73.7083 4.83409 73.26 5.01772 72.8264 5.25866L73.7977 7.00697ZM74.6753 6.64877C74.9997 6.56413 75.2933 6.51474 75.5578 6.49538L75.4119 4.50071C75.0091 4.53018 74.5947 4.60286 74.1704 4.71354L74.6753 6.64877ZM75.5561 6.49551C75.8828 6.47217 76.1507 6.46143 76.3638 6.46143V4.46143C76.0885 4.46143 75.7705 4.4751 75.4136 4.50059L75.5561 6.49551ZM76.3638 6.46143C77.0354 6.46143 77.5885 6.51835 78.0342 6.61966L78.4775 4.6694C77.849 4.52657 77.1408 4.46143 76.3638 4.46143V6.46143ZM78.0374 6.62037C78.5195 6.7283 78.9014 6.8654 79.1977 7.01973L80.1216 5.2459C79.6367 4.99333 79.0827 4.8049 78.4743 4.66869L78.0374 6.62037ZM79.1977 7.01973C79.5076 7.18111 79.7332 7.35311 79.8952 7.5255L81.3529 6.15614C81.0103 5.79142 80.593 5.49142 80.1216 5.2459L79.1977 7.01973ZM79.9169 7.54793C80.1107 7.74168 80.2471 7.93242 80.3399 8.11811L82.1288 7.22368C81.9287 6.82344 81.6582 6.46079 81.3311 6.13371L79.9169 7.54793ZM80.3399 8.11811C80.4498 8.3378 80.5199 8.5449 80.5579 8.74067L82.5212 8.35894C82.4453 7.96877 82.3119 7.58993 82.1288 7.22368L80.3399 8.11811ZM80.5634 8.76674C80.6155 9.00146 80.6372 9.20056 80.6372 9.36768H82.6372C82.6372 9.03024 82.5938 8.68408 82.5157 8.33287L80.5634 8.76674ZM80.6372 9.36768C80.6372 9.45875 80.6314 9.58166 80.6169 9.74101L82.6087 9.92208C82.6268 9.72335 82.6372 9.53702 82.6372 9.36768H80.6372ZM80.6173 9.73673C80.6178 9.73193 80.6185 9.72781 80.6193 9.7247C80.62 9.72161 80.6205 9.72042 80.6202 9.7213C80.6195 9.72294 80.6145 9.73542 80.5982 9.75857L82.2367 10.9055C82.434 10.6236 82.5732 10.2948 82.6083 9.92635L80.6173 9.73673ZM80.5922 9.76735C80.6051 9.74845 80.6101 9.7483 80.5921 9.76239C80.5736 9.77696 80.5359 9.80253 80.47 9.83431L81.3395 11.6354C81.6732 11.4743 82.0067 11.2417 82.2428 10.8967L80.5922 9.76735ZM80.47 9.83431C80.4299 9.85368 80.2701 9.90576 79.9038 9.90576V11.9058C80.4001 11.9058 80.9077 11.8439 81.3395 11.6354L80.47 9.83431ZM79.9038 9.90576C79.765 9.90576 79.5821 9.90207 79.3523 9.89415L79.2834 11.893C79.5256 11.9013 79.7334 11.9058 79.9038 11.9058V9.90576ZM79.3891 9.8961C79.2458 9.88586 79.1042 9.85777 78.9627 9.81059L78.3303 11.708C78.6282 11.8073 78.9342 11.8687 79.2466 11.891L79.3891 9.8961ZM78.9627 9.81059C78.8813 9.78346 78.8304 9.74874 78.7921 9.71037L77.3779 11.1246C77.6487 11.3955 77.9722 11.5886 78.3303 11.708L78.9627 9.81059ZM78.7921 9.71037C78.8082 9.72654 78.8223 9.74444 78.8336 9.76263C78.8447 9.78064 78.8511 9.79557 78.8543 9.80481C78.8605 9.82233 78.853 9.81199 78.853 9.7583H76.853C76.853 10.2248 76.9839 10.7306 77.3779 11.1246L78.7921 9.71037ZM78.853 9.7583C78.853 9.52139 78.8382 9.28891 78.8072 9.06166L76.8256 9.33189C76.8434 9.46272 76.853 9.60459 76.853 9.7583H78.853ZM78.8126 9.11015C78.7828 8.76643 78.6731 8.43018 78.4625 8.13181L76.8285 9.28518C76.826 9.28158 76.8236 9.27763 76.8216 9.27364C76.8195 9.26966 76.8183 9.26652 76.8176 9.26468C76.8162 9.26064 76.8186 9.26557 76.8202 9.28341L78.8126 9.11015ZM78.4625 8.13181C78.2249 7.79531 77.896 7.58274 77.5652 7.45043L76.8225 9.30738C76.8599 9.32236 76.8725 9.33207 76.8699 9.33013C76.8683 9.32899 76.8629 9.32488 76.8552 9.31718C76.8475 9.3094 76.8381 9.29877 76.8285 9.28518L78.4625 8.13181ZM77.6105 7.46984C77.2253 7.2933 76.782 7.24463 76.3638 7.24463V9.24463C76.5032 9.24463 76.6068 9.25349 76.6802 9.26537C76.7551 9.27749 76.7817 9.29006 76.7772 9.28797L77.6105 7.46984ZM76.3638 7.24463C75.9693 7.24463 75.5441 7.30626 75.1647 7.51322L76.1224 9.26901C76.1088 9.27642 76.1159 9.26959 76.1572 9.26119C76.1987 9.25274 76.2656 9.24463 76.3638 9.24463V7.24463ZM75.1474 7.52287C74.8518 7.69178 74.5892 7.92563 74.3996 8.23587L76.1062 9.27877C76.1023 9.28518 76.0995 9.28749 76.1017 9.28545C76.1043 9.28297 76.1152 9.27336 76.1397 9.25936L75.1474 7.52287ZM74.3996 8.23587C74.2435 8.4914 74.1382 8.77222 74.0931 9.07285L76.071 9.36953C76.0747 9.34464 76.0833 9.31621 76.1062 9.27877L74.3996 8.23587ZM74.0931 9.07285C74.0631 9.27255 74.0454 9.46983 74.0454 9.66064H76.0454C76.0454 9.59104 76.0521 9.49536 76.071 9.36953L74.0931 9.07285ZM74.0454 9.66064V13.4448H76.0454V9.66064H74.0454ZM88.1655 5.46143V6.46143H89.1655V5.46143H88.1655ZM88.2144 2.31201L87.2221 2.18798L87.2205 2.20023L87.2193 2.21251L88.2144 2.31201ZM88.4707 1.44531L89.3594 1.90399L89.3651 1.89253L88.4707 1.44531ZM89.0322 0.822754L89.5673 1.66757L89.5772 1.6613L89.5869 1.6548L89.0322 0.822754ZM90.9976 0.822754L90.4429 1.6548L90.4526 1.6613L90.4625 1.66757L90.9976 0.822754ZM91.5469 1.44531L90.6414 1.86975L90.6495 1.88701L90.6583 1.90396L91.5469 1.44531ZM91.791 2.31201L90.796 2.41152L90.7972 2.4238L90.7987 2.43605L91.791 2.31201ZM91.8521 5.46143H90.8521V6.46143H91.8521V5.46143ZM93.4878 5.49805L93.3732 6.49146L93.3921 6.49364L93.4111 6.4951L93.4878 5.49805ZM94.0493 5.66895L93.5348 6.52644L93.5439 6.53191L93.5532 6.53719L94.0493 5.66895ZM94.4521 6.1084L93.5577 6.55561L93.5651 6.57027L93.5729 6.58468L94.4521 6.1084ZM94.4521 7.71973L93.5729 7.24344L93.5651 7.25785L93.5577 7.27251L94.4521 7.71973ZM94.0493 8.15918L93.5532 7.29094L93.5439 7.29621L93.5348 7.30169L94.0493 8.15918ZM93.4878 8.35449L93.6024 9.3479L93.6212 9.34574L93.6399 9.34286L93.4878 8.35449ZM91.8521 8.39111V7.39111H90.8521V8.39111H91.8521ZM91.8643 13.1885L90.8652 13.2319L90.8662 13.2555L90.8684 13.279L91.8643 13.1885ZM91.9985 13.689L91.0948 14.1171L91.9985 13.689ZM92.3281 14.0796L91.7426 14.8903L91.7578 14.9012L91.7734 14.9116L92.3281 14.0796ZM93.6953 14.2993L93.4619 15.2717L93.4841 15.277L93.5065 15.2813L93.6953 14.2993ZM94.208 14.5312L93.5495 15.2838L93.5608 15.2937L93.5723 15.3032L94.208 14.5312ZM94.3789 16.6309L93.5424 16.0828L93.5357 16.0931L93.5293 16.1035L94.3789 16.6309ZM92.9019 17.5586L92.6874 16.5818L92.9019 17.5586ZM90.3628 17.4854L90.0754 18.4432L90.0806 18.4447L90.3628 17.4854ZM89.3374 16.9727L88.6904 17.7352L88.7028 17.7457L88.7155 17.7558L89.3374 16.9727ZM88.6904 16.167L87.7914 16.605L87.7983 16.619L87.8055 16.6327L88.6904 16.167ZM88.3364 15.105L87.3536 15.2893L87.3554 15.2991L87.3574 15.3089L88.3364 15.105ZM88.1899 13.8477L87.1906 13.8833L87.1909 13.8927L87.1914 13.9021L88.1899 13.8477ZM88.1655 8.39111H89.1655V7.39111H88.1655V8.39111ZM86.8472 8.35449L86.6892 9.34193L86.7108 9.34539L86.7325 9.3479L86.8472 8.35449ZM85.895 7.71973L85.0006 8.16694L85.0079 8.1816L85.0157 8.19601L85.895 7.71973ZM85.895 6.1084L85.0157 5.63212L85.0079 5.64653L85.0006 5.66118L85.895 6.1084ZM86.8472 5.49805L86.9269 6.49486L86.9444 6.49346L86.9618 6.49146L86.8472 5.49805ZM89.1655 5.46143V3.31299H87.1655V5.46143H89.1655ZM89.1655 3.31299C89.1655 3.00295 89.1803 2.70254 89.2094 2.41152L87.2193 2.21251C87.1833 2.57253 87.1655 2.93944 87.1655 3.31299H89.1655ZM89.2066 2.43605C89.235 2.20942 89.2908 2.03678 89.3593 1.90396L87.5821 0.98667C87.3902 1.35841 87.2751 1.76356 87.2221 2.18798L89.2066 2.43605ZM89.3651 1.89253C89.4146 1.79359 89.4781 1.72406 89.5673 1.66757L88.4972 -0.0220652C88.0981 0.230693 87.7872 0.576207 87.5763 0.998099L89.3651 1.89253ZM89.5869 1.6548C89.6118 1.63823 89.7249 1.57861 90.021 1.57861V-0.421387C89.487 -0.421387 88.9409 -0.318239 88.4775 -0.00929639L89.5869 1.6548ZM90.021 1.57861C90.3043 1.57861 90.4152 1.63636 90.4429 1.6548L91.5523 -0.00929639C91.0916 -0.31637 90.5515 -0.421387 90.021 -0.421387V1.57861ZM90.4625 1.66757C90.5465 1.72074 90.6006 1.78277 90.6414 1.86975L92.4523 1.02088C92.249 0.587024 91.9369 0.234008 91.5326 -0.0220652L90.4625 1.66757ZM90.6583 1.90396C90.7226 2.02859 90.7741 2.19247 90.796 2.41152L92.7861 2.21251C92.7429 1.78051 92.6316 1.36659 92.4355 0.98667L90.6583 1.90396ZM90.7987 2.43605C90.8341 2.71875 90.8521 3.01093 90.8521 3.31299H92.8521C92.8521 2.93145 92.8293 2.55632 92.7833 2.18798L90.7987 2.43605ZM90.8521 3.31299V5.46143H92.8521V3.31299H90.8521ZM91.8521 6.46143H92.853V4.46143H91.8521V6.46143ZM92.853 6.46143C93.0261 6.46143 93.1994 6.4714 93.3732 6.49146L93.6024 4.50464C93.353 4.47586 93.1032 4.46143 92.853 4.46143V6.46143ZM93.4111 6.4951C93.4864 6.50089 93.5202 6.51767 93.5348 6.52644L94.5638 4.81145C94.2529 4.62491 93.9124 4.52775 93.5645 4.50099L93.4111 6.4951ZM93.5532 6.53719C93.5512 6.53605 93.5486 6.53435 93.5459 6.53221C93.5433 6.53008 93.5416 6.5284 93.541 6.52778C93.5395 6.52613 93.5464 6.53293 93.5577 6.55561L95.3466 5.66118C95.1707 5.30936 94.9063 5.00688 94.5455 4.8007L93.5532 6.53719ZM93.5729 6.58468C93.5669 6.57371 93.5778 6.58957 93.5895 6.64983C93.6011 6.70967 93.6108 6.79957 93.6108 6.92627H95.6108C95.6108 6.49645 95.5494 6.03442 95.3314 5.63212L93.5729 6.58468ZM93.6108 6.92627C93.6108 7.04205 93.6015 7.12415 93.5906 7.17876C93.5797 7.23329 93.5693 7.25004 93.5729 7.24344L95.3314 8.19601C95.5464 7.79917 95.6108 7.34939 95.6108 6.92627H93.6108ZM93.5577 7.27251C93.5464 7.29519 93.5395 7.302 93.541 7.30035C93.5416 7.29973 93.5433 7.29804 93.5459 7.29591C93.5486 7.29378 93.5512 7.29208 93.5532 7.29094L94.5455 9.02742C94.9063 8.82125 95.1707 8.51876 95.3466 8.16694L93.5577 7.27251ZM93.5348 7.30169C93.4966 7.32463 93.4355 7.35077 93.3357 7.36612L93.6399 9.34286C93.9633 9.29311 94.2765 9.18904 94.5638 9.01667L93.5348 7.30169ZM93.3732 7.36108C93.1994 7.38114 93.0261 7.39111 92.853 7.39111V9.39111C93.1032 9.39111 93.353 9.37668 93.6024 9.3479L93.3732 7.36108ZM92.853 7.39111H91.8521V9.39111H92.853V7.39111ZM90.8521 8.39111V12.6636H92.8521V8.39111H90.8521ZM90.8521 12.6636C90.8521 12.8428 90.8565 13.0324 90.8652 13.2319L92.8633 13.145C92.8557 12.9702 92.8521 12.8099 92.8521 12.6636H90.8521ZM90.8684 13.279C90.8947 13.5691 90.9687 13.8509 91.0948 14.1171L92.9023 13.2609C92.8819 13.2178 92.8663 13.1659 92.8602 13.0979L90.8684 13.279ZM91.0948 14.1171C91.2443 14.4326 91.4675 14.6915 91.7426 14.8903L92.9136 13.2689C92.9025 13.2609 92.8994 13.2568 92.9002 13.2577C92.9004 13.258 92.9009 13.2586 92.9015 13.2596C92.9021 13.2605 92.9024 13.2611 92.9023 13.2609L91.0948 14.1171ZM91.7734 14.9116C92.1495 15.1623 92.5814 15.2261 92.9507 15.2261V13.2261C92.8746 13.2261 92.8349 13.2189 92.8227 13.216C92.8113 13.2133 92.8383 13.2179 92.8828 13.2475L91.7734 14.9116ZM92.9507 15.2261C93.1937 15.2261 93.3585 15.2469 93.4619 15.2717L93.9287 13.3269C93.6252 13.2541 93.2936 13.2261 92.9507 13.2261V15.2261ZM93.5065 15.2813C93.5464 15.289 93.5656 15.2969 93.57 15.2989C93.5735 15.3005 93.5642 15.2967 93.5495 15.2838L94.8665 13.7787C94.5738 13.5225 94.2276 13.3833 93.8842 13.3173L93.5065 15.2813ZM93.5723 15.3032C93.5652 15.2973 93.5592 15.2914 93.5544 15.286C93.5497 15.2806 93.5471 15.2768 93.5462 15.2754C93.5444 15.2726 93.5512 15.2823 93.5608 15.3121L95.4656 14.7025C95.3534 14.3518 95.1567 14.0171 94.8437 13.7593L93.5723 15.3032ZM93.5608 15.3121C93.583 15.3817 93.6108 15.5295 93.6108 15.7886H95.6108C95.6108 15.4129 95.5736 15.0399 95.4656 14.7025L93.5608 15.3121ZM93.6108 15.7886C93.6108 15.9501 93.5747 16.0336 93.5424 16.0828L95.2154 17.1789C95.4924 16.7561 95.6108 16.2781 95.6108 15.7886H93.6108ZM93.5293 16.1035C93.4703 16.1985 93.3865 16.2856 93.2582 16.3642L94.3033 18.0694C94.6796 17.8388 94.9945 17.5352 95.2285 17.1582L93.5293 16.1035ZM93.2582 16.3642C93.1144 16.4523 92.9287 16.5289 92.6874 16.5818L93.1163 18.5353C93.5423 18.4418 93.9425 18.2905 94.3033 18.0694L93.2582 16.3642ZM92.6874 16.5818C92.4291 16.6386 92.1513 16.6685 91.8521 16.6685V18.6685C92.2852 18.6685 92.7073 18.6251 93.1163 18.5353L92.6874 16.5818ZM91.8521 16.6685C91.3399 16.6685 90.9436 16.6138 90.645 16.526L90.0806 18.4447C90.6121 18.601 91.2086 18.6685 91.8521 18.6685V16.6685ZM90.6501 16.5275C90.3408 16.4347 90.1187 16.3161 89.9593 16.1895L88.7155 17.7558C89.1095 18.0687 89.571 18.2918 90.0754 18.4432L90.6501 16.5275ZM89.9844 16.2101C89.8126 16.0644 89.678 15.8964 89.5753 15.7012L87.8055 16.6327C88.0283 17.0561 88.3251 17.4252 88.6904 17.7352L89.9844 16.2101ZM89.5894 15.729C89.4754 15.495 89.3821 15.221 89.3154 14.901L87.3574 15.3089C87.4536 15.7702 87.5962 16.2043 87.7914 16.605L89.5894 15.729ZM89.3193 14.9207C89.255 14.578 89.2108 14.2026 89.1885 13.7932L87.1914 13.9021C87.2179 14.3879 87.2713 14.8507 87.3536 15.2893L89.3193 14.9207ZM89.1893 13.812C89.1735 13.3691 89.1655 12.905 89.1655 12.4194H87.1655C87.1655 12.9267 87.1738 13.4147 87.1906 13.8833L89.1893 13.812ZM89.1655 12.4194V8.39111H87.1655V12.4194H89.1655ZM88.1655 7.39111H87.4819V9.39111H88.1655V7.39111ZM87.4819 7.39111C87.3089 7.39111 87.1356 7.38114 86.9618 7.36108L86.7325 9.3479C86.9819 9.37668 87.2318 9.39111 87.4819 9.39111V7.39111ZM87.0052 7.36705C86.9169 7.35293 86.8566 7.32825 86.8123 7.30169L85.7834 9.01667C86.0646 9.18542 86.3705 9.29095 86.6892 9.34193L87.0052 7.36705ZM86.8123 7.30169C86.8174 7.30469 86.8174 7.30594 86.8122 7.30035C86.8065 7.29412 86.7927 7.27738 86.7743 7.24344L85.0157 8.19601C85.1921 8.52166 85.4426 8.81224 85.7834 9.01667L86.8123 7.30169ZM86.7894 7.27251C86.791 7.27557 86.7797 7.25374 86.7685 7.19333C86.7574 7.13322 86.7485 7.04607 86.7485 6.92627H84.7485C84.7485 7.34067 84.8065 7.77873 85.0006 8.16694L86.7894 7.27251ZM86.7485 6.92627C86.7485 6.79577 86.7578 6.70094 86.7695 6.63565C86.7813 6.56952 86.7931 6.54839 86.7894 6.55561L85.0006 5.66118C84.8039 6.05449 84.7485 6.5045 84.7485 6.92627H86.7485ZM86.7743 6.58468C86.7927 6.55075 86.8065 6.534 86.8122 6.52778C86.8174 6.52218 86.8174 6.52343 86.8123 6.52644L85.7834 4.81145C85.4426 5.01589 85.1921 5.30646 85.0157 5.63212L86.7743 6.58468ZM86.8123 6.52644C86.8331 6.51401 86.8654 6.49979 86.9269 6.49486L86.7674 4.50123C86.4221 4.52886 86.0882 4.62857 85.7834 4.81145L86.8123 6.52644ZM86.9618 6.49146C87.1356 6.4714 87.3089 6.46143 87.4819 6.46143V4.46143C87.2318 4.46143 86.9819 4.47586 86.7325 4.50464L86.9618 6.49146ZM87.4819 6.46143H88.1655V4.46143H87.4819V6.46143ZM103.434 9.51416L102.846 10.3229L102.866 10.3379L102.888 10.3518L103.434 9.51416ZM104.069 9.88037L103.609 10.7687L103.622 10.7748L104.069 9.88037ZM104.826 10.2466L105.266 9.34852L105.258 9.34476L105.25 9.34112L104.826 10.2466ZM106.046 10.8813L105.565 11.7579L105.572 11.7616L105.578 11.7651L106.046 10.8813ZM107.182 11.6626L107.843 10.9122L107.182 11.6626ZM108.012 12.7124L107.128 13.1811L107.134 13.192L107.14 13.2027L108.012 12.7124ZM108.122 15.3979L107.19 15.0335L107.187 15.0424L107.184 15.0513L108.122 15.3979ZM107.56 16.3745L108.311 17.0346L108.316 17.0291L108.321 17.0235L107.56 16.3745ZM106.73 17.0459L106.239 16.1749L106.229 16.1805L106.73 17.0459ZM105.741 17.4731L105.452 16.5159L105.446 16.5179L105.741 17.4731ZM104.691 17.6929L104.578 16.6993L104.567 16.7005L104.556 16.702L104.691 17.6929ZM100.846 17.1924L100.373 18.0735L100.382 18.0781L100.39 18.0824L100.846 17.1924ZM100.016 16.5942L99.2833 17.2747L99.2959 17.2883L99.309 17.3013L100.016 16.5942ZM99.2593 15.166L98.2787 15.3621L98.28 15.3686L99.2593 15.166ZM99.5889 13.4204L98.9532 12.6485L98.9475 12.6531L98.9419 12.6579L99.5889 13.4204ZM102.262 14.4702L101.263 14.5035L101.263 14.5118L101.263 14.5202L102.262 14.4702ZM102.396 14.8608L101.628 15.501L101.643 15.5192L101.659 15.5366L102.396 14.8608ZM102.726 15.105L102.279 15.9994L102.312 16.0157L102.345 16.0297L102.726 15.105ZM103.178 15.2271L103.029 16.216L103.054 16.2196L103.078 16.2221L103.178 15.2271ZM104.423 15.0073L105.063 15.7756L105.066 15.773L104.423 15.0073ZM104.521 13.7134L103.678 14.2524L103.691 14.2722L103.704 14.2914L104.521 13.7134ZM103.239 12.6636L102.732 13.5255L102.747 13.5342L102.762 13.5424L103.239 12.6636ZM102.384 12.1753L102.87 11.3011L102.862 11.297L102.855 11.2929L102.384 12.1753ZM101.273 11.5527L100.759 12.4103L100.767 12.4152L101.273 11.5527ZM99.54 9.91699L98.6629 10.3973L98.6679 10.4062L99.54 9.91699ZM99.5645 7.17041L98.6666 6.72997L98.6632 6.73712L99.5645 7.17041ZM100.48 6.13281L101.027 6.97008L101.033 6.96621L101.039 6.96225L100.48 6.13281ZM101.933 5.55908L101.739 4.57797L101.737 4.5785L101.933 5.55908ZM103.898 5.36377V4.36377H103.887L103.876 4.36402L103.898 5.36377ZM105.766 5.53467L105.523 6.50482L105.527 6.5058L105.766 5.53467ZM106.913 5.98633L106.385 6.83561L106.398 6.84389L106.412 6.85175L106.913 5.98633ZM107.633 6.59668L106.833 7.19668L106.84 7.20567L106.847 7.2145L107.633 6.59668ZM108.024 7.29248L107.079 7.61847L107.085 7.63846L107.093 7.65813L108.024 7.29248ZM108.183 7.95166L107.186 8.02836L107.187 8.04736L107.189 8.06628L108.183 7.95166ZM108.061 9.09912L107.222 8.55409L107.215 8.56513L108.061 9.09912ZM107.658 9.47754L108.14 10.3538L108.147 10.3498L108.154 10.3458L107.658 9.47754ZM107.096 9.67285L107.248 10.6612L107.267 10.6584L107.285 10.6549L107.096 9.67285ZM106.437 9.73389V10.7339H106.455L106.473 10.7332L106.437 9.73389ZM105.9 9.63623L105.512 10.5579L105.52 10.5614L105.529 10.5647L105.9 9.63623ZM105.229 9.0625L104.322 9.48539L104.334 9.50955L104.346 9.53309L105.229 9.0625ZM105.143 8.7085H106.143V8.6822L106.142 8.65594L105.143 8.7085ZM104.765 8.00049L104.183 8.81422L104.19 8.81902L104.197 8.8237L104.765 8.00049ZM103.52 7.80518L103.716 8.78576L103.739 8.78109L103.762 8.77532L103.52 7.80518ZM103.178 7.95166L103.732 8.78371L103.74 8.77885L103.747 8.77385L103.178 7.95166ZM102.934 8.22021L102.065 7.72408L102.052 7.74818L102.039 7.773L102.934 8.22021ZM101.848 8.65967C101.848 9.05785 101.983 9.41904 102.212 9.71878L103.801 8.50388C103.806 8.51067 103.82 8.53054 103.831 8.56317C103.843 8.59654 103.848 8.63044 103.848 8.65967H101.848ZM102.212 9.71878C102.39 9.95131 102.609 10.1505 102.846 10.3229L104.022 8.70542C103.901 8.61741 103.835 8.54804 103.801 8.50388L102.212 9.71878ZM102.888 10.3518C103.108 10.4952 103.349 10.6339 103.609 10.7686L104.528 8.99215C104.317 8.88271 104.135 8.77727 103.98 8.67655L102.888 10.3518ZM103.622 10.7748C103.874 10.9008 104.134 11.0266 104.401 11.152L105.25 9.34112C104.997 9.22244 104.752 9.10405 104.516 8.98594L103.622 10.7748ZM104.386 11.1446C104.77 11.3327 105.163 11.5371 105.565 11.7579L106.528 10.0048C106.1 9.76991 105.679 9.5511 105.266 9.34852L104.386 11.1446ZM105.578 11.7651C105.926 11.9493 106.24 12.1653 106.521 12.413L107.843 10.9122C107.44 10.5576 106.997 10.2529 106.514 9.99756L105.578 11.7651ZM106.521 12.413C106.773 12.6351 106.974 12.8899 107.128 13.1811L108.895 12.2437C108.626 11.7374 108.274 11.2923 107.843 10.9122L106.521 12.413ZM107.14 13.2027C107.26 13.4165 107.341 13.7046 107.341 14.104H109.341C109.341 13.4292 109.202 12.7896 108.883 12.2221L107.14 13.2027ZM107.341 14.104C107.341 14.4936 107.283 14.7973 107.19 15.0335L109.053 15.7623C109.253 15.2499 109.341 14.691 109.341 14.104H107.341ZM107.184 15.0513C107.082 15.326 106.952 15.5467 106.799 15.7256L108.321 17.0235C108.64 16.6489 108.884 16.2186 109.06 15.7446L107.184 15.0513ZM106.809 15.7144C106.648 15.8969 106.46 16.05 106.239 16.1749L107.221 17.9169C107.635 17.6837 108 17.3892 108.311 17.0346L106.809 15.7144ZM106.229 16.1805C105.988 16.32 105.73 16.4319 105.452 16.5159L106.031 18.4304C106.453 18.3028 106.853 18.1299 107.231 17.9113L106.229 16.1805ZM105.446 16.5179C105.164 16.6051 104.875 16.6656 104.578 16.6993L104.804 18.6865C105.224 18.6388 105.635 18.5528 106.037 18.4284L105.446 16.5179ZM104.556 16.702C104.237 16.7456 103.945 16.7661 103.678 16.7661V18.7661C104.046 18.7661 104.43 18.7378 104.827 18.6837L104.556 16.702ZM103.678 16.7661C103.104 16.7661 102.637 16.7173 102.265 16.6325L101.82 18.5824C102.376 18.7091 102.999 18.7661 103.678 18.7661V16.7661ZM102.265 16.6325C101.861 16.5405 101.545 16.4268 101.302 16.3023L100.39 18.0824C100.815 18.2998 101.296 18.4628 101.82 18.5824L102.265 16.6325ZM101.319 16.3112C101.053 16.1687 100.861 16.0245 100.723 15.8871L99.309 17.3013C99.6111 17.6034 99.9716 17.858 100.373 18.0735L101.319 16.3112ZM100.749 15.9138C100.593 15.7461 100.484 15.5873 100.41 15.439L98.6212 16.3334C98.7912 16.6735 99.0159 16.9867 99.2833 17.2747L100.749 15.9138ZM100.41 15.439C100.322 15.2623 100.268 15.1042 100.239 14.9634L98.28 15.3686C98.3485 15.6998 98.4654 16.0219 98.6212 16.3334L100.41 15.439ZM100.24 14.9699C100.201 14.7766 100.186 14.6195 100.186 14.4946H98.186C98.186 14.7766 98.2197 15.0672 98.2787 15.3621L100.24 14.9699ZM100.186 14.4946C100.186 14.3387 100.208 14.2515 100.223 14.211C100.236 14.1774 100.242 14.1773 100.236 14.1829L98.9419 12.6579C98.3724 13.1411 98.186 13.8314 98.186 14.4946H100.186ZM100.225 14.1923C100.245 14.1752 100.392 14.0786 100.846 14.0786V12.0786C100.177 12.0786 99.4857 12.2099 98.9532 12.6485L100.225 14.1923ZM100.846 14.0786C101.065 14.0786 101.156 14.1333 101.202 14.1725L102.492 12.6439C102.018 12.2437 101.441 12.0786 100.846 12.0786V14.0786ZM101.202 14.1725C101.191 14.1629 101.199 14.1625 101.215 14.2025C101.233 14.2487 101.257 14.342 101.263 14.5035L103.262 14.4369C103.24 13.7912 103.049 13.1139 102.492 12.6439L101.202 14.1725ZM101.263 14.5202C101.279 14.838 101.373 15.195 101.628 15.501L103.165 14.2207C103.257 14.3313 103.261 14.428 103.261 14.4203L101.263 14.5202ZM101.659 15.5366C101.839 15.7327 102.05 15.8851 102.279 15.9994L103.173 14.2106C103.157 14.2023 103.147 14.1956 103.141 14.1916C103.136 14.1876 103.134 14.1854 103.134 14.1851L101.659 15.5366ZM102.345 16.0297C102.565 16.1202 102.795 16.1808 103.029 16.216L103.326 14.2381C103.235 14.2245 103.164 14.2037 103.107 14.1803L102.345 16.0297ZM103.078 16.2221C103.272 16.2415 103.464 16.2515 103.654 16.2515V14.2515C103.534 14.2515 103.409 14.2452 103.277 14.232L103.078 16.2221ZM103.654 16.2515C104.145 16.2515 104.647 16.1223 105.063 15.7755L103.783 14.2391C103.79 14.2328 103.793 14.2335 103.782 14.2373C103.767 14.2419 103.728 14.2515 103.654 14.2515V16.2515ZM105.066 15.773C105.498 15.4098 105.728 14.9084 105.728 14.3481H103.728C103.728 14.3533 103.728 14.3298 103.744 14.2942C103.761 14.2584 103.78 14.2413 103.78 14.2416L105.066 15.773ZM105.728 14.3481C105.728 13.9024 105.588 13.4906 105.337 13.1354L103.704 14.2914C103.72 14.3133 103.724 14.3257 103.726 14.3293C103.727 14.3324 103.728 14.3372 103.728 14.3481H105.728ZM105.363 13.1743C105.163 12.8617 104.906 12.5928 104.61 12.3625L103.382 13.9412C103.525 14.0527 103.618 14.1582 103.678 14.2524L105.363 13.1743ZM104.61 12.3625C104.34 12.1532 104.041 11.9613 103.716 11.7847L102.762 13.5424C103.006 13.6751 103.211 13.8087 103.382 13.9412L104.61 12.3625ZM103.746 11.8016C103.462 11.6345 103.17 11.4677 102.87 11.3011L101.899 13.0495C102.185 13.2084 102.462 13.3671 102.732 13.5255L103.746 11.8016ZM102.855 11.2929C102.501 11.1043 102.143 10.9035 101.78 10.6903L100.767 12.4152C101.153 12.6415 101.535 12.8556 101.914 13.0576L102.855 11.2929ZM101.788 10.6952C101.472 10.5059 101.19 10.2985 100.938 10.074L99.6068 11.5666C99.9574 11.8792 100.342 12.1601 100.759 12.4102L101.788 10.6952ZM100.938 10.074C100.715 9.87507 100.542 9.65971 100.412 9.42774L98.6679 10.4062C98.9121 10.8416 99.2277 11.2284 99.6068 11.5666L100.938 10.074ZM100.417 9.43668C100.319 9.25739 100.259 9.03906 100.259 8.75732H98.2593C98.2593 9.33822 98.3868 9.893 98.6629 10.3973L100.417 9.43668ZM100.259 8.75732C100.259 8.22248 100.346 7.85283 100.466 7.6037L98.6632 6.73712C98.3761 7.33435 98.2593 8.02264 98.2593 8.75732H100.259ZM100.462 7.61084C100.595 7.33947 100.78 7.13128 101.027 6.97008L99.9332 5.29554C99.3825 5.65518 98.9567 6.13872 98.6667 6.72999L100.462 7.61084ZM101.039 6.96225C101.307 6.78121 101.662 6.63294 102.129 6.53966L101.737 4.5785C101.064 4.71308 100.45 4.9473 99.9214 5.30338L101.039 6.96225ZM102.126 6.54019C102.636 6.43969 103.232 6.37882 103.92 6.36352L103.876 4.36402C103.099 4.38128 102.385 4.45061 101.739 4.57797L102.126 6.54019ZM103.898 6.36377H104.093V4.36377H103.898V6.36377ZM104.093 6.36377C104.701 6.36377 105.171 6.41687 105.523 6.50481L106.008 4.56453C105.448 4.4246 104.804 4.36377 104.093 4.36377V6.36377ZM105.527 6.5058C105.922 6.60275 106.198 6.71956 106.385 6.83561L107.441 5.13704C107.025 4.87874 106.537 4.69445 106.004 4.56353L105.527 6.5058ZM106.412 6.85175C106.633 6.97993 106.761 7.10017 106.833 7.19668L108.433 5.99668C108.164 5.63746 107.811 5.3508 107.414 5.1209L106.412 6.85175ZM106.847 7.2145C106.968 7.36847 107.039 7.50337 107.079 7.61847L108.969 6.96649C108.846 6.60958 108.657 6.28062 108.42 5.97886L106.847 7.2145ZM107.093 7.65813C107.152 7.8074 107.178 7.92971 107.186 8.02836L109.18 7.87496C109.155 7.55044 109.075 7.23329 108.955 6.92683L107.093 7.65813ZM107.189 8.06628C107.211 8.25524 107.219 8.39348 107.219 8.48877H109.219C109.219 8.29109 109.203 8.07126 109.176 7.83704L107.189 8.06628ZM107.219 8.48877C107.219 8.53925 107.214 8.56523 107.212 8.57283C107.21 8.57907 107.212 8.57012 107.222 8.55413L108.899 9.64411C109.134 9.28196 109.219 8.87667 109.219 8.48877H107.219ZM107.215 8.56513C107.211 8.571 107.202 8.58645 107.162 8.6093L108.154 10.3458C108.456 10.1733 108.714 9.93649 108.906 9.63311L107.215 8.56513ZM107.176 8.60132C107.118 8.63317 107.032 8.6668 106.907 8.69085L107.285 10.6549C107.583 10.5975 107.872 10.5009 108.14 10.3538L107.176 8.60132ZM106.944 8.68448C106.773 8.71073 106.593 8.72769 106.401 8.73452L106.473 10.7332C106.737 10.7238 106.996 10.7001 107.248 10.6612L106.944 8.68448ZM106.437 8.73389C106.354 8.73389 106.303 8.72051 106.271 8.70775L105.529 10.5647C105.822 10.6822 106.129 10.7339 106.437 10.7339V8.73389ZM106.288 8.7146C106.218 8.685 106.174 8.65565 106.148 8.63283L104.846 10.1513C105.048 10.3238 105.273 10.4573 105.512 10.5579L106.288 8.7146ZM106.148 8.63283C106.12 8.60927 106.113 8.59522 106.111 8.59191L104.346 9.53309C104.475 9.77392 104.646 9.9796 104.846 10.1513L106.148 8.63283ZM106.135 8.63961C106.128 8.62606 106.143 8.65205 106.143 8.7085H104.143C104.143 8.99281 104.215 9.2548 104.322 9.48539L106.135 8.63961ZM106.142 8.65594C106.111 8.06556 105.847 7.53186 105.332 7.17728L104.197 8.8237C104.197 8.82378 104.195 8.82263 104.192 8.82004C104.189 8.81743 104.185 8.81364 104.181 8.80859C104.171 8.79794 104.162 8.78495 104.154 8.77094C104.138 8.74074 104.143 8.72996 104.144 8.76105L106.142 8.65594ZM105.346 7.18675C104.918 6.88106 104.424 6.75635 103.922 6.75635V8.75635C104.089 8.75635 104.156 8.79439 104.183 8.81422L105.346 7.18675ZM103.922 6.75635C103.705 6.75635 103.489 6.78205 103.277 6.83503L103.762 8.77532C103.811 8.7632 103.863 8.75635 103.922 8.75635V6.75635ZM103.323 6.8246C103.063 6.87669 102.823 6.98119 102.609 7.12947L103.747 8.77385C103.747 8.77378 103.746 8.77441 103.744 8.77546C103.742 8.77652 103.74 8.77785 103.736 8.77925C103.73 8.78223 103.722 8.78445 103.716 8.78576L103.323 6.8246ZM102.623 7.11961C102.382 7.28055 102.198 7.49144 102.065 7.72408L103.802 8.71635C103.801 8.71744 103.796 8.72674 103.783 8.7403C103.771 8.75417 103.754 8.76953 103.732 8.78371L102.623 7.11961ZM102.039 7.773C101.89 8.07041 101.848 8.38445 101.848 8.65967H103.848C103.848 8.64128 103.849 8.62777 103.85 8.61866C103.85 8.60954 103.851 8.60569 103.851 8.6064C103.851 8.60734 103.846 8.63082 103.828 8.66743L102.039 7.773Z" fill="#773838"/>
</g>
<defs>
<filter id="filter0_bd_3_1668" x="0.48877" y="-3.4458" width="111.853" height="33.9971" filterUnits="userSpaceOnUse" color-interpolation-filters="sRGB">
<feFlood flood-opacity="0" result="BackgroundImageFix"/>
<feGaussianBlur in="BackgroundImage" stdDeviation="2"/>
<feComposite in2="SourceAlpha" operator="in" result="effect1_backgroundBlur_3_1668"/>
<feColorMatrix in="SourceAlpha" type="matrix" values="0 0 0 0 0 0 0 0 0 0 0 0 0 0 0 0 0 0 127 0" result="hardAlpha"/>
<feOffset dy="4"/>
<feGaussianBlur stdDeviation="2"/>
<feComposite in2="hardAlpha" operator="out"/>
<feColorMatrix type="matrix" values="0 0 0 0 0 0 0 0 0 0 0 0 0 0 0 0 0 0 0.25 0"/>
<feBlend mode="normal" in2="effect1_backgroundBlur_3_1668" result="effect2_dropShadow_3_1668"/>
<feBlend mode="normal" in="SourceGraphic" in2="effect2_dropShadow_3_1668" result="shape"/>
</filter>
</defs>
</svg>
