<svg width="149" height="19" viewBox="0 0 149 19" fill="none" xmlns="http://www.w3.org/2000/svg">
<g filter="url(#filter0_b_3_1664)">
<path d="M3.82129 5.24414C3.82943 5.58594 3.92708 5.89518 4.11426 6.17188C4.30957 6.44043 4.56185 6.69678 4.87109 6.94092C5.18848 7.18506 5.54655 7.42513 5.94531 7.66113C6.34408 7.889 6.75098 8.13314 7.16602 8.39355C7.58919 8.64583 8.00016 8.92253 8.39893 9.22363C8.79769 9.52474 9.15576 9.86654 9.47314 10.249C9.79053 10.6315 10.0469 11.0628 10.2422 11.543C10.4375 12.0231 10.5433 12.5684 10.5596 13.1787V13.2764C10.5596 13.9437 10.4782 14.5256 10.3154 15.022C10.1527 15.5184 9.93701 15.9456 9.66846 16.3037C9.3999 16.6618 9.08659 16.9588 8.72852 17.1948C8.37044 17.4227 7.99202 17.6058 7.59326 17.7441C7.20264 17.8825 6.80387 17.9801 6.39697 18.0371C5.99821 18.0941 5.61979 18.1266 5.26172 18.1348H5.13965C4.44792 18.1348 3.84163 18.0656 3.3208 17.9272C2.79997 17.7889 2.35238 17.6058 1.97803 17.3779C1.60368 17.1419 1.29036 16.8734 1.03809 16.5723C0.793945 16.2712 0.598633 15.9619 0.452148 15.6445C0.305664 15.319 0.19987 14.9976 0.134766 14.6802C0.0696615 14.3628 0.0371094 14.0658 0.0371094 13.7891C0.0371094 13.5042 0.0859375 13.256 0.183594 13.0444C0.28125 12.8328 0.407389 12.6619 0.562012 12.5317C0.724772 12.3934 0.907878 12.2917 1.11133 12.2266C1.32292 12.1615 1.54264 12.1289 1.77051 12.1289C1.9821 12.1289 2.19775 12.1615 2.41748 12.2266C2.64535 12.2917 2.8488 12.3934 3.02783 12.5317C3.21501 12.6619 3.36556 12.8328 3.47949 13.0444C3.60156 13.2479 3.66667 13.488 3.6748 13.7646C3.69108 14.375 3.82943 14.7941 4.08984 15.022C4.35026 15.2417 4.72461 15.3516 5.21289 15.3516C5.45703 15.3434 5.68083 15.3149 5.88428 15.2661C6.09587 15.2091 6.2749 15.1156 6.42139 14.9854C6.56787 14.847 6.6818 14.668 6.76318 14.4482C6.8527 14.2204 6.89746 13.9355 6.89746 13.5938C6.89746 13.1706 6.7998 12.7881 6.60449 12.4463C6.41732 12.1045 6.16911 11.7871 5.85986 11.4941C5.55062 11.2012 5.19661 10.9245 4.79785 10.6641C4.39909 10.3955 3.99219 10.131 3.57715 9.87061C3.16211 9.60205 2.75521 9.32536 2.35645 9.04053C1.96582 8.74756 1.61182 8.43018 1.29443 8.08838C0.977051 7.74658 0.720703 7.36816 0.525391 6.95312C0.338216 6.53809 0.24056 6.06608 0.232422 5.53711V5.3418C0.24056 4.47103 0.354492 3.74674 0.574219 3.16895C0.802083 2.59115 1.13167 2.13135 1.56299 1.78955C2.00244 1.44775 2.53955 1.20768 3.17432 1.06934C3.80908 0.922852 4.53743 0.849609 5.35938 0.849609H5.67676C6.42546 0.849609 7.06022 0.93099 7.58105 1.09375C8.10189 1.25651 8.5332 1.46403 8.875 1.71631C9.22493 1.96859 9.49756 2.25342 9.69287 2.5708C9.89632 2.88818 10.0469 3.2015 10.1445 3.51074C10.2422 3.81999 10.3032 4.10889 10.3276 4.37744C10.3521 4.646 10.3643 4.86165 10.3643 5.02441C10.3643 5.26855 10.3154 5.49235 10.2178 5.6958C10.1283 5.89111 10.0021 6.05794 9.83936 6.19629C9.68473 6.33464 9.49756 6.4445 9.27783 6.52588C9.06624 6.59912 8.83431 6.63574 8.58203 6.63574C8.38672 6.63574 8.19141 6.59912 7.99609 6.52588C7.80078 6.4445 7.62581 6.34277 7.47119 6.2207C7.31657 6.09863 7.19043 5.96029 7.09277 5.80566C6.99512 5.6429 6.94629 5.48014 6.94629 5.31738C6.94629 4.65007 6.82422 4.1862 6.58008 3.92578C6.34408 3.66536 5.99414 3.53516 5.53027 3.53516C5.31055 3.53516 5.09489 3.54736 4.8833 3.57178C4.67985 3.59619 4.49674 3.66536 4.33398 3.7793C4.17936 3.88509 4.05322 4.05192 3.95557 4.27979C3.86605 4.50765 3.82129 4.8291 3.82129 5.24414ZM18.5771 13.8135C18.5771 13.9437 18.5894 14.1105 18.6138 14.314C18.6382 14.5093 18.6951 14.7046 18.7847 14.8999C18.8742 15.0871 19.0044 15.2498 19.1753 15.3882C19.3543 15.5265 19.5944 15.5957 19.8955 15.5957C20.2536 15.5957 20.5343 15.555 20.7378 15.4736C20.9412 15.3923 21.0918 15.2824 21.1895 15.144C21.2871 14.9976 21.3481 14.8307 21.3726 14.6436C21.397 14.4482 21.4092 14.2448 21.4092 14.0332C21.4092 13.9274 21.4255 13.8094 21.458 13.6792C21.4987 13.5409 21.5882 13.4147 21.7266 13.3008C21.8649 13.1787 22.0684 13.0811 22.3369 13.0078C22.6136 12.9264 22.988 12.8857 23.46 12.8857C23.8913 12.8857 24.2249 12.9346 24.4609 13.0322C24.6969 13.1299 24.8678 13.2479 24.9736 13.3862C25.0876 13.5164 25.1527 13.6548 25.1689 13.8013C25.1852 13.9396 25.1934 14.0495 25.1934 14.1309C25.1934 14.6517 25.112 15.1115 24.9492 15.5103C24.7946 15.9009 24.583 16.2427 24.3145 16.5356C24.0459 16.8205 23.7367 17.0605 23.3867 17.2559C23.0368 17.4512 22.6624 17.6058 22.2637 17.7197C21.873 17.8337 21.4743 17.915 21.0674 17.9639C20.6605 18.0127 20.2699 18.0371 19.8955 18.0371C19.2526 18.0371 18.63 17.9517 18.0278 17.7808C17.4256 17.6099 16.8885 17.3413 16.4165 16.9751C15.9526 16.6089 15.5783 16.141 15.2935 15.5713C15.0086 14.9935 14.8662 14.3018 14.8662 13.4961V10.6396C14.8662 9.86654 14.9557 9.21143 15.1348 8.67432C15.3219 8.13721 15.562 7.68962 15.855 7.33154C16.1479 6.97347 16.4775 6.69678 16.8438 6.50146C17.21 6.29801 17.5802 6.14746 17.9546 6.0498C18.3289 5.95215 18.6829 5.89111 19.0166 5.8667C19.3584 5.84229 19.6514 5.83008 19.8955 5.83008C20.6198 5.83008 21.2505 5.89111 21.7876 6.01318C22.3328 6.13525 22.8008 6.29801 23.1914 6.50146C23.582 6.70492 23.9035 6.94092 24.1558 7.20947C24.4162 7.46989 24.6196 7.74658 24.7661 8.03955C24.9126 8.33252 25.0143 8.62549 25.0713 8.91846C25.1364 9.21143 25.1689 9.48405 25.1689 9.73633C25.1689 9.86654 25.1608 10.0212 25.1445 10.2002C25.1283 10.3711 25.0632 10.5379 24.9492 10.7007C24.8434 10.8553 24.6725 10.9896 24.4365 11.1035C24.2005 11.2174 23.8669 11.2744 23.4355 11.2744C23.2809 11.2744 23.0856 11.2703 22.8496 11.2622C22.6217 11.2459 22.3979 11.2012 22.1782 11.1279C21.9585 11.0547 21.7713 10.9408 21.6167 10.7861C21.4621 10.6315 21.3848 10.4118 21.3848 10.127C21.3848 9.93164 21.3726 9.74447 21.3481 9.56543C21.3319 9.37826 21.2749 9.21549 21.1772 9.07715C21.0796 8.9388 20.929 8.82894 20.7256 8.74756C20.5303 8.65804 20.2536 8.61328 19.8955 8.61328C19.5944 8.61328 19.3543 8.66211 19.1753 8.75977C19.0044 8.85742 18.8742 8.97949 18.7847 9.12598C18.6951 9.27246 18.6382 9.42708 18.6138 9.58984C18.5894 9.7526 18.5771 9.89909 18.5771 10.0293V13.8135ZM37.9473 7.66113C37.9473 8.2959 37.7886 8.75977 37.4712 9.05273C37.1619 9.3457 36.7184 9.49219 36.1406 9.49219C36.0592 9.49219 35.9412 9.50033 35.7866 9.5166C35.6401 9.52474 35.4814 9.55729 35.3105 9.61426C35.1396 9.66309 34.9647 9.7404 34.7856 9.84619C34.6147 9.94385 34.4561 10.0822 34.3096 10.2612C34.1631 10.4321 34.0451 10.6519 33.9556 10.9204C33.866 11.189 33.8213 11.5104 33.8213 11.8848V15.376C33.8213 15.7096 33.8009 16.0352 33.7603 16.3525C33.7277 16.6699 33.6463 16.9548 33.5161 17.207C33.3859 17.4512 33.1987 17.6506 32.9546 17.8052C32.7104 17.9598 32.3809 18.0371 31.9658 18.0371C31.5589 18.0371 31.2375 17.9598 31.0015 17.8052C30.7655 17.6506 30.5824 17.4512 30.4521 17.207C30.3301 16.9548 30.2487 16.6699 30.208 16.3525C30.1755 16.0352 30.1592 15.7096 30.1592 15.376V8.54004C30.1592 8.19824 30.1755 7.86865 30.208 7.55127C30.2487 7.22575 30.3301 6.93685 30.4521 6.68457C30.5824 6.43229 30.7655 6.23291 31.0015 6.08643C31.2375 5.9318 31.5589 5.85449 31.9658 5.85449C32.3809 5.85449 32.6982 5.94808 32.918 6.13525C33.1458 6.31429 33.3127 6.55029 33.4185 6.84326C33.5243 7.12809 33.5853 7.44954 33.6016 7.80762C33.6178 8.15755 33.626 8.49935 33.626 8.83301H33.8213C33.9352 8.37728 34.0858 7.96631 34.2729 7.6001C34.4601 7.22575 34.6676 6.91243 34.8955 6.66016C35.1234 6.39974 35.3675 6.20036 35.6279 6.06201C35.8883 5.92367 36.1488 5.85449 36.4092 5.85449C36.7266 5.85449 36.9829 5.89111 37.1782 5.96436C37.3817 6.02946 37.5404 6.13525 37.6543 6.28174C37.7682 6.42822 37.8455 6.6154 37.8862 6.84326C37.9269 7.07113 37.9473 7.34375 37.9473 7.66113ZM41.668 10.4199C41.668 9.67122 41.7697 9.03646 41.9731 8.51562C42.1766 7.99479 42.437 7.55941 42.7544 7.20947C43.0799 6.85954 43.438 6.58691 43.8286 6.3916C44.2274 6.19629 44.618 6.0498 45.0005 5.95215C45.383 5.85449 45.737 5.79346 46.0625 5.76904C46.3962 5.74463 46.6566 5.73242 46.8438 5.73242C47.0309 5.73242 47.2873 5.74463 47.6128 5.76904C47.9383 5.79346 48.2842 5.85449 48.6504 5.95215C49.0247 6.0498 49.3991 6.19629 49.7734 6.3916C50.1559 6.58691 50.4977 6.85954 50.7988 7.20947C51.1081 7.55941 51.3604 7.99479 51.5557 8.51562C51.751 9.03646 51.8486 9.67122 51.8486 10.4199V13.4473C51.8486 14.196 51.751 14.8307 51.5557 15.3516C51.3604 15.8724 51.1081 16.3078 50.7988 16.6577C50.4977 17.0076 50.1559 17.2803 49.7734 17.4756C49.3991 17.6709 49.0247 17.8174 48.6504 17.915C48.2842 18.0127 47.9383 18.0737 47.6128 18.0981C47.2873 18.1226 47.0309 18.1348 46.8438 18.1348C46.6566 18.1348 46.3962 18.1226 46.0625 18.0981C45.737 18.0737 45.383 18.0127 45.0005 17.915C44.618 17.8174 44.2274 17.6709 43.8286 17.4756C43.438 17.2803 43.0799 17.0076 42.7544 16.6577C42.437 16.3078 42.1766 15.8724 41.9731 15.3516C41.7697 14.8307 41.668 14.196 41.668 13.4473V10.4199ZM45.4277 14.3018C45.4359 14.5378 45.4928 14.7453 45.5986 14.9243C45.6882 15.0871 45.8265 15.2336 46.0137 15.3638C46.209 15.4858 46.4857 15.5469 46.8438 15.5469C47.1855 15.5469 47.446 15.4858 47.625 15.3638C47.8122 15.2336 47.9505 15.0871 48.04 14.9243C48.1377 14.7453 48.1947 14.5378 48.2109 14.3018V9.88281C48.1947 9.63867 48.1377 9.41488 48.04 9.21143C47.9505 9.04867 47.8122 8.89811 47.625 8.75977C47.446 8.61328 47.1855 8.54004 46.8438 8.54004C46.4857 8.54004 46.209 8.61328 46.0137 8.75977C45.8265 8.89811 45.6882 9.04867 45.5986 9.21143C45.4928 9.41488 45.4359 9.63867 45.4277 9.88281V14.3018ZM57.0098 3.65723C57.0098 3.31543 57.026 2.98177 57.0586 2.65625C57.0993 2.33073 57.1847 2.04183 57.3149 1.78955C57.4451 1.53727 57.6323 1.33382 57.8765 1.1792C58.1206 1.02458 58.4502 0.947266 58.8652 0.947266C59.2884 0.947266 59.6221 1.02458 59.8662 1.1792C60.1104 1.33382 60.2935 1.53727 60.4155 1.78955C60.5457 2.04183 60.6271 2.33073 60.6597 2.65625C60.7004 2.98177 60.7207 3.31543 60.7207 3.65723V15.3027C60.7207 15.6445 60.7004 15.9823 60.6597 16.3159C60.6271 16.6414 60.5457 16.9344 60.4155 17.1948C60.2935 17.4471 60.1104 17.6506 59.8662 17.8052C59.6221 17.9598 59.2884 18.0371 58.8652 18.0371C58.4502 18.0371 58.1206 17.9598 57.8765 17.8052C57.6323 17.6506 57.4451 17.4471 57.3149 17.1948C57.1847 16.9344 57.0993 16.6414 57.0586 16.3159C57.026 15.9823 57.0098 15.6445 57.0098 15.3027V3.65723ZM66.6631 3.65723C66.6631 3.31543 66.6794 2.98177 66.7119 2.65625C66.7526 2.33073 66.8381 2.04183 66.9683 1.78955C67.0985 1.53727 67.2856 1.33382 67.5298 1.1792C67.7739 1.02458 68.1035 0.947266 68.5186 0.947266C68.9417 0.947266 69.2754 1.02458 69.5195 1.1792C69.7637 1.33382 69.9468 1.53727 70.0688 1.78955C70.1991 2.04183 70.2804 2.33073 70.313 2.65625C70.3537 2.98177 70.374 3.31543 70.374 3.65723V15.3027C70.374 15.6445 70.3537 15.9823 70.313 16.3159C70.2804 16.6414 70.1991 16.9344 70.0688 17.1948C69.9468 17.4471 69.7637 17.6506 69.5195 17.8052C69.2754 17.9598 68.9417 18.0371 68.5186 18.0371C68.1035 18.0371 67.7739 17.9598 67.5298 17.8052C67.2856 17.6506 67.0985 17.4471 66.9683 17.1948C66.8381 16.9344 66.7526 16.6414 66.7119 16.3159C66.6794 15.9823 66.6631 15.6445 66.6631 15.3027V3.65723ZM93.8799 0.947266C94.6204 0.947266 95.3081 1.04085 95.9429 1.22803C96.5858 1.4152 97.1432 1.69596 97.6152 2.07031C98.0954 2.43652 98.4697 2.89632 98.7383 3.44971C99.015 4.00309 99.1533 4.65007 99.1533 5.39062V12.959C99.1533 13.5938 99.0841 14.1553 98.9458 14.6436C98.8075 15.1237 98.6243 15.5428 98.3965 15.9009C98.1768 16.2508 97.9245 16.5519 97.6396 16.8042C97.3548 17.0483 97.0659 17.2477 96.7729 17.4023C96.0731 17.7767 95.2796 17.9883 94.3926 18.0371H90.3398C89.876 18.0371 89.5179 17.9598 89.2656 17.8052C89.0133 17.6424 88.8302 17.4308 88.7163 17.1704C88.6024 16.9019 88.5332 16.6007 88.5088 16.2671C88.4925 15.9334 88.4844 15.5876 88.4844 15.2295V3.73047C88.4844 3.38053 88.4925 3.03874 88.5088 2.70508C88.5332 2.37142 88.6024 2.07438 88.7163 1.81396C88.8302 1.55355 89.0133 1.34603 89.2656 1.19141C89.5179 1.02865 89.876 0.947266 90.3398 0.947266H93.8799ZM92.1953 3.80371V15.1318H93.7822C94.1322 15.1156 94.4455 15.0342 94.7222 14.8877C94.8361 14.8307 94.95 14.7534 95.064 14.6558C95.1779 14.5581 95.2796 14.4442 95.3691 14.314C95.4587 14.1756 95.5278 14.0129 95.5767 13.8257C95.6336 13.6385 95.6621 13.4229 95.6621 13.1787V5.97656C95.6621 5.70801 95.6336 5.47201 95.5767 5.26855C95.5278 5.05697 95.4587 4.87386 95.3691 4.71924C95.2796 4.56462 95.1779 4.43441 95.064 4.32861C94.95 4.22282 94.8361 4.13737 94.7222 4.07227C94.4455 3.91764 94.1322 3.82812 93.7822 3.80371H92.1953ZM103.655 10.4199C103.655 9.67122 103.757 9.03646 103.96 8.51562C104.164 7.99479 104.424 7.55941 104.742 7.20947C105.067 6.85954 105.425 6.58691 105.816 6.3916C106.215 6.19629 106.605 6.0498 106.988 5.95215C107.37 5.85449 107.724 5.79346 108.05 5.76904C108.383 5.74463 108.644 5.73242 108.831 5.73242C109.018 5.73242 109.275 5.74463 109.6 5.76904C109.926 5.79346 110.271 5.85449 110.638 5.95215C111.012 6.0498 111.386 6.19629 111.761 6.3916C112.143 6.58691 112.485 6.85954 112.786 7.20947C113.095 7.55941 113.348 7.99479 113.543 8.51562C113.738 9.03646 113.836 9.67122 113.836 10.4199V13.4473C113.836 14.196 113.738 14.8307 113.543 15.3516C113.348 15.8724 113.095 16.3078 112.786 16.6577C112.485 17.0076 112.143 17.2803 111.761 17.4756C111.386 17.6709 111.012 17.8174 110.638 17.915C110.271 18.0127 109.926 18.0737 109.6 18.0981C109.275 18.1226 109.018 18.1348 108.831 18.1348C108.644 18.1348 108.383 18.1226 108.05 18.0981C107.724 18.0737 107.37 18.0127 106.988 17.915C106.605 17.8174 106.215 17.6709 105.816 17.4756C105.425 17.2803 105.067 17.0076 104.742 16.6577C104.424 16.3078 104.164 15.8724 103.96 15.3516C103.757 14.8307 103.655 14.196 103.655 13.4473V10.4199ZM107.415 14.3018C107.423 14.5378 107.48 14.7453 107.586 14.9243C107.675 15.0871 107.814 15.2336 108.001 15.3638C108.196 15.4858 108.473 15.5469 108.831 15.5469C109.173 15.5469 109.433 15.4858 109.612 15.3638C109.799 15.2336 109.938 15.0871 110.027 14.9243C110.125 14.7453 110.182 14.5378 110.198 14.3018V9.88281C110.182 9.63867 110.125 9.41488 110.027 9.21143C109.938 9.04867 109.799 8.89811 109.612 8.75977C109.433 8.61328 109.173 8.54004 108.831 8.54004C108.473 8.54004 108.196 8.61328 108.001 8.75977C107.814 8.89811 107.675 9.04867 107.586 9.21143C107.48 9.41488 107.423 9.63867 107.415 9.88281V14.3018ZM125.833 7.24609C126.224 7.24609 126.569 7.37223 126.871 7.62451C127.18 7.86865 127.452 8.31217 127.688 8.95508L128.982 12.3975H129.178L130.545 7.6123C130.61 7.38444 130.691 7.16471 130.789 6.95312C130.895 6.74154 131.021 6.55436 131.167 6.3916C131.314 6.2207 131.489 6.08643 131.692 5.98877C131.896 5.88298 132.14 5.83008 132.425 5.83008C132.718 5.83008 132.966 5.88298 133.169 5.98877C133.373 6.09456 133.54 6.23291 133.67 6.40381C133.8 6.57471 133.894 6.77002 133.951 6.98975C134.008 7.20947 134.036 7.43327 134.036 7.66113C134.036 7.88086 134.004 8.09652 133.938 8.30811C133.882 8.51156 133.816 8.71908 133.743 8.93066L131.033 16.1328C130.846 16.613 130.675 16.9832 130.521 17.2437C130.374 17.4959 130.228 17.6831 130.081 17.8052C129.935 17.9191 129.788 17.9883 129.642 18.0127C129.495 18.029 129.34 18.0371 129.178 18.0371C128.999 18.0371 128.828 18.029 128.665 18.0127C128.51 17.9883 128.352 17.9191 128.189 17.8052C128.034 17.6831 127.876 17.4959 127.713 17.2437C127.55 16.9832 127.379 16.613 127.2 16.1328L125.931 11.7383H125.735L124.417 16.1328C124.238 16.613 124.071 16.9832 123.917 17.2437C123.77 17.4959 123.624 17.6831 123.477 17.8052C123.339 17.9191 123.196 17.9883 123.05 18.0127C122.903 18.029 122.749 18.0371 122.586 18.0371C122.407 18.0371 122.236 18.029 122.073 18.0127C121.919 17.9883 121.76 17.9191 121.597 17.8052C121.443 17.6831 121.284 17.4959 121.121 17.2437C120.958 16.9832 120.787 16.613 120.608 16.1328L117.874 8.93066C117.801 8.73535 117.732 8.52783 117.667 8.30811C117.61 8.08024 117.581 7.85645 117.581 7.63672C117.581 7.40072 117.61 7.17285 117.667 6.95312C117.732 6.7334 117.829 6.54215 117.959 6.37939C118.098 6.2085 118.277 6.07422 118.497 5.97656C118.716 5.87891 118.989 5.83008 119.314 5.83008C119.542 5.83008 119.746 5.88298 119.925 5.98877C120.112 6.08643 120.279 6.2207 120.425 6.3916C120.572 6.55436 120.698 6.74154 120.804 6.95312C120.91 7.16471 120.999 7.38444 121.072 7.6123L122.61 12.3975H122.806L123.929 8.95508C124.132 8.31217 124.401 7.86865 124.734 7.62451C125.076 7.37223 125.442 7.24609 125.833 7.24609ZM148.621 15.2539C148.621 15.6038 148.601 15.9456 148.56 16.2793C148.519 16.613 148.43 16.91 148.292 17.1704C148.161 17.4308 147.97 17.6424 147.718 17.8052C147.474 17.9598 147.14 18.0371 146.717 18.0371C146.302 18.0371 145.972 17.9598 145.728 17.8052C145.484 17.6424 145.297 17.4308 145.167 17.1704C145.036 16.91 144.951 16.613 144.91 16.2793C144.878 15.9456 144.861 15.6038 144.861 15.2539V10.4932C144.861 10.2653 144.849 10.0415 144.825 9.82178C144.808 9.60205 144.764 9.41081 144.69 9.24805C144.617 9.07715 144.507 8.94287 144.361 8.84521C144.222 8.73942 144.031 8.68652 143.787 8.68652C143.453 8.68652 143.185 8.79639 142.981 9.01611C142.778 9.23584 142.615 9.53695 142.493 9.91943C142.379 10.3019 142.302 10.7536 142.261 11.2744C142.221 11.7871 142.2 12.3405 142.2 12.9346V15.2539C142.2 15.6038 142.18 15.9456 142.139 16.2793C142.098 16.613 142.009 16.91 141.871 17.1704C141.74 17.4308 141.549 17.6424 141.297 17.8052C141.053 17.9598 140.719 18.0371 140.296 18.0371C139.881 18.0371 139.551 17.9598 139.307 17.8052C139.063 17.6424 138.876 17.4308 138.746 17.1704C138.615 16.91 138.53 16.613 138.489 16.2793C138.457 15.9456 138.44 15.6038 138.44 15.2539V8.58887C138.44 8.23893 138.453 7.9012 138.477 7.57568C138.501 7.24202 138.575 6.94906 138.697 6.69678C138.819 6.43636 139.002 6.22884 139.246 6.07422C139.498 5.91146 139.848 5.83008 140.296 5.83008C140.743 5.83008 141.093 5.90739 141.346 6.06201C141.598 6.2085 141.785 6.38753 141.907 6.59912C142.037 6.81071 142.119 7.03451 142.151 7.27051C142.184 7.50651 142.2 7.70996 142.2 7.88086C142.265 7.64486 142.367 7.40479 142.505 7.16064C142.644 6.9165 142.819 6.69678 143.03 6.50146C143.25 6.30615 143.51 6.14746 143.812 6.02539C144.113 5.89518 144.463 5.83008 144.861 5.83008C145.309 5.83008 145.757 5.90332 146.204 6.0498C146.652 6.19629 147.055 6.44043 147.413 6.78223C147.771 7.12402 148.06 7.57161 148.279 8.125C148.507 8.67839 148.621 9.36198 148.621 10.1758V15.2539Z" fill="white"/>
<path d="M3.82129 5.24414H2.82129V5.25604L2.82157 5.26794L3.82129 5.24414ZM4.11426 6.17188L3.28597 6.73218L3.29551 6.74628L3.30552 6.76005L4.11426 6.17188ZM4.87109 6.94092L4.2514 7.72586L4.26138 7.73354L4.87109 6.94092ZM5.94531 7.66113L5.43599 8.52171L5.44255 8.52559L5.44917 8.52938L5.94531 7.66113ZM7.16602 8.39355L6.63452 9.24062L6.64417 9.24667L6.65395 9.2525L7.16602 8.39355ZM9.47314 10.249L8.70358 10.8876L9.47314 10.249ZM10.2422 11.543L9.31589 11.9198L10.2422 11.543ZM10.5596 13.1787H11.5596V13.1654L11.5592 13.1521L10.5596 13.1787ZM8.72852 17.1948L9.26539 18.0385L9.27214 18.0342L9.27883 18.0298L8.72852 17.1948ZM7.59326 17.7441L7.26548 16.7994L7.25941 16.8015L7.59326 17.7441ZM6.39697 18.0371L6.25832 17.0468L6.25555 17.0472L6.39697 18.0371ZM5.26172 18.1348V19.1348H5.27308L5.28444 19.1345L5.26172 18.1348ZM3.3208 17.9272L3.06408 18.8937L3.3208 17.9272ZM1.97803 17.3779L1.44473 18.2239L1.45137 18.228L1.45808 18.2321L1.97803 17.3779ZM1.03809 16.5723L0.26133 17.2021L0.266398 17.2083L0.271565 17.2145L1.03809 16.5723ZM0.452148 15.6445L-0.459815 16.0549L-0.455811 16.0636L0.452148 15.6445ZM0.562012 12.5317L1.20615 13.2967L1.20966 13.2937L0.562012 12.5317ZM1.11133 12.2266L0.817224 11.2707L0.806552 11.2741L1.11133 12.2266ZM2.41748 12.2266L2.13338 13.1854L2.14276 13.1881L2.41748 12.2266ZM3.02783 12.5317L2.41638 13.323L2.43621 13.3383L2.45677 13.3526L3.02783 12.5317ZM3.47949 13.0444L2.59902 13.5185L2.61004 13.539L2.622 13.5589L3.47949 13.0444ZM3.6748 13.7646L4.67445 13.738L4.67437 13.7352L3.6748 13.7646ZM4.08984 15.022L3.43134 15.7745L3.4381 15.7805L3.44497 15.7863L4.08984 15.022ZM5.21289 15.3516V16.3516H5.22955L5.24621 16.351L5.21289 15.3516ZM5.88428 15.2661L6.11765 16.2385L6.131 16.2353L6.14425 16.2317L5.88428 15.2661ZM6.42139 14.9854L7.08575 15.7328L7.09703 15.7227L7.10801 15.7124L6.42139 14.9854ZM6.76318 14.4482L5.83243 14.0826L5.82884 14.0917L5.82543 14.1009L6.76318 14.4482ZM6.60449 12.4463L5.7274 12.9266L5.73175 12.9346L5.73625 12.9424L6.60449 12.4463ZM4.79785 10.6641L4.23925 11.4935L4.24513 11.4975L4.25106 11.5013L4.79785 10.6641ZM3.57715 9.87061L3.03384 10.7103L3.04566 10.7177L3.57715 9.87061ZM2.35645 9.04053L1.75645 9.84053L1.76575 9.8475L1.77521 9.85426L2.35645 9.04053ZM0.525391 6.95312L-0.386196 7.36423L-0.382872 7.3716L-0.379428 7.37892L0.525391 6.95312ZM0.232422 5.53711H-0.767578V5.5448L-0.76746 5.55249L0.232422 5.53711ZM0.232422 5.3418L-0.767578 5.33245V5.3418H0.232422ZM0.574219 3.16895L-0.356124 2.80205L-0.360477 2.8135L0.574219 3.16895ZM1.56299 1.78955L0.949022 1.00017L0.941907 1.0058L1.56299 1.78955ZM3.17432 1.06934L3.38728 2.04647L3.39918 2.04373L3.17432 1.06934ZM8.875 1.71631L8.28111 2.52093L8.2902 2.52748L8.875 1.71631ZM9.69287 2.5708L8.84121 3.0949L8.84603 3.10273L8.85099 3.11047L9.69287 2.5708ZM10.2178 5.6958L9.31625 5.26307L9.31241 5.27107L9.30871 5.27915L10.2178 5.6958ZM9.83936 6.19629L9.19171 5.43435L9.18203 5.44258L9.17256 5.45105L9.83936 6.19629ZM9.27783 6.52588L9.60494 7.47086L9.61508 7.46735L9.62515 7.46363L9.27783 6.52588ZM7.99609 6.52588L7.61148 7.44896L7.6281 7.45588L7.64497 7.46221L7.99609 6.52588ZM7.09277 5.80566L6.23528 6.32016L6.24117 6.32998L6.24728 6.33966L7.09277 5.80566ZM6.58008 3.92578L5.83909 4.5973L5.84476 4.60356L5.85054 4.60972L6.58008 3.92578ZM4.8833 3.57178L4.76868 2.57836L4.76416 2.5789L4.8833 3.57178ZM4.33398 3.7793L4.8987 4.60465L4.90745 4.59853L4.33398 3.7793ZM3.95557 4.27979L3.03642 3.88587L3.0304 3.89991L3.02481 3.91413L3.95557 4.27979ZM2.82157 5.26794C2.83416 5.79655 2.9888 6.29288 3.28597 6.73218L4.94254 5.61157C4.86537 5.49748 4.8247 5.37532 4.82101 5.22034L2.82157 5.26794ZM3.30552 6.76005C3.56348 7.11474 3.88342 7.43525 4.25145 7.7258L5.49074 6.15604C5.24028 5.9583 5.05566 5.76612 4.92299 5.5837L3.30552 6.76005ZM4.26138 7.73354C4.61534 8.00582 5.00769 8.26823 5.43599 8.52171L6.45463 6.80056C6.0854 6.58203 5.76161 6.3643 5.4808 6.14829L4.26138 7.73354ZM5.44917 8.52938C5.83525 8.74999 6.23036 8.98702 6.63452 9.24062L7.69751 7.54649C7.2716 7.27925 6.8529 7.028 6.44145 6.79289L5.44917 8.52938ZM6.65395 9.2525C7.04542 9.48588 7.4262 9.74219 7.79632 10.0217L9.00153 8.42559C8.57413 8.10286 8.13296 7.80579 7.67808 7.53461L6.65395 9.2525ZM7.79632 10.0217C8.1338 10.2765 8.43577 10.5649 8.70358 10.8876L10.2427 9.61045C9.87575 9.16822 9.46158 8.77298 9.00153 8.42559L7.79632 10.0217ZM8.70358 10.8876C8.95287 11.188 9.15746 11.5303 9.31589 11.9198L11.1685 11.1662C10.9363 10.5954 10.6282 10.075 10.2427 9.61045L8.70358 10.8876ZM9.31589 11.9198C9.45863 12.2707 9.5463 12.6943 9.55993 13.2054L11.5592 13.1521C11.5403 12.4425 11.4164 11.7755 11.1685 11.1662L9.31589 11.9198ZM9.55957 13.1787V13.2764H11.5596V13.1787H9.55957ZM9.55957 13.2764C9.55957 13.8657 9.4873 14.338 9.3652 14.7104L11.2657 15.3335C11.4691 14.7131 11.5596 14.0217 11.5596 13.2764H9.55957ZM9.3652 14.7104C9.23088 15.1201 9.06162 15.4462 8.86846 15.7037L10.4685 16.9037C10.8124 16.4451 11.0745 15.9167 11.2657 15.3335L9.3652 14.7104ZM8.86846 15.7037C8.66593 15.9737 8.43598 16.19 8.1782 16.3599L9.27883 18.0298C9.7372 17.7277 10.1339 17.3498 10.4685 16.9037L8.86846 15.7037ZM8.19164 16.3512C7.89874 16.5376 7.59045 16.6866 7.26549 16.7994L7.92103 18.6889C8.3936 18.5249 8.84215 18.3078 9.26539 18.0385L8.19164 16.3512ZM7.25941 16.8015C6.93154 16.9176 6.59815 16.9992 6.25832 17.0468L6.53562 19.0275C7.0096 18.9611 7.47373 18.8473 7.92711 18.6868L7.25941 16.8015ZM6.25555 17.0472C5.89136 17.0992 5.55281 17.1279 5.239 17.135L5.28444 19.1345C5.68678 19.1254 6.10506 19.089 6.53839 19.0271L6.25555 17.0472ZM5.26172 17.1348H5.13965V19.1348H5.26172V17.1348ZM5.13965 17.1348C4.51143 17.1348 3.99484 17.0716 3.57752 16.9608L3.06408 18.8937C3.68843 19.0596 4.3844 19.1348 5.13965 19.1348V17.1348ZM3.57752 16.9608C3.12898 16.8416 2.77417 16.6918 2.49797 16.5237L1.45808 18.2321C1.93059 18.5197 2.47096 18.7362 3.06408 18.8937L3.57752 16.9608ZM2.51133 16.532C2.21386 16.3445 1.98235 16.1422 1.80461 15.93L0.271565 17.2145C0.598378 17.6046 0.993495 17.9394 1.44473 18.2239L2.51133 16.532ZM1.81484 15.9425C1.61741 15.699 1.46824 15.4597 1.36011 15.2255L-0.455811 16.0636C-0.27097 16.4641 -0.0295175 16.8434 0.26133 17.2021L1.81484 15.9425ZM1.36407 15.2342C1.24476 14.969 1.16328 14.7177 1.11437 14.4792L-0.844837 14.8811C-0.763536 15.2775 -0.633432 15.669 -0.459773 16.0549L1.36407 15.2342ZM1.11437 14.4792C1.06059 14.2171 1.03711 13.988 1.03711 13.7891H-0.962891C-0.962891 14.1435 -0.921267 14.5085 -0.844837 14.8811L1.11437 14.4792ZM1.03711 13.7891C1.03711 13.6175 1.06647 13.5178 1.09155 13.4635L-0.724366 12.6254C-0.894595 12.9942 -0.962891 13.391 -0.962891 13.7891H1.03711ZM1.09155 13.4635C1.13709 13.3648 1.17972 13.3189 1.20615 13.2966L-0.082124 11.7668C-0.36494 12.005 -0.574587 12.3009 -0.724366 12.6254L1.09155 13.4635ZM1.20966 13.2937C1.27182 13.2408 1.3384 13.2039 1.4161 13.179L0.806552 11.2741C0.477357 11.3795 0.17772 11.5459 -0.0856367 11.7698L1.20966 13.2937ZM1.40541 13.1823C1.51895 13.1474 1.63938 13.1289 1.77051 13.1289V11.1289C1.44591 11.1289 1.12689 11.1755 0.817242 11.2708L1.40541 13.1823ZM1.77051 13.1289C1.87827 13.1289 1.99827 13.1453 2.13339 13.1854L2.70157 11.2678C2.39724 11.1776 2.08592 11.1289 1.77051 11.1289V13.1289ZM2.14276 13.1881C2.25447 13.22 2.34249 13.2659 2.41638 13.323L3.63928 11.7405C3.3551 11.5209 3.03622 11.3633 2.6922 11.265L2.14276 13.1881ZM2.45677 13.3526C2.50803 13.3883 2.55542 13.4376 2.59902 13.5185L4.35996 12.5703C4.1757 12.2281 3.92198 11.9356 3.5989 11.7108L2.45677 13.3526ZM2.622 13.5589C2.64225 13.5927 2.67129 13.6598 2.67524 13.794L4.67437 13.7352C4.66204 13.3161 4.56087 12.9031 4.33699 12.5299L2.622 13.5589ZM2.67516 13.7913C2.69357 14.4817 2.84738 15.2636 3.43134 15.7745L4.74835 14.2694C4.78496 14.3014 4.76869 14.3091 4.74037 14.2233C4.71097 14.1342 4.6809 13.9801 4.67445 13.738L2.67516 13.7913ZM3.44497 15.7863C3.94997 16.2124 4.58892 16.3516 5.21289 16.3516V14.3516C4.8603 14.3516 4.75055 14.271 4.73471 14.2577L3.44497 15.7863ZM5.24621 16.351C5.54687 16.341 5.83877 16.3054 6.11765 16.2385L5.6509 14.2937C5.52288 14.3245 5.3672 14.3459 5.17958 14.3521L5.24621 16.351ZM6.14425 16.2317C6.48786 16.1392 6.81014 15.9777 7.08575 15.7328L5.75702 14.2379C5.73966 14.2534 5.70387 14.2791 5.6243 14.3005L6.14425 16.2317ZM7.10801 15.7124C7.38315 15.4525 7.57484 15.136 7.70093 14.7956L5.82543 14.1009C5.78877 14.1999 5.7526 14.2415 5.73476 14.2583L7.10801 15.7124ZM7.69394 14.8139C7.84346 14.4333 7.89746 14.0147 7.89746 13.5938H5.89746C5.89746 13.8564 5.86195 14.0075 5.83243 14.0826L7.69394 14.8139ZM7.89746 13.5938C7.89746 13.01 7.76084 12.4543 7.47274 11.9502L5.73625 12.9424C5.83877 13.1218 5.89746 13.3311 5.89746 13.5938H7.89746ZM7.48159 11.966C7.24003 11.5249 6.92537 11.1261 6.54761 10.7682L5.17212 12.2201C5.41285 12.4482 5.59461 12.6841 5.7274 12.9266L7.48159 11.966ZM6.54761 10.7682C6.19006 10.4295 5.78784 10.1162 5.34464 9.82679L4.25106 11.5013C4.60539 11.7327 4.91117 11.9729 5.17212 12.2201L6.54761 10.7682ZM5.35645 9.83463C4.94858 9.55994 4.53264 9.28958 4.10864 9.02354L3.04566 10.7177C3.45174 10.9725 3.8496 11.2311 4.23925 11.4935L5.35645 9.83463ZM4.1204 9.03104C3.71811 8.77073 3.32387 8.50264 2.93768 8.22679L1.77521 9.85426C2.18654 10.1481 2.60611 10.4334 3.0339 10.7102L4.1204 9.03104ZM2.95645 8.24053C2.61134 7.9817 2.30215 7.704 2.02723 7.40793L0.56164 8.76883C0.92148 9.15635 1.3203 9.51342 1.75645 9.84053L2.95645 8.24053ZM2.02723 7.40793C1.77877 7.14035 1.5809 6.84755 1.43021 6.52733L-0.379428 7.37892C-0.139494 7.88878 0.175335 8.35281 0.56164 8.76883L2.02723 7.40793ZM1.43698 6.54202C1.3143 6.27 1.23868 5.93605 1.2323 5.52173L-0.76746 5.55249C-0.757558 6.19611 -0.637871 6.80617 -0.386196 7.36423L1.43698 6.54202ZM1.23242 5.53711V5.3418H-0.767578V5.53711H1.23242ZM1.23238 5.35114C1.23983 4.55411 1.34461 3.95644 1.50891 3.52439L-0.360477 2.8135C-0.635631 3.53705 -0.758707 4.38794 -0.767534 5.33245L1.23238 5.35114ZM1.50449 3.53581C1.67625 3.10028 1.90775 2.79227 2.18407 2.5733L0.941907 1.0058C0.355597 1.47043 -0.0720837 2.08201 -0.356054 2.80208L1.50449 3.53581ZM2.17693 2.5789C2.48028 2.34296 2.87425 2.15821 3.38727 2.0464L2.96137 0.0922728C2.20485 0.257155 1.5246 0.552543 0.949048 1.0002L2.17693 2.5789ZM3.39918 2.04373C3.94397 1.91801 4.59441 1.84961 5.35938 1.84961V-0.150391C4.48046 -0.150391 3.6742 -0.0723034 2.94946 0.0949447L3.39918 2.04373ZM5.35938 1.84961H5.67676V-0.150391H5.35938V1.84961ZM5.67676 1.84961C6.35911 1.84961 6.88689 1.92451 7.28278 2.04823L7.87933 0.13927C7.23355 -0.0625349 6.4918 -0.150391 5.67676 -0.150391V1.84961ZM7.28278 2.04823C7.72611 2.18677 8.05019 2.35042 8.28115 2.52088L9.46885 0.911735C9.01621 0.577643 8.47766 0.326249 7.87933 0.13927L7.28278 2.04823ZM8.2902 2.52748C8.5498 2.71464 8.72507 2.90616 8.84121 3.0949L10.5445 2.0467C10.2701 1.60068 9.90007 1.22253 9.4598 0.905132L8.2902 2.52748ZM8.85099 3.11047C9.01437 3.36534 9.12374 3.59904 9.19095 3.81187L11.0981 3.20961C10.97 2.80395 10.7783 2.41103 10.5348 2.03113L8.85099 3.11047ZM9.19095 3.81187C9.27118 4.06593 9.31498 4.2836 9.33174 4.46798L11.3235 4.28691C11.2915 3.93418 11.2132 3.57404 11.0981 3.20961L9.19095 3.81187ZM9.33174 4.46798C9.35494 4.72318 9.36426 4.905 9.36426 5.02441H11.3643C11.3643 4.81831 11.3492 4.56881 11.3235 4.28691L9.33174 4.46798ZM9.36426 5.02441C9.36426 5.13123 9.3439 5.20548 9.31625 5.26307L11.1193 6.12853C11.287 5.77922 11.3643 5.40588 11.3643 5.02441H9.36426ZM9.30871 5.27915C9.2797 5.34245 9.24249 5.39119 9.19171 5.43435L10.487 6.95823C10.7617 6.7247 10.9768 6.43978 11.1268 6.11246L9.30871 5.27915ZM9.17256 5.45105C9.12272 5.49564 9.04774 5.54472 8.93052 5.58813L9.62515 7.46363C9.94738 7.34428 10.2467 7.17363 10.5062 6.94153L9.17256 5.45105ZM8.95072 5.58089C8.85677 5.61342 8.73692 5.63574 8.58203 5.63574V7.63574C8.9317 7.63574 9.27572 7.58483 9.60494 7.47086L8.95072 5.58089ZM8.58203 5.63574C8.51458 5.63574 8.43794 5.62357 8.34722 5.58955L7.64497 7.46221C7.94487 7.57467 8.25886 7.63574 8.58203 7.63574V5.63574ZM8.38071 5.6028C8.26347 5.55395 8.16869 5.49729 8.09084 5.43582L6.85155 7.00559C7.08293 7.18826 7.33809 7.33505 7.61148 7.44896L8.38071 5.6028ZM8.09084 5.43582C8.01828 5.37854 7.97089 5.32332 7.93826 5.27167L6.24728 6.33966C6.40997 6.59725 6.61485 6.81872 6.85155 7.00559L8.09084 5.43582ZM7.95027 5.29117C7.93928 5.27285 7.93868 5.26731 7.94074 5.27418C7.94175 5.27755 7.94321 5.28329 7.94438 5.29111C7.94556 5.29898 7.94629 5.30787 7.94629 5.31738H5.94629C5.94629 5.68965 6.06008 6.02816 6.23528 6.32016L7.95027 5.29117ZM7.94629 5.31738C7.94629 4.59233 7.82657 3.79326 7.30962 3.24184L5.85054 4.60972C5.82665 4.58424 5.85497 4.59925 5.88766 4.72349C5.92019 4.84709 5.94629 5.03884 5.94629 5.31738H7.94629ZM7.32107 3.25426C6.83986 2.72328 6.18131 2.53516 5.53027 2.53516V4.53516C5.67093 4.53516 5.75187 4.55514 5.79189 4.57003C5.82634 4.58285 5.83537 4.59319 5.83909 4.5973L7.32107 3.25426ZM5.53027 2.53516C5.27345 2.53516 5.01949 2.54943 4.76868 2.57837L4.99792 4.56519C5.17029 4.5453 5.34765 4.53516 5.53027 4.53516V2.53516ZM4.76416 2.5789C4.40261 2.62229 4.06245 2.74871 3.76052 2.96006L4.90745 4.59853C4.93104 4.58202 4.95709 4.5701 5.00245 4.56465L4.76416 2.5789ZM3.7693 2.95399C3.41487 3.1965 3.18523 3.53864 3.03642 3.88587L4.87471 4.6737C4.92121 4.5652 4.94386 4.57369 4.89867 4.6046L3.7693 2.95399ZM3.02481 3.91413C2.86845 4.31216 2.82129 4.77871 2.82129 5.24414H4.82129C4.82129 4.87949 4.86365 4.70314 4.88632 4.64544L3.02481 3.91413ZM18.6138 14.314L17.6209 14.4331L17.6215 14.438L18.6138 14.314ZM18.7847 14.8999L17.8756 15.3166L17.879 15.324L17.8825 15.3314L18.7847 14.8999ZM19.1753 15.3882L18.5461 16.1654L18.5549 16.1725L18.5638 16.1795L19.1753 15.3882ZM21.1895 15.144L22.0064 15.7207L22.0141 15.7098L22.0215 15.6987L21.1895 15.144ZM21.3726 14.6436L22.3642 14.7729L22.3648 14.7676L21.3726 14.6436ZM21.458 13.6792L20.4986 13.397L20.4928 13.4167L20.4879 13.4367L21.458 13.6792ZM21.7266 13.3008L22.3623 14.0727L22.3754 14.0619L22.3882 14.0506L21.7266 13.3008ZM22.3369 13.0078L22.6 13.9726L22.6096 13.97L22.6191 13.9672L22.3369 13.0078ZM24.9736 13.3862L24.1793 13.9937L24.1993 14.0199L24.2211 14.0447L24.9736 13.3862ZM25.1689 13.8013L24.175 13.9117L24.1758 13.9181L25.1689 13.8013ZM24.9492 15.5103L24.0233 15.1323L24.0194 15.1422L24.9492 15.5103ZM24.3145 16.5356L25.0421 17.2217L25.0516 17.2114L24.3145 16.5356ZM22.2637 17.7197L21.9889 16.7582L21.9837 16.7597L22.2637 17.7197ZM16.4165 16.9751L15.7968 17.76L15.8035 17.7652L16.4165 16.9751ZM15.2935 15.5713L14.3965 16.0134L14.399 16.0185L15.2935 15.5713ZM15.1348 8.67432L14.1904 8.34521L14.1861 8.35809L15.1348 8.67432ZM16.8438 6.50146L17.3143 7.38382L17.3219 7.37978L17.3294 7.37562L16.8438 6.50146ZM17.9546 6.0498L17.7022 5.08219L17.9546 6.0498ZM19.0166 5.8667L18.9454 4.86924L18.9436 4.86937L19.0166 5.8667ZM21.7876 6.01318L21.566 6.98832L21.5691 6.98903L21.7876 6.01318ZM24.1558 7.20947L23.4269 7.89415L23.4376 7.90553L23.4487 7.91658L24.1558 7.20947ZM25.0713 8.91846L24.0897 9.10933L24.0922 9.12239L24.0951 9.13539L25.0713 8.91846ZM25.1445 10.2002L26.14 10.295L26.1404 10.2907L25.1445 10.2002ZM24.9492 10.7007L24.1299 10.1272L24.1239 10.136L24.9492 10.7007ZM22.8496 11.2622L22.7784 12.2597L22.7967 12.261L22.8151 12.2616L22.8496 11.2622ZM21.3481 9.56543L20.3519 9.65206L20.354 9.67637L20.3573 9.70054L21.3481 9.56543ZM20.7256 8.74756L20.3089 9.65662L20.3313 9.66689L20.3542 9.67604L20.7256 8.74756ZM19.1753 8.75977L18.6964 7.88187L18.6877 7.88661L18.6792 7.89152L19.1753 8.75977ZM17.5771 13.8135C17.5771 13.9993 17.5941 14.2098 17.6209 14.4331L19.6066 14.1948C19.5846 14.0113 19.5771 13.888 19.5771 13.8135H17.5771ZM17.6215 14.438C17.6597 14.7433 17.7475 15.037 17.8756 15.3166L19.6937 14.4832C19.6428 14.3722 19.6167 14.2752 19.606 14.1899L17.6215 14.438ZM17.8825 15.3314C18.04 15.6606 18.2667 15.9393 18.5461 16.1654L19.8045 14.6109C19.7421 14.5604 19.7084 14.5135 19.6868 14.4684L17.8825 15.3314ZM18.5638 16.1795C18.9681 16.4919 19.4461 16.5957 19.8955 16.5957V14.5957C19.8201 14.5957 19.7803 14.5869 19.7665 14.5829C19.755 14.5796 19.7665 14.5813 19.7867 14.5969L18.5638 16.1795ZM19.8955 16.5957C20.3104 16.5957 20.7363 16.5513 21.1092 16.4021L20.3664 14.5452C20.3324 14.5587 20.1968 14.5957 19.8955 14.5957V16.5957ZM21.1092 16.4021C21.4399 16.2698 21.7689 16.0572 22.0064 15.7207L20.3725 14.5674C20.3821 14.5538 20.3914 14.5431 20.3992 14.5354C20.4069 14.5277 20.4123 14.5235 20.4138 14.5224C20.4165 14.5205 20.4039 14.5302 20.3664 14.5452L21.1092 16.4021ZM22.0215 15.6987C22.2103 15.4155 22.3214 15.101 22.3642 14.7729L20.381 14.5142C20.3749 14.5605 20.3639 14.5796 20.3574 14.5893L22.0215 15.6987ZM22.3648 14.7676C22.3948 14.5282 22.4092 14.2832 22.4092 14.0332H20.4092C20.4092 14.2064 20.3992 14.3683 20.3803 14.5195L22.3648 14.7676ZM22.4092 14.0332C22.4092 14.0276 22.4104 13.9927 22.4282 13.9217L20.4879 13.4367C20.4405 13.6261 20.4092 13.8272 20.4092 14.0332H22.4092ZM22.4174 13.9614C22.4043 14.0058 22.3858 14.039 22.3712 14.0596C22.3575 14.0789 22.3508 14.0822 22.3623 14.0727L21.0909 12.5289C20.8358 12.7389 20.6082 13.0247 20.4986 13.397L22.4174 13.9614ZM22.3882 14.0506C22.3751 14.0622 22.3791 14.0551 22.4156 14.0375C22.452 14.0201 22.5112 13.9968 22.6 13.9726L22.0738 12.043C21.7262 12.1378 21.3614 12.2894 21.0649 12.5509L22.3882 14.0506ZM22.6191 13.9672C22.7647 13.9244 23.031 13.8857 23.46 13.8857V11.8857C22.9449 11.8857 22.4626 11.9285 22.0547 12.0484L22.6191 13.9672ZM23.46 13.8857C23.838 13.8857 24.0195 13.9318 24.0786 13.9562L24.8433 12.1082C24.4304 11.9373 23.9445 11.8857 23.46 11.8857V13.8857ZM24.0786 13.9562C24.1455 13.9839 24.1821 14.006 24.1979 14.0169C24.2133 14.0275 24.2009 14.022 24.1793 13.9937L25.768 12.7788C25.5166 12.45 25.1712 12.2439 24.8433 12.1082L24.0786 13.9562ZM24.2211 14.0447C24.2246 14.0488 24.215 14.0388 24.2031 14.0134C24.1906 13.9869 24.1795 13.9518 24.1751 13.9117L26.1628 13.6908C26.1203 13.3078 25.9507 12.9842 25.7262 12.7277L24.2211 14.0447ZM24.1758 13.9181C24.1902 14.0408 24.1934 14.1064 24.1934 14.1309H26.1934C26.1934 13.9926 26.1802 13.8385 26.1621 13.6844L24.1758 13.9181ZM24.1934 14.1309C24.1934 14.5486 24.1281 14.8758 24.0234 15.1324L25.8751 15.8882C26.0959 15.3471 26.1934 14.7548 26.1934 14.1309H24.1934ZM24.0194 15.1422C23.9071 15.4259 23.7588 15.6619 23.5773 15.8599L25.0516 17.2114C25.4072 16.8234 25.6821 16.3758 25.879 15.8783L24.0194 15.1422ZM23.5869 15.8496C23.39 16.0584 23.1623 16.2359 22.8994 16.3827L23.8741 18.1291C24.311 17.8852 24.7018 17.5825 25.042 17.2217L23.5869 15.8496ZM22.8994 16.3827C22.619 16.5392 22.3163 16.6647 21.989 16.7582L22.5384 18.6813C23.0086 18.5469 23.4546 18.3632 23.8741 18.1291L22.8994 16.3827ZM21.9837 16.7597C21.6461 16.8582 21.3011 16.9286 20.9482 16.971L21.1865 18.9567C21.6475 18.9014 22.1 18.8091 22.5437 18.6797L21.9837 16.7597ZM20.9482 16.971C20.5772 17.0155 20.2265 17.0371 19.8955 17.0371V19.0371C20.3132 19.0371 20.7438 19.0099 21.1865 18.9567L20.9482 16.971ZM19.8955 17.0371C19.3424 17.0371 18.8119 16.9638 18.3008 16.8187L17.7548 18.7428C18.4482 18.9396 19.1628 19.0371 19.8955 19.0371V17.0371ZM18.3008 16.8187C17.8159 16.6811 17.3954 16.4689 17.0295 16.185L15.8035 17.7652C16.3816 18.2137 17.0353 18.5386 17.7548 18.7428L18.3008 16.8187ZM17.0361 16.1902C16.6963 15.9219 16.4122 15.5727 16.1879 15.1241L14.399 16.0185C14.7444 16.7092 15.2089 17.2958 15.7969 17.76L17.0361 16.1902ZM16.1904 15.1291C15.9882 14.719 15.8662 14.1859 15.8662 13.4961H13.8662C13.8662 14.4176 14.0291 15.268 14.3965 16.0134L16.1904 15.1291ZM15.8662 13.4961V10.6396H13.8662V13.4961H15.8662ZM15.8662 10.6396C15.8662 9.93754 15.9483 9.39605 16.0834 8.99054L14.1861 8.35809C13.9632 9.02681 13.8662 9.79553 13.8662 10.6396H15.8662ZM16.0791 9.00339C16.2362 8.55238 16.4249 8.21412 16.6289 7.96478L15.081 6.69831C14.6991 7.16511 14.4076 7.72204 14.1905 8.34524L16.0791 9.00339ZM16.6289 7.96478C16.8478 7.69724 17.0774 7.51019 17.3143 7.38382L16.3732 5.61911C15.8777 5.88336 15.4481 6.2497 15.081 6.69831L16.6289 7.96478ZM17.3294 7.37562C17.6281 7.20965 17.9204 7.09218 18.207 7.01742L17.7022 5.08219C17.24 5.20274 16.7918 5.38638 16.3581 5.62731L17.3294 7.37562ZM18.207 7.01742C18.5315 6.93278 18.825 6.88339 19.0896 6.86403L18.9436 4.86937C18.5408 4.89884 18.1264 4.97151 17.7022 5.08219L18.207 7.01742ZM19.0878 6.86416C19.4146 6.84082 19.6825 6.83008 19.8955 6.83008V4.83008C19.6203 4.83008 19.3022 4.84375 18.9454 4.86924L19.0878 6.86416ZM19.8955 6.83008C20.5671 6.83008 21.1202 6.887 21.566 6.98832L22.0092 5.03805C21.3808 4.89522 20.6725 4.83008 19.8955 4.83008V6.83008ZM21.5691 6.98903C22.0512 7.09696 22.4332 7.23405 22.7295 7.38838L23.6533 5.61455C23.1684 5.36198 22.6145 5.17355 22.0061 5.03734L21.5691 6.98903ZM22.7295 7.38838C23.0393 7.54976 23.265 7.72176 23.4269 7.89415L24.8846 6.5248C24.542 6.16008 24.1247 5.86007 23.6533 5.61455L22.7295 7.38838ZM23.4487 7.91658C23.6424 8.11033 23.7788 8.30107 23.8717 8.48676L25.6605 7.59234C25.4604 7.19209 25.1899 6.82944 24.8629 6.50237L23.4487 7.91658ZM23.8717 8.48676C23.9815 8.70645 24.0516 8.91356 24.0897 9.10933L26.0529 8.72759C25.977 8.33742 25.8437 7.95858 25.6605 7.59234L23.8717 8.48676ZM24.0951 9.13539C24.1473 9.37012 24.1689 9.56921 24.1689 9.73633H26.1689C26.1689 9.39889 26.1255 9.05273 26.0475 8.70153L24.0951 9.13539ZM24.1689 9.73633C24.1689 9.8274 24.1631 9.95031 24.1486 10.1097L26.1404 10.2907C26.1585 10.092 26.1689 9.90567 26.1689 9.73633H24.1689ZM24.149 10.1054C24.1495 10.1006 24.1502 10.0965 24.151 10.0933C24.1517 10.0903 24.1523 10.0891 24.1519 10.0899C24.1513 10.0916 24.1462 10.1041 24.13 10.1272L25.7685 11.2741C25.9658 10.9923 26.1049 10.6634 26.14 10.295L24.149 10.1054ZM24.1239 10.136C24.1368 10.1171 24.1418 10.117 24.1239 10.131C24.1053 10.1456 24.0676 10.1712 24.0018 10.203L24.8713 12.0041C25.205 11.843 25.5385 11.6104 25.7745 11.2654L24.1239 10.136ZM24.0018 10.203C23.9616 10.2223 23.8019 10.2744 23.4355 10.2744V12.2744C23.9319 12.2744 24.4394 12.2126 24.8713 12.0041L24.0018 10.203ZM23.4355 10.2744C23.2967 10.2744 23.1139 10.2707 22.8841 10.2628L22.8151 12.2616C23.0573 12.27 23.2651 12.2744 23.4355 12.2744V10.2744ZM22.9209 10.2647C22.7775 10.2545 22.636 10.2264 22.4945 10.1792L21.862 12.0766C22.1599 12.1759 22.466 12.2374 22.7784 12.2597L22.9209 10.2647ZM22.4945 10.1792C22.4131 10.1521 22.3622 10.1174 22.3238 10.079L20.9096 11.4932C21.1805 11.7641 21.5039 11.9573 21.862 12.0766L22.4945 10.1792ZM22.3238 10.079C22.34 10.0952 22.354 10.1131 22.3653 10.1313C22.3765 10.1493 22.3828 10.1642 22.3861 10.1735C22.3922 10.191 22.3848 10.1806 22.3848 10.127H20.3848C20.3848 10.5934 20.5156 11.0993 20.9096 11.4932L22.3238 10.079ZM22.3848 10.127C22.3848 9.89004 22.37 9.65756 22.339 9.43032L20.3573 9.70054C20.3752 9.83137 20.3848 9.97324 20.3848 10.127H22.3848ZM22.3444 9.4788C22.3145 9.13509 22.2048 8.79883 21.9942 8.50047L20.3603 9.65383C20.3577 9.65023 20.3553 9.64628 20.3533 9.64229C20.3512 9.63831 20.35 9.63517 20.3494 9.63333C20.3479 9.62929 20.3504 9.63422 20.3519 9.65206L22.3444 9.4788ZM21.9942 8.50047C21.7567 8.16396 21.4277 7.95139 21.097 7.81908L20.3542 9.67604C20.3916 9.69102 20.4043 9.70073 20.4016 9.69878C20.4001 9.69764 20.3947 9.69353 20.387 9.68584C20.3792 9.67806 20.3699 9.66743 20.3603 9.65383L21.9942 8.50047ZM21.1422 7.83849C20.7571 7.66195 20.3138 7.61328 19.8955 7.61328V9.61328C20.035 9.61328 20.1385 9.62214 20.2119 9.63402C20.2868 9.64614 20.3135 9.65871 20.3089 9.65662L21.1422 7.83849ZM19.8955 7.61328C19.501 7.61328 19.0759 7.67491 18.6964 7.88187L19.6541 9.63766C19.6406 9.64507 19.6476 9.63824 19.6889 9.62984C19.7305 9.62139 19.7973 9.61328 19.8955 9.61328V7.61328ZM18.6792 7.89152C18.3836 8.06043 18.121 8.29428 17.9314 8.60453L19.6379 9.64743C19.634 9.65383 19.6312 9.65614 19.6334 9.6541C19.636 9.65162 19.6469 9.64201 19.6714 9.62801L18.6792 7.89152ZM17.9314 8.60453C17.7752 8.86006 17.6699 9.14087 17.6248 9.4415L19.6027 9.73818C19.6064 9.71329 19.6151 9.68487 19.6379 9.64743L17.9314 8.60453ZM17.6248 9.4415C17.5949 9.6412 17.5771 9.83849 17.5771 10.0293H19.5771C19.5771 9.95969 19.5838 9.86401 19.6027 9.73818L17.6248 9.4415ZM17.5771 10.0293V13.8135H19.5771V10.0293H17.5771ZM37.4712 9.05273L36.7929 8.31787L36.7834 8.32678L37.4712 9.05273ZM35.7866 9.5166L35.8421 10.5151L35.8667 10.5137L35.8913 10.5111L35.7866 9.5166ZM35.3105 9.61426L35.5853 10.5758L35.6062 10.5698L35.6268 10.5629L35.3105 9.61426ZM34.7856 9.84619L35.2818 10.7144L35.2881 10.7108L35.2944 10.7071L34.7856 9.84619ZM34.3096 10.2612L35.0688 10.912L35.0763 10.9033L35.0835 10.8945L34.3096 10.2612ZM33.7603 16.3525L32.7684 16.2254L32.7668 16.2379L32.7655 16.2505L33.7603 16.3525ZM33.5161 17.207L34.3985 17.6777L34.4047 17.6657L33.5161 17.207ZM31.0015 17.8052L30.4534 18.6416L31.0015 17.8052ZM30.4521 17.207L29.552 17.6426L29.5605 17.6603L29.5698 17.6776L30.4521 17.207ZM30.208 16.3525L29.2132 16.4546L29.2145 16.4672L29.2161 16.4797L30.208 16.3525ZM30.208 7.55127L29.2157 7.42723L29.2144 7.43822L29.2132 7.44924L30.208 7.55127ZM30.4521 6.68457L29.5635 6.22593L29.5576 6.23739L29.552 6.24901L30.4521 6.68457ZM31.0015 6.08643L31.5288 6.93607L31.5392 6.9296L31.5495 6.92289L31.0015 6.08643ZM32.918 6.13525L32.2695 6.8965L32.2846 6.90934L32.3001 6.92157L32.918 6.13525ZM33.4185 6.84326L32.4779 7.18292L32.481 7.19145L33.4185 6.84326ZM33.6016 7.80762L32.6026 7.85302L32.6026 7.85408L33.6016 7.80762ZM33.626 8.83301H32.626V9.83301H33.626V8.83301ZM33.8213 8.83301V9.83301H34.6021L34.7914 9.07554L33.8213 8.83301ZM34.2729 7.6001L35.1634 8.05523L35.1674 8.04731L34.2729 7.6001ZM34.8955 6.66016L35.6376 7.33044L35.6429 7.32459L35.6481 7.31866L34.8955 6.66016ZM37.1782 5.96436L36.8271 6.90068L36.8501 6.9093L36.8734 6.91678L37.1782 5.96436ZM36.9473 7.66113C36.9473 8.14903 36.8249 8.28841 36.7929 8.31793L38.1495 9.78754C38.7523 9.23113 38.9473 8.44277 38.9473 7.66113H36.9473ZM36.7834 8.32678C36.7179 8.38889 36.5554 8.49219 36.1406 8.49219V10.4922C36.8814 10.4922 37.606 10.3025 38.1589 9.77869L36.7834 8.32678ZM36.1406 8.49219C36.0058 8.49219 35.8461 8.50481 35.6819 8.5221L35.8913 10.5111C36.0364 10.4958 36.1127 10.4922 36.1406 10.4922V8.49219ZM35.7312 8.51814C35.4785 8.53218 35.2312 8.58663 34.9943 8.66557L35.6268 10.5629C35.7317 10.528 35.8018 10.5173 35.8421 10.5151L35.7312 8.51814ZM35.0358 8.65273C34.7705 8.72855 34.5172 8.84325 34.2769 8.98526L35.2944 10.7071C35.4121 10.6375 35.5088 10.5976 35.5853 10.5758L35.0358 8.65273ZM34.2895 8.97795C33.9956 9.14591 33.7462 9.37056 33.5356 9.62799L35.0835 10.8945C35.1659 10.7938 35.2339 10.7418 35.2818 10.7144L34.2895 8.97795ZM33.5503 9.61044C33.301 9.9013 33.1272 10.2434 33.0069 10.6042L34.9042 11.2366C34.963 11.0604 35.0252 10.963 35.0688 10.912L33.5503 9.61044ZM33.0069 10.6042C32.8744 11.0016 32.8213 11.4355 32.8213 11.8848H34.8213C34.8213 11.5854 34.8577 11.3764 34.9042 11.2366L33.0069 10.6042ZM32.8213 11.8848V15.376H34.8213V11.8848H32.8213ZM32.8213 15.376C32.8213 15.6689 32.8034 15.9519 32.7684 16.2254L34.7521 16.4797C34.7985 16.1184 34.8213 15.7503 34.8213 15.376H32.8213ZM32.7655 16.2505C32.7441 16.4588 32.6936 16.6202 32.6275 16.7484L34.4047 17.6657C34.599 17.2893 34.7113 16.8811 34.755 16.4546L32.7655 16.2505ZM32.6338 16.7364C32.5887 16.821 32.5242 16.894 32.4195 16.9604L33.4896 18.65C33.8732 18.4071 34.1831 18.0814 34.3985 17.6776L32.6338 16.7364ZM32.4195 16.9604C32.3908 16.9785 32.2698 17.0371 31.9658 17.0371V19.0371C32.4919 19.0371 33.0301 18.9411 33.4896 18.65L32.4195 16.9604ZM31.9658 17.0371C31.6718 17.0371 31.5655 16.9792 31.5495 16.9687L30.4534 18.6416C30.9094 18.9404 31.4461 19.0371 31.9658 19.0371V17.0371ZM31.5495 16.9687C31.451 16.9042 31.3841 16.8295 31.3345 16.7364L29.5698 17.6776C29.7806 18.0729 30.0799 18.3969 30.4534 18.6416L31.5495 16.9687ZM31.3523 16.7715C31.2834 16.629 31.2288 16.4506 31.1999 16.2254L29.2161 16.4797C29.2686 16.8892 29.3768 17.2805 29.552 17.6426L31.3523 16.7715ZM31.2028 16.2505C31.1739 15.9685 31.1592 15.6771 31.1592 15.376H29.1592C29.1592 15.7422 29.177 16.1018 29.2132 16.4546L31.2028 16.2505ZM31.1592 15.376V8.54004H29.1592V15.376H31.1592ZM31.1592 8.54004C31.1592 8.22993 31.1739 7.93448 31.2028 7.6533L29.2132 7.44924C29.177 7.80282 29.1592 8.16656 29.1592 8.54004H31.1592ZM31.2003 7.6753C31.2297 7.43993 31.285 7.25917 31.3523 7.12013L29.552 6.24901C29.3751 6.61453 29.2677 7.01157 29.2157 7.42723L31.2003 7.6753ZM31.3408 7.14321C31.39 7.04779 31.4499 6.98507 31.5288 6.93607L30.4741 5.23679C30.081 5.48075 29.7747 5.81679 29.5635 6.22593L31.3408 7.14321ZM31.5495 6.92289C31.5655 6.91238 31.6718 6.85449 31.9658 6.85449V4.85449C31.4461 4.85449 30.9094 4.95122 30.4534 5.24996L31.5495 6.92289ZM31.9658 6.85449C32.2454 6.85449 32.2957 6.91878 32.2695 6.8965L33.5664 5.37401C33.1008 4.97738 32.5163 4.85449 31.9658 4.85449V6.85449ZM32.3001 6.92157C32.3696 6.97618 32.4308 7.05238 32.4779 7.18291L34.359 6.50362C34.1946 6.04821 33.922 5.6524 33.5358 5.34894L32.3001 6.92157ZM32.481 7.19145C32.5449 7.36352 32.5902 7.58036 32.6026 7.85302L34.6005 7.76221C34.5804 7.31872 34.5036 6.89267 34.3559 6.49508L32.481 7.19145ZM32.6026 7.85408C32.6182 8.1893 32.626 8.51559 32.626 8.83301H34.626C34.626 8.48311 34.6174 8.1258 34.6005 7.76116L32.6026 7.85408ZM33.626 9.83301H33.8213V7.83301H33.626V9.83301ZM34.7914 9.07554C34.8895 8.68327 35.0152 8.34505 35.1634 8.05521L33.3825 7.14499C33.1563 7.58756 32.9809 8.07129 32.8511 8.59047L34.7914 9.07554ZM35.1674 8.04731C35.323 7.73599 35.4825 7.50222 35.6376 7.33044L34.1534 5.98987C33.8528 6.32265 33.5972 6.71551 33.3785 7.15288L35.1674 8.04731ZM35.6481 7.31866C35.8095 7.13415 35.9609 7.01749 36.0971 6.94513L35.1588 5.1789C34.7742 5.38322 34.4372 5.66533 34.1429 6.00165L35.6481 7.31866ZM36.0971 6.94513C36.2324 6.87325 36.3329 6.85449 36.4092 6.85449V4.85449C35.9646 4.85449 35.5443 4.97408 35.1588 5.1789L36.0971 6.94513ZM36.4092 6.85449C36.6627 6.85449 36.7867 6.88554 36.8271 6.90068L37.5293 5.02803C37.1791 4.89669 36.7904 4.85449 36.4092 4.85449V6.85449ZM36.8734 6.91678C36.8971 6.92436 36.9017 6.92898 36.8951 6.92458C36.892 6.92247 36.8871 6.91882 36.8813 6.91347C36.8755 6.90809 36.8699 6.90203 36.8649 6.89568L38.4436 5.6678C38.188 5.33914 37.8485 5.12889 37.483 5.01193L36.8734 6.91678ZM36.8649 6.89568C36.8576 6.88626 36.8827 6.91214 36.9018 7.01905L38.8707 6.66747C38.8084 6.31865 38.6788 5.97018 38.4436 5.6678L36.8649 6.89568ZM36.9018 7.01905C36.9291 7.17205 36.9473 7.38268 36.9473 7.66113H38.9473C38.9473 7.30482 38.9247 6.9702 38.8707 6.66747L36.9018 7.01905ZM42.7544 7.20947L42.0221 6.52831L42.0137 6.53766L42.7544 7.20947ZM43.8286 6.3916L43.3887 5.49351L43.3814 5.49717L43.8286 6.3916ZM46.0625 5.76904L45.9895 4.77171L45.9877 4.77184L46.0625 5.76904ZM48.6504 5.95215L48.3927 6.9184L48.398 6.91977L48.6504 5.95215ZM49.7734 6.3916L49.3109 7.27822L49.3187 7.28221L49.7734 6.3916ZM50.7988 7.20947L50.0408 7.86177L50.0495 7.87167L50.7988 7.20947ZM50.7988 16.6577L50.0494 15.9955L50.0408 16.0055L50.7988 16.6577ZM49.7734 17.4756L49.3186 16.5849L49.3109 16.589L49.7734 17.4756ZM48.6504 17.915L48.398 16.9474L48.3927 16.9488L48.6504 17.915ZM46.0625 18.0981L45.9877 19.0953L45.9895 19.0955L46.0625 18.0981ZM43.8286 17.4756L43.3814 18.37L43.3887 18.3736L43.8286 17.4756ZM42.7544 16.6577L42.0136 17.3296L42.0222 17.3388L42.7544 16.6577ZM41.9731 15.3516L41.0417 15.7154L41.9731 15.3516ZM45.4277 14.3018H44.4277V14.319L44.4283 14.3362L45.4277 14.3018ZM45.5986 14.9243L46.4748 14.4424L46.4674 14.4289L46.4596 14.4156L45.5986 14.9243ZM46.0137 15.3638L45.4426 16.1847L45.4628 16.1987L45.4837 16.2118L46.0137 15.3638ZM47.625 15.3638L48.1884 16.19L48.1961 16.1847L47.625 15.3638ZM48.04 14.9243L48.9163 15.4062L48.9179 15.4032L48.04 14.9243ZM48.2109 14.3018L49.2086 14.3706L49.2109 14.3362V14.3018H48.2109ZM48.2109 9.88281H49.2109V9.84952L49.2087 9.81629L48.2109 9.88281ZM48.04 9.21143L48.9416 8.77869L48.9296 8.75375L48.9163 8.72951L48.04 9.21143ZM47.625 8.75977L46.9918 9.53372L47.0108 9.54931L47.0306 9.56394L47.625 8.75977ZM46.0137 8.75977L46.6081 9.56396L46.6137 9.55977L46.0137 8.75977ZM45.5986 9.21143L44.7224 8.72951L44.7168 8.73973L44.7114 8.75007L45.5986 9.21143ZM45.4277 9.88281L44.4283 9.8495L44.4277 9.86615V9.88281H45.4277ZM42.668 10.4199C42.668 9.75601 42.7589 9.25236 42.9046 8.87948L41.0417 8.15177C40.7804 8.82056 40.668 9.58644 40.668 10.4199H42.668ZM42.9046 8.87948C43.0717 8.45168 43.273 8.12614 43.4951 7.88129L42.0137 6.53766C41.601 6.99267 41.2815 7.5379 41.0417 8.15177L42.9046 8.87948ZM43.4866 7.89058C43.7383 7.61996 44.0018 7.42302 44.2758 7.28603L43.3814 5.49717C42.8741 5.7508 42.4215 6.09912 42.0222 6.52837L43.4866 7.89058ZM44.2685 7.28966C44.6132 7.12083 44.9394 6.99981 45.2479 6.92107L44.7531 4.98323C44.2966 5.09979 43.8416 5.27175 43.3887 5.49354L44.2685 7.28966ZM45.2479 6.92107C45.5851 6.83498 45.8806 6.78549 46.1373 6.76624L45.9877 4.77184C45.5934 4.80142 45.1809 4.87401 44.7531 4.98323L45.2479 6.92107ZM46.1355 6.76638C46.4605 6.74259 46.6927 6.73242 46.8438 6.73242V4.73242C46.6204 4.73242 46.3318 4.74667 45.9895 4.77171L46.1355 6.76638ZM46.8438 6.73242C46.9943 6.73242 47.222 6.74254 47.538 6.76624L47.6876 4.77184C47.3525 4.74671 47.0676 4.73242 46.8438 4.73242V6.73242ZM47.538 6.76624C47.7928 6.78535 48.0771 6.83421 48.3927 6.91838L48.9081 4.98591C48.4913 4.87478 48.0838 4.80156 47.6876 4.77184L47.538 6.76624ZM48.398 6.91977C48.6932 6.99677 48.9973 7.11457 49.3109 7.27819L50.236 5.50502C49.8009 5.27801 49.3563 5.10284 48.9028 4.98453L48.398 6.91977ZM49.3187 7.28221C49.5771 7.41419 49.818 7.60272 50.0408 7.86171L51.5568 6.55723C51.1775 6.11636 50.7347 5.75964 50.2282 5.501L49.3187 7.28221ZM50.0495 7.87167C50.2641 8.11455 50.4589 8.43882 50.6193 8.86675L52.492 8.1645C52.2618 7.55076 51.952 7.00426 51.5482 6.54727L50.0495 7.87167ZM50.6193 8.86675C50.7608 9.24389 50.8486 9.75224 50.8486 10.4199H52.8486C52.8486 9.59021 52.7412 8.82903 52.492 8.1645L50.6193 8.86675ZM50.8486 10.4199V13.4473H52.8486V10.4199H50.8486ZM50.8486 13.4473C50.8486 14.1149 50.7608 14.6233 50.6193 15.0004L52.492 15.7027C52.7412 15.0382 52.8486 14.277 52.8486 13.4473H50.8486ZM50.6193 15.0004C50.4589 15.4284 50.2641 15.7526 50.0495 15.9955L51.5482 17.3199C51.952 16.8629 52.2618 16.3164 52.492 15.7027L50.6193 15.0004ZM50.0408 16.0055C49.818 16.2645 49.5771 16.453 49.3187 16.585L50.2282 18.3662C50.7347 18.1075 51.1775 17.7508 51.5568 17.31L50.0408 16.0055ZM49.3109 16.589C48.9973 16.7526 48.6932 16.8704 48.398 16.9474L48.9028 18.8827C49.3563 18.7643 49.8009 18.5892 50.236 18.3622L49.3109 16.589ZM48.3927 16.9488C48.0771 17.033 47.7928 17.0818 47.538 17.1009L47.6876 19.0953C48.0838 19.0656 48.4913 18.9924 48.9081 18.8813L48.3927 16.9488ZM47.538 17.1009C47.222 17.1246 46.9943 17.1348 46.8438 17.1348V19.1348C47.0676 19.1348 47.3525 19.1205 47.6876 19.0953L47.538 17.1009ZM46.8438 17.1348C46.6927 17.1348 46.4605 17.1246 46.1355 17.1008L45.9895 19.0955C46.3318 19.1205 46.6204 19.1348 46.8438 19.1348V17.1348ZM46.1373 17.1009C45.8806 17.0817 45.5851 17.0322 45.2479 16.9461L44.7531 18.884C45.1809 18.9932 45.5934 19.0658 45.9877 19.0953L46.1373 17.1009ZM45.2479 16.9461C44.9394 16.8674 44.6132 16.7464 44.2685 16.5775L43.3887 18.3736C43.8416 18.5954 44.2966 18.7674 44.7531 18.884L45.2479 16.9461ZM44.2758 16.5812C44.0018 16.4442 43.7383 16.2472 43.4866 15.9766L42.0222 17.3388C42.4215 17.7681 42.8741 18.1164 43.3814 18.37L44.2758 16.5812ZM43.4951 15.9859C43.273 15.741 43.0717 15.4155 42.9046 14.9877L41.0417 15.7154C41.2815 16.3293 41.601 16.8745 42.0137 17.3295L43.4951 15.9859ZM42.9046 14.9877C42.7589 14.6148 42.668 14.1112 42.668 13.4473H40.668C40.668 14.2807 40.7804 15.0466 41.0417 15.7154L42.9046 14.9877ZM42.668 13.4473V10.4199H40.668V13.4473H42.668ZM44.4283 14.3362C44.4414 14.7165 44.5358 15.0914 44.7377 15.433L46.4596 14.4156C46.4498 14.3991 46.4303 14.3591 46.4271 14.2673L44.4283 14.3362ZM44.7224 15.4062C44.9012 15.7312 45.1572 15.9861 45.4426 16.1847L46.5847 14.5429C46.4958 14.481 46.4751 14.4429 46.4748 14.4424L44.7224 15.4062ZM45.4837 16.2118C45.9031 16.4739 46.3938 16.5469 46.8438 16.5469V14.5469C46.7191 14.5469 46.635 14.536 46.5831 14.5246C46.5314 14.5132 46.5252 14.5042 46.5437 14.5158L45.4837 16.2118ZM46.8438 16.5469C47.2796 16.5469 47.7727 16.4734 48.1883 16.19L47.0617 14.5375C47.0946 14.5151 47.1047 14.5187 47.0672 14.5275C47.0291 14.5364 46.9579 14.5469 46.8438 14.5469V16.5469ZM48.1961 16.1847C48.4815 15.9861 48.7375 15.7312 48.9163 15.4062L47.1638 14.4424C47.1635 14.4429 47.1429 14.481 47.0539 14.5429L48.1961 16.1847ZM48.9179 15.4032C49.0948 15.079 49.184 14.7274 49.2086 14.3706L47.2133 14.233C47.2054 14.3481 47.1806 14.4116 47.1621 14.4455L48.9179 15.4032ZM49.2109 14.3018V9.88281H47.2109V14.3018H49.2109ZM49.2087 9.81629C49.1847 9.45584 49.0988 9.10632 48.9416 8.77869L47.1385 9.64416C47.1766 9.72344 47.2046 9.82151 47.2132 9.94933L49.2087 9.81629ZM48.9163 8.72951C48.7419 8.41247 48.4941 8.15867 48.2194 7.95559L47.0306 9.56394C47.1302 9.63755 47.1592 9.68486 47.1638 9.69334L48.9163 8.72951ZM48.2582 7.98581C47.8326 7.63753 47.3099 7.54004 46.8438 7.54004V9.54004C46.946 9.54004 47.0022 9.55129 47.0247 9.55762C47.0445 9.56321 47.0253 9.56117 46.9918 9.53372L48.2582 7.98581ZM46.8438 7.54004C46.3661 7.54004 45.8462 7.6354 45.4137 7.95977L46.6137 9.55977C46.5923 9.5758 46.5885 9.57096 46.6236 9.56168C46.6606 9.55187 46.7305 9.54004 46.8438 9.54004V7.54004ZM45.4193 7.95559C45.1445 8.15867 44.8968 8.41247 44.7224 8.72951L46.4748 9.69334C46.4795 9.68486 46.5085 9.63755 46.6081 9.56394L45.4193 7.95559ZM44.7114 8.75007C44.5323 9.09459 44.4411 9.46604 44.4283 9.8495L46.4272 9.91613C46.4307 9.81131 46.4534 9.73516 46.4858 9.67278L44.7114 8.75007ZM44.4277 9.88281V14.3018H46.4277V9.88281H44.4277ZM57.0586 2.65625L56.0663 2.53222L56.0648 2.54446L56.0636 2.55675L57.0586 2.65625ZM57.3149 1.78955L58.2036 2.24819L57.3149 1.78955ZM60.4155 1.78955L59.5154 2.22511L59.521 2.23673L59.5269 2.24819L60.4155 1.78955ZM60.6597 2.65625L59.6646 2.75575L59.6659 2.76804L59.6674 2.78028L60.6597 2.65625ZM60.6597 16.3159L59.667 16.1949L59.6657 16.2056L59.6646 16.2164L60.6597 16.3159ZM60.4155 17.1948L59.521 16.7476L59.5154 16.7593L60.4155 17.1948ZM57.3149 17.1948L56.4204 17.6421L56.4263 17.6535L57.3149 17.1948ZM57.0586 16.3159L56.0633 16.413L56.0646 16.4265L56.0663 16.44L57.0586 16.3159ZM58.0098 3.65723C58.0098 3.34719 58.0245 3.04677 58.0536 2.75575L56.0636 2.55675C56.0276 2.91677 56.0098 3.28367 56.0098 3.65723H58.0098ZM58.0509 2.78028C58.0792 2.55366 58.135 2.38102 58.2036 2.24819L56.4263 1.33091C56.2345 1.70264 56.1194 2.1078 56.0663 2.53222L58.0509 2.78028ZM58.2036 2.24819C58.2508 2.1567 58.3146 2.08539 58.4115 2.02402L57.3414 0.33438C56.95 0.582254 56.6395 0.917843 56.4263 1.33091L58.2036 2.24819ZM58.4115 2.02402C58.4402 2.00584 58.5612 1.94727 58.8652 1.94727V-0.0527344C58.3392 -0.0527344 57.801 0.0433177 57.3414 0.33438L58.4115 2.02402ZM58.8652 1.94727C59.1818 1.94727 59.305 2.00748 59.3312 2.02402L60.4013 0.33438C59.9391 0.041675 59.395 -0.0527344 58.8652 -0.0527344V1.94727ZM59.3312 2.02402C59.423 2.08218 59.4771 2.14603 59.5154 2.22511L61.3157 1.35399C61.1098 0.928518 60.7977 0.585463 60.4013 0.33438L59.3312 2.02402ZM59.5269 2.24819C59.5912 2.37283 59.6427 2.53671 59.6646 2.75575L61.6547 2.55675C61.6115 2.12475 61.5002 1.71083 61.3041 1.33091L59.5269 2.24819ZM59.6674 2.78028C59.7027 3.06298 59.7207 3.35517 59.7207 3.65723H61.7207C61.7207 3.27569 61.698 2.90056 61.6519 2.53222L59.6674 2.78028ZM59.7207 3.65723V15.3027H61.7207V3.65723H59.7207ZM59.7207 15.3027C59.7207 15.6047 59.7027 15.902 59.667 16.1949L61.6523 16.437C61.698 16.0625 61.7207 15.6843 61.7207 15.3027H59.7207ZM59.6646 16.2164C59.6427 16.4357 59.5906 16.6086 59.5211 16.7476L61.31 17.642C61.5009 17.2602 61.6115 16.8471 61.6547 16.4154L59.6646 16.2164ZM59.5154 16.7593C59.4771 16.8383 59.423 16.9022 59.3312 16.9604L60.4013 18.65C60.7977 18.3989 61.1098 18.0559 61.3157 17.6304L59.5154 16.7593ZM59.3312 16.9604C59.305 16.9769 59.1818 17.0371 58.8652 17.0371V19.0371C59.395 19.0371 59.9391 18.9427 60.4013 18.65L59.3312 16.9604ZM58.8652 17.0371C58.5612 17.0371 58.4402 16.9785 58.4115 16.9604L57.3414 18.65C57.801 18.9411 58.3392 19.0371 58.8652 19.0371V17.0371ZM58.4115 16.9604C58.3146 16.899 58.2508 16.8277 58.2036 16.7362L56.4263 17.6535C56.6395 18.0665 56.95 18.4021 57.3414 18.65L58.4115 16.9604ZM58.2094 16.7476C58.1359 16.6006 58.0793 16.419 58.0509 16.1919L56.0663 16.44C56.1193 16.8639 56.2336 17.2682 56.4205 17.642L58.2094 16.7476ZM58.0539 16.2188C58.0245 15.9181 58.0098 15.6127 58.0098 15.3027H56.0098C56.0098 15.6763 56.0276 16.0465 56.0633 16.413L58.0539 16.2188ZM58.0098 15.3027V3.65723H56.0098V15.3027H58.0098ZM66.7119 2.65625L65.7196 2.53222L65.7181 2.54446L65.7169 2.55675L66.7119 2.65625ZM66.9683 1.78955L67.8569 2.24819L66.9683 1.78955ZM70.0688 1.78955L69.1687 2.22511L69.1743 2.23673L69.1802 2.24819L70.0688 1.78955ZM70.313 2.65625L69.318 2.75575L69.3192 2.76804L69.3207 2.78028L70.313 2.65625ZM70.313 16.3159L69.3203 16.1949L69.319 16.2056L69.318 16.2164L70.313 16.3159ZM70.0688 17.1948L69.1743 16.7476L69.1687 16.7593L70.0688 17.1948ZM66.9683 17.1948L66.0738 17.6421L66.0796 17.6535L66.9683 17.1948ZM66.7119 16.3159L65.7166 16.413L65.718 16.4265L65.7196 16.44L66.7119 16.3159ZM67.6631 3.65723C67.6631 3.34719 67.6778 3.04677 67.707 2.75575L65.7169 2.55675C65.6809 2.91677 65.6631 3.28367 65.6631 3.65723H67.6631ZM67.7042 2.78028C67.7325 2.55366 67.7883 2.38102 67.8569 2.24819L66.0796 1.33091C65.8878 1.70264 65.7727 2.1078 65.7196 2.53222L67.7042 2.78028ZM67.8569 2.24819C67.9041 2.1567 67.9679 2.08539 68.0648 2.02402L66.9947 0.33438C66.6034 0.582254 66.2928 0.917843 66.0796 1.33091L67.8569 2.24819ZM68.0648 2.02402C68.0935 2.00584 68.2145 1.94727 68.5186 1.94727V-0.0527344C67.9925 -0.0527344 67.4543 0.0433177 66.9947 0.33438L68.0648 2.02402ZM68.5186 1.94727C68.8352 1.94727 68.9584 2.00748 68.9845 2.02402L70.0546 0.33438C69.5924 0.041675 69.0483 -0.0527344 68.5186 -0.0527344V1.94727ZM68.9845 2.02402C69.0763 2.08218 69.1304 2.14603 69.1687 2.22511L70.969 1.35399C70.7631 0.928518 70.451 0.585463 70.0546 0.33438L68.9845 2.02402ZM69.1802 2.24819C69.2446 2.37283 69.296 2.53671 69.318 2.75575L71.308 2.55675C71.2648 2.12475 71.1536 1.71083 70.9575 1.33091L69.1802 2.24819ZM69.3207 2.78028C69.356 3.06298 69.374 3.35517 69.374 3.65723H71.374C71.374 3.27569 71.3513 2.90056 71.3053 2.53222L69.3207 2.78028ZM69.374 3.65723V15.3027H71.374V3.65723H69.374ZM69.374 15.3027C69.374 15.6047 69.3561 15.902 69.3203 16.1949L71.3056 16.437C71.3513 16.0625 71.374 15.6843 71.374 15.3027H69.374ZM69.318 16.2164C69.296 16.4357 69.2439 16.6086 69.1744 16.7476L70.9633 17.642C71.1542 17.2602 71.2649 16.8471 71.308 16.4154L69.318 16.2164ZM69.1687 16.7593C69.1304 16.8383 69.0763 16.9022 68.9845 16.9604L70.0546 18.65C70.451 18.3989 70.7631 18.0559 70.969 17.6304L69.1687 16.7593ZM68.9845 16.9604C68.9584 16.9769 68.8352 17.0371 68.5186 17.0371V19.0371C69.0483 19.0371 69.5924 18.9427 70.0546 18.65L68.9845 16.9604ZM68.5186 17.0371C68.2145 17.0371 68.0935 16.9785 68.0648 16.9604L66.9947 18.65C67.4543 18.9411 67.9925 19.0371 68.5186 19.0371V17.0371ZM68.0648 16.9604C67.9679 16.899 67.9041 16.8277 67.8569 16.7362L66.0796 17.6535C66.2928 18.0665 66.6034 18.4021 66.9947 18.65L68.0648 16.9604ZM67.8627 16.7476C67.7892 16.6006 67.7326 16.419 67.7042 16.1919L65.7196 16.44C65.7726 16.8639 65.8869 17.2682 66.0738 17.642L67.8627 16.7476ZM67.7072 16.2188C67.6778 15.9181 67.6631 15.6127 67.6631 15.3027H65.6631C65.6631 15.6763 65.6809 16.0465 65.7166 16.413L67.7072 16.2188ZM67.6631 15.3027V3.65723H65.6631V15.3027H67.6631ZM95.9429 1.22803L95.66 2.1872L95.6633 2.18816L95.9429 1.22803ZM97.6152 2.07031L96.9938 2.85381L97.0013 2.85969L97.0088 2.86543L97.6152 2.07031ZM98.7383 3.44971L97.8386 3.88634L97.8439 3.89692L98.7383 3.44971ZM98.9458 14.6436L99.9067 14.9204L99.9079 14.9162L98.9458 14.6436ZM98.3965 15.9009L97.5528 15.364L97.5496 15.3691L98.3965 15.9009ZM97.6396 16.8042L98.2904 17.5635L98.2966 17.5582L98.3027 17.5528L97.6396 16.8042ZM96.7729 17.4023L96.3062 16.5179L96.3013 16.5206L96.7729 17.4023ZM94.3926 18.0371V19.0371H94.4201L94.4475 19.0356L94.3926 18.0371ZM89.2656 17.8052L88.7235 18.6455L88.7332 18.6517L88.7431 18.6578L89.2656 17.8052ZM88.7163 17.1704L87.7957 17.561L87.8002 17.5712L88.7163 17.1704ZM88.5088 16.2671L87.51 16.3158L87.5106 16.3279L87.5115 16.3401L88.5088 16.2671ZM88.5088 2.70508L87.5115 2.6321L87.5106 2.64422L87.51 2.65636L88.5088 2.70508ZM88.7163 1.81396L87.8002 1.41315L88.7163 1.81396ZM89.2656 1.19141L89.7882 2.04401L89.798 2.03797L89.8078 2.0317L89.2656 1.19141ZM92.1953 3.80371V2.80371H91.1953V3.80371H92.1953ZM92.1953 15.1318H91.1953V16.1318H92.1953V15.1318ZM93.7822 15.1318V16.1318H93.8055L93.8287 16.1308L93.7822 15.1318ZM94.7222 14.8877L94.275 13.9933L94.2646 13.9985L94.2543 14.0039L94.7222 14.8877ZM95.3691 14.314L96.1932 14.8805L96.2011 14.869L96.2087 14.8572L95.3691 14.314ZM95.5767 13.8257L94.62 13.5345L94.6141 13.5538L94.609 13.5733L95.5767 13.8257ZM95.5767 5.26855L94.6023 5.49341L94.6075 5.51593L94.6137 5.53818L95.5767 5.26855ZM94.7222 4.07227L95.2183 3.20398L95.21 3.19932L94.7222 4.07227ZM93.7822 3.80371L93.8518 2.80614L93.8171 2.80371H93.7822V3.80371ZM93.8799 1.94727C94.5359 1.94727 95.1273 2.03011 95.66 2.1872L96.2257 0.268858C95.4889 0.0516005 94.705 -0.0527344 93.8799 -0.0527344V1.94727ZM95.6633 2.18816C96.1958 2.34318 96.634 2.56843 96.9938 2.85381L98.2366 1.28681C97.6525 0.823501 96.9758 0.487223 96.2224 0.267891L95.6633 2.18816ZM97.0088 2.86543C97.3621 3.13491 97.6371 3.47101 97.8386 3.88631L99.6379 3.01311C99.3024 2.32164 98.8287 1.73813 98.2217 1.27519L97.0088 2.86543ZM97.8439 3.89692C98.0387 4.28669 98.1533 4.77502 98.1533 5.39062H100.153C100.153 4.52511 99.9912 3.7195 99.6327 3.00249L97.8439 3.89692ZM98.1533 5.39062V12.959H100.153V5.39062H98.1533ZM98.1533 12.959C98.1533 13.5236 98.0915 13.9903 97.9837 14.371L99.9079 14.9162C100.077 14.3203 100.153 13.6639 100.153 12.959H98.1533ZM97.9849 14.3667C97.8685 14.7708 97.7212 15.0993 97.5528 15.364L99.2401 16.4378C99.5275 15.9863 99.7465 15.4766 99.9067 14.9204L97.9849 14.3667ZM97.5496 15.3691C97.3762 15.6453 97.1843 15.8717 96.9766 16.0556L98.3027 17.5528C98.6647 17.2322 98.9773 16.8564 99.2434 16.4326L97.5496 15.3691ZM96.9889 16.0449C96.7532 16.2469 96.5254 16.4023 96.3062 16.518L97.2397 18.2867C97.6065 18.0932 97.9564 17.8498 98.2904 17.5635L96.9889 16.0449ZM96.3013 16.5206C95.7447 16.8183 95.0964 16.9969 94.3376 17.0386L94.4475 19.0356C95.4628 18.9797 96.4014 18.7351 97.2446 18.2841L96.3013 16.5206ZM94.3926 17.0371H90.3398V19.0371H94.3926V17.0371ZM90.3398 17.0371C89.9647 17.0371 89.8178 16.9707 89.7882 16.9526L88.7431 18.6578C89.218 18.9489 89.7873 19.0371 90.3398 19.0371V17.0371ZM89.8078 16.9649C89.7109 16.9024 89.6631 16.8396 89.6325 16.7696L87.8002 17.5712C87.9974 18.0221 88.3158 18.3825 88.7235 18.6455L89.8078 16.9649ZM89.6369 16.7799C89.5716 16.6258 89.5237 16.4342 89.5061 16.1941L87.5115 16.3401C87.5427 16.7673 87.6332 17.1779 87.7957 17.561L89.6369 16.7799ZM89.5076 16.2184C89.4922 15.902 89.4844 15.5725 89.4844 15.2295H87.4844C87.4844 15.6027 87.4929 15.9648 87.51 16.3158L89.5076 16.2184ZM89.4844 15.2295V3.73047H87.4844V15.2295H89.4844ZM89.4844 3.73047C89.4844 3.39602 89.4922 3.07049 89.5076 2.7538L87.51 2.65636C87.4929 3.00699 87.4844 3.36505 87.4844 3.73047H89.4844ZM89.5061 2.77805C89.5237 2.53794 89.5712 2.35475 89.6325 2.21478L87.8002 1.41315C87.6335 1.79401 87.5427 2.2049 87.5115 2.6321L89.5061 2.77805ZM89.6325 2.21478C89.661 2.14964 89.7026 2.09645 89.7882 2.04401L88.7431 0.338805C88.3241 0.595603 87.9995 0.957457 87.8002 1.41315L89.6325 2.21478ZM89.8078 2.0317C89.8328 2.01557 89.9714 1.94727 90.3398 1.94727V-0.0527344C89.7806 -0.0527344 89.203 0.0417238 88.7235 0.35111L89.8078 2.0317ZM90.3398 1.94727H93.8799V-0.0527344H90.3398V1.94727ZM91.1953 3.80371V15.1318H93.1953V3.80371H91.1953ZM92.1953 16.1318H93.7822V14.1318H92.1953V16.1318ZM93.8287 16.1308C94.3082 16.1085 94.7683 15.9947 95.1901 15.7715L94.2543 14.0039C94.1226 14.0736 93.9561 14.1227 93.7358 14.1329L93.8287 16.1308ZM95.1694 15.7821C95.368 15.6828 95.5494 15.5567 95.7148 15.415L94.4132 13.8965C94.3506 13.9501 94.3042 13.9787 94.275 13.9933L95.1694 15.7821ZM95.7148 15.415C95.898 15.258 96.0571 15.0784 96.1932 14.8805L94.5451 13.7474C94.5021 13.8099 94.4578 13.8582 94.4132 13.8965L95.7148 15.415ZM96.2087 14.8572C96.3652 14.6154 96.4731 14.3509 96.5443 14.0781L94.609 13.5733C94.5826 13.6748 94.5521 13.7359 94.5296 13.7707L96.2087 14.8572ZM96.5333 14.1168C96.6251 13.8153 96.6621 13.4982 96.6621 13.1787H94.6621C94.6621 13.3475 94.6421 13.4617 94.62 13.5345L96.5333 14.1168ZM96.6621 13.1787V5.97656H94.6621V13.1787H96.6621ZM96.6621 5.97656C96.6621 5.64025 96.6268 5.31012 96.5396 4.99892L94.6137 5.53818C94.6405 5.63389 94.6621 5.77577 94.6621 5.97656H96.6621ZM96.5511 5.0437C96.4845 4.75524 96.3833 4.47515 96.2346 4.2182L94.5037 5.22027C94.534 5.27257 94.5712 5.35869 94.6023 5.49341L96.5511 5.0437ZM96.2346 4.2182C96.1025 3.99012 95.9411 3.77846 95.7444 3.59582L94.3835 5.06141C94.4147 5.09036 94.4567 5.13911 94.5037 5.22027L96.2346 4.2182ZM95.7444 3.59582C95.5844 3.44725 95.4095 3.31329 95.2183 3.20402L94.226 4.94051C94.2627 4.96145 94.3157 4.99839 94.3835 5.06141L95.7444 3.59582ZM95.21 3.19932C94.7916 2.96552 94.3328 2.83969 93.8518 2.80614L93.7126 4.80129C93.9315 4.81656 94.0993 4.86977 94.2343 4.94521L95.21 3.19932ZM93.7822 2.80371H92.1953V4.80371H93.7822V2.80371ZM104.742 7.20947L104.009 6.52831L104.001 6.53766L104.742 7.20947ZM105.816 6.3916L105.376 5.49351L105.369 5.49717L105.816 6.3916ZM108.05 5.76904L107.977 4.77171L107.975 4.77184L108.05 5.76904ZM110.638 5.95215L110.38 6.9184L110.385 6.91977L110.638 5.95215ZM111.761 6.3916L111.298 7.27822L111.306 7.28221L111.761 6.3916ZM112.786 7.20947L112.028 7.86177L112.037 7.87167L112.786 7.20947ZM112.786 16.6577L112.037 15.9955L112.028 16.0055L112.786 16.6577ZM111.761 17.4756L111.306 16.5849L111.298 16.589L111.761 17.4756ZM110.638 17.915L110.385 16.9474L110.38 16.9488L110.638 17.915ZM108.05 18.0981L107.975 19.0953L107.977 19.0955L108.05 18.0981ZM105.816 17.4756L105.369 18.37L105.376 18.3736L105.816 17.4756ZM104.742 16.6577L104.001 17.3296L104.01 17.3388L104.742 16.6577ZM103.96 15.3516L103.029 15.7154L103.96 15.3516ZM107.415 14.3018H106.415V14.319L106.416 14.3362L107.415 14.3018ZM107.586 14.9243L108.462 14.4424L108.455 14.4289L108.447 14.4156L107.586 14.9243ZM108.001 15.3638L107.43 16.1847L107.45 16.1987L107.471 16.2118L108.001 15.3638ZM109.612 15.3638L110.176 16.19L110.183 16.1847L109.612 15.3638ZM110.027 14.9243L110.904 15.4062L110.905 15.4032L110.027 14.9243ZM110.198 14.3018L111.196 14.3706L111.198 14.3362V14.3018H110.198ZM110.198 9.88281H111.198V9.84952L111.196 9.81629L110.198 9.88281ZM110.027 9.21143L110.929 8.77869L110.917 8.75375L110.904 8.72951L110.027 9.21143ZM109.612 8.75977L108.979 9.53372L108.998 9.54931L109.018 9.56394L109.612 8.75977ZM108.001 8.75977L108.595 9.56396L108.601 9.55977L108.001 8.75977ZM107.586 9.21143L106.71 8.72951L106.704 8.73973L106.699 8.75007L107.586 9.21143ZM107.415 9.88281L106.416 9.8495L106.415 9.86615V9.88281H107.415ZM104.655 10.4199C104.655 9.75601 104.746 9.25236 104.892 8.87948L103.029 8.15177C102.768 8.82056 102.655 9.58644 102.655 10.4199H104.655ZM104.892 8.87948C105.059 8.45168 105.26 8.12614 105.482 7.88129L104.001 6.53766C103.588 6.99267 103.269 7.5379 103.029 8.15177L104.892 8.87948ZM105.474 7.89058C105.726 7.61996 105.989 7.42302 106.263 7.28603L105.369 5.49717C104.861 5.7508 104.409 6.09912 104.01 6.52837L105.474 7.89058ZM106.256 7.28966C106.6 7.12083 106.927 6.99981 107.235 6.92107L106.74 4.98323C106.284 5.09979 105.829 5.27175 105.376 5.49354L106.256 7.28966ZM107.235 6.92107C107.572 6.83498 107.868 6.78549 108.125 6.76624L107.975 4.77184C107.581 4.80142 107.168 4.87401 106.74 4.98323L107.235 6.92107ZM108.123 6.76638C108.448 6.74259 108.68 6.73242 108.831 6.73242V4.73242C108.608 4.73242 108.319 4.74667 107.977 4.77171L108.123 6.76638ZM108.831 6.73242C108.982 6.73242 109.209 6.74254 109.525 6.76624L109.675 4.77184C109.34 4.74671 109.055 4.73242 108.831 4.73242V6.73242ZM109.525 6.76624C109.78 6.78535 110.064 6.83421 110.38 6.91838L110.895 4.98591C110.479 4.87478 110.071 4.80156 109.675 4.77184L109.525 6.76624ZM110.385 6.91977C110.68 6.99677 110.985 7.11457 111.298 7.27819L112.223 5.50502C111.788 5.27801 111.344 5.10284 110.89 4.98453L110.385 6.91977ZM111.306 7.28221C111.564 7.41419 111.805 7.60272 112.028 7.86171L113.544 6.55723C113.165 6.11636 112.722 5.75964 112.216 5.501L111.306 7.28221ZM112.037 7.87167C112.251 8.11455 112.446 8.43882 112.607 8.86675L114.479 8.1645C114.249 7.55076 113.939 7.00426 113.535 6.54727L112.037 7.87167ZM112.607 8.86675C112.748 9.24389 112.836 9.75224 112.836 10.4199H114.836C114.836 9.59021 114.728 8.82903 114.479 8.1645L112.607 8.86675ZM112.836 10.4199V13.4473H114.836V10.4199H112.836ZM112.836 13.4473C112.836 14.1149 112.748 14.6233 112.607 15.0004L114.479 15.7027C114.728 15.0382 114.836 14.277 114.836 13.4473H112.836ZM112.607 15.0004C112.446 15.4284 112.251 15.7526 112.037 15.9955L113.535 17.3199C113.939 16.8629 114.249 16.3164 114.479 15.7027L112.607 15.0004ZM112.028 16.0055C111.805 16.2645 111.564 16.453 111.306 16.585L112.216 18.3662C112.722 18.1075 113.165 17.7508 113.544 17.31L112.028 16.0055ZM111.298 16.589C110.985 16.7526 110.68 16.8704 110.385 16.9474L110.89 18.8827C111.344 18.7643 111.788 18.5892 112.223 18.3622L111.298 16.589ZM110.38 16.9488C110.064 17.033 109.78 17.0818 109.525 17.1009L109.675 19.0953C110.071 19.0656 110.479 18.9924 110.895 18.8813L110.38 16.9488ZM109.525 17.1009C109.209 17.1246 108.982 17.1348 108.831 17.1348V19.1348C109.055 19.1348 109.34 19.1205 109.675 19.0953L109.525 17.1009ZM108.831 17.1348C108.68 17.1348 108.448 17.1246 108.123 17.1008L107.977 19.0955C108.319 19.1205 108.608 19.1348 108.831 19.1348V17.1348ZM108.125 17.1009C107.868 17.0817 107.572 17.0322 107.235 16.9461L106.74 18.884C107.168 18.9932 107.581 19.0658 107.975 19.0953L108.125 17.1009ZM107.235 16.9461C106.927 16.8674 106.6 16.7464 106.256 16.5775L105.376 18.3736C105.829 18.5954 106.284 18.7674 106.74 18.884L107.235 16.9461ZM106.263 16.5812C105.989 16.4442 105.726 16.2472 105.474 15.9766L104.01 17.3388C104.409 17.7681 104.861 18.1164 105.369 18.37L106.263 16.5812ZM105.482 15.9859C105.26 15.741 105.059 15.4155 104.892 14.9877L103.029 15.7154C103.269 16.3293 103.588 16.8745 104.001 17.3295L105.482 15.9859ZM104.892 14.9877C104.746 14.6148 104.655 14.1112 104.655 13.4473H102.655C102.655 14.2807 102.768 15.0466 103.029 15.7154L104.892 14.9877ZM104.655 13.4473V10.4199H102.655V13.4473H104.655ZM106.416 14.3362C106.429 14.7165 106.523 15.0914 106.725 15.433L108.447 14.4156C108.437 14.3991 108.418 14.3591 108.414 14.2673L106.416 14.3362ZM106.71 15.4062C106.888 15.7312 107.145 15.9861 107.43 16.1847L108.572 14.5429C108.483 14.481 108.462 14.4429 108.462 14.4424L106.71 15.4062ZM107.471 16.2118C107.89 16.4739 108.381 16.5469 108.831 16.5469V14.5469C108.706 14.5469 108.622 14.536 108.57 14.5246C108.519 14.5132 108.513 14.5042 108.531 14.5158L107.471 16.2118ZM108.831 16.5469C109.267 16.5469 109.76 16.4734 110.176 16.19L109.049 14.5375C109.082 14.5151 109.092 14.5187 109.055 14.5275C109.016 14.5364 108.945 14.5469 108.831 14.5469V16.5469ZM110.183 16.1847C110.469 15.9861 110.725 15.7312 110.904 15.4062L109.151 14.4424C109.151 14.4429 109.13 14.481 109.041 14.5429L110.183 16.1847ZM110.905 15.4032C111.082 15.079 111.171 14.7274 111.196 14.3706L109.201 14.233C109.193 14.3481 109.168 14.4116 109.149 14.4455L110.905 15.4032ZM111.198 14.3018V9.88281H109.198V14.3018H111.198ZM111.196 9.81629C111.172 9.45584 111.086 9.10632 110.929 8.77869L109.126 9.64416C109.164 9.72344 109.192 9.82151 109.2 9.94933L111.196 9.81629ZM110.904 8.72951C110.729 8.41247 110.481 8.15867 110.207 7.95559L109.018 9.56394C109.118 9.63755 109.146 9.68486 109.151 9.69334L110.904 8.72951ZM110.246 7.98581C109.82 7.63753 109.297 7.54004 108.831 7.54004V9.54004C108.933 9.54004 108.989 9.55129 109.012 9.55762C109.032 9.56321 109.013 9.56117 108.979 9.53372L110.246 7.98581ZM108.831 7.54004C108.353 7.54004 107.833 7.6354 107.401 7.95977L108.601 9.55977C108.58 9.5758 108.576 9.57096 108.611 9.56168C108.648 9.55187 108.718 9.54004 108.831 9.54004V7.54004ZM107.407 7.95559C107.132 8.15867 106.884 8.41247 106.71 8.72951L108.462 9.69334C108.467 9.68486 108.496 9.63755 108.595 9.56394L107.407 7.95559ZM106.699 8.75007C106.52 9.09459 106.428 9.46604 106.416 9.8495L108.414 9.91613C108.418 9.81131 108.441 9.73516 108.473 9.67278L106.699 8.75007ZM106.415 9.88281V14.3018H108.415V9.88281H106.415ZM126.871 7.62451L126.228 8.39103L126.24 8.40038L126.251 8.40939L126.871 7.62451ZM127.688 8.95508L126.75 9.29969L126.752 9.30693L127.688 8.95508ZM128.982 12.3975L128.046 12.7493L128.29 13.3975H128.982V12.3975ZM129.178 12.3975V13.3975H129.932L130.139 12.6722L129.178 12.3975ZM130.545 7.6123L131.506 7.88703L130.545 7.6123ZM130.789 6.95312L129.895 6.50591L129.888 6.51988L129.881 6.53407L130.789 6.95312ZM131.167 6.3916L131.911 7.06057L131.919 7.05158L131.927 7.04239L131.167 6.3916ZM131.692 5.98877L132.125 6.89029L132.14 6.88337L132.154 6.87599L131.692 5.98877ZM133.169 5.98877L132.708 6.87599L133.169 5.98877ZM133.938 8.30811L132.983 8.01402L132.979 8.0262L132.976 8.03848L133.938 8.30811ZM133.743 8.93066L134.679 9.28283L134.684 9.27036L134.688 9.25777L133.743 8.93066ZM131.033 16.1328L131.965 16.496L131.969 16.485L131.033 16.1328ZM130.521 17.2437L129.661 16.7331L129.656 16.7415L130.521 17.2437ZM130.081 17.8052L130.695 18.5945L130.708 18.5842L130.721 18.5734L130.081 17.8052ZM129.642 18.0127L129.752 19.0066L129.779 19.0036L129.806 18.9991L129.642 18.0127ZM128.665 18.0127L128.509 19.0005L128.537 19.0049L128.566 19.0077L128.665 18.0127ZM128.189 17.8052L127.569 18.5901L127.592 18.6079L127.616 18.6244L128.189 17.8052ZM127.713 17.2437L126.865 17.7737L126.869 17.7797L126.873 17.7858L127.713 17.2437ZM127.2 16.1328L126.239 16.4104L126.25 16.4467L126.263 16.4822L127.2 16.1328ZM125.931 11.7383L126.891 11.4607L126.683 10.7383H125.931V11.7383ZM125.735 11.7383V10.7383H124.991L124.778 11.4509L125.735 11.7383ZM124.417 16.1328L125.354 16.4822L125.365 16.4515L125.375 16.4202L124.417 16.1328ZM123.917 17.2437L123.057 16.7331L123.052 16.7415L123.917 17.2437ZM123.477 17.8052L124.113 18.5771L124.117 18.5734L123.477 17.8052ZM123.05 18.0127L123.16 19.0066L123.187 19.0036L123.214 18.9991L123.05 18.0127ZM122.073 18.0127L121.917 19.0005L121.945 19.0049L121.974 19.0077L122.073 18.0127ZM121.597 17.8052L120.978 18.5901L121 18.6079L121.024 18.6244L121.597 17.8052ZM121.121 17.2437L120.273 17.7737L120.277 17.7797L120.281 17.7858L121.121 17.2437ZM120.608 16.1328L121.545 15.7834L121.543 15.7779L120.608 16.1328ZM117.874 8.93066L116.938 9.28179L116.939 9.2856L117.874 8.93066ZM117.667 8.30811L116.696 8.55064L116.702 8.57154L116.708 8.59219L117.667 8.30811ZM117.667 6.95312L116.708 6.66904L116.703 6.68552L116.699 6.70216L117.667 6.95312ZM117.959 6.37939L117.182 5.75019L117.179 5.7547L117.959 6.37939ZM119.925 5.98877L119.416 6.8497L119.439 6.86313L119.462 6.87535L119.925 5.98877ZM120.425 6.3916L119.666 7.04239L119.674 7.05158L119.682 7.06057L120.425 6.3916ZM121.072 7.6123L122.024 7.3063L121.072 7.6123ZM122.61 12.3975L121.658 12.7035L121.881 13.3975H122.61V12.3975ZM122.806 12.3975V13.3975H123.531L123.756 12.7076L122.806 12.3975ZM123.929 8.95508L124.879 9.26524L124.882 9.25679L123.929 8.95508ZM124.734 7.62451L125.325 8.43155L125.328 8.42909L124.734 7.62451ZM125.833 8.24609C125.987 8.24609 126.106 8.28865 126.228 8.39103L127.513 6.85799C127.033 6.45582 126.46 6.24609 125.833 6.24609V8.24609ZM126.251 8.40939C126.344 8.48264 126.536 8.71812 126.75 9.29968L128.627 8.61047C128.369 7.90623 128.016 7.25466 127.49 6.83963L126.251 8.40939ZM126.752 9.30693L128.046 12.7493L129.918 12.0456L128.625 8.60323L126.752 9.30693ZM128.982 13.3975H129.178V11.3975H128.982V13.3975ZM130.139 12.6722L131.506 7.88703L129.583 7.33758L128.216 12.1227L130.139 12.6722ZM131.506 7.88703C131.558 7.70774 131.621 7.53632 131.697 7.37218L129.881 6.53407C129.762 6.7931 129.662 7.06114 129.583 7.33758L131.506 7.88703ZM131.683 7.40034C131.752 7.26271 131.829 7.15141 131.911 7.06057L130.424 5.72264C130.213 5.95732 130.037 6.22037 129.895 6.50591L131.683 7.40034ZM131.927 7.04239C131.983 6.9771 132.046 6.92808 132.125 6.89029L131.26 5.08725C130.931 5.24477 130.645 5.46431 130.408 5.74081L131.927 7.04239ZM132.154 6.87599C132.184 6.8601 132.262 6.83008 132.425 6.83008V4.83008C132.018 4.83008 131.607 4.90585 131.231 5.10155L132.154 6.87599ZM132.425 6.83008C132.601 6.83008 132.681 6.862 132.708 6.87599L133.631 5.10155C133.251 4.90395 132.835 4.83008 132.425 4.83008V6.83008ZM132.708 6.87599C132.79 6.91848 132.84 6.96393 132.874 7.00985L134.465 5.79777C134.24 5.50189 133.956 5.27065 133.631 5.10155L132.708 6.87599ZM132.874 7.00985C132.92 7.06913 132.957 7.14225 132.983 7.24071L134.919 6.73878C134.83 6.39779 134.681 6.08028 134.465 5.79777L132.874 7.00985ZM132.983 7.24071C133.018 7.37815 133.036 7.51761 133.036 7.66113H135.036C135.036 7.34893 134.997 7.04079 134.919 6.73878L132.983 7.24071ZM133.036 7.66113C133.036 7.78042 133.019 7.89698 132.983 8.01402L134.894 8.60219C134.988 8.29605 135.036 7.9813 135.036 7.66113H133.036ZM132.976 8.03848C132.924 8.22148 132.865 8.40982 132.798 8.60355L134.688 9.25777C134.768 9.02833 134.839 8.80163 134.901 8.57774L132.976 8.03848ZM132.807 8.5785L130.097 15.7806L131.969 16.485L134.679 9.28283L132.807 8.5785ZM130.101 15.7696C129.922 16.2288 129.775 16.5411 129.661 16.7331L131.38 17.7542C131.576 17.4253 131.77 16.9971 131.965 16.496L130.101 15.7696ZM129.656 16.7415C129.54 16.9405 129.463 17.0185 129.441 17.037L130.721 18.5734C130.992 18.3477 131.208 18.0513 131.385 17.7458L129.656 16.7415ZM129.467 17.0158C129.444 17.0341 129.432 17.0391 129.434 17.0383C129.435 17.0378 129.44 17.0358 129.447 17.0334C129.455 17.031 129.465 17.0284 129.477 17.0263L129.806 18.9991C130.152 18.9414 130.45 18.7854 130.695 18.5945L129.467 17.0158ZM129.531 17.0188C129.425 17.0306 129.307 17.0371 129.178 17.0371V19.0371C129.374 19.0371 129.565 19.0273 129.752 19.0066L129.531 17.0188ZM129.178 17.0371C129.029 17.0371 128.891 17.0303 128.765 17.0177L128.566 19.0077C128.764 19.0276 128.969 19.0371 129.178 19.0371V17.0371ZM128.821 17.0249C128.851 17.0297 128.833 17.0355 128.762 16.9859L127.616 18.6244C127.87 18.8027 128.169 18.9468 128.509 19.0005L128.821 17.0249ZM128.809 17.0203C128.773 16.9923 128.684 16.9045 128.553 16.7015L126.873 17.7858C127.067 18.0873 127.295 18.3739 127.569 18.5901L128.809 17.0203ZM128.561 16.7137C128.45 16.5355 128.306 16.2363 128.137 15.7834L126.263 16.4822C126.452 16.9896 126.651 17.431 126.865 17.7737L128.561 16.7137ZM128.161 15.8553L126.891 11.4607L124.97 12.0158L126.239 16.4104L128.161 15.8553ZM125.931 10.7383H125.735V12.7383H125.931V10.7383ZM124.778 11.4509L123.459 15.8455L125.375 16.4202L126.693 12.0256L124.778 11.4509ZM123.48 15.7834C123.31 16.2403 123.167 16.5471 123.057 16.7331L124.776 17.7542C124.975 17.4193 125.166 16.9856 125.354 16.4822L123.48 15.7834ZM123.052 16.7415C122.936 16.9405 122.859 17.0185 122.837 17.037L124.117 18.5734C124.388 18.3477 124.604 18.0513 124.781 17.7458L123.052 16.7415ZM122.841 17.0332C122.825 17.0465 122.821 17.0471 122.83 17.043C122.839 17.0385 122.858 17.0309 122.885 17.0263L123.214 18.9991C123.566 18.9404 123.867 18.7796 124.113 18.5771L122.841 17.0332ZM122.939 17.0188C122.833 17.0306 122.716 17.0371 122.586 17.0371V19.0371C122.782 19.0371 122.974 19.0273 123.16 19.0066L122.939 17.0188ZM122.586 17.0371C122.437 17.0371 122.3 17.0303 122.173 17.0177L121.974 19.0077C122.172 19.0276 122.377 19.0371 122.586 19.0371V17.0371ZM122.229 17.0249C122.26 17.0297 122.241 17.0355 122.171 16.9859L121.024 18.6244C121.278 18.8027 121.578 18.9468 121.917 19.0005L122.229 17.0249ZM122.217 17.0203C122.181 16.9923 122.092 16.9045 121.961 16.7015L120.281 17.7858C120.475 18.0873 120.704 18.3739 120.978 18.5901L122.217 17.0203ZM121.969 16.7137C121.858 16.5355 121.714 16.2363 121.545 15.7834L119.671 16.4822C119.861 16.9896 120.059 17.431 120.273 17.7737L121.969 16.7137ZM121.543 15.7779L118.809 8.57572L116.939 9.2856L119.674 16.4878L121.543 15.7779ZM118.81 8.57954C118.746 8.40833 118.684 8.22332 118.625 8.02402L116.708 8.59219C116.779 8.83235 116.855 9.06237 116.938 9.28179L118.81 8.57954ZM118.637 8.06557C118.598 7.91159 118.581 7.76926 118.581 7.63672H116.581C116.581 7.94363 116.621 8.24889 116.696 8.55064L118.637 8.06557ZM118.581 7.63672C118.581 7.48202 118.6 7.33865 118.635 7.20409L116.699 6.70216C116.619 7.00705 116.581 7.31941 116.581 7.63672H118.581ZM118.625 7.23721C118.657 7.12909 118.699 7.05628 118.74 7.00409L117.179 5.7547C116.96 6.02803 116.806 6.33771 116.708 6.66904L118.625 7.23721ZM118.737 7.00859C118.767 6.97177 118.814 6.92995 118.903 6.89037L118.09 5.06275C117.74 5.21849 117.429 5.44523 117.182 5.7502L118.737 7.00859ZM118.903 6.89037C118.958 6.86587 119.082 6.83008 119.314 6.83008V4.83008C118.896 4.83008 118.475 4.89195 118.09 5.06275L118.903 6.89037ZM119.314 6.83008C119.381 6.83008 119.406 6.84353 119.416 6.8497L120.434 5.12784C120.086 4.92242 119.704 4.83008 119.314 4.83008V6.83008ZM119.462 6.87535C119.529 6.91022 119.597 6.96181 119.666 7.04239L121.185 5.74081C120.961 5.47959 120.695 5.26263 120.387 5.10218L119.462 6.87535ZM119.682 7.06057C119.764 7.15141 119.84 7.26271 119.909 7.40034L121.698 6.50591C121.555 6.22037 121.38 5.95732 121.169 5.72264L119.682 7.06057ZM119.909 7.40034C119.992 7.56586 120.062 7.73834 120.12 7.91831L122.024 7.3063C121.936 7.03054 121.827 6.76357 121.698 6.50591L119.909 7.40034ZM120.12 7.91831L121.658 12.7035L123.562 12.0915L122.024 7.3063L120.12 7.91831ZM122.61 13.3975H122.806V11.3975H122.61V13.3975ZM123.756 12.7076L124.879 9.26523L122.978 8.64493L121.855 12.0873L123.756 12.7076ZM124.882 9.25679C125.058 8.69942 125.241 8.49304 125.325 8.43154L124.144 6.81748C123.561 7.24426 123.206 7.92493 122.975 8.65337L124.882 9.25679ZM125.328 8.42909C125.514 8.292 125.675 8.24609 125.833 8.24609V6.24609C125.21 6.24609 124.638 6.45247 124.141 6.81994L125.328 8.42909ZM148.292 17.1704L147.408 16.7013L147.403 16.7122L147.397 16.7232L148.292 17.1704ZM147.718 17.8052L148.253 18.65L148.26 18.6455L147.718 17.8052ZM145.728 17.8052L145.173 18.6372L145.183 18.6437L145.193 18.65L145.728 17.8052ZM144.91 16.2793L143.915 16.3764L143.916 16.3884L143.918 16.4004L144.91 16.2793ZM144.825 9.82178L143.827 9.89565L143.829 9.91396L143.831 9.93221L144.825 9.82178ZM144.69 9.24805L143.771 9.64197L143.775 9.65022L143.779 9.65841L144.69 9.24805ZM144.361 8.84521L143.753 9.63957L143.779 9.65927L143.806 9.67727L144.361 8.84521ZM142.981 9.01611L143.715 9.69552L142.981 9.01611ZM142.493 9.91943L141.541 9.61539L141.538 9.62465L141.535 9.63396L142.493 9.91943ZM142.261 11.2744L143.258 11.3535L143.258 11.3523L142.261 11.2744ZM141.871 17.1704L140.987 16.7013L140.982 16.7122L140.976 16.7232L141.871 17.1704ZM141.297 17.8052L141.832 18.65L141.839 18.6455L141.297 17.8052ZM139.307 17.8052L138.752 18.6372L138.762 18.6437L138.772 18.65L139.307 17.8052ZM138.746 17.1704L139.64 16.7232L138.746 17.1704ZM138.489 16.2793L137.494 16.3764L137.495 16.3884L137.497 16.4004L138.489 16.2793ZM138.477 7.57568L139.474 7.65047L139.474 7.64866L138.477 7.57568ZM138.697 6.69678L139.597 7.13237L139.602 7.12121L138.697 6.69678ZM139.246 6.07422L139.781 6.91907L139.788 6.91452L139.246 6.07422ZM141.346 6.06201L140.823 6.91461L140.833 6.92083L140.844 6.9268L141.346 6.06201ZM141.907 6.59912L141.041 7.09884L141.048 7.11113L141.056 7.12322L141.907 6.59912ZM142.2 7.88086H141.2L143.164 8.14679L142.2 7.88086ZM143.03 6.50146L142.366 5.75406L142.359 5.76029L142.352 5.76666L143.03 6.50146ZM143.812 6.02539L144.187 6.95213L144.198 6.94781L144.208 6.94325L143.812 6.02539ZM148.279 8.125L147.35 8.49406L147.355 8.50575L148.279 8.125ZM147.621 15.2539C147.621 15.565 147.603 15.8664 147.567 16.1582L149.553 16.4004C149.598 16.0249 149.621 15.6427 149.621 15.2539H147.621ZM147.567 16.1582C147.54 16.387 147.482 16.5632 147.408 16.7013L149.175 17.6396C149.378 17.2568 149.499 16.8389 149.553 16.4004L147.567 16.1582ZM147.397 16.7232C147.35 16.8182 147.282 16.8961 147.176 16.9649L148.26 18.6455C148.658 18.3888 148.973 18.0434 149.186 17.6176L147.397 16.7232ZM147.183 16.9604C147.157 16.9769 147.033 17.0371 146.717 17.0371V19.0371C147.247 19.0371 147.791 18.9427 148.253 18.65L147.183 16.9604ZM146.717 17.0371C146.413 17.0371 146.292 16.9785 146.263 16.9604L145.193 18.65C145.653 18.9411 146.191 19.0371 146.717 19.0371V17.0371ZM146.283 16.9731C146.182 16.9061 146.113 16.8267 146.061 16.7232L144.272 17.6176C144.481 18.035 144.786 18.3787 145.173 18.6372L146.283 16.9731ZM146.061 16.7232C145.989 16.5795 145.932 16.3956 145.903 16.1582L143.918 16.4004C143.97 16.8303 144.083 17.2404 144.272 17.6176L146.061 16.7232ZM145.905 16.1822C145.876 15.8822 145.861 15.5728 145.861 15.2539H143.861C143.861 15.6349 143.879 16.0091 143.915 16.3764L145.905 16.1822ZM145.861 15.2539V10.4932H143.861V15.2539H145.861ZM145.861 10.4932C145.861 10.2295 145.847 9.96884 145.819 9.71135L143.831 9.93221C143.851 10.1142 143.861 10.3011 143.861 10.4932H145.861ZM145.822 9.74791C145.799 9.43817 145.733 9.12841 145.602 8.83768L143.779 9.65841C143.794 9.69321 143.818 9.76593 143.827 9.89565L145.822 9.74791ZM145.61 8.85413C145.464 8.51544 145.233 8.2246 144.916 8.01316L143.806 9.67727C143.798 9.67189 143.788 9.66318 143.779 9.6524C143.771 9.64196 143.769 9.63654 143.771 9.64197L145.61 8.85413ZM144.968 8.05086C144.598 7.76738 144.165 7.68652 143.787 7.68652V9.68652C143.839 9.68652 143.856 9.69234 143.847 9.69001C143.836 9.68704 143.799 9.67454 143.753 9.63957L144.968 8.05086ZM143.787 7.68652C143.21 7.68652 142.663 7.88806 142.248 8.33671L143.715 9.69552C143.719 9.69094 143.721 9.69047 143.719 9.69181C143.717 9.69322 143.715 9.69421 143.714 9.69447C143.712 9.69551 143.731 9.68652 143.787 9.68652V7.68652ZM142.248 8.33671C141.917 8.6941 141.693 9.13846 141.541 9.61539L143.446 10.2235C143.538 9.93543 143.639 9.77758 143.715 9.69552L142.248 8.33671ZM141.535 9.63396C141.396 10.1011 141.309 10.6256 141.264 11.1965L143.258 11.3523C143.295 10.8816 143.363 10.5027 143.452 10.2049L141.535 9.63396ZM141.264 11.1953C141.221 11.738 141.2 12.318 141.2 12.9346H143.2C143.2 12.363 143.22 11.8362 143.258 11.3535L141.264 11.1953ZM141.2 12.9346V15.2539H143.2V12.9346H141.2ZM141.2 15.2539C141.2 15.565 141.182 15.8664 141.147 16.1582L143.132 16.4004C143.178 16.0249 143.2 15.6427 143.2 15.2539H141.2ZM141.147 16.1582C141.119 16.387 141.061 16.5632 140.987 16.7013L142.754 17.6396C142.957 17.2568 143.078 16.8389 143.132 16.4004L141.147 16.1582ZM140.976 16.7232C140.929 16.8182 140.861 16.8961 140.755 16.9649L141.839 18.6455C142.237 18.3888 142.552 18.0434 142.765 17.6176L140.976 16.7232ZM140.762 16.9604C140.736 16.9769 140.613 17.0371 140.296 17.0371V19.0371C140.826 19.0371 141.37 18.9427 141.832 18.65L140.762 16.9604ZM140.296 17.0371C139.992 17.0371 139.871 16.9785 139.842 16.9604L138.772 18.65C139.232 18.9411 139.77 19.0371 140.296 19.0371V17.0371ZM139.862 16.9731C139.761 16.9061 139.692 16.8267 139.64 16.7232L137.851 17.6176C138.06 18.035 138.365 18.3787 138.752 18.6372L139.862 16.9731ZM139.64 16.7232C139.568 16.5795 139.511 16.3956 139.482 16.1582L137.497 16.4004C137.549 16.8303 137.663 17.2404 137.851 17.6176L139.64 16.7232ZM139.485 16.1822C139.455 15.8822 139.44 15.5728 139.44 15.2539H137.44C137.44 15.6349 137.458 16.0091 137.494 16.3764L139.485 16.1822ZM139.44 15.2539V8.58887H137.44V15.2539H139.44ZM139.44 8.58887C139.44 8.26212 139.452 7.94941 139.474 7.65047L137.48 7.50089C137.453 7.853 137.44 8.21574 137.44 8.58887H139.44ZM139.474 7.64866C139.491 7.41706 139.539 7.25127 139.597 7.13234L137.797 6.26122C137.61 6.64684 137.512 7.06699 137.48 7.50271L139.474 7.64866ZM139.602 7.12121C139.643 7.03423 139.697 6.97221 139.781 6.91904L138.711 5.2294C138.307 5.48547 137.995 5.83849 137.791 6.27234L139.602 7.12121ZM139.788 6.91452C139.818 6.89538 139.952 6.83008 140.296 6.83008V4.83008C139.744 4.83008 139.179 4.92754 138.704 5.23392L139.788 6.91452ZM140.296 6.83008C140.647 6.83008 140.789 6.89373 140.823 6.91461L141.868 5.20941C141.398 4.92105 140.84 4.83008 140.296 4.83008V6.83008ZM140.844 6.9268C140.974 7.00259 141.022 7.06564 141.041 7.09884L142.773 6.0994C142.548 5.70942 142.222 5.4144 141.848 5.19722L140.844 6.9268ZM141.056 7.12322C141.116 7.22186 141.148 7.31443 141.161 7.40715L143.142 7.13387C143.09 6.75458 142.959 6.39956 142.759 6.07502L141.056 7.12322ZM141.161 7.40715C141.189 7.61406 141.2 7.76952 141.2 7.88086H143.2C143.2 7.6504 143.179 7.39896 143.142 7.13387L141.161 7.40715ZM143.164 8.14679C143.205 8.00061 143.272 7.83645 143.375 7.65366L141.635 6.66763C141.462 6.97312 141.326 7.28911 141.236 7.61493L143.164 8.14679ZM143.375 7.65366C143.461 7.5019 143.571 7.36325 143.709 7.23627L142.352 5.76666C142.066 6.03031 141.826 6.33111 141.635 6.66763L143.375 7.65366ZM143.695 7.24887C143.821 7.13692 143.981 7.03582 144.187 6.95213L143.436 5.09865C143.04 5.2591 142.679 5.47538 142.366 5.75406L143.695 7.24887ZM144.208 6.94325C144.36 6.87758 144.57 6.83008 144.861 6.83008V4.83008C144.355 4.83008 143.865 4.91279 143.415 5.10753L144.208 6.94325ZM144.861 6.83008C145.198 6.83008 145.541 6.88485 145.893 7.0002L146.515 5.09941C145.972 4.92179 145.42 4.83008 144.861 4.83008V6.83008ZM145.893 7.0002C146.192 7.0979 146.466 7.26143 146.722 7.50558L148.103 6.05887C147.643 5.61943 147.112 5.29468 146.515 5.09941L145.893 7.0002ZM146.722 7.50558C146.957 7.72977 147.173 8.04788 147.35 8.49403L149.209 7.75597C148.946 7.09535 148.584 6.51828 148.103 6.05887L146.722 7.50558ZM147.355 8.50575C147.518 8.90335 147.621 9.44849 147.621 10.1758H149.621C149.621 9.27546 149.496 8.45342 149.204 7.74425L147.355 8.50575ZM147.621 10.1758V15.2539H149.621V10.1758H147.621Z" fill="black"/>
</g>
<defs>
<filter id="filter0_b_3_1664" x="-3.96289" y="-3.15039" width="156.584" height="25.2852" filterUnits="userSpaceOnUse" color-interpolation-filters="sRGB">
<feFlood flood-opacity="0" result="BackgroundImageFix"/>
<feGaussianBlur in="BackgroundImage" stdDeviation="2"/>
<feComposite in2="SourceAlpha" operator="in" result="effect1_backgroundBlur_3_1664"/>
<feBlend mode="normal" in="SourceGraphic" in2="effect1_backgroundBlur_3_1664" result="shape"/>
</filter>
</defs>
</svg>
