<svg width="78" height="26" viewBox="0 0 78 26" fill="none" xmlns="http://www.w3.org/2000/svg">
<g filter="url(#filter0_bd_3_1667)">
<path d="M8.70215 5.0625C8.71029 5.4043 8.80794 5.71354 8.99512 5.99023C9.19043 6.25879 9.44271 6.51514 9.75195 6.75928C10.0693 7.00342 10.4274 7.24349 10.8262 7.47949C11.2249 7.70736 11.6318 7.9515 12.0469 8.21191C12.4701 8.46419 12.881 8.74089 13.2798 9.04199C13.6785 9.3431 14.0366 9.6849 14.354 10.0674C14.6714 10.4499 14.9277 10.8812 15.123 11.3613C15.3184 11.8415 15.4242 12.3867 15.4404 12.9971V13.0947C15.4404 13.762 15.359 14.3439 15.1963 14.8403C15.0335 15.3368 14.8179 15.764 14.5493 16.1221C14.2808 16.4801 13.9674 16.7772 13.6094 17.0132C13.2513 17.241 12.8729 17.4242 12.4741 17.5625C12.0835 17.7008 11.6847 17.7985 11.2778 17.8555C10.8791 17.9124 10.5007 17.945 10.1426 17.9531H10.0205C9.32878 17.9531 8.72249 17.884 8.20166 17.7456C7.68083 17.6073 7.23324 17.4242 6.85889 17.1963C6.48454 16.9603 6.17122 16.6917 5.91895 16.3906C5.6748 16.0895 5.47949 15.7803 5.33301 15.4629C5.18652 15.1374 5.08073 14.8159 5.01562 14.4985C4.95052 14.1812 4.91797 13.8841 4.91797 13.6074C4.91797 13.3226 4.9668 13.0744 5.06445 12.8628C5.16211 12.6512 5.28825 12.4803 5.44287 12.3501C5.60563 12.2118 5.78874 12.11 5.99219 12.0449C6.20378 11.9798 6.4235 11.9473 6.65137 11.9473C6.86296 11.9473 7.07861 11.9798 7.29834 12.0449C7.5262 12.11 7.72965 12.2118 7.90869 12.3501C8.09587 12.4803 8.24642 12.6512 8.36035 12.8628C8.48242 13.0662 8.54753 13.3063 8.55566 13.583C8.57194 14.1934 8.71029 14.6125 8.9707 14.8403C9.23112 15.0601 9.60547 15.1699 10.0938 15.1699C10.3379 15.1618 10.5617 15.1333 10.7651 15.0845C10.9767 15.0275 11.1558 14.9339 11.3022 14.8037C11.4487 14.6654 11.5627 14.4863 11.644 14.2666C11.7336 14.0387 11.7783 13.7539 11.7783 13.4121C11.7783 12.9889 11.6807 12.6064 11.4854 12.2646C11.2982 11.9229 11.05 11.6055 10.7407 11.3125C10.4315 11.0195 10.0775 10.7428 9.67871 10.4824C9.27995 10.2139 8.87305 9.94938 8.45801 9.68896C8.04297 9.42041 7.63607 9.14372 7.2373 8.85889C6.84668 8.56592 6.49268 8.24854 6.17529 7.90674C5.85791 7.56494 5.60156 7.18652 5.40625 6.77148C5.21908 6.35645 5.12142 5.88444 5.11328 5.35547V5.16016C5.12142 4.28939 5.23535 3.5651 5.45508 2.9873C5.68294 2.40951 6.01253 1.94971 6.44385 1.60791C6.8833 1.26611 7.42041 1.02604 8.05518 0.887695C8.68994 0.741211 9.41829 0.667969 10.2402 0.667969H10.5576C11.3063 0.667969 11.9411 0.749349 12.4619 0.912109C12.9827 1.07487 13.4141 1.28239 13.7559 1.53467C14.1058 1.78695 14.3784 2.07178 14.5737 2.38916C14.7772 2.70654 14.9277 3.01986 15.0254 3.3291C15.123 3.63835 15.1841 3.92725 15.2085 4.1958C15.2329 4.46436 15.2451 4.68001 15.2451 4.84277C15.2451 5.08691 15.1963 5.31071 15.0986 5.51416C15.0091 5.70947 14.883 5.8763 14.7202 6.01465C14.5656 6.15299 14.3784 6.26286 14.1587 6.34424C13.9471 6.41748 13.7152 6.4541 13.4629 6.4541C13.2676 6.4541 13.0723 6.41748 12.877 6.34424C12.6816 6.26286 12.5067 6.16113 12.3521 6.03906C12.1974 5.91699 12.0713 5.77865 11.9736 5.62402C11.876 5.46126 11.8271 5.2985 11.8271 5.13574C11.8271 4.46842 11.7051 4.00456 11.4609 3.74414C11.2249 3.48372 10.875 3.35352 10.4111 3.35352C10.1914 3.35352 9.97575 3.36572 9.76416 3.39014C9.56071 3.41455 9.3776 3.48372 9.21484 3.59766C9.06022 3.70345 8.93408 3.87028 8.83643 4.09814C8.74691 4.32601 8.70215 4.64746 8.70215 5.0625ZM20.5527 3.47559C20.5527 3.13379 20.5649 2.80013 20.5894 2.47461C20.6138 2.14909 20.6829 1.86019 20.7969 1.60791C20.9108 1.35563 21.0817 1.15218 21.3096 0.997559C21.5456 0.842936 21.8711 0.765625 22.2861 0.765625C22.7093 0.765625 23.0348 0.842936 23.2627 0.997559C23.4987 1.15218 23.6696 1.35563 23.7754 1.60791C23.8893 1.86019 23.9585 2.14909 23.9829 2.47461C24.0073 2.80013 24.0195 3.13379 24.0195 3.47559V8.28516H24.2148L26.7295 5.33105C26.876 5.16016 27.0469 5.03809 27.2422 4.96484C27.4375 4.88346 27.641 4.84277 27.8525 4.84277C28.056 4.84277 28.2594 4.88346 28.4629 4.96484C28.6745 5.03809 28.8576 5.14795 29.0122 5.29443C29.175 5.43278 29.3052 5.60368 29.4028 5.80713C29.5086 6.00244 29.5615 6.22624 29.5615 6.47852C29.5615 6.80404 29.4476 7.10514 29.2197 7.38184L27.0225 9.96973L29.415 14.5352C29.5615 14.8281 29.6877 15.1252 29.7935 15.4263C29.8993 15.7192 29.9521 16 29.9521 16.2686C29.9521 16.529 29.8952 16.7609 29.7812 16.9644C29.6673 17.1678 29.5168 17.3387 29.3296 17.4771C29.1506 17.6073 28.9471 17.709 28.7192 17.7822C28.4995 17.8473 28.2839 17.8799 28.0723 17.8799C27.8037 17.8799 27.5636 17.8148 27.3521 17.6846C27.1405 17.5544 26.9533 17.3957 26.7905 17.2085C26.6359 17.0132 26.4976 16.8057 26.3755 16.5859C26.2534 16.3662 26.1517 16.1628 26.0703 15.9756L24.7031 13.0703H24.0195V15.1211C24.0195 15.4629 24.0073 15.8006 23.9829 16.1343C23.9585 16.4598 23.8893 16.7528 23.7754 17.0132C23.6696 17.2655 23.4987 17.4689 23.2627 17.6235C23.0348 17.7782 22.7093 17.8555 22.2861 17.8555C21.8711 17.8555 21.5456 17.7782 21.3096 17.6235C21.0817 17.4689 20.9108 17.2655 20.7969 17.0132C20.6829 16.7528 20.6138 16.4598 20.5894 16.1343C20.5649 15.8006 20.5527 15.4629 20.5527 15.1211V3.47559ZM35.4795 8.38281C35.4795 8.04102 35.4958 7.70736 35.5283 7.38184C35.569 7.05632 35.6545 6.76742 35.7847 6.51514C35.9149 6.25472 36.1021 6.0472 36.3462 5.89258C36.5903 5.72982 36.9199 5.64844 37.335 5.64844C37.75 5.64844 38.0796 5.72982 38.3237 5.89258C38.5679 6.0472 38.755 6.25472 38.8853 6.51514C39.0155 6.76742 39.0968 7.05632 39.1294 7.38184C39.1701 7.70736 39.1904 8.04102 39.1904 8.38281V15.1211C39.1904 15.4629 39.1701 15.8006 39.1294 16.1343C39.0968 16.4598 39.0155 16.7528 38.8853 17.0132C38.755 17.2655 38.5679 17.4689 38.3237 17.6235C38.0796 17.7782 37.75 17.8555 37.335 17.8555C36.9199 17.8555 36.5903 17.7782 36.3462 17.6235C36.1021 17.4689 35.9149 17.2655 35.7847 17.0132C35.6545 16.7528 35.569 16.4598 35.5283 16.1343C35.4958 15.8006 35.4795 15.4629 35.4795 15.1211V8.38281ZM39.2148 2.62109C39.2148 3.24772 39.0521 3.71566 38.7266 4.0249C38.401 4.32601 37.9453 4.47656 37.3594 4.47656C36.7734 4.47656 36.3177 4.32601 35.9922 4.0249C35.6667 3.71566 35.5039 3.24772 35.5039 2.62109C35.5039 1.97005 35.6667 1.49805 35.9922 1.20508C36.3177 0.912109 36.7734 0.765625 37.3594 0.765625C37.986 0.765625 38.4499 0.912109 38.751 1.20508C39.0602 1.49805 39.2148 1.97005 39.2148 2.62109ZM45.4502 3.47559C45.4502 3.13379 45.4665 2.80013 45.499 2.47461C45.5397 2.14909 45.6252 1.86019 45.7554 1.60791C45.8856 1.35563 46.0728 1.15218 46.3169 0.997559C46.561 0.842936 46.8906 0.765625 47.3057 0.765625C47.7288 0.765625 48.0625 0.842936 48.3066 0.997559C48.5508 1.15218 48.7339 1.35563 48.856 1.60791C48.9862 1.86019 49.0675 2.14909 49.1001 2.47461C49.1408 2.80013 49.1611 3.13379 49.1611 3.47559V15.1211C49.1611 15.4629 49.1408 15.8006 49.1001 16.1343C49.0675 16.4598 48.9862 16.7528 48.856 17.0132C48.7339 17.2655 48.5508 17.4689 48.3066 17.6235C48.0625 17.7782 47.7288 17.8555 47.3057 17.8555C46.8906 17.8555 46.561 17.7782 46.3169 17.6235C46.0728 17.4689 45.8856 17.2655 45.7554 17.0132C45.6252 16.7528 45.5397 16.4598 45.499 16.1343C45.4665 15.8006 45.4502 15.4629 45.4502 15.1211V3.47559ZM55.1035 3.47559C55.1035 3.13379 55.1198 2.80013 55.1523 2.47461C55.193 2.14909 55.2785 1.86019 55.4087 1.60791C55.5389 1.35563 55.7261 1.15218 55.9702 0.997559C56.2144 0.842936 56.5439 0.765625 56.959 0.765625C57.3822 0.765625 57.7158 0.842936 57.96 0.997559C58.2041 1.15218 58.3872 1.35563 58.5093 1.60791C58.6395 1.86019 58.7209 2.14909 58.7534 2.47461C58.7941 2.80013 58.8145 3.13379 58.8145 3.47559V15.1211C58.8145 15.4629 58.7941 15.8006 58.7534 16.1343C58.7209 16.4598 58.6395 16.7528 58.5093 17.0132C58.3872 17.2655 58.2041 17.4689 57.96 17.6235C57.7158 17.7782 57.3822 17.8555 56.959 17.8555C56.5439 17.8555 56.2144 17.7782 55.9702 17.6235C55.7261 17.4689 55.5389 17.2655 55.4087 17.0132C55.2785 16.7528 55.193 16.4598 55.1523 16.1343C55.1198 15.8006 55.1035 15.4629 55.1035 15.1211V3.47559ZM67.7598 8.84668C67.7598 9.00944 67.8127 9.15999 67.9185 9.29834C68.0243 9.43669 68.1667 9.57096 68.3457 9.70117C68.5329 9.82324 68.7445 9.94531 68.9805 10.0674C69.2246 10.1895 69.4769 10.3115 69.7373 10.4336C70.1361 10.6289 70.543 10.8405 70.958 11.0684C71.373 11.2881 71.7515 11.5485 72.0933 11.8496C72.4351 12.1507 72.7118 12.5007 72.9233 12.8994C73.1431 13.29 73.2529 13.7539 73.2529 14.291C73.2529 14.7793 73.1797 15.2106 73.0332 15.585C72.8949 15.9593 72.7077 16.2848 72.4717 16.5615C72.2357 16.8301 71.959 17.0539 71.6416 17.2329C71.3324 17.4119 71.0028 17.5544 70.6528 17.6602C70.311 17.766 69.9611 17.8392 69.603 17.8799C69.245 17.9287 68.9072 17.9531 68.5898 17.9531C67.9632 17.9531 67.418 17.9002 66.9541 17.7944C66.4902 17.6886 66.0915 17.5503 65.7578 17.3794C65.4242 17.2004 65.1475 17.001 64.9277 16.7812C64.7161 16.5534 64.5493 16.3174 64.4272 16.0732C64.3052 15.8291 64.2197 15.589 64.1709 15.353C64.1221 15.1089 64.0977 14.8851 64.0977 14.6816C64.0977 14.1934 64.2319 13.8353 64.5005 13.6074C64.7772 13.3796 65.1963 13.2656 65.7578 13.2656C66.1647 13.2656 66.4984 13.3755 66.7588 13.5952C67.0192 13.8149 67.1576 14.1689 67.1738 14.6572C67.182 14.82 67.2267 14.9502 67.3081 15.0479C67.3976 15.1455 67.5075 15.2269 67.6377 15.292C67.776 15.349 67.9266 15.3896 68.0894 15.4141C68.2521 15.4303 68.4108 15.4385 68.5654 15.4385C68.8828 15.4385 69.1392 15.3571 69.3345 15.1943C69.5379 15.0234 69.6396 14.8037 69.6396 14.5352C69.6396 14.3073 69.5705 14.0957 69.4321 13.9004C69.3019 13.6969 69.127 13.5098 68.9072 13.3389C68.6875 13.168 68.4352 13.0052 68.1504 12.8506C67.8737 12.6878 67.5889 12.5251 67.2959 12.3623C66.9297 12.167 66.5594 11.9595 66.1851 11.7397C65.8188 11.52 65.4852 11.2759 65.1841 11.0073C64.883 10.7388 64.6388 10.4377 64.4517 10.104C64.2645 9.76221 64.1709 9.37565 64.1709 8.94434C64.1709 8.30957 64.2726 7.7806 64.4761 7.35742C64.6877 6.92611 64.9928 6.58024 65.3916 6.31982C65.7904 6.05127 66.2746 5.86003 66.8442 5.74609C67.422 5.63216 68.0771 5.56706 68.8096 5.55078H69.0049C69.6641 5.55078 70.2215 5.60775 70.6772 5.72168C71.1411 5.83561 71.5236 5.98617 71.8247 6.17334C72.134 6.35238 72.374 6.55583 72.5449 6.78369C72.724 7.01156 72.8542 7.24349 72.9355 7.47949C73.0251 7.70736 73.078 7.92708 73.0942 8.13867C73.1187 8.35026 73.1309 8.5293 73.1309 8.67578C73.1309 8.91992 73.078 9.12337 72.9722 9.28613C72.8745 9.44076 72.7402 9.56689 72.5693 9.66455C72.4066 9.75407 72.2194 9.81917 72.0078 9.85986C71.7962 9.89242 71.5765 9.91276 71.3486 9.9209C71.1533 9.9209 70.9743 9.88835 70.8115 9.82324C70.6569 9.75814 70.5226 9.67676 70.4087 9.5791C70.2948 9.48145 70.2052 9.37158 70.1401 9.24951C70.0832 9.12744 70.0547 9.00944 70.0547 8.89551C70.0384 8.58626 69.9123 8.35026 69.6763 8.1875C69.4484 8.02474 69.1676 7.94336 68.834 7.94336C68.6956 7.94336 68.5614 7.95964 68.4312 7.99219C68.3091 8.0166 68.1951 8.06543 68.0894 8.13867C67.9917 8.20378 67.9103 8.29329 67.8452 8.40723C67.7882 8.52116 67.7598 8.66764 67.7598 8.84668Z" fill="white"/>
<path d="M8.70215 5.0625H7.70215V5.0744L7.70243 5.0863L8.70215 5.0625ZM8.99512 5.99023L8.16683 6.55054L8.17637 6.56464L8.18638 6.57841L8.99512 5.99023ZM9.75195 6.75928L9.13226 7.54422L9.14224 7.5519L9.75195 6.75928ZM10.8262 7.47949L10.3169 8.34007L10.3234 8.34395L10.33 8.34774L10.8262 7.47949ZM12.0469 8.21191L11.5154 9.05898L11.525 9.06503L11.5348 9.07086L12.0469 8.21191ZM14.354 10.0674L13.5844 10.706L14.354 10.0674ZM15.123 11.3613L14.1968 11.7381L15.123 11.3613ZM15.4404 12.9971H16.4404V12.9837L16.4401 12.9704L15.4404 12.9971ZM13.6094 17.0132L14.1463 17.8568L14.153 17.8525L14.1597 17.8481L13.6094 17.0132ZM12.4741 17.5625L12.1463 16.6177L12.1403 16.6199L12.4741 17.5625ZM11.2778 17.8555L11.1392 16.8651L11.1364 16.8655L11.2778 17.8555ZM10.1426 17.9531V18.9531H10.1539L10.1653 18.9529L10.1426 17.9531ZM8.20166 17.7456L7.94494 18.7121L8.20166 17.7456ZM6.85889 17.1963L6.32559 18.0422L6.33223 18.0464L6.33894 18.0505L6.85889 17.1963ZM5.91895 16.3906L5.14219 17.0204L5.14726 17.0267L5.15242 17.0328L5.91895 16.3906ZM5.33301 15.4629L4.42104 15.8733L4.42505 15.8819L5.33301 15.4629ZM5.44287 12.3501L6.08701 13.115L6.09052 13.112L5.44287 12.3501ZM5.99219 12.0449L5.69808 11.0891L5.68741 11.0925L5.99219 12.0449ZM7.29834 12.0449L7.01424 13.0038L7.02362 13.0064L7.29834 12.0449ZM7.90869 12.3501L7.29724 13.1414L7.31706 13.1567L7.33763 13.171L7.90869 12.3501ZM8.36035 12.8628L7.47988 13.3369L7.4909 13.3574L7.50286 13.3773L8.36035 12.8628ZM8.55566 13.583L9.55531 13.5564L9.55523 13.5536L8.55566 13.583ZM8.9707 14.8403L8.3122 15.5929L8.31896 15.5988L8.32583 15.6046L8.9707 14.8403ZM10.0938 15.1699V16.1699H10.1104L10.1271 16.1694L10.0938 15.1699ZM10.7651 15.0845L10.9985 16.0569L11.0119 16.0537L11.0251 16.0501L10.7651 15.0845ZM11.3022 14.8037L11.9666 15.5511L11.9779 15.5411L11.9889 15.5307L11.3022 14.8037ZM11.644 14.2666L10.7133 13.9009L10.7097 13.9101L10.7063 13.9193L11.644 14.2666ZM11.4854 12.2646L10.6083 12.745L10.6126 12.7529L10.6171 12.7608L11.4854 12.2646ZM9.67871 10.4824L9.12011 11.3119L9.12599 11.3158L9.13192 11.3197L9.67871 10.4824ZM8.45801 9.68896L7.9147 10.5286L7.92652 10.536L8.45801 9.68896ZM7.2373 8.85889L6.6373 9.65889L6.64661 9.66586L6.65607 9.67262L7.2373 8.85889ZM5.40625 6.77148L4.49466 7.18259L4.49799 7.18996L4.50143 7.19728L5.40625 6.77148ZM5.11328 5.35547H4.11328V5.36316L4.1134 5.37085L5.11328 5.35547ZM5.11328 5.16016L4.11328 5.15081V5.16016H5.11328ZM5.45508 2.9873L4.52474 2.62041L4.52038 2.63186L5.45508 2.9873ZM6.44385 1.60791L5.82988 0.818525L5.82277 0.824164L6.44385 1.60791ZM8.05518 0.887695L8.26814 1.86483L8.28004 1.86209L8.05518 0.887695ZM13.7559 1.53467L13.162 2.33929L13.1711 2.34584L13.7559 1.53467ZM14.5737 2.38916L13.7221 2.91326L13.7269 2.92109L13.7319 2.92883L14.5737 2.38916ZM15.0986 5.51416L14.1971 5.08143L14.1933 5.08943L14.1896 5.09751L15.0986 5.51416ZM14.7202 6.01465L14.0726 5.25271L14.0629 5.26094L14.0534 5.26941L14.7202 6.01465ZM14.1587 6.34424L14.4858 7.28922L14.4959 7.28571L14.506 7.28199L14.1587 6.34424ZM12.877 6.34424L12.4923 7.26732L12.509 7.27424L12.5258 7.28057L12.877 6.34424ZM11.9736 5.62402L11.1161 6.13852L11.122 6.14834L11.1281 6.15802L11.9736 5.62402ZM11.4609 3.74414L10.72 4.41566L10.7256 4.42192L10.7314 4.42808L11.4609 3.74414ZM9.76416 3.39014L9.64953 2.39672L9.64501 2.39726L9.76416 3.39014ZM9.21484 3.59766L9.77956 4.42301L9.78831 4.41689L9.21484 3.59766ZM8.83643 4.09814L7.91728 3.70423L7.91126 3.71827L7.90567 3.73249L8.83643 4.09814ZM7.70243 5.0863C7.71502 5.61491 7.86966 6.11124 8.16683 6.55054L9.8234 5.42993C9.74623 5.31584 9.70556 5.19368 9.70187 5.0387L7.70243 5.0863ZM8.18638 6.57841C8.44434 6.9331 8.76428 7.25361 9.13231 7.54416L10.3716 5.97439C10.1211 5.77666 9.93652 5.58447 9.80385 5.40206L8.18638 6.57841ZM9.14224 7.5519C9.4962 7.82417 9.88855 8.08659 10.3169 8.34007L11.3355 6.61892C10.9663 6.40039 10.6425 6.18266 10.3617 5.96665L9.14224 7.5519ZM10.33 8.34774C10.7161 8.56835 11.1112 8.80538 11.5154 9.05898L12.5784 7.36485C12.1525 7.09761 11.7338 6.84636 11.3223 6.61125L10.33 8.34774ZM11.5348 9.07086C11.9263 9.30424 12.3071 9.56055 12.6772 9.84003L13.8824 8.24395C13.455 7.92122 13.0138 7.62415 12.5589 7.35297L11.5348 9.07086ZM12.6772 9.84003C13.0147 10.0949 13.3166 10.3832 13.5844 10.706L15.1236 9.42881C14.7566 8.98658 14.3424 8.59134 13.8824 8.24395L12.6772 9.84003ZM13.5844 10.706C13.8337 11.0064 14.0383 11.3486 14.1968 11.7381L16.0493 10.9845C15.8171 10.4137 15.509 9.89336 15.1236 9.42881L13.5844 10.706ZM14.1968 11.7381C14.3395 12.089 14.4272 12.5126 14.4408 13.0237L16.4401 12.9704C16.4212 12.2608 16.2972 11.5939 16.0493 10.9845L14.1968 11.7381ZM14.4404 12.9971V13.0947H16.4404V12.9971H14.4404ZM14.4404 13.0947C14.4404 13.6841 14.3682 14.1564 14.2461 14.5288L16.1465 15.1519C16.3499 14.5315 16.4404 13.84 16.4404 13.0947H14.4404ZM14.2461 14.5288C14.1117 14.9385 13.9425 15.2645 13.7493 15.5221L15.3493 16.7221C15.6933 16.2635 15.9553 15.7351 16.1465 15.1519L14.2461 14.5288ZM13.7493 15.5221C13.5468 15.7921 13.3168 16.0083 13.0591 16.1782L14.1597 17.8481C14.6181 17.546 15.0147 17.1682 15.3493 16.7221L13.7493 15.5221ZM13.0725 16.1695C12.7796 16.3559 12.4713 16.505 12.1463 16.6177L12.8019 18.5073C13.2745 18.3433 13.723 18.1262 14.1463 17.8568L13.0725 16.1695ZM12.1403 16.6199C11.8124 16.736 11.479 16.8176 11.1392 16.8651L11.4165 18.8458C11.8905 18.7795 12.3546 18.6657 12.808 18.5051L12.1403 16.6199ZM11.1364 16.8655C10.7722 16.9175 10.4337 16.9463 10.1199 16.9534L10.1653 18.9529C10.5676 18.9437 10.9859 18.9073 11.4193 18.8454L11.1364 16.8655ZM10.1426 16.9531H10.0205V18.9531H10.1426V16.9531ZM10.0205 16.9531C9.39229 16.9531 8.8757 16.89 8.45838 16.7791L7.94494 18.7121C8.56929 18.8779 9.26526 18.9531 10.0205 18.9531V16.9531ZM8.45838 16.7791C8.00983 16.66 7.65503 16.5102 7.37883 16.3421L6.33894 18.0505C6.81145 18.3381 7.35182 18.5545 7.94494 18.7121L8.45838 16.7791ZM7.39219 16.3504C7.09472 16.1628 6.86321 15.9606 6.68547 15.7484L5.15242 17.0328C5.47924 17.4229 5.87435 17.7577 6.32559 18.0422L7.39219 16.3504ZM6.6957 15.7608C6.49827 15.5173 6.34909 15.2781 6.24097 15.0438L4.42505 15.8819C4.60989 16.2824 4.85134 16.6617 5.14219 17.0204L6.6957 15.7608ZM6.24493 15.0525C6.12562 14.7874 6.04414 14.536 5.99523 14.2976L4.03602 14.6995C4.11732 15.0958 4.24743 15.4873 4.42109 15.8733L6.24493 15.0525ZM5.99523 14.2976C5.94145 14.0354 5.91797 13.8063 5.91797 13.6074H3.91797C3.91797 13.9619 3.95959 14.3269 4.03602 14.6995L5.99523 14.2976ZM5.91797 13.6074C5.91797 13.4358 5.94733 13.3362 5.97241 13.2819L4.15649 12.4437C3.98626 12.8126 3.91797 13.2094 3.91797 13.6074H5.91797ZM5.97241 13.2819C6.01795 13.1832 6.06058 13.1373 6.08701 13.115L4.79874 11.5852C4.51592 11.8233 4.30627 12.1192 4.15649 12.4437L5.97241 13.2819ZM6.09052 13.112C6.15268 13.0592 6.21926 13.0222 6.29696 12.9973L5.68741 11.0925C5.35822 11.1978 5.05858 11.3643 4.79522 11.5882L6.09052 13.112ZM6.28627 13.0007C6.39981 12.9658 6.52024 12.9473 6.65137 12.9473V10.9473C6.32677 10.9473 6.00774 10.9939 5.6981 11.0891L6.28627 13.0007ZM6.65137 12.9473C6.75913 12.9473 6.87913 12.9637 7.01425 13.0037L7.58243 11.0861C7.2781 10.996 6.96678 10.9473 6.65137 10.9473V12.9473ZM7.02362 13.0064C7.13533 13.0384 7.22335 13.0843 7.29724 13.1414L8.52014 11.5588C8.23596 11.3392 7.91708 11.1817 7.57306 11.0834L7.02362 13.0064ZM7.33763 13.171C7.38889 13.2067 7.43628 13.2559 7.47988 13.3369L9.24082 12.3887C9.05656 12.0465 8.80284 11.7539 8.47976 11.5292L7.33763 13.171ZM7.50286 13.3773C7.52311 13.411 7.55215 13.4782 7.5561 13.6124L9.55523 13.5536C9.5429 13.1345 9.44173 12.7214 9.21784 12.3483L7.50286 13.3773ZM7.55602 13.6097C7.57443 14.3 7.72824 15.0819 8.3122 15.5929L9.62921 14.0878C9.66582 14.1198 9.64955 14.1274 9.62123 14.0416C9.59183 13.9526 9.56176 13.7984 9.55531 13.5564L7.55602 13.6097ZM8.32583 15.6046C8.83083 16.0307 9.46978 16.1699 10.0938 16.1699V14.1699C9.74116 14.1699 9.63141 14.0894 9.61557 14.076L8.32583 15.6046ZM10.1271 16.1694C10.4277 16.1593 10.7196 16.1238 10.9985 16.0569L10.5318 14.1121C10.4037 14.1428 10.2481 14.1642 10.0604 14.1705L10.1271 16.1694ZM11.0251 16.0501C11.3687 15.9576 11.691 15.7961 11.9666 15.5511L10.6379 14.0563C10.6205 14.0717 10.5847 14.0974 10.5052 14.1189L11.0251 16.0501ZM11.9889 15.5307C12.264 15.2709 12.4557 14.9544 12.5818 14.6139L10.7063 13.9193C10.6696 14.0183 10.6335 14.0599 10.6156 14.0767L11.9889 15.5307ZM12.5748 14.6323C12.7243 14.2517 12.7783 13.8331 12.7783 13.4121H10.7783C10.7783 13.6747 10.7428 13.8258 10.7133 13.9009L12.5748 14.6323ZM12.7783 13.4121C12.7783 12.8284 12.6417 12.2727 12.3536 11.7685L10.6171 12.7608C10.7196 12.9402 10.7783 13.1495 10.7783 13.4121H12.7783ZM12.3624 11.7843C12.1209 11.3432 11.8062 10.9444 11.4285 10.5865L10.053 12.0385C10.2937 12.2665 10.4755 12.5025 10.6083 12.745L12.3624 11.7843ZM11.4285 10.5865C11.0709 10.2478 10.6687 9.93459 10.2255 9.64515L9.13192 11.3197C9.48625 11.5511 9.79203 11.7912 10.053 12.0385L11.4285 10.5865ZM10.2373 9.65298C9.82944 9.3783 9.41349 9.10794 8.9895 8.8419L7.92652 10.536C8.3326 10.7908 8.73046 11.0494 9.12011 11.3119L10.2373 9.65298ZM9.00126 8.84939C8.59897 8.58909 8.20473 8.321 7.81854 8.04515L6.65607 9.67262C7.0674 9.96643 7.48697 10.2517 7.91476 10.5285L9.00126 8.84939ZM7.8373 8.05889C7.4922 7.80006 7.18301 7.52236 6.90809 7.22629L5.4425 8.58719C5.80234 8.97471 6.20116 9.33178 6.6373 9.65889L7.8373 8.05889ZM6.90809 7.22629C6.65963 6.95871 6.46176 6.66591 6.31107 6.34569L4.50143 7.19728C4.74137 7.70714 5.05619 8.17117 5.4425 8.58719L6.90809 7.22629ZM6.31784 6.36038C6.19516 6.08836 6.11954 5.75441 6.11316 5.34009L4.1134 5.37085C4.1233 6.01447 4.24299 6.62453 4.49466 7.18259L6.31784 6.36038ZM6.11328 5.35547V5.16016H4.11328V5.35547H6.11328ZM6.11324 5.1695C6.12069 4.37247 6.22547 3.7748 6.38977 3.34275L4.52038 2.63186C4.24523 3.35541 4.12215 4.2063 4.11332 5.15081L6.11324 5.1695ZM6.38535 3.35417C6.55711 2.91864 6.78861 2.61063 7.06493 2.39166L5.82277 0.824164C5.23646 1.28879 4.80878 1.90037 4.52481 2.62044L6.38535 3.35417ZM7.05779 2.39726C7.36114 2.16132 7.75511 1.97657 8.26813 1.86476L7.84223 -0.0893679C7.08571 0.0755139 6.40546 0.370902 5.82991 0.818558L7.05779 2.39726ZM8.28004 1.86209C8.82482 1.73637 9.47527 1.66797 10.2402 1.66797V-0.332031C9.36132 -0.332031 8.55506 -0.253944 7.83032 -0.0866959L8.28004 1.86209ZM10.2402 1.66797H10.5576V-0.332031H10.2402V1.66797ZM10.5576 1.66797C11.24 1.66797 11.7677 1.74287 12.1636 1.86659L12.7602 -0.0423706C12.1144 -0.244175 11.3727 -0.332031 10.5576 -0.332031V1.66797ZM12.1636 1.86659C12.607 2.00513 12.9311 2.16878 13.162 2.33924L14.3497 0.730094C13.8971 0.396003 13.3585 0.144608 12.7602 -0.0423706L12.1636 1.86659ZM13.1711 2.34584C13.4307 2.533 13.6059 2.72452 13.7221 2.91326L15.4254 1.86506C15.1509 1.41904 14.7809 1.04089 14.3407 0.723492L13.1711 2.34584ZM13.7319 2.92883C13.8952 3.1837 14.0046 3.4174 14.0718 3.63023L15.979 3.02797C15.8509 2.62231 15.6591 2.22939 15.4156 1.84949L13.7319 2.92883ZM14.0718 3.63023C14.152 3.88429 14.1958 4.10196 14.2126 4.28634L16.2044 4.10527C16.1723 3.75254 16.0941 3.3924 15.979 3.02797L14.0718 3.63023ZM14.2126 4.28634C14.2358 4.54154 14.2451 4.72335 14.2451 4.84277H16.2451C16.2451 4.63667 16.23 4.38717 16.2044 4.10527L14.2126 4.28634ZM14.2451 4.84277C14.2451 4.94959 14.2248 5.02384 14.1971 5.08143L16.0002 5.94689C16.1678 5.59758 16.2451 5.22424 16.2451 4.84277H14.2451ZM14.1896 5.09751C14.1606 5.16081 14.1233 5.20955 14.0726 5.25271L15.3679 6.77659C15.6426 6.54306 15.8577 6.25814 16.0077 5.93081L14.1896 5.09751ZM14.0534 5.26941C14.0036 5.314 13.9286 5.36307 13.8114 5.40649L14.506 7.28199C14.8282 7.16264 15.1276 6.99199 15.387 6.75989L14.0534 5.26941ZM13.8316 5.39925C13.7376 5.43177 13.6178 5.4541 13.4629 5.4541V7.4541C13.8126 7.4541 14.1566 7.40319 14.4858 7.28922L13.8316 5.39925ZM13.4629 5.4541C13.3954 5.4541 13.3188 5.44193 13.2281 5.40791L12.5258 7.28057C12.8257 7.39303 13.1397 7.4541 13.4629 7.4541V5.4541ZM13.2616 5.42116C13.1443 5.37231 13.0496 5.31565 12.9717 5.25418L11.7324 6.82395C11.9638 7.00662 12.219 7.1534 12.4923 7.26732L13.2616 5.42116ZM12.9717 5.25418C12.8991 5.1969 12.8517 5.14168 12.8191 5.09003L11.1281 6.15802C11.2908 6.41561 11.4957 6.63708 11.7324 6.82395L12.9717 5.25418ZM12.8311 5.10953C12.8201 5.09121 12.8195 5.08567 12.8216 5.09253C12.8226 5.09591 12.8241 5.10165 12.8252 5.10947C12.8264 5.11734 12.8271 5.12623 12.8271 5.13574H10.8271C10.8271 5.50801 10.9409 5.84652 11.1161 6.13852L12.8311 5.10953ZM12.8271 5.13574C12.8271 4.41069 12.7074 3.61162 12.1905 3.0602L10.7314 4.42808C10.7075 4.4026 10.7358 4.41761 10.7685 4.54185C10.801 4.66545 10.8271 4.8572 10.8271 5.13574H12.8271ZM12.2019 3.07262C11.7207 2.54164 11.0622 2.35352 10.4111 2.35352V4.35352C10.5518 4.35352 10.6327 4.3735 10.6728 4.38839C10.7072 4.40121 10.7162 4.41155 10.72 4.41566L12.2019 3.07262ZM10.4111 2.35352C10.1543 2.35352 9.90035 2.36779 9.64954 2.39673L9.87878 4.38355C10.0511 4.36366 10.2285 4.35352 10.4111 4.35352V2.35352ZM9.64501 2.39726C9.28347 2.44065 8.94331 2.56707 8.64138 2.77842L9.78831 4.41689C9.8119 4.40037 9.83795 4.38846 9.88331 4.38301L9.64501 2.39726ZM8.65016 2.77235C8.29573 3.01485 8.06609 3.357 7.91728 3.70423L9.75557 4.49206C9.80207 4.38356 9.82471 4.39205 9.77953 4.42296L8.65016 2.77235ZM7.90567 3.73249C7.74931 4.13052 7.70215 4.59707 7.70215 5.0625H9.70215C9.70215 4.69785 9.74451 4.5215 9.76718 4.4638L7.90567 3.73249ZM20.7969 1.60791L21.7082 2.0195L20.7969 1.60791ZM21.3096 0.997559L20.7615 0.161097L20.7548 0.165536L20.7481 0.170083L21.3096 0.997559ZM23.2627 0.997559L22.7012 1.82503L22.7079 1.82958L22.7147 1.83402L23.2627 0.997559ZM23.7754 1.60791L22.8532 1.99464L22.8584 2.00714L22.864 2.0195L23.7754 1.60791ZM24.0195 8.28516H23.0195V9.28516H24.0195V8.28516ZM24.2148 8.28516V9.28516H24.6768L24.9763 8.93335L24.2148 8.28516ZM26.7295 5.33105L25.9702 4.68026L25.968 4.68286L26.7295 5.33105ZM27.2422 4.96484L27.5933 5.90117L27.6102 5.89485L27.6268 5.88792L27.2422 4.96484ZM28.4629 4.96484L28.0915 5.89332L28.1134 5.9021L28.1358 5.90983L28.4629 4.96484ZM29.0122 5.29443L28.3245 6.02039L28.344 6.03892L28.3646 6.05637L29.0122 5.29443ZM29.4028 5.80713L28.5013 6.23986L28.5119 6.26191L28.5235 6.28341L29.4028 5.80713ZM29.2197 7.38184L29.982 8.02907L29.9869 8.02334L29.9917 8.01754L29.2197 7.38184ZM27.0225 9.96973L26.2602 9.3225L25.8237 9.83658L26.1367 10.4339L27.0225 9.96973ZM29.415 14.5352L30.3095 14.0879L30.3052 14.0794L30.3008 14.071L29.415 14.5352ZM29.7935 15.4263L28.85 15.7578L28.8529 15.7659L29.7935 15.4263ZM29.3296 17.4771L29.9178 18.2858L29.924 18.2812L29.3296 17.4771ZM28.7192 17.7822L29.0033 18.741L29.0143 18.7378L29.0252 18.7343L28.7192 17.7822ZM26.7905 17.2085L26.0065 17.8292L26.0208 17.8473L26.0359 17.8647L26.7905 17.2085ZM26.0703 15.9756L26.9874 15.5769L26.9815 15.5632L26.9751 15.5498L26.0703 15.9756ZM24.7031 13.0703L25.6079 12.6445L25.3377 12.0703H24.7031V13.0703ZM24.0195 13.0703V12.0703H23.0195V13.0703H24.0195ZM23.9829 16.1343L24.9801 16.2091L24.9802 16.2073L23.9829 16.1343ZM23.7754 17.0132L22.8592 16.6124L22.8562 16.6194L22.8532 16.6265L23.7754 17.0132ZM23.2627 17.6235L22.7147 16.7871L22.7079 16.7915L22.7012 16.7961L23.2627 17.6235ZM21.3096 17.6235L20.7481 18.451L20.7548 18.4556L20.7615 18.46L21.3096 17.6235ZM20.7969 17.0132L19.8807 17.414L19.8855 17.4248L20.7969 17.0132ZM20.5894 16.1343L19.592 16.2073L19.5922 16.2091L20.5894 16.1343ZM21.5527 3.47559C21.5527 3.15758 21.5641 2.8489 21.5866 2.5494L19.5922 2.39982C19.5658 2.75136 19.5527 3.10999 19.5527 3.47559H21.5527ZM21.5866 2.5494C21.6038 2.31989 21.6501 2.14821 21.7082 2.0195L19.8855 1.19632C19.7158 1.57217 19.6238 1.97829 19.5922 2.39982L21.5866 2.5494ZM21.7082 2.0195C21.7466 1.93456 21.7968 1.87541 21.8711 1.82503L20.7481 0.170083C20.3666 0.428949 20.075 0.776705 19.8855 1.19632L21.7082 2.0195ZM21.8576 1.83402C21.8709 1.82528 21.9792 1.76562 22.2861 1.76562V-0.234375C21.7629 -0.234375 21.2202 -0.139408 20.7615 0.161097L21.8576 1.83402ZM22.2861 1.76562C22.6091 1.76562 22.706 1.82828 22.7012 1.82503L23.8242 0.170083C23.3637 -0.142403 22.8095 -0.234375 22.2861 -0.234375V1.76562ZM22.7147 1.83402C22.7895 1.88302 22.827 1.93224 22.8532 1.99464L24.6976 1.22118C24.5122 0.77902 24.2079 0.421343 23.8107 0.161097L22.7147 1.83402ZM22.864 2.0195C22.9221 2.14821 22.9685 2.31989 22.9857 2.5494L24.9801 2.39982C24.9485 1.97829 24.8565 1.57217 24.6868 1.19632L22.864 2.0195ZM22.9857 2.5494C23.0082 2.8489 23.0195 3.15758 23.0195 3.47559H25.0195C25.0195 3.10999 25.0065 2.75136 24.9801 2.39982L22.9857 2.5494ZM23.0195 3.47559V8.28516H25.0195V3.47559H23.0195ZM24.0195 9.28516H24.2148V7.28516H24.0195V9.28516ZM24.9763 8.93335L27.491 5.97925L25.968 4.68286L23.4534 7.63696L24.9763 8.93335ZM27.4887 5.98185C27.5344 5.92861 27.5683 5.91055 27.5933 5.90117L26.8911 4.02851C26.5254 4.16563 26.2176 4.3917 25.9702 4.68026L27.4887 5.98185ZM27.6268 5.88792C27.7002 5.85732 27.773 5.84277 27.8525 5.84277V3.84277C27.5089 3.84277 27.1748 3.90961 26.8576 4.04177L27.6268 5.88792ZM27.8525 5.84277C27.9193 5.84277 27.997 5.85552 28.0915 5.89332L28.8343 4.03637C28.5219 3.91141 28.1927 3.84277 27.8525 3.84277V5.84277ZM28.1358 5.90983C28.22 5.93898 28.2784 5.97673 28.3245 6.02039L29.7 4.56848C29.4368 4.31917 29.129 4.13719 28.79 4.01986L28.1358 5.90983ZM28.3646 6.05637C28.4146 6.0989 28.4608 6.15545 28.5013 6.23986L30.3044 5.3744C30.1496 5.05191 29.9353 4.76666 29.6599 4.53249L28.3646 6.05637ZM28.5235 6.28341C28.5399 6.31361 28.5615 6.36971 28.5615 6.47852H30.5615C30.5615 6.08277 30.4774 5.69127 30.2821 5.33085L28.5235 6.28341ZM28.5615 6.47852C28.5615 6.54823 28.5441 6.62914 28.4478 6.74613L29.9917 8.01754C30.351 7.58114 30.5615 7.05985 30.5615 6.47852H28.5615ZM28.4574 6.73461L26.2602 9.3225L27.7848 10.617L29.982 8.02907L28.4574 6.73461ZM26.1367 10.4339L28.5293 14.9993L30.3008 14.071L27.9082 9.50554L26.1367 10.4339ZM28.5206 14.9824C28.6488 15.2388 28.7585 15.4972 28.85 15.7578L30.7369 15.0948C30.6169 14.7531 30.4742 14.4174 30.3095 14.0879L28.5206 14.9824ZM28.8529 15.7659C28.9255 15.9671 28.9521 16.1327 28.9521 16.2686H30.9521C30.9521 15.8673 30.873 15.4714 30.734 15.0866L28.8529 15.7659ZM28.9521 16.2686C28.9521 16.3783 28.9297 16.4384 28.9087 16.4758L30.6538 17.453C30.8607 17.0834 30.9521 16.6797 30.9521 16.2686H28.9521ZM28.9087 16.4758C28.864 16.5557 28.8081 16.619 28.7352 16.6729L29.924 18.2812C30.2254 18.0584 30.4707 17.7799 30.6538 17.453L28.9087 16.4758ZM28.7414 16.6683C28.6549 16.7312 28.5482 16.7868 28.4132 16.8302L29.0252 18.7343C29.346 18.6312 29.6462 18.4833 29.9178 18.2858L28.7414 16.6683ZM28.4351 16.8234C28.3 16.8635 28.18 16.8799 28.0723 16.8799V18.8799C28.3877 18.8799 28.699 18.8312 29.0033 18.741L28.4351 16.8234ZM28.0723 16.8799C27.9732 16.8799 27.9174 16.8583 27.8761 16.8329L26.828 18.5362C27.2099 18.7713 27.6342 18.8799 28.0723 18.8799V16.8799ZM27.8761 16.8329C27.7507 16.7557 27.6413 16.6629 27.5451 16.5523L26.0359 17.8647C26.2653 18.1284 26.5302 18.353 26.828 18.5362L27.8761 16.8329ZM27.5746 16.5878C27.4539 16.4354 27.3456 16.2731 27.2496 16.1003L25.5013 17.0716C25.6495 17.3383 25.8179 17.591 26.0065 17.8292L27.5746 16.5878ZM27.2496 16.1003C27.1398 15.9026 27.0533 15.7285 26.9874 15.5769L25.1532 16.3743C25.2501 16.597 25.367 16.8298 25.5013 17.0716L27.2496 16.1003ZM26.9751 15.5498L25.6079 12.6445L23.7983 13.4961L25.1655 16.4014L26.9751 15.5498ZM24.7031 12.0703H24.0195V14.0703H24.7031V12.0703ZM23.0195 13.0703V15.1211H25.0195V13.0703H23.0195ZM23.0195 15.1211C23.0195 15.4391 23.0082 15.7524 22.9856 16.0613L24.9802 16.2073C25.0065 15.8488 25.0195 15.4867 25.0195 15.1211H23.0195ZM22.9857 16.0595C22.9685 16.289 22.9218 16.4694 22.8592 16.6124L24.6915 17.414C24.8568 17.0362 24.9485 16.6306 24.9801 16.2091L22.9857 16.0595ZM22.8532 16.6265C22.827 16.6889 22.7895 16.7381 22.7147 16.7871L23.8107 18.46C24.2079 18.1998 24.5122 17.8421 24.6976 17.3999L22.8532 16.6265ZM22.7012 16.7961C22.706 16.7928 22.6091 16.8555 22.2861 16.8555V18.8555C22.8095 18.8555 23.3637 18.7635 23.8242 18.451L22.7012 16.7961ZM22.2861 16.8555C21.9792 16.8555 21.8709 16.7958 21.8576 16.7871L20.7615 18.46C21.2202 18.7605 21.7629 18.8555 22.2861 18.8555V16.8555ZM21.8711 16.7961C21.7968 16.7457 21.7466 16.6865 21.7082 16.6016L19.8855 17.4248C20.075 17.8444 20.3666 18.1921 20.7481 18.451L21.8711 16.7961ZM21.713 16.6124C21.6505 16.4694 21.6038 16.289 21.5866 16.0595L19.5922 16.2091C19.6238 16.6306 19.7154 17.0362 19.8807 17.414L21.713 16.6124ZM21.5867 16.0613C21.5641 15.7524 21.5527 15.4391 21.5527 15.1211H19.5527C19.5527 15.4867 19.5658 15.8488 19.592 16.2073L21.5867 16.0613ZM21.5527 15.1211V3.47559H19.5527V15.1211H21.5527ZM35.5283 7.38184L34.536 7.2578L34.5345 7.27005L34.5333 7.28233L35.5283 7.38184ZM35.7847 6.51514L36.6734 6.97382L36.6791 6.96235L35.7847 6.51514ZM36.3462 5.89258L36.8812 6.7374L36.8911 6.73113L36.9009 6.72463L36.3462 5.89258ZM38.3237 5.89258L37.769 6.72463L37.7788 6.73113L37.7887 6.7374L38.3237 5.89258ZM38.8853 6.51514L37.9908 6.96239L37.9966 6.97378L38.8853 6.51514ZM39.1294 7.38184L38.1344 7.48134L38.1356 7.49362L38.1371 7.50587L39.1294 7.38184ZM39.1294 16.1343L38.1367 16.0132L38.1354 16.024L38.1344 16.0348L39.1294 16.1343ZM38.8853 17.0132L39.7739 17.4719L39.7797 17.4604L38.8853 17.0132ZM35.7847 17.0132L34.8902 17.4604L34.896 17.4718L35.7847 17.0132ZM35.5283 16.1343L34.533 16.2314L34.5344 16.2449L34.536 16.2583L35.5283 16.1343ZM38.7266 4.0249L39.4057 4.75907L39.4153 4.7499L38.7266 4.0249ZM35.9922 4.0249L35.3034 4.74997L35.3131 4.759L35.9922 4.0249ZM38.751 1.20508L38.0536 1.92187L38.0632 1.93103L38.751 1.20508ZM36.4795 8.38281C36.4795 8.07277 36.4943 7.77236 36.5234 7.48134L34.5333 7.28233C34.4973 7.64235 34.4795 8.00926 34.4795 8.38281H36.4795ZM36.5206 7.50587C36.5489 7.27925 36.6047 7.1066 36.6733 6.97378L34.896 6.05649C34.7042 6.42823 34.5891 6.83338 34.536 7.2578L36.5206 7.50587ZM36.6791 6.96235C36.7286 6.86341 36.7921 6.79388 36.8812 6.7374L35.8111 5.04776C35.412 5.30052 35.1012 5.64603 34.8902 6.06792L36.6791 6.96235ZM36.9009 6.72463C36.9258 6.70805 37.0388 6.64844 37.335 6.64844V4.64844C36.801 4.64844 36.2549 4.75159 35.7915 5.06053L36.9009 6.72463ZM37.335 6.64844C37.6311 6.64844 37.7442 6.70805 37.769 6.72463L38.8784 5.06053C38.415 4.75159 37.8689 4.64844 37.335 4.64844V6.64844ZM37.7887 6.7374C37.8779 6.79388 37.9414 6.86341 37.9908 6.96235L39.7797 6.06792C39.5687 5.64603 39.2579 5.30052 38.8588 5.04776L37.7887 6.7374ZM37.9966 6.97378C38.061 7.09842 38.1125 7.2623 38.1344 7.48134L40.1244 7.28233C40.0812 6.85033 39.97 6.43641 39.7739 6.05649L37.9966 6.97378ZM38.1371 7.50587C38.1725 7.78857 38.1904 8.08076 38.1904 8.38281H40.1904C40.1904 8.00127 40.1677 7.62614 40.1217 7.2578L38.1371 7.50587ZM38.1904 8.38281V15.1211H40.1904V8.38281H38.1904ZM38.1904 15.1211C38.1904 15.4231 38.1725 15.7204 38.1367 16.0132L40.122 16.2553C40.1677 15.8808 40.1904 15.5027 40.1904 15.1211H38.1904ZM38.1344 16.0348C38.1124 16.2541 38.0603 16.427 37.9908 16.566L39.7797 17.4604C39.9706 17.0786 40.0813 16.6655 40.1244 16.2338L38.1344 16.0348ZM37.9966 16.5545C37.9494 16.646 37.8856 16.7173 37.7887 16.7787L38.8588 18.4684C39.2502 18.2205 39.5607 17.8849 39.7739 17.4718L37.9966 16.5545ZM37.7887 16.7787C37.76 16.7969 37.639 16.8555 37.335 16.8555V18.8555C37.861 18.8555 38.3992 18.7594 38.8588 18.4684L37.7887 16.7787ZM37.335 16.8555C37.0309 16.8555 36.91 16.7969 36.8812 16.7787L35.8111 18.4684C36.2707 18.7594 36.8089 18.8555 37.335 18.8555V16.8555ZM36.8812 16.7787C36.7843 16.7173 36.7205 16.646 36.6733 16.5545L34.896 17.4718C35.1092 17.8849 35.4198 18.2205 35.8111 18.4684L36.8812 16.7787ZM36.6791 16.566C36.6056 16.4189 36.549 16.2374 36.5206 16.0102L34.536 16.2583C34.589 16.6822 34.7033 17.0866 34.8902 17.4604L36.6791 16.566ZM36.5236 16.0372C36.4943 15.7364 36.4795 15.4311 36.4795 15.1211H34.4795C34.4795 15.4947 34.4973 15.8648 34.533 16.2314L36.5236 16.0372ZM36.4795 15.1211V8.38281H34.4795V15.1211H36.4795ZM38.2148 2.62109C38.2148 3.08469 38.0963 3.2443 38.0378 3.2999L39.4153 4.7499C40.0078 4.18701 40.2148 3.41075 40.2148 2.62109H38.2148ZM38.0475 3.2908C37.9598 3.37197 37.7764 3.47656 37.3594 3.47656V5.47656C38.1142 5.47656 38.8423 5.28005 39.4056 4.759L38.0475 3.2908ZM37.3594 3.47656C36.9423 3.47656 36.759 3.37197 36.6712 3.2908L35.3131 4.759C35.8764 5.28005 36.6046 5.47656 37.3594 5.47656V3.47656ZM36.6809 3.2999C36.6224 3.2443 36.5039 3.08469 36.5039 2.62109H34.5039C34.5039 3.41075 34.7109 4.18701 35.3034 4.7499L36.6809 3.2999ZM36.5039 2.62109C36.5039 2.11444 36.6313 1.9752 36.6612 1.94837L35.3232 0.461784C34.702 1.02089 34.5039 1.82566 34.5039 2.62109H36.5039ZM36.6612 1.94837C36.7485 1.86975 36.9357 1.76562 37.3594 1.76562V-0.234375C36.6112 -0.234375 35.8869 -0.0455354 35.3232 0.461784L36.6612 1.94837ZM37.3594 1.76562C37.8518 1.76562 38.0135 1.88275 38.0536 1.9218L39.4483 0.488352C38.8863 -0.0585358 38.1202 -0.234375 37.3594 -0.234375V1.76562ZM38.0632 1.93103C38.0886 1.95511 38.2148 2.10116 38.2148 2.62109H40.2148C40.2148 1.83894 40.0318 1.04099 39.4387 0.479125L38.0632 1.93103ZM45.499 2.47461L44.5067 2.35057L44.5052 2.36282L44.504 2.37511L45.499 2.47461ZM45.7554 1.60791L46.644 2.06655L45.7554 1.60791ZM48.856 1.60791L47.9558 2.04347L47.9614 2.05509L47.9673 2.06655L48.856 1.60791ZM49.1001 2.47461L48.1051 2.57411L48.1063 2.5864L48.1078 2.59864L49.1001 2.47461ZM49.1001 16.1343L48.1075 16.0132L48.1061 16.024L48.1051 16.0348L49.1001 16.1343ZM48.856 17.0132L47.9615 16.5659L47.9558 16.5776L48.856 17.0132ZM45.7554 17.0132L44.8609 17.4604L44.8668 17.4718L45.7554 17.0132ZM45.499 16.1343L44.5037 16.2314L44.5051 16.2449L44.5067 16.2583L45.499 16.1343ZM46.4502 3.47559C46.4502 3.16554 46.465 2.86513 46.4941 2.57411L44.504 2.37511C44.468 2.73513 44.4502 3.10203 44.4502 3.47559H46.4502ZM46.4913 2.59864C46.5196 2.37202 46.5754 2.19937 46.644 2.06655L44.8668 1.14927C44.6749 1.521 44.5598 1.92616 44.5067 2.35057L46.4913 2.59864ZM46.644 2.06655C46.6912 1.97506 46.755 1.90375 46.8519 1.84238L45.7818 0.15274C45.3905 0.400613 45.0799 0.736203 44.8668 1.14927L46.644 2.06655ZM46.8519 1.84238C46.8807 1.8242 47.0016 1.76562 47.3057 1.76562V-0.234375C46.7796 -0.234375 46.2414 -0.138323 45.7818 0.15274L46.8519 1.84238ZM47.3057 1.76562C47.6223 1.76562 47.7455 1.82584 47.7716 1.84238L48.8417 0.15274C48.3795 -0.139966 47.8354 -0.234375 47.3057 -0.234375V1.76562ZM47.7716 1.84238C47.8634 1.90054 47.9175 1.96439 47.9558 2.04347L49.7561 1.17235C49.5502 0.746878 49.2381 0.403822 48.8417 0.15274L47.7716 1.84238ZM47.9673 2.06655C48.0317 2.19119 48.0832 2.35507 48.1051 2.57411L50.0951 2.37511C50.0519 1.94311 49.9407 1.52919 49.7446 1.14927L47.9673 2.06655ZM48.1078 2.59864C48.1432 2.88134 48.1611 3.17353 48.1611 3.47559H50.1611C50.1611 3.09405 50.1384 2.71892 50.0924 2.35057L48.1078 2.59864ZM48.1611 3.47559V15.1211H50.1611V3.47559H48.1611ZM48.1611 15.1211C48.1611 15.4231 48.1432 15.7204 48.1075 16.0132L50.0927 16.2553C50.1384 15.8808 50.1611 15.5027 50.1611 15.1211H48.1611ZM48.1051 16.0348C48.0831 16.2541 48.031 16.427 47.9615 16.566L49.7504 17.4604C49.9413 17.0786 50.052 16.6655 50.0951 16.2338L48.1051 16.0348ZM47.9558 16.5776C47.9175 16.6567 47.8634 16.7206 47.7716 16.7787L48.8417 18.4684C49.2381 18.2173 49.5502 17.8742 49.7561 17.4487L47.9558 16.5776ZM47.7716 16.7787C47.7455 16.7953 47.6223 16.8555 47.3057 16.8555V18.8555C47.8354 18.8555 48.3795 18.7611 48.8417 18.4684L47.7716 16.7787ZM47.3057 16.8555C47.0016 16.8555 46.8807 16.7969 46.8519 16.7787L45.7818 18.4684C46.2414 18.7594 46.7796 18.8555 47.3057 18.8555V16.8555ZM46.8519 16.7787C46.755 16.7173 46.6912 16.646 46.644 16.5545L44.8668 17.4718C45.0799 17.8849 45.3905 18.2205 45.7818 18.4684L46.8519 16.7787ZM46.6498 16.566C46.5763 16.4189 46.5197 16.2374 46.4913 16.0102L44.5067 16.2583C44.5597 16.6822 44.674 17.0866 44.8609 17.4604L46.6498 16.566ZM46.4943 16.0372C46.465 15.7364 46.4502 15.4311 46.4502 15.1211H44.4502C44.4502 15.4947 44.468 15.8648 44.5037 16.2314L46.4943 16.0372ZM46.4502 15.1211V3.47559H44.4502V15.1211H46.4502ZM55.1523 2.47461L54.1601 2.35057L54.1585 2.36282L54.1573 2.37511L55.1523 2.47461ZM55.4087 1.60791L56.2973 2.06655L55.4087 1.60791ZM58.5093 1.60791L57.6091 2.04347L57.6147 2.05509L57.6207 2.06655L58.5093 1.60791ZM58.7534 2.47461L57.7584 2.57411L57.7596 2.5864L57.7611 2.59864L58.7534 2.47461ZM58.7534 16.1343L57.7608 16.0132L57.7595 16.024L57.7584 16.0348L58.7534 16.1343ZM58.5093 17.0132L57.6148 16.5659L57.6091 16.5776L58.5093 17.0132ZM55.4087 17.0132L54.5142 17.4604L54.5201 17.4718L55.4087 17.0132ZM55.1523 16.1343L54.1571 16.2314L54.1584 16.2449L54.1601 16.2583L55.1523 16.1343ZM56.1035 3.47559C56.1035 3.16554 56.1183 2.86513 56.1474 2.57411L54.1573 2.37511C54.1213 2.73513 54.1035 3.10203 54.1035 3.47559H56.1035ZM56.1446 2.59864C56.1729 2.37202 56.2288 2.19937 56.2973 2.06655L54.5201 1.14927C54.3282 1.521 54.2131 1.92616 54.1601 2.35057L56.1446 2.59864ZM56.2973 2.06655C56.3445 1.97506 56.4084 1.90375 56.5053 1.84238L55.4352 0.15274C55.0438 0.400613 54.7333 0.736203 54.5201 1.14927L56.2973 2.06655ZM56.5053 1.84238C56.534 1.8242 56.655 1.76562 56.959 1.76562V-0.234375C56.4329 -0.234375 55.8947 -0.138323 55.4352 0.15274L56.5053 1.84238ZM56.959 1.76562C57.2756 1.76562 57.3988 1.82584 57.4249 1.84238L58.495 0.15274C58.0328 -0.139966 57.4887 -0.234375 56.959 -0.234375V1.76562ZM57.4249 1.84238C57.5167 1.90054 57.5709 1.96439 57.6091 2.04347L59.4094 1.17235C59.2036 0.746878 58.8915 0.403822 58.495 0.15274L57.4249 1.84238ZM57.6207 2.06655C57.685 2.19119 57.7365 2.35507 57.7584 2.57411L59.7485 2.37511C59.7053 1.94311 59.594 1.52919 59.3979 1.14927L57.6207 2.06655ZM57.7611 2.59864C57.7965 2.88134 57.8145 3.17353 57.8145 3.47559H59.8145C59.8145 3.09405 59.7917 2.71892 59.7457 2.35057L57.7611 2.59864ZM57.8145 3.47559V15.1211H59.8145V3.47559H57.8145ZM57.8145 15.1211C57.8145 15.4231 57.7965 15.7204 57.7608 16.0132L59.7461 16.2553C59.7917 15.8808 59.8145 15.5027 59.8145 15.1211H57.8145ZM57.7584 16.0348C57.7364 16.2541 57.6843 16.427 57.6149 16.566L59.4037 17.4604C59.5946 17.0786 59.7053 16.6655 59.7485 16.2338L57.7584 16.0348ZM57.6091 16.5776C57.5709 16.6567 57.5167 16.7206 57.4249 16.7787L58.495 18.4684C58.8915 18.2173 59.2036 17.8742 59.4094 17.4487L57.6091 16.5776ZM57.4249 16.7787C57.3988 16.7953 57.2756 16.8555 56.959 16.8555V18.8555C57.4887 18.8555 58.0328 18.7611 58.495 18.4684L57.4249 16.7787ZM56.959 16.8555C56.655 16.8555 56.534 16.7969 56.5053 16.7787L55.4352 18.4684C55.8947 18.7594 56.4329 18.8555 56.959 18.8555V16.8555ZM56.5053 16.7787C56.4084 16.7173 56.3445 16.646 56.2973 16.5545L54.5201 17.4718C54.7333 17.8849 55.0438 18.2205 55.4352 18.4684L56.5053 16.7787ZM56.3031 16.566C56.2296 16.4189 56.173 16.2374 56.1446 16.0102L54.1601 16.2583C54.2131 16.6822 54.3274 17.0866 54.5143 17.4604L56.3031 16.566ZM56.1476 16.0372C56.1183 15.7364 56.1035 15.4311 56.1035 15.1211H54.1035C54.1035 15.4947 54.1213 15.8648 54.1571 16.2314L56.1476 16.0372ZM56.1035 15.1211V3.47559H54.1035V15.1211H56.1035ZM68.3457 9.70117L67.7575 10.5099L67.7781 10.5249L67.7994 10.5388L68.3457 9.70117ZM68.9805 10.0674L68.521 10.9557L68.5333 10.9618L68.9805 10.0674ZM69.7373 10.4336L70.1772 9.53553L70.1695 9.53177L70.1617 9.52813L69.7373 10.4336ZM70.958 11.0684L70.4767 11.9449L70.4834 11.9486L70.4901 11.9521L70.958 11.0684ZM72.0933 11.8496L72.7543 11.0993L72.0933 11.8496ZM72.9233 12.8994L72.04 13.3681L72.0457 13.379L72.0518 13.3897L72.9233 12.8994ZM73.0332 15.585L72.102 15.2206L72.0985 15.2294L72.0952 15.2383L73.0332 15.585ZM72.4717 16.5615L73.2228 17.2216L73.2277 17.2161L73.2325 17.2105L72.4717 16.5615ZM71.6416 17.2329L71.1502 16.3619L71.1406 16.3675L71.6416 17.2329ZM70.6528 17.6602L70.3634 16.7029L70.3571 16.7049L70.6528 17.6602ZM69.603 17.8799L69.4901 16.8863L69.479 16.8875L69.4679 16.8891L69.603 17.8799ZM65.7578 17.3794L65.285 18.2606L65.2934 18.2651L65.3019 18.2694L65.7578 17.3794ZM64.9277 16.7812L64.1949 17.4617L64.2075 17.4753L64.2206 17.4884L64.9277 16.7812ZM64.1709 15.353L63.1903 15.5491L63.1916 15.5556L64.1709 15.353ZM64.5005 13.6074L63.8648 12.8355L63.8591 12.8402L63.8535 12.8449L64.5005 13.6074ZM67.1738 14.6572L66.1744 14.6905L66.1747 14.6989L66.1751 14.7072L67.1738 14.6572ZM67.3081 15.0479L66.5399 15.688L66.555 15.7062L66.571 15.7236L67.3081 15.0479ZM67.6377 15.292L67.1905 16.1864L67.2232 16.2028L67.2569 16.2167L67.6377 15.292ZM68.0894 15.4141L67.941 16.403L67.9654 16.4067L67.9899 16.4091L68.0894 15.4141ZM69.3345 15.1943L69.9747 15.9626L69.9777 15.96L69.3345 15.1943ZM69.4321 13.9004L68.5899 14.4394L68.6025 14.4592L68.6161 14.4784L69.4321 13.9004ZM68.1504 12.8506L67.6434 13.7125L67.6582 13.7212L67.6733 13.7294L68.1504 12.8506ZM67.2959 12.3623L67.7815 11.4881L67.774 11.484L67.7665 11.48L67.2959 12.3623ZM66.1851 11.7397L65.6705 12.5973L65.6789 12.6022L66.1851 11.7397ZM64.4517 10.104L63.5745 10.5843L63.5795 10.5933L64.4517 10.104ZM64.4761 7.35742L63.5783 6.91698L63.5748 6.92413L64.4761 7.35742ZM65.3916 6.31982L65.9384 7.15709L65.9443 7.15322L65.9502 7.14926L65.3916 6.31982ZM66.8442 5.74609L66.6508 4.76498L66.6481 4.76551L66.8442 5.74609ZM68.8096 5.55078V4.55078H68.7985L68.7874 4.55103L68.8096 5.55078ZM70.6772 5.72168L70.4347 6.69183L70.4387 6.69282L70.6772 5.72168ZM71.8247 6.17334L71.2968 7.02263L71.3101 7.03091L71.3237 7.03877L71.8247 6.17334ZM72.5449 6.78369L71.7449 7.38369L71.7517 7.39268L71.7586 7.40151L72.5449 6.78369ZM72.9355 7.47949L71.9902 7.80548L71.9971 7.82547L72.0048 7.84514L72.9355 7.47949ZM73.0942 8.13867L72.0972 8.21537L72.0986 8.23437L72.1008 8.2533L73.0942 8.13867ZM72.9722 9.28613L72.1337 8.7411L72.1267 8.75214L72.9722 9.28613ZM72.5693 9.66455L73.0513 10.5408L73.0584 10.5368L73.0655 10.5328L72.5693 9.66455ZM72.0078 9.85986L72.1599 10.8482L72.1783 10.8454L72.1967 10.8419L72.0078 9.85986ZM71.3486 9.9209V10.9209H71.3665L71.3843 10.9203L71.3486 9.9209ZM70.8115 9.82324L70.4235 10.7449L70.4318 10.7484L70.4401 10.7517L70.8115 9.82324ZM70.1401 9.24951L69.234 9.6724L69.2452 9.69657L69.2578 9.7201L70.1401 9.24951ZM70.0547 8.89551H71.0547V8.86921L71.0533 8.84295L70.0547 8.89551ZM69.6763 8.1875L69.095 9.00123L69.1017 9.00603L69.1085 9.01071L69.6763 8.1875ZM68.4312 7.99219L68.6273 8.97277L68.6506 8.9681L68.6737 8.96233L68.4312 7.99219ZM68.0894 8.13867L68.6441 8.97072L68.6514 8.96586L68.6586 8.96086L68.0894 8.13867ZM67.8452 8.40723L66.977 7.91109L66.9632 7.93519L66.9508 7.96001L67.8452 8.40723ZM66.7598 8.84668C66.7598 9.24486 66.8949 9.60605 67.1241 9.90579L68.7128 8.69089C68.718 8.69768 68.7314 8.71755 68.7429 8.75018C68.7546 8.78355 68.7598 8.81746 68.7598 8.84668H66.7598ZM67.1241 9.90579C67.3019 10.1383 67.5205 10.3375 67.7575 10.5099L68.9339 8.89244C68.8129 8.80442 68.7466 8.73505 68.7128 8.69089L67.1241 9.90579ZM67.7994 10.5388C68.0193 10.6822 68.2606 10.8209 68.521 10.9556L69.4399 9.17917C69.2283 9.06972 69.0464 8.96429 68.892 8.86356L67.7994 10.5388ZM68.5333 10.9618C68.7853 11.0878 69.0452 11.2136 69.3129 11.3391L70.1617 9.52813C69.9086 9.40946 69.6639 9.29106 69.4277 9.17296L68.5333 10.9618ZM69.2974 11.3317C69.6814 11.5197 70.0744 11.7241 70.4767 11.9449L71.4393 10.1918C71.0115 9.95692 70.5908 9.73811 70.1772 9.53553L69.2974 11.3317ZM70.4901 11.9521C70.8379 12.1363 71.1512 12.3524 71.4322 12.6L72.7543 11.0993C72.3518 10.7447 71.9082 10.4399 71.4259 10.1846L70.4901 11.9521ZM71.4322 12.6C71.6844 12.8221 71.8854 13.0769 72.04 13.3681L73.8067 12.4307C73.5381 11.9244 73.1857 11.4793 72.7543 11.0993L71.4322 12.6ZM72.0518 13.3897C72.172 13.6035 72.2529 13.8916 72.2529 14.291H74.2529C74.2529 13.6162 74.1141 12.9766 73.7949 12.4092L72.0518 13.3897ZM72.2529 14.291C72.2529 14.6806 72.1944 14.9843 72.102 15.2206L73.9644 15.9494C74.165 15.4369 74.2529 14.878 74.2529 14.291H72.2529ZM72.0952 15.2383C71.9937 15.513 71.8634 15.7338 71.7108 15.9126L73.2325 17.2105C73.552 16.8359 73.796 16.4056 73.9712 15.9316L72.0952 15.2383ZM71.7205 15.9014C71.5601 16.0839 71.3717 16.237 71.1503 16.3619L72.1329 18.1039C72.5462 17.8707 72.9112 17.5762 73.2228 17.2216L71.7205 15.9014ZM71.1406 16.3675C70.8996 16.507 70.6412 16.619 70.3634 16.7029L70.9422 18.6174C71.3643 18.4898 71.7651 18.3169 72.1426 18.0983L71.1406 16.3675ZM70.3571 16.7049C70.0754 16.7921 69.7867 16.8526 69.4901 16.8863L69.7159 18.8735C70.1355 18.8258 70.5467 18.7398 70.9485 18.6154L70.3571 16.7049ZM69.4679 16.8891C69.1486 16.9326 68.8563 16.9531 68.5898 16.9531V18.9531C68.9581 18.9531 69.3413 18.9248 69.7381 18.8707L69.4679 16.8891ZM68.5898 16.9531C68.016 16.9531 67.5486 16.9043 67.1765 16.8195L66.7317 18.7694C67.2873 18.8961 67.9105 18.9531 68.5898 18.9531V16.9531ZM67.1765 16.8195C66.7731 16.7275 66.4566 16.6138 66.2137 16.4894L65.3019 18.2694C65.7263 18.4868 66.2074 18.6498 66.7317 18.7694L67.1765 16.8195ZM66.2306 16.4982C65.9651 16.3557 65.7722 16.2115 65.6348 16.0741L64.2206 17.4884C64.5227 17.7904 64.8833 18.045 65.285 18.2606L66.2306 16.4982ZM65.6605 16.1008C65.5048 15.9331 65.3958 15.7743 65.3217 15.626L63.5328 16.5205C63.7028 16.8605 63.9275 17.1737 64.1949 17.4617L65.6605 16.1008ZM65.3217 15.626C65.2333 15.4493 65.1793 15.2912 65.1502 15.1504L63.1916 15.5556C63.2602 15.8869 63.377 16.2089 63.5328 16.5205L65.3217 15.626ZM65.1515 15.1569C65.1128 14.9636 65.0977 14.8066 65.0977 14.6816H63.0977C63.0977 14.9636 63.1313 15.2542 63.1903 15.5491L65.1515 15.1569ZM65.0977 14.6816C65.0977 14.5257 65.1195 14.4385 65.1347 14.398C65.1473 14.3644 65.1541 14.3643 65.1475 14.3699L63.8535 12.8449C63.284 13.3281 63.0977 14.0184 63.0977 14.6816H65.0977ZM65.1362 14.3794C65.157 14.3622 65.3041 14.2656 65.7578 14.2656V12.2656C65.0885 12.2656 64.3973 12.3969 63.8648 12.8355L65.1362 14.3794ZM65.7578 14.2656C65.9766 14.2656 66.0674 14.3203 66.1139 14.3595L67.4037 12.8309C66.9293 12.4307 66.3528 12.2656 65.7578 12.2656V14.2656ZM66.1139 14.3595C66.1026 14.3499 66.1108 14.3495 66.1265 14.3895C66.1445 14.4357 66.169 14.529 66.1744 14.6905L68.1733 14.6239C68.1518 13.9782 67.9606 13.3009 67.4037 12.8309L66.1139 14.3595ZM66.1751 14.7072C66.191 15.025 66.2849 15.382 66.5399 15.688L68.0763 14.4077C68.1686 14.5184 68.173 14.615 68.1726 14.6073L66.1751 14.7072ZM66.571 15.7236C66.7507 15.9197 66.9619 16.0721 67.1905 16.1864L68.0849 14.3976C68.0684 14.3893 68.0583 14.3826 68.0529 14.3786C68.0476 14.3747 68.0455 14.3724 68.0453 14.3721L66.571 15.7236ZM67.2569 16.2167C67.4769 16.3072 67.7063 16.3678 67.941 16.403L68.2377 14.4251C68.1468 14.4115 68.0752 14.3907 68.0184 14.3673L67.2569 16.2167ZM67.9899 16.4091C68.1838 16.4285 68.3757 16.4385 68.5654 16.4385V14.4385C68.4459 14.4385 68.3204 14.4322 68.1889 14.419L67.9899 16.4091ZM68.5654 16.4385C69.057 16.4385 69.5585 16.3094 69.9747 15.9626L68.6943 14.4261C68.7018 14.4198 68.7051 14.4205 68.6931 14.4243C68.6786 14.4289 68.6394 14.4385 68.5654 14.4385V16.4385ZM69.9777 15.96C70.4101 15.5968 70.6396 15.0955 70.6396 14.5352H68.6396C68.6396 14.5403 68.6394 14.5168 68.6559 14.4812C68.6725 14.4454 68.6917 14.4283 68.6913 14.4286L69.9777 15.96ZM70.6396 14.5352C70.6396 14.0894 70.4998 13.6776 70.2482 13.3224L68.6161 14.4784C68.6317 14.5004 68.6361 14.5127 68.6373 14.5163C68.6383 14.5194 68.6396 14.5242 68.6396 14.5352H70.6396ZM70.2744 13.3613C70.0743 13.0487 69.8172 12.7798 69.5212 12.5495L68.2933 14.1282C68.4367 14.2397 68.5295 14.3452 68.5899 14.4394L70.2744 13.3613ZM69.5212 12.5495C69.252 12.3402 68.9527 12.1483 68.6275 11.9717L67.6733 13.7294C67.9177 13.8621 68.123 13.9958 68.2933 14.1282L69.5212 12.5495ZM68.6574 11.9887C68.3733 11.8216 68.0814 11.6547 67.7815 11.4881L66.8103 13.2365C67.0964 13.3954 67.3741 13.5541 67.6434 13.7125L68.6574 11.9887ZM67.7665 11.48C67.4128 11.2913 67.0544 11.0905 66.6913 10.8773L65.6789 12.6022C66.0644 12.8285 66.4466 13.0427 66.8253 13.2447L67.7665 11.48ZM66.6996 10.8823C66.384 10.6929 66.1014 10.4855 65.8497 10.261L64.5185 11.7536C64.869 12.0662 65.2537 12.3471 65.6706 12.5972L66.6996 10.8823ZM65.8497 10.261C65.6266 10.0621 65.4539 9.84672 65.3238 9.61475L63.5795 10.5933C63.8237 11.0286 64.1393 11.4155 64.5185 11.7536L65.8497 10.261ZM65.3288 9.62369C65.2306 9.4444 65.1709 9.22607 65.1709 8.94434H63.1709C63.1709 9.52523 63.2984 10.08 63.5746 10.5843L65.3288 9.62369ZM65.1709 8.94434C65.1709 8.40949 65.2576 8.03984 65.3773 7.79072L63.5748 6.92413C63.2877 7.52136 63.1709 8.20965 63.1709 8.94434H65.1709ZM65.3739 7.79785C65.507 7.52648 65.6916 7.31829 65.9384 7.15709L64.8448 5.48255C64.2941 5.84219 63.8683 6.32573 63.5783 6.917L65.3739 7.79785ZM65.9502 7.14926C66.219 6.96823 66.5739 6.81996 67.0404 6.72667L66.6481 4.76551C65.9752 4.9001 65.3617 5.13431 64.833 5.49039L65.9502 7.14926ZM67.0377 6.7272C67.5474 6.6267 68.1436 6.56583 68.8318 6.55053L68.7874 4.55103C68.0107 4.56829 67.2967 4.63762 66.6508 4.76499L67.0377 6.7272ZM68.8096 6.55078H69.0049V4.55078H68.8096V6.55078ZM69.0049 6.55078C69.6124 6.55078 70.083 6.60388 70.4347 6.69182L70.9198 4.75154C70.3601 4.61161 69.7158 4.55078 69.0049 4.55078V6.55078ZM70.4387 6.69282C70.8334 6.78976 71.1101 6.90657 71.2968 7.02263L72.3526 5.32405C71.9371 5.06576 71.4488 4.88147 70.9158 4.75054L70.4387 6.69282ZM71.3237 7.03877C71.5451 7.16694 71.6725 7.28718 71.7449 7.38369L73.3449 6.18369C73.0755 5.82448 72.7228 5.53781 72.3257 5.30791L71.3237 7.03877ZM71.7586 7.40151C71.8796 7.55548 71.9505 7.69038 71.9902 7.80548L73.8809 7.1535C73.7578 6.7966 73.5683 6.46763 73.3312 6.16587L71.7586 7.40151ZM72.0048 7.84514C72.0634 7.99442 72.0896 8.11672 72.0972 8.21537L74.0913 8.06198C74.0663 7.73745 73.9867 7.4203 73.8663 7.11384L72.0048 7.84514ZM72.1008 8.2533C72.1226 8.44225 72.1309 8.58049 72.1309 8.67578H74.1309C74.1309 8.4781 74.1147 8.25827 74.0876 8.02405L72.1008 8.2533ZM72.1309 8.67578C72.1309 8.72626 72.1253 8.75224 72.1234 8.75984C72.1217 8.76608 72.1233 8.75713 72.1337 8.74114L73.8106 9.83112C74.046 9.46897 74.1309 9.06368 74.1309 8.67578H72.1309ZM72.1267 8.75214C72.123 8.75801 72.1132 8.77346 72.0732 8.79631L73.0655 10.5328C73.3673 10.3603 73.6261 10.1235 73.8177 9.82013L72.1267 8.75214ZM72.0874 8.78833C72.0295 8.82018 71.944 8.85381 71.819 8.87786L72.1967 10.8419C72.4948 10.7845 72.7836 10.688 73.0513 10.5408L72.0874 8.78833ZM71.8558 8.87149C71.6851 8.89775 71.5043 8.9147 71.3129 8.92154L71.3843 10.9203C71.6487 10.9108 71.9073 10.8871 72.1599 10.8482L71.8558 8.87149ZM71.3486 8.9209C71.266 8.9209 71.2148 8.90752 71.1829 8.89477L70.4401 10.7517C70.7338 10.8692 71.0406 10.9209 71.3486 10.9209V8.9209ZM71.1996 8.90161C71.1293 8.87201 71.0861 8.84266 71.0595 8.81984L69.7579 10.3384C69.9591 10.5109 70.1845 10.6443 70.4235 10.7449L71.1996 8.90161ZM71.0595 8.81984C71.032 8.79628 71.0243 8.78224 71.0225 8.77892L69.2578 9.7201C69.3862 9.96093 69.5575 10.1666 69.7579 10.3384L71.0595 8.81984ZM71.0463 8.82663C71.04 8.81307 71.0547 8.83906 71.0547 8.89551H69.0547C69.0547 9.17982 69.1263 9.44181 69.234 9.6724L71.0463 8.82663ZM71.0533 8.84295C71.0222 8.25257 70.7582 7.71887 70.244 7.36429L69.1085 9.01071C69.1086 9.01079 69.107 9.00964 69.104 9.00705C69.101 9.00444 69.097 9.00065 69.0924 8.9956C69.0827 8.98495 69.0734 8.97197 69.0659 8.95795C69.0498 8.92775 69.0544 8.91697 69.0561 8.94807L71.0533 8.84295ZM70.2575 7.37377C69.8295 7.06807 69.3352 6.94336 68.834 6.94336V8.94336C69.0001 8.94336 69.0673 8.98141 69.095 9.00123L70.2575 7.37377ZM68.834 6.94336C68.6164 6.94336 68.4006 6.96906 68.1886 7.02204L68.6737 8.96233C68.7222 8.95021 68.7749 8.94336 68.834 8.94336V6.94336ZM68.235 7.01161C67.9746 7.0637 67.7343 7.1682 67.5201 7.31648L68.6586 8.96086C68.6587 8.96079 68.6578 8.96142 68.6559 8.96248C68.654 8.96354 68.6513 8.96486 68.6481 8.96626C68.6411 8.96924 68.6338 8.97146 68.6273 8.97277L68.235 7.01161ZM67.5347 7.30662C67.2933 7.46756 67.1099 7.67845 66.977 7.91109L68.7135 8.90337C68.7128 8.90445 68.7073 8.91375 68.695 8.92731C68.6824 8.94118 68.6653 8.95654 68.6441 8.97072L67.5347 7.30662ZM66.9508 7.96001C66.8021 8.25742 66.7598 8.57147 66.7598 8.84668H68.7598C68.7598 8.82829 68.7605 8.81478 68.7613 8.80567C68.7621 8.79655 68.7629 8.7927 68.7627 8.79341C68.7626 8.79435 68.7579 8.81783 68.7396 8.85444L66.9508 7.96001Z" fill="#7D3D3D"/>
</g>
<defs>
<filter id="filter0_bd_3_1667" x="0.917969" y="-3.33203" width="76.335" height="29.2852" filterUnits="userSpaceOnUse" color-interpolation-filters="sRGB">
<feFlood flood-opacity="0" result="BackgroundImageFix"/>
<feGaussianBlur in="BackgroundImage" stdDeviation="2"/>
<feComposite in2="SourceAlpha" operator="in" result="effect1_backgroundBlur_3_1667"/>
<feColorMatrix in="SourceAlpha" type="matrix" values="0 0 0 0 0 0 0 0 0 0 0 0 0 0 0 0 0 0 127 0" result="hardAlpha"/>
<feOffset dy="4"/>
<feGaussianBlur stdDeviation="2"/>
<feComposite in2="hardAlpha" operator="out"/>
<feColorMatrix type="matrix" values="0 0 0 0 0 0 0 0 0 0 0 0 0 0 0 0 0 0 0.25 0"/>
<feBlend mode="normal" in2="effect1_backgroundBlur_3_1667" result="effect2_dropShadow_3_1667"/>
<feBlend mode="normal" in="SourceGraphic" in2="effect2_dropShadow_3_1667" result="shape"/>
</filter>
</defs>
</svg>
